 0
SECTION
 2
ENTITIES
  0
POLYLINE
 8
GROUP0
 66
     1
70
    8
 10
0.0
 20
 0.0
 30
0.0
  0
VERTEX
  8
MY3DLAYER
10
18.0
20
5.0
30
0.0
 70
     32
  0
VERTEX
  8
MY3DLAYER
10
18.0
20
4.875
30
0.0
 70
     32
  0
VERTEX
  8
MY3DLAYER
10
18.125
20
4.875
30
0.0
 70
     32
  0
VERTEX
  8
MY3DLAYER
10
18.125
20
5.0
30
0.0
 70
     32
  0
VERTEX
  8
MY3DLAYER
10
18.0
20
5.0
30
0.0
 70
     32
  0
SEQEND
  0
POLYLINE
 8
GROUP0
 66
     1
70
    8
 10
0.0
 20
 0.0
 30
0.0
  0
VERTEX
  8
MY3DLAYER
10
18.0
20
4.75
30
3.33066907387547e-015
 70
     32
  0
VERTEX
  8
MY3DLAYER
10
18.0
20
2.5625
30
5.42899059041702e-014
 70
     32
  0
VERTEX
  8
MY3DLAYER
10
18.125
20
2.5625
30
2.73669975570101e-014
 70
     32
  0
VERTEX
  8
MY3DLAYER
10
18.125
20
4.75
30
1.66533453693773e-015
 70
     32
  0
VERTEX
  8
MY3DLAYER
10
18.0
20
4.75
30
3.33066907387547e-015
 70
     32
  0
SEQEND
  0
POLYLINE
 8
GROUP0
 66
     1
70
    8
 10
0.0
 20
 0.0
 30
0.0
  0
VERTEX
  8
MY3DLAYER
10
32.75
20
0.125
30
1.66533453693773e-016
 70
     32
  0
VERTEX
  8
MY3DLAYER
10
28.0
20
0.125
30
-7.7715611723761e-016
 70
     32
  0
VERTEX
  8
MY3DLAYER
10
28.0
20
1.11022302462516e-016
30
-3.88578058618805e-016
 70
     32
  0
VERTEX
  8
MY3DLAYER
10
32.75
20
1.11022302462516e-016
30
1.11022302462516e-016
 70
     32
  0
VERTEX
  8
MY3DLAYER
10
32.75
20
0.125
30
1.66533453693773e-016
 70
     32
  0
SEQEND
  0
POLYLINE
 8
GROUP0
 66
     1
70
    8
 10
0.0
 20
 0.0
 30
0.0
  0
VERTEX
  8
MY3DLAYER
10
32.75
20
5.0
30
0.0
 70
     32
  0
VERTEX
  8
MY3DLAYER
10
28.0
20
5.0
30
1.0547118733939e-015
 70
     32
  0
VERTEX
  8
MY3DLAYER
10
28.0
20
4.875
30
5.55111512312578e-016
 70
     32
  0
VERTEX
  8
MY3DLAYER
10
32.75
20
4.875
30
0.0
 70
     32
  0
VERTEX
  8
MY3DLAYER
10
32.75
20
5.0
30
0.0
 70
     32
  0
SEQEND
  0
POLYLINE
 8
GROUP0
 66
     1
70
    8
 10
0.0
 20
 0.0
 30
0.0
  0
VERTEX
  8
MY3DLAYER
10
18.25
20
1.11022302462516e-016
30
0.0
 70
     32
  0
VERTEX
  8
MY3DLAYER
10
23.0
20
1.11022302462516e-016
30
-9.32587340685131e-015
 70
     32
  0
VERTEX
  8
MY3DLAYER
10
23.0
20
0.125
30
-5.71764857681956e-015
 70
     32
  0
VERTEX
  8
MY3DLAYER
10
18.25
20
0.125
30
1.11022302462516e-016
 70
     32
  0
VERTEX
  8
MY3DLAYER
10
18.25
20
1.11022302462516e-016
30
0.0
 70
     32
  0
SEQEND
  0
POLYLINE
 8
GROUP0
 66
     1
70
    8
 10
0.0
 20
 0.0
 30
0.0
  0
VERTEX
  8
MY3DLAYER
10
18.25
20
4.875
30
0.0
 70
     32
  0
VERTEX
  8
MY3DLAYER
10
23.0
20
4.875
30
9.43689570931383e-015
 70
     32
  0
VERTEX
  8
MY3DLAYER
10
23.0
20
5.0
30
2.12607709215717e-014
 70
     32
  0
VERTEX
  8
MY3DLAYER
10
18.25
20
5.0
30
0.0
 70
     32
  0
VERTEX
  8
MY3DLAYER
10
18.25
20
4.875
30
0.0
 70
     32
  0
SEQEND
  0
POLYLINE
 8
GROUP0
 66
     1
70
    8
 10
0.0
 20
 0.0
 30
0.0
  0
VERTEX
  8
MY3DLAYER
10
32.75
20
4.75
30
0.0
 70
     32
  0
VERTEX
  8
MY3DLAYER
10
28.0
20
4.75
30
6.10622663543836e-016
 70
     32
  0
VERTEX
  8
MY3DLAYER
10
28.0
20
2.5625
30
1.11022302462516e-015
 70
     32
  0
VERTEX
  8
MY3DLAYER
10
32.75
20
2.5625
30
5.55111512312578e-016
 70
     32
  0
VERTEX
  8
MY3DLAYER
10
32.75
20
4.75
30
0.0
 70
     32
  0
SEQEND
  0
POLYLINE
 8
GROUP0
 66
     1
70
    8
 10
0.0
 20
 0.0
 30
0.0
  0
VERTEX
  8
MY3DLAYER
10
32.75
20
2.4375
30
5.55111512312578e-016
 70
     32
  0
VERTEX
  8
MY3DLAYER
10
28.0
20
2.4375
30
9.99200722162641e-016
 70
     32
  0
VERTEX
  8
MY3DLAYER
10
28.0
20
0.25
30
-7.21644966006352e-016
 70
     32
  0
VERTEX
  8
MY3DLAYER
10
32.75
20
0.25
30
1.66533453693773e-016
 70
     32
  0
VERTEX
  8
MY3DLAYER
10
32.75
20
2.4375
30
5.55111512312578e-016
 70
     32
  0
SEQEND
  0
POLYLINE
 8
GROUP0
 66
     1
70
    8
 10
0.0
 20
 0.0
 30
0.0
  0
VERTEX
  8
MY3DLAYER
10
23.125
20
1.11022302462516e-016
30
-6.21724893790088e-015
 70
     32
  0
VERTEX
  8
MY3DLAYER
10
27.875
20
1.11022302462516e-016
30
-9.99200722162641e-016
 70
     32
  0
VERTEX
  8
MY3DLAYER
10
27.875
20
0.125
30
-1.22124532708767e-015
 70
     32
  0
VERTEX
  8
MY3DLAYER
10
23.125
20
0.125
30
-2.99760216648792e-015
 70
     32
  0
VERTEX
  8
MY3DLAYER
10
23.125
20
1.11022302462516e-016
30
-6.21724893790088e-015
 70
     32
  0
SEQEND
  0
POLYLINE
 8
GROUP0
 66
     1
70
    8
 10
0.0
 20
 0.0
 30
0.0
  0
VERTEX
  8
MY3DLAYER
10
23.125
20
4.875
30
-1.60982338570648e-015
 70
     32
  0
VERTEX
  8
MY3DLAYER
10
27.875
20
4.875
30
1.11022302462516e-016
 70
     32
  0
VERTEX
  8
MY3DLAYER
10
27.875
20
5.0
30
1.0547118733939e-015
 70
     32
  0
VERTEX
  8
MY3DLAYER
10
23.125
20
5.0
30
-3.10862446895044e-015
 70
     32
  0
VERTEX
  8
MY3DLAYER
10
23.125
20
4.875
30
-1.60982338570648e-015
 70
     32
  0
SEQEND
  0
POLYLINE
 8
GROUP0
 66
     1
70
    8
 10
0.0
 20
 0.0
 30
0.0
  0
VERTEX
  8
MY3DLAYER
10
18.25
20
2.5625
30
2.71449529520851e-014
 70
     32
  0
VERTEX
  8
MY3DLAYER
10
23.0
20
2.5625
30
6.82787160144471e-015
 70
     32
  0
VERTEX
  8
MY3DLAYER
10
23.0
20
4.75
30
9.32587340685131e-015
 70
     32
  0
VERTEX
  8
MY3DLAYER
10
18.25
20
4.75
30
1.66533453693773e-015
 70
     32
  0
VERTEX
  8
MY3DLAYER
10
18.25
20
2.5625
30
2.71449529520851e-014
 70
     32
  0
SEQEND
  0
POLYLINE
 8
GROUP0
 66
     1
70
    8
 10
0.0
 20
 0.0
 30
0.0
  0
VERTEX
  8
MY3DLAYER
10
23.125
20
2.5625
30
6.77236045021345e-015
 70
     32
  0
VERTEX
  8
MY3DLAYER
10
27.875
20
2.5625
30
1.88737914186277e-015
 70
     32
  0
VERTEX
  8
MY3DLAYER
10
27.875
20
4.75
30
2.22044604925031e-016
 70
     32
  0
VERTEX
  8
MY3DLAYER
10
23.125
20
4.75
30
-1.11022302462516e-015
 70
     32
  0
VERTEX
  8
MY3DLAYER
10
23.125
20
2.5625
30
6.77236045021345e-015
 70
     32
  0
SEQEND
  0
POLYLINE
 8
GROUP0
 66
     1
70
    8
 10
0.0
 20
 0.0
 30
0.0
  0
VERTEX
  8
MY3DLAYER
10
18.125
20
5.0
30
0.0
 70
     32
  0
VERTEX
  8
MY3DLAYER
10
18.125
20
4.875
30
0.0
 70
     32
  0
VERTEX
  8
MY3DLAYER
10
18.25
20
4.875
30
0.0
 70
     32
  0
VERTEX
  8
MY3DLAYER
10
18.25
20
5.0
30
0.0
 70
     32
  0
VERTEX
  8
MY3DLAYER
10
18.125
20
5.0
30
0.0
 70
     32
  0
SEQEND
  0
POLYLINE
 8
GROUP0
 66
     1
70
    8
 10
0.0
 20
 0.0
 30
0.0
  0
VERTEX
  8
MY3DLAYER
10
18.125
20
1.11022302462516e-016
30
0.0
 70
     32
  0
VERTEX
  8
MY3DLAYER
10
18.125
20
0.125
30
1.11022302462516e-016
 70
     32
  0
VERTEX
  8
MY3DLAYER
10
18.0
20
0.125
30
2.22044604925031e-016
 70
     32
  0
VERTEX
  8
MY3DLAYER
10
18.0
20
1.11022302462516e-016
30
0.0
 70
     32
  0
VERTEX
  8
MY3DLAYER
10
18.125
20
1.11022302462516e-016
30
0.0
 70
     32
  0
SEQEND
  0
POLYLINE
 8
GROUP0
 66
     1
70
    8
 10
0.0
 20
 0.0
 30
0.0
  0
VERTEX
  8
MY3DLAYER
10
33.0
20
0.125
30
2.22044604925031e-016
 70
     32
  0
VERTEX
  8
MY3DLAYER
10
32.875
20
0.125
30
1.66533453693773e-016
 70
     32
  0
VERTEX
  8
MY3DLAYER
10
32.875
20
1.11022302462516e-016
30
1.11022302462516e-016
 70
     32
  0
VERTEX
  8
MY3DLAYER
10
33.0
20
1.11022302462516e-016
30
0.0
 70
     32
  0
VERTEX
  8
MY3DLAYER
10
33.0
20
0.125
30
2.22044604925031e-016
 70
     32
  0
SEQEND
  0
POLYLINE
 8
GROUP0
 66
     1
70
    8
 10
0.0
 20
 0.0
 30
0.0
  0
VERTEX
  8
MY3DLAYER
10
33.0
20
5.0
30
0.0
 70
     32
  0
VERTEX
  8
MY3DLAYER
10
32.875
20
5.0
30
0.0
 70
     32
  0
VERTEX
  8
MY3DLAYER
10
32.875
20
4.875
30
0.0
 70
     32
  0
VERTEX
  8
MY3DLAYER
10
33.0
20
4.875
30
0.0
 70
     32
  0
VERTEX
  8
MY3DLAYER
10
33.0
20
5.0
30
0.0
 70
     32
  0
SEQEND
  0
POLYLINE
 8
GROUP0
 66
     1
70
    8
 10
0.0
 20
 0.0
 30
0.0
  0
VERTEX
  8
MY3DLAYER
10
18.125
20
0.25
30
1.11022302462516e-016
 70
     32
  0
VERTEX
  8
MY3DLAYER
10
18.125
20
2.4375
30
2.57016630200724e-014
 70
     32
  0
VERTEX
  8
MY3DLAYER
10
18.0
20
2.4375
30
2.57571741713036e-014
 70
     32
  0
VERTEX
  8
MY3DLAYER
10
18.0
20
0.25
30
2.22044604925031e-016
 70
     32
  0
VERTEX
  8
MY3DLAYER
10
18.125
20
0.25
30
1.11022302462516e-016
 70
     32
  0
SEQEND
  0
POLYLINE
 8
GROUP0
 66
     1
70
    8
 10
0.0
 20
 0.0
 30
0.0
  0
VERTEX
  8
MY3DLAYER
10
32.875
20
4.75
30
0.0
 70
     32
  0
VERTEX
  8
MY3DLAYER
10
32.875
20
2.5625
30
3.33066907387547e-016
 70
     32
  0
VERTEX
  8
MY3DLAYER
10
33.0
20
2.5625
30
1.11022302462516e-016
 70
     32
  0
VERTEX
  8
MY3DLAYER
10
33.0
20
4.75
30
0.0
 70
     32
  0
VERTEX
  8
MY3DLAYER
10
32.875
20
4.75
30
0.0
 70
     32
  0
SEQEND
  0
POLYLINE
 8
GROUP0
 66
     1
70
    8
 10
0.0
 20
 0.0
 30
0.0
  0
VERTEX
  8
MY3DLAYER
10
33.0
20
0.25
30
2.22044604925031e-016
 70
     32
  0
VERTEX
  8
MY3DLAYER
10
33.0
20
2.4375
30
1.11022302462516e-016
 70
     32
  0
VERTEX
  8
MY3DLAYER
10
32.875
20
2.4375
30
3.33066907387547e-016
 70
     32
  0
VERTEX
  8
MY3DLAYER
10
32.875
20
0.25
30
1.66533453693773e-016
 70
     32
  0
VERTEX
  8
MY3DLAYER
10
33.0
20
0.25
30
2.22044604925031e-016
 70
     32
  0
SEQEND
  0
POLYLINE
 8
GROUP0
 66
     1
70
    8
 10
0.0
 20
 0.0
 30
0.0
  0
VERTEX
  8
MY3DLAYER
10
18.125
20
2.5625
30
2.73669975570101e-014
 70
     32
  0
VERTEX
  8
MY3DLAYER
10
18.0
20
2.5625
30
5.42899059041702e-014
 70
     32
  0
VERTEX
  8
MY3DLAYER
10
18.0
20
2.4375
30
2.57571741713036e-014
 70
     32
  0
VERTEX
  8
MY3DLAYER
10
18.125
20
2.4375
30
2.57016630200724e-014
 70
     32
  0
VERTEX
  8
MY3DLAYER
10
18.125
20
2.5625
30
2.73669975570101e-014
 70
     32
  0
SEQEND
  0
POLYLINE
 8
GROUP0
 66
     1
70
    8
 10
0.0
 20
 0.0
 30
0.0
  0
VERTEX
  8
MY3DLAYER
10
18.25
20
4.875
30
0.0
 70
     32
  0
VERTEX
  8
MY3DLAYER
10
18.125
20
4.875
30
0.0
 70
     32
  0
VERTEX
  8
MY3DLAYER
10
18.125
20
4.75
30
1.66533453693773e-015
 70
     32
  0
VERTEX
  8
MY3DLAYER
10
18.25
20
4.75
30
1.66533453693773e-015
 70
     32
  0
VERTEX
  8
MY3DLAYER
10
18.25
20
4.875
30
0.0
 70
     32
  0
SEQEND
  0
POLYLINE
 8
GROUP0
 66
     1
70
    8
 10
0.0
 20
 0.0
 30
0.0
  0
VERTEX
  8
MY3DLAYER
10
18.0
20
4.75
30
3.33066907387547e-015
 70
     32
  0
VERTEX
  8
MY3DLAYER
10
18.125
20
4.75
30
1.66533453693773e-015
 70
     32
  0
VERTEX
  8
MY3DLAYER
10
18.125
20
4.875
30
0.0
 70
     32
  0
VERTEX
  8
MY3DLAYER
10
18.0
20
4.875
30
0.0
 70
     32
  0
VERTEX
  8
MY3DLAYER
10
18.0
20
4.75
30
3.33066907387547e-015
 70
     32
  0
SEQEND
  0
POLYLINE
 8
GROUP0
 66
     1
70
    8
 10
0.0
 20
 0.0
 30
0.0
  0
VERTEX
  8
MY3DLAYER
10
18.25
20
1.11022302462516e-016
30
0.0
 70
     32
  0
VERTEX
  8
MY3DLAYER
10
18.25
20
0.125
30
1.11022302462516e-016
 70
     32
  0
VERTEX
  8
MY3DLAYER
10
18.125
20
0.125
30
1.11022302462516e-016
 70
     32
  0
VERTEX
  8
MY3DLAYER
10
18.125
20
0.25
30
1.11022302462516e-016
 70
     32
  0
VERTEX
  8
MY3DLAYER
10
18.25
20
0.25
30
1.11022302462516e-016
 70
     32
  0
VERTEX
  8
MY3DLAYER
10
23.0
20
0.25
30
-5.32907051820075e-015
 70
     32
  0
VERTEX
  8
MY3DLAYER
10
23.0
20
2.4375
30
6.16173778666962e-015
 70
     32
  0
VERTEX
  8
MY3DLAYER
10
18.25
20
2.4375
30
2.55351295663786e-014
 70
     32
  0
VERTEX
  8
MY3DLAYER
10
18.125
20
2.4375
30
2.57016630200724e-014
 70
     32
  0
VERTEX
  8
MY3DLAYER
10
18.125
20
0.25
30
1.11022302462516e-016
 70
     32
  0
VERTEX
  8
MY3DLAYER
10
18.0
20
0.25
30
2.22044604925031e-016
 70
     32
  0
VERTEX
  8
MY3DLAYER
10
18.0
20
0.125
30
2.22044604925031e-016
 70
     32
  0
VERTEX
  8
MY3DLAYER
10
18.125
20
0.125
30
1.11022302462516e-016
 70
     32
  0
VERTEX
  8
MY3DLAYER
10
18.125
20
1.11022302462516e-016
30
0.0
 70
     32
  0
VERTEX
  8
MY3DLAYER
10
18.25
20
1.11022302462516e-016
30
0.0
 70
     32
  0
SEQEND
  0
POLYLINE
 8
GROUP0
 66
     1
70
    8
 10
0.0
 20
 0.0
 30
0.0
  0
VERTEX
  8
MY3DLAYER
10
18.25
20
2.5625
30
2.71449529520851e-014
 70
     32
  0
VERTEX
  8
MY3DLAYER
10
18.25
20
4.75
30
1.66533453693773e-015
 70
     32
  0
VERTEX
  8
MY3DLAYER
10
18.125
20
4.75
30
1.66533453693773e-015
 70
     32
  0
VERTEX
  8
MY3DLAYER
10
18.125
20
2.5625
30
2.73669975570101e-014
 70
     32
  0
VERTEX
  8
MY3DLAYER
10
18.25
20
2.5625
30
2.71449529520851e-014
 70
     32
  0
SEQEND
  0
POLYLINE
 8
GROUP0
 66
     1
70
    8
 10
0.0
 20
 0.0
 30
0.0
  0
VERTEX
  8
MY3DLAYER
10
18.25
20
2.4375
30
2.55351295663786e-014
 70
     32
  0
VERTEX
  8
MY3DLAYER
10
18.125
20
2.4375
30
2.57016630200724e-014
 70
     32
  0
VERTEX
  8
MY3DLAYER
10
18.125
20
2.5625
30
2.73669975570101e-014
 70
     32
  0
VERTEX
  8
MY3DLAYER
10
18.25
20
2.5625
30
2.71449529520851e-014
 70
     32
  0
VERTEX
  8
MY3DLAYER
10
18.25
20
2.4375
30
2.55351295663786e-014
 70
     32
  0
VERTEX
  8
MY3DLAYER
10
18.25
20
0.25
30
1.11022302462516e-016
 70
     32
  0
VERTEX
  8
MY3DLAYER
10
23.0
20
0.25
30
-5.32907051820075e-015
 70
     32
  0
VERTEX
  8
MY3DLAYER
10
23.0
20
2.4375
30
6.16173778666962e-015
 70
     32
  0
VERTEX
  8
MY3DLAYER
10
18.25
20
2.4375
30
2.55351295663786e-014
 70
     32
  0
SEQEND
  0
POLYLINE
 8
GROUP0
 66
     1
70
    8
 10
0.0
 20
 0.0
 30
0.0
  0
VERTEX
  8
MY3DLAYER
10
18.25
20
0.125
30
1.11022302462516e-016
 70
     32
  0
VERTEX
  8
MY3DLAYER
10
18.25
20
0.25
30
1.11022302462516e-016
 70
     32
  0
VERTEX
  8
MY3DLAYER
10
18.125
20
0.25
30
1.11022302462516e-016
 70
     32
  0
VERTEX
  8
MY3DLAYER
10
18.125
20
0.125
30
1.11022302462516e-016
 70
     32
  0
VERTEX
  8
MY3DLAYER
10
18.25
20
0.125
30
1.11022302462516e-016
 70
     32
  0
SEQEND
  0
POLYLINE
 8
GROUP0
 66
     1
70
    8
 10
0.0
 20
 0.0
 30
0.0
  0
VERTEX
  8
MY3DLAYER
10
18.25
20
2.4375
30
2.55351295663786e-014
 70
     32
  0
VERTEX
  8
MY3DLAYER
10
18.25
20
2.5625
30
2.71449529520851e-014
 70
     32
  0
VERTEX
  8
MY3DLAYER
10
18.125
20
2.5625
30
2.73669975570101e-014
 70
     32
  0
VERTEX
  8
MY3DLAYER
10
18.125
20
2.4375
30
2.57016630200724e-014
 70
     32
  0
VERTEX
  8
MY3DLAYER
10
18.25
20
2.4375
30
2.55351295663786e-014
 70
     32
  0
SEQEND
  0
POLYLINE
 8
GROUP0
 66
     1
70
    8
 10
0.0
 20
 0.0
 30
0.0
  0
VERTEX
  8
MY3DLAYER
10
23.0
20
5.0
30
2.12607709215717e-014
 70
     32
  0
VERTEX
  8
MY3DLAYER
10
23.0
20
4.875
30
9.43689570931383e-015
 70
     32
  0
VERTEX
  8
MY3DLAYER
10
23.125
20
4.875
30
-1.60982338570648e-015
 70
     32
  0
VERTEX
  8
MY3DLAYER
10
23.125
20
5.0
30
-3.10862446895044e-015
 70
     32
  0
VERTEX
  8
MY3DLAYER
10
23.0
20
5.0
30
2.12607709215717e-014
 70
     32
  0
SEQEND
  0
POLYLINE
 8
GROUP0
 66
     1
70
    8
 10
0.0
 20
 0.0
 30
0.0
  0
VERTEX
  8
MY3DLAYER
10
23.0
20
4.75
30
9.32587340685131e-015
 70
     32
  0
VERTEX
  8
MY3DLAYER
10
23.125
20
4.75
30
-1.11022302462516e-015
 70
     32
  0
VERTEX
  8
MY3DLAYER
10
23.125
20
4.875
30
-1.60982338570648e-015
 70
     32
  0
VERTEX
  8
MY3DLAYER
10
23.0
20
4.875
30
9.43689570931383e-015
 70
     32
  0
VERTEX
  8
MY3DLAYER
10
23.0
20
4.75
30
9.32587340685131e-015
 70
     32
  0
SEQEND
  0
POLYLINE
 8
GROUP0
 66
     1
70
    8
 10
0.0
 20
 0.0
 30
0.0
  0
VERTEX
  8
MY3DLAYER
10
23.125
20
1.11022302462516e-016
30
-6.21724893790088e-015
 70
     32
  0
VERTEX
  8
MY3DLAYER
10
23.125
20
0.125
30
-2.99760216648792e-015
 70
     32
  0
VERTEX
  8
MY3DLAYER
10
23.0
20
0.125
30
-5.71764857681956e-015
 70
     32
  0
VERTEX
  8
MY3DLAYER
10
23.0
20
0.25
30
-5.32907051820075e-015
 70
     32
  0
VERTEX
  8
MY3DLAYER
10
18.25
20
0.25
30
1.11022302462516e-016
 70
     32
  0
VERTEX
  8
MY3DLAYER
10
18.25
20
0.125
30
1.11022302462516e-016
 70
     32
  0
VERTEX
  8
MY3DLAYER
10
23.0
20
0.125
30
-5.71764857681956e-015
 70
     32
  0
VERTEX
  8
MY3DLAYER
10
23.0
20
1.11022302462516e-016
30
-9.32587340685131e-015
 70
     32
  0
VERTEX
  8
MY3DLAYER
10
23.125
20
1.11022302462516e-016
30
-6.21724893790088e-015
 70
     32
  0
SEQEND
  0
POLYLINE
 8
GROUP0
 66
     1
70
    8
 10
0.0
 20
 0.0
 30
0.0
  0
VERTEX
  8
MY3DLAYER
10
23.0
20
2.5625
30
6.82787160144471e-015
 70
     32
  0
VERTEX
  8
MY3DLAYER
10
23.125
20
2.5625
30
6.77236045021345e-015
 70
     32
  0
VERTEX
  8
MY3DLAYER
10
23.125
20
2.4375
30
6.21724893790088e-015
 70
     32
  0
VERTEX
  8
MY3DLAYER
10
23.125
20
0.25
30
-2.99760216648792e-015
 70
     32
  0
VERTEX
  8
MY3DLAYER
10
27.875
20
0.25
30
-1.16573417585641e-015
 70
     32
  0
VERTEX
  8
MY3DLAYER
10
27.875
20
2.4375
30
1.72084568816899e-015
 70
     32
  0
VERTEX
  8
MY3DLAYER
10
23.125
20
2.4375
30
6.21724893790088e-015
 70
     32
  0
VERTEX
  8
MY3DLAYER
10
23.0
20
2.4375
30
6.16173778666962e-015
 70
     32
  0
VERTEX
  8
MY3DLAYER
10
23.0
20
2.5625
30
6.82787160144471e-015
 70
     32
  0
SEQEND
  0
POLYLINE
 8
GROUP0
 66
     1
70
    8
 10
0.0
 20
 0.0
 30
0.0
  0
VERTEX
  8
MY3DLAYER
10
18.25
20
4.75
30
1.66533453693773e-015
 70
     32
  0
VERTEX
  8
MY3DLAYER
10
23.0
20
4.75
30
9.32587340685131e-015
 70
     32
  0
VERTEX
  8
MY3DLAYER
10
23.0
20
4.875
30
9.43689570931383e-015
 70
     32
  0
VERTEX
  8
MY3DLAYER
10
18.25
20
4.875
30
0.0
 70
     32
  0
VERTEX
  8
MY3DLAYER
10
18.25
20
4.75
30
1.66533453693773e-015
 70
     32
  0
SEQEND
  0
POLYLINE
 8
GROUP0
 66
     1
70
    8
 10
0.0
 20
 0.0
 30
0.0
  0
VERTEX
  8
MY3DLAYER
10
23.0
20
2.4375
30
6.16173778666962e-015
 70
     32
  0
VERTEX
  8
MY3DLAYER
10
23.0
20
0.25
30
-5.32907051820075e-015
 70
     32
  0
VERTEX
  8
MY3DLAYER
10
23.125
20
0.25
30
-2.99760216648792e-015
 70
     32
  0
VERTEX
  8
MY3DLAYER
10
23.125
20
2.4375
30
6.21724893790088e-015
 70
     32
  0
VERTEX
  8
MY3DLAYER
10
23.0
20
2.4375
30
6.16173778666962e-015
 70
     32
  0
VERTEX
  8
MY3DLAYER
10
23.0
20
2.5625
30
6.82787160144471e-015
 70
     32
  0
VERTEX
  8
MY3DLAYER
10
18.25
20
2.5625
30
2.71449529520851e-014
 70
     32
  0
VERTEX
  8
MY3DLAYER
10
18.25
20
2.4375
30
2.55351295663786e-014
 70
     32
  0
VERTEX
  8
MY3DLAYER
10
23.0
20
2.4375
30
6.16173778666962e-015
 70
     32
  0
SEQEND
  0
POLYLINE
 8
GROUP0
 66
     1
70
    8
 10
0.0
 20
 0.0
 30
0.0
  0
VERTEX
  8
MY3DLAYER
10
23.125
20
2.5625
30
6.77236045021345e-015
 70
     32
  0
VERTEX
  8
MY3DLAYER
10
23.125
20
4.75
30
-1.11022302462516e-015
 70
     32
  0
VERTEX
  8
MY3DLAYER
10
23.0
20
4.75
30
9.32587340685131e-015
 70
     32
  0
VERTEX
  8
MY3DLAYER
10
23.0
20
2.5625
30
6.82787160144471e-015
 70
     32
  0
VERTEX
  8
MY3DLAYER
10
23.125
20
2.5625
30
6.77236045021345e-015
 70
     32
  0
SEQEND
  0
POLYLINE
 8
GROUP0
 66
     1
70
    8
 10
0.0
 20
 0.0
 30
0.0
  0
VERTEX
  8
MY3DLAYER
10
27.875
20
0.25
30
-1.16573417585641e-015
 70
     32
  0
VERTEX
  8
MY3DLAYER
10
27.875
20
0.125
30
-1.22124532708767e-015
 70
     32
  0
VERTEX
  8
MY3DLAYER
10
28.0
20
0.125
30
-7.7715611723761e-016
 70
     32
  0
VERTEX
  8
MY3DLAYER
10
28.0
20
0.25
30
-7.21644966006352e-016
 70
     32
  0
VERTEX
  8
MY3DLAYER
10
27.875
20
0.25
30
-1.16573417585641e-015
 70
     32
  0
SEQEND
  0
POLYLINE
 8
GROUP0
 66
     1
70
    8
 10
0.0
 20
 0.0
 30
0.0
  0
VERTEX
  8
MY3DLAYER
10
23.125
20
0.25
30
-2.99760216648792e-015
 70
     32
  0
VERTEX
  8
MY3DLAYER
10
23.0
20
0.25
30
-5.32907051820075e-015
 70
     32
  0
VERTEX
  8
MY3DLAYER
10
23.0
20
0.125
30
-5.71764857681956e-015
 70
     32
  0
VERTEX
  8
MY3DLAYER
10
23.125
20
0.125
30
-2.99760216648792e-015
 70
     32
  0
VERTEX
  8
MY3DLAYER
10
23.125
20
0.25
30
-2.99760216648792e-015
 70
     32
  0
SEQEND
  0
POLYLINE
 8
GROUP0
 66
     1
70
    8
 10
0.0
 20
 0.0
 30
0.0
  0
VERTEX
  8
MY3DLAYER
10
23.125
20
0.125
30
-2.99760216648792e-015
 70
     32
  0
VERTEX
  8
MY3DLAYER
10
27.875
20
0.125
30
-1.22124532708767e-015
 70
     32
  0
VERTEX
  8
MY3DLAYER
10
27.875
20
0.25
30
-1.16573417585641e-015
 70
     32
  0
VERTEX
  8
MY3DLAYER
10
23.125
20
0.25
30
-2.99760216648792e-015
 70
     32
  0
VERTEX
  8
MY3DLAYER
10
23.125
20
0.125
30
-2.99760216648792e-015
 70
     32
  0
SEQEND
  0
POLYLINE
 8
GROUP0
 66
     1
70
    8
 10
0.0
 20
 0.0
 30
0.0
  0
VERTEX
  8
MY3DLAYER
10
27.875
20
5.0
30
1.0547118733939e-015
 70
     32
  0
VERTEX
  8
MY3DLAYER
10
27.875
20
4.875
30
1.11022302462516e-016
 70
     32
  0
VERTEX
  8
MY3DLAYER
10
28.0
20
4.875
30
5.55111512312578e-016
 70
     32
  0
VERTEX
  8
MY3DLAYER
10
28.0
20
5.0
30
1.0547118733939e-015
 70
     32
  0
VERTEX
  8
MY3DLAYER
10
27.875
20
5.0
30
1.0547118733939e-015
 70
     32
  0
SEQEND
  0
POLYLINE
 8
GROUP0
 66
     1
70
    8
 10
0.0
 20
 0.0
 30
0.0
  0
VERTEX
  8
MY3DLAYER
10
28.0
20
4.875
30
5.55111512312578e-016
 70
     32
  0
VERTEX
  8
MY3DLAYER
10
27.875
20
4.875
30
1.11022302462516e-016
 70
     32
  0
VERTEX
  8
MY3DLAYER
10
27.875
20
4.75
30
2.22044604925031e-016
 70
     32
  0
VERTEX
  8
MY3DLAYER
10
28.0
20
4.75
30
6.10622663543836e-016
 70
     32
  0
VERTEX
  8
MY3DLAYER
10
28.0
20
4.875
30
5.55111512312578e-016
 70
     32
  0
SEQEND
  0
POLYLINE
 8
GROUP0
 66
     1
70
    8
 10
0.0
 20
 0.0
 30
0.0
  0
VERTEX
  8
MY3DLAYER
10
28.0
20
4.75
30
6.10622663543836e-016
 70
     32
  0
VERTEX
  8
MY3DLAYER
10
32.75
20
4.75
30
0.0
 70
     32
  0
VERTEX
  8
MY3DLAYER
10
32.75
20
4.875
30
0.0
 70
     32
  0
VERTEX
  8
MY3DLAYER
10
32.875
20
4.875
30
0.0
 70
     32
  0
VERTEX
  8
MY3DLAYER
10
32.875
20
4.75
30
0.0
 70
     32
  0
VERTEX
  8
MY3DLAYER
10
33.0
20
4.75
30
0.0
 70
     32
  0
VERTEX
  8
MY3DLAYER
10
33.0
20
4.875
30
0.0
 70
     32
  0
VERTEX
  8
MY3DLAYER
10
32.875
20
4.875
30
0.0
 70
     32
  0
VERTEX
  8
MY3DLAYER
10
32.875
20
5.0
30
0.0
 70
     32
  0
VERTEX
  8
MY3DLAYER
10
32.75
20
5.0
30
0.0
 70
     32
  0
VERTEX
  8
MY3DLAYER
10
32.75
20
4.875
30
0.0
 70
     32
  0
VERTEX
  8
MY3DLAYER
10
28.0
20
4.875
30
5.55111512312578e-016
 70
     32
  0
VERTEX
  8
MY3DLAYER
10
28.0
20
4.75
30
6.10622663543836e-016
 70
     32
  0
VERTEX
  8
MY3DLAYER
10
27.875
20
4.75
30
2.22044604925031e-016
 70
     32
  0
VERTEX
  8
MY3DLAYER
10
27.875
20
4.875
30
1.11022302462516e-016
 70
     32
  0
VERTEX
  8
MY3DLAYER
10
23.125
20
4.875
30
-1.60982338570648e-015
 70
     32
  0
VERTEX
  8
MY3DLAYER
10
23.125
20
4.75
30
-1.11022302462516e-015
 70
     32
  0
VERTEX
  8
MY3DLAYER
10
27.875
20
4.75
30
2.22044604925031e-016
 70
     32
  0
VERTEX
  8
MY3DLAYER
10
27.875
20
2.5625
30
1.88737914186277e-015
 70
     32
  0
VERTEX
  8
MY3DLAYER
10
23.125
20
2.5625
30
6.77236045021345e-015
 70
     32
  0
VERTEX
  8
MY3DLAYER
10
23.125
20
2.4375
30
6.21724893790088e-015
 70
     32
  0
VERTEX
  8
MY3DLAYER
10
27.875
20
2.4375
30
1.72084568816899e-015
 70
     32
  0
VERTEX
  8
MY3DLAYER
10
27.875
20
2.5625
30
1.88737914186277e-015
 70
     32
  0
VERTEX
  8
MY3DLAYER
10
28.0
20
2.5625
30
1.11022302462516e-015
 70
     32
  0
VERTEX
  8
MY3DLAYER
10
28.0
20
4.75
30
6.10622663543836e-016
 70
     32
  0
SEQEND
  0
POLYLINE
 8
GROUP0
 66
     1
70
    8
 10
0.0
 20
 0.0
 30
0.0
  0
VERTEX
  8
MY3DLAYER
10
28.0
20
2.4375
30
9.99200722162641e-016
 70
     32
  0
VERTEX
  8
MY3DLAYER
10
28.0
20
2.5625
30
1.11022302462516e-015
 70
     32
  0
VERTEX
  8
MY3DLAYER
10
27.875
20
2.5625
30
1.88737914186277e-015
 70
     32
  0
VERTEX
  8
MY3DLAYER
10
27.875
20
2.4375
30
1.72084568816899e-015
 70
     32
  0
VERTEX
  8
MY3DLAYER
10
28.0
20
2.4375
30
9.99200722162641e-016
 70
     32
  0
SEQEND
  0
POLYLINE
 8
GROUP0
 66
     1
70
    8
 10
0.0
 20
 0.0
 30
0.0
  0
VERTEX
  8
MY3DLAYER
10
33.0
20
2.5625
30
1.11022302462516e-016
 70
     32
  0
VERTEX
  8
MY3DLAYER
10
32.875
20
2.5625
30
3.33066907387547e-016
 70
     32
  0
VERTEX
  8
MY3DLAYER
10
32.875
20
2.4375
30
3.33066907387547e-016
 70
     32
  0
VERTEX
  8
MY3DLAYER
10
33.0
20
2.4375
30
1.11022302462516e-016
 70
     32
  0
VERTEX
  8
MY3DLAYER
10
33.0
20
2.5625
30
1.11022302462516e-016
 70
     32
  0
SEQEND
  0
POLYLINE
 8
GROUP0
 66
     1
70
    8
 10
0.0
 20
 0.0
 30
0.0
  0
VERTEX
  8
MY3DLAYER
10
32.875
20
2.4375
30
3.33066907387547e-016
 70
     32
  0
VERTEX
  8
MY3DLAYER
10
32.875
20
2.5625
30
3.33066907387547e-016
 70
     32
  0
VERTEX
  8
MY3DLAYER
10
32.75
20
2.5625
30
5.55111512312578e-016
 70
     32
  0
VERTEX
  8
MY3DLAYER
10
32.75
20
2.4375
30
5.55111512312578e-016
 70
     32
  0
VERTEX
  8
MY3DLAYER
10
32.875
20
2.4375
30
3.33066907387547e-016
 70
     32
  0
SEQEND
  0
POLYLINE
 8
GROUP0
 66
     1
70
    8
 10
0.0
 20
 0.0
 30
0.0
  0
VERTEX
  8
MY3DLAYER
10
32.875
20
1.11022302462516e-016
30
1.11022302462516e-016
 70
     32
  0
VERTEX
  8
MY3DLAYER
10
32.875
20
0.125
30
1.66533453693773e-016
 70
     32
  0
VERTEX
  8
MY3DLAYER
10
32.75
20
0.125
30
1.66533453693773e-016
 70
     32
  0
VERTEX
  8
MY3DLAYER
10
32.75
20
0.25
30
1.66533453693773e-016
 70
     32
  0
VERTEX
  8
MY3DLAYER
10
32.875
20
0.25
30
1.66533453693773e-016
 70
     32
  0
VERTEX
  8
MY3DLAYER
10
32.875
20
2.4375
30
3.33066907387547e-016
 70
     32
  0
VERTEX
  8
MY3DLAYER
10
32.75
20
2.4375
30
5.55111512312578e-016
 70
     32
  0
VERTEX
  8
MY3DLAYER
10
32.75
20
2.5625
30
5.55111512312578e-016
 70
     32
  0
VERTEX
  8
MY3DLAYER
10
32.875
20
2.5625
30
3.33066907387547e-016
 70
     32
  0
VERTEX
  8
MY3DLAYER
10
32.875
20
4.75
30
0.0
 70
     32
  0
VERTEX
  8
MY3DLAYER
10
32.75
20
4.75
30
0.0
 70
     32
  0
VERTEX
  8
MY3DLAYER
10
32.75
20
2.5625
30
5.55111512312578e-016
 70
     32
  0
VERTEX
  8
MY3DLAYER
10
28.0
20
2.5625
30
1.11022302462516e-015
 70
     32
  0
VERTEX
  8
MY3DLAYER
10
28.0
20
2.4375
30
9.99200722162641e-016
 70
     32
  0
VERTEX
  8
MY3DLAYER
10
32.75
20
2.4375
30
5.55111512312578e-016
 70
     32
  0
VERTEX
  8
MY3DLAYER
10
32.75
20
0.25
30
1.66533453693773e-016
 70
     32
  0
VERTEX
  8
MY3DLAYER
10
28.0
20
0.25
30
-7.21644966006352e-016
 70
     32
  0
VERTEX
  8
MY3DLAYER
10
28.0
20
2.4375
30
9.99200722162641e-016
 70
     32
  0
VERTEX
  8
MY3DLAYER
10
27.875
20
2.4375
30
1.72084568816899e-015
 70
     32
  0
VERTEX
  8
MY3DLAYER
10
27.875
20
0.25
30
-1.16573417585641e-015
 70
     32
  0
VERTEX
  8
MY3DLAYER
10
28.0
20
0.25
30
-7.21644966006352e-016
 70
     32
  0
VERTEX
  8
MY3DLAYER
10
28.0
20
0.125
30
-7.7715611723761e-016
 70
     32
  0
VERTEX
  8
MY3DLAYER
10
27.875
20
0.125
30
-1.22124532708767e-015
 70
     32
  0
VERTEX
  8
MY3DLAYER
10
27.875
20
1.11022302462516e-016
30
-9.99200722162641e-016
 70
     32
  0
VERTEX
  8
MY3DLAYER
10
28.0
20
1.11022302462516e-016
30
-3.88578058618805e-016
 70
     32
  0
VERTEX
  8
MY3DLAYER
10
28.0
20
0.125
30
-7.7715611723761e-016
 70
     32
  0
VERTEX
  8
MY3DLAYER
10
32.75
20
0.125
30
1.66533453693773e-016
 70
     32
  0
VERTEX
  8
MY3DLAYER
10
32.75
20
1.11022302462516e-016
30
1.11022302462516e-016
 70
     32
  0
VERTEX
  8
MY3DLAYER
10
32.875
20
1.11022302462516e-016
30
1.11022302462516e-016
 70
     32
  0
SEQEND
  0
POLYLINE
 8
GROUP0
 66
     1
70
    8
 10
0.0
 20
 0.0
 30
0.0
  0
VERTEX
  8
MY3DLAYER
10
32.75
20
4.75
30
0.0
 70
     32
  0
VERTEX
  8
MY3DLAYER
10
32.875
20
4.75
30
0.0
 70
     32
  0
VERTEX
  8
MY3DLAYER
10
32.875
20
4.875
30
0.0
 70
     32
  0
VERTEX
  8
MY3DLAYER
10
32.75
20
4.875
30
0.0
 70
     32
  0
VERTEX
  8
MY3DLAYER
10
32.75
20
4.75
30
0.0
 70
     32
  0
SEQEND
  0
POLYLINE
 8
GROUP0
 66
     1
70
    8
 10
0.0
 20
 0.0
 30
0.0
  0
VERTEX
  8
MY3DLAYER
10
33.0
20
0.25
30
2.22044604925031e-016
 70
     32
  0
VERTEX
  8
MY3DLAYER
10
32.875
20
0.25
30
1.66533453693773e-016
 70
     32
  0
VERTEX
  8
MY3DLAYER
10
32.875
20
0.125
30
1.66533453693773e-016
 70
     32
  0
VERTEX
  8
MY3DLAYER
10
33.0
20
0.125
30
2.22044604925031e-016
 70
     32
  0
VERTEX
  8
MY3DLAYER
10
33.0
20
0.25
30
2.22044604925031e-016
 70
     32
  0
SEQEND
  0
POLYLINE
 8
GROUP0
 66
     1
70
    8
 10
0.0
 20
 0.0
 30
0.0
  0
VERTEX
  8
MY3DLAYER
10
32.875
20
0.125
30
1.66533453693773e-016
 70
     32
  0
VERTEX
  8
MY3DLAYER
10
32.875
20
0.25
30
1.66533453693773e-016
 70
     32
  0
VERTEX
  8
MY3DLAYER
10
32.75
20
0.25
30
1.66533453693773e-016
 70
     32
  0
VERTEX
  8
MY3DLAYER
10
32.75
20
0.125
30
1.66533453693773e-016
 70
     32
  0
VERTEX
  8
MY3DLAYER
10
32.875
20
0.125
30
1.66533453693773e-016
 70
     32
  0
SEQEND
  0
POLYLINE
 8
GROUP0
 66
     1
70
    8
 10
0.0
 20
 0.0
 30
0.0
  0
VERTEX
  8
MY3DLAYER
10
23.125
20
2.4375
30
6.21724893790088e-015
 70
     32
  0
VERTEX
  8
MY3DLAYER
10
23.125
20
2.5625
30
6.77236045021345e-015
 70
     32
  0
VERTEX
  8
MY3DLAYER
10
23.0
20
2.5625
30
6.82787160144471e-015
 70
     32
  0
VERTEX
  8
MY3DLAYER
10
23.0
20
2.4375
30
6.16173778666962e-015
 70
     32
  0
VERTEX
  8
MY3DLAYER
10
23.125
20
2.4375
30
6.21724893790088e-015
 70
     32
  0
SEQEND
 0
ENDSEC
 0
EOF
