 0
SECTION
 2
ENTITIES
  0
POLYLINE
 8
GROUP0
 66
     1
70
    8
 10
0.0
 20
 0.0
 30
0.0
  0
VERTEX
  8
MY3DLAYER
10
4.99999999999839
20
20.0000000000001
30
5.00000000001229
 70
     32
  0
VERTEX
  8
MY3DLAYER
10
4.99999999999839
20
54.0000000000001
30
5.00000000001229
 70
     32
  0
VERTEX
  8
MY3DLAYER
10
5.00000000000286
20
54.0000000000001
30
25.0000036396209
 70
     32
  0
VERTEX
  8
MY3DLAYER
10
5.00000000000286
20
20.0000000000001
30
25.000003639621
 70
     32
  0
VERTEX
  8
MY3DLAYER
10
4.99999999999839
20
20.0000000000001
30
5.00000000001229
 70
     32
  0
SEQEND
  0
POLYLINE
 8
GROUP0
 66
     1
70
    8
 10
0.0
 20
 0.0
 30
0.0
  0
VERTEX
  8
MY3DLAYER
10
114.000000000003
20
20.0000000000001
30
25.0000036395966
 70
     32
  0
VERTEX
  8
MY3DLAYER
10
114.000000000003
20
54.0000000000001
30
25.0000036395966
 70
     32
  0
VERTEX
  8
MY3DLAYER
10
113.999999999998
20
54.0000000000001
30
4.99999999998795
 70
     32
  0
VERTEX
  8
MY3DLAYER
10
113.999999999998
20
20.0000000000001
30
4.99999999998795
 70
     32
  0
VERTEX
  8
MY3DLAYER
10
114.000000000003
20
20.0000000000001
30
25.0000036395966
 70
     32
  0
SEQEND
  0
POLYLINE
 8
GROUP0
 66
     1
70
    8
 10
0.0
 20
 0.0
 30
0.0
  0
VERTEX
  8
MY3DLAYER
10
119.000000000003
20
74.0000000000001
30
25.0000036395955
 70
     32
  0
VERTEX
  8
MY3DLAYER
10
119.000000000003
20
0.0
30
25.0000036395955
 70
     32
  0
VERTEX
  8
MY3DLAYER
10
118.999999999997
20
0.0
30
-1.31551436410859e-011
 70
     32
  0
VERTEX
  8
MY3DLAYER
10
118.999999999997
20
74.0000000000001
30
-1.32002631048067e-011
 70
     32
  0
VERTEX
  8
MY3DLAYER
10
119.000000000003
20
74.0000000000001
30
25.0000036395955
 70
     32
  0
SEQEND
  0
POLYLINE
 8
GROUP0
 66
     1
70
    8
 10
0.0
 20
 0.0
 30
0.0
  0
VERTEX
  8
MY3DLAYER
10
119.000000000003
20
0.0
30
25.0000036395955
 70
     32
  0
VERTEX
  8
MY3DLAYER
10
2.8199664825479e-012
20
0.0
30
25.0000036396221
 70
     32
  0
VERTEX
  8
MY3DLAYER
10
-2.75228728696675e-012
20
0.0
30
1.34089406245153e-011
 70
     32
  0
VERTEX
  8
MY3DLAYER
10
118.999999999997
20
0.0
30
-1.31551436410859e-011
 70
     32
  0
VERTEX
  8
MY3DLAYER
10
119.000000000003
20
0.0
30
25.0000036395955
 70
     32
  0
SEQEND
  0
POLYLINE
 8
GROUP0
 66
     1
70
    8
 10
0.0
 20
 0.0
 30
0.0
  0
VERTEX
  8
MY3DLAYER
10
2.8199664825479e-012
20
0.0
30
25.0000036396221
 70
     32
  0
VERTEX
  8
MY3DLAYER
10
2.8199664825479e-012
20
74.0000000000002
30
25.0000036396221
 70
     32
  0
VERTEX
  8
MY3DLAYER
10
-2.75228728696675e-012
20
74.0000000000001
30
1.33638211607945e-011
 70
     32
  0
VERTEX
  8
MY3DLAYER
10
-2.75228728696675e-012
20
0.0
30
1.34089406245153e-011
 70
     32
  0
VERTEX
  8
MY3DLAYER
10
2.8199664825479e-012
20
0.0
30
25.0000036396221
 70
     32
  0
SEQEND
  0
POLYLINE
 8
GROUP0
 66
     1
70
    8
 10
0.0
 20
 0.0
 30
0.0
  0
VERTEX
  8
MY3DLAYER
10
113.999999999998
20
20.0000000000001
30
4.99999999998795
 70
     32
  0
VERTEX
  8
MY3DLAYER
10
113.999999999998
20
54.0000000000001
30
4.99999999998795
 70
     32
  0
VERTEX
  8
MY3DLAYER
10
4.99999999999839
20
54.0000000000001
30
5.00000000001229
 70
     32
  0
VERTEX
  8
MY3DLAYER
10
4.99999999999839
20
20.0000000000001
30
5.00000000001229
 70
     32
  0
VERTEX
  8
MY3DLAYER
10
113.999999999998
20
20.0000000000001
30
4.99999999998795
 70
     32
  0
SEQEND
  0
POLYLINE
 8
GROUP0
 66
     1
70
    8
 10
0.0
 20
 0.0
 30
0.0
  0
VERTEX
  8
MY3DLAYER
10
2.8199664825479e-012
20
74.0000000000002
30
25.0000036396221
 70
     32
  0
VERTEX
  8
MY3DLAYER
10
119.000000000003
20
74.0000000000001
30
25.0000036395955
 70
     32
  0
VERTEX
  8
MY3DLAYER
10
118.999999999997
20
74.0000000000001
30
-1.32002631048067e-011
 70
     32
  0
VERTEX
  8
MY3DLAYER
10
-2.75228728696675e-012
20
74.0000000000001
30
1.33638211607945e-011
 70
     32
  0
VERTEX
  8
MY3DLAYER
10
2.8199664825479e-012
20
74.0000000000002
30
25.0000036396221
 70
     32
  0
SEQEND
  0
POLYLINE
 8
GROUP0
 66
     1
70
    8
 10
0.0
 20
 0.0
 30
0.0
  0
VERTEX
  8
MY3DLAYER
10
30.0000000000028
20
54.0000000000001
30
25.0000036396154
 70
     32
  0
VERTEX
  8
MY3DLAYER
10
5.00000000000286
20
54.0000000000001
30
25.0000036396209
 70
     32
  0
VERTEX
  8
MY3DLAYER
10
4.99999999999839
20
54.0000000000001
30
5.00000000001229
 70
     32
  0
VERTEX
  8
MY3DLAYER
10
113.999999999998
20
54.0000000000001
30
4.99999999998795
 70
     32
  0
VERTEX
  8
MY3DLAYER
10
114.000000000003
20
54.0000000000001
30
25.0000036395966
 70
     32
  0
VERTEX
  8
MY3DLAYER
10
89.0000000000027
20
54.0000000000001
30
25.0000036396022
 70
     32
  0
VERTEX
  8
MY3DLAYER
10
89.0000000000015
20
54.0000000000001
30
20.0000036396022
 70
     32
  0
VERTEX
  8
MY3DLAYER
10
30.0000000000017
20
54.0000000000001
30
20.0000036396154
 70
     32
  0
VERTEX
  8
MY3DLAYER
10
30.0000000000028
20
54.0000000000001
30
25.0000036396154
 70
     32
  0
SEQEND
  0
POLYLINE
 8
GROUP0
 66
     1
70
    8
 10
0.0
 20
 0.0
 30
0.0
  0
VERTEX
  8
MY3DLAYER
10
113.999999999998
20
20.0000000000001
30
4.99999999998795
 70
     32
  0
VERTEX
  8
MY3DLAYER
10
4.99999999999839
20
20.0000000000001
30
5.00000000001229
 70
     32
  0
VERTEX
  8
MY3DLAYER
10
5.00000000000286
20
20.0000000000001
30
25.000003639621
 70
     32
  0
VERTEX
  8
MY3DLAYER
10
114.000000000003
20
20.0000000000001
30
25.0000036395966
 70
     32
  0
VERTEX
  8
MY3DLAYER
10
113.999999999998
20
20.0000000000001
30
4.99999999998795
 70
     32
  0
SEQEND
  0
POLYLINE
 8
GROUP0
 66
     1
70
    8
 10
0.0
 20
 0.0
 30
0.0
  0
VERTEX
  8
MY3DLAYER
10
12.1650635094584
20
65.25
30
1.06481934381009e-011
 70
     32
  0
VERTEX
  8
MY3DLAYER
10
12.41481456572
20
64.6470476127563
30
1.05946140749325e-011
 70
     32
  0
VERTEX
  8
MY3DLAYER
10
12.4148145657255
20
64.6470476127563
30
25.0000036396193
 70
     32
  0
VERTEX
  8
MY3DLAYER
10
12.165063509464
20
65.25
30
25.0000036396194
 70
     32
  0
VERTEX
  8
MY3DLAYER
10
12.1650635094584
20
65.25
30
1.06481934381009e-011
 70
     32
  0
SEQEND
  0
POLYLINE
 8
GROUP0
 66
     1
70
    8
 10
0.0
 20
 0.0
 30
0.0
  0
VERTEX
  8
MY3DLAYER
10
12.41481456572
20
64.6470476127563
30
1.05946140749325e-011
 70
     32
  0
VERTEX
  8
MY3DLAYER
10
12.4999999999973
20
64.0
30
1.05748743095546e-011
 70
     32
  0
VERTEX
  8
MY3DLAYER
10
12.5000000000029
20
64.0
30
25.0000036396193
 70
     32
  0
VERTEX
  8
MY3DLAYER
10
12.4148145657255
20
64.6470476127563
30
25.0000036396193
 70
     32
  0
VERTEX
  8
MY3DLAYER
10
12.41481456572
20
64.6470476127563
30
1.05946140749325e-011
 70
     32
  0
SEQEND
  0
POLYLINE
 8
GROUP0
 66
     1
70
    8
 10
0.0
 20
 0.0
 30
0.0
  0
VERTEX
  8
MY3DLAYER
10
12.4999999999973
20
64.0
30
1.05748743095546e-011
 70
     32
  0
VERTEX
  8
MY3DLAYER
10
12.41481456572
20
63.3529523872437
30
1.05946140749325e-011
 70
     32
  0
VERTEX
  8
MY3DLAYER
10
12.4148145657255
20
63.3529523872437
30
25.0000036396193
 70
     32
  0
VERTEX
  8
MY3DLAYER
10
12.5000000000029
20
64.0
30
25.0000036396193
 70
     32
  0
VERTEX
  8
MY3DLAYER
10
12.4999999999973
20
64.0
30
1.05748743095546e-011
 70
     32
  0
SEQEND
  0
POLYLINE
 8
GROUP0
 66
     1
70
    8
 10
0.0
 20
 0.0
 30
0.0
  0
VERTEX
  8
MY3DLAYER
10
12.41481456572
20
63.3529523872437
30
1.05946140749325e-011
 70
     32
  0
VERTEX
  8
MY3DLAYER
10
12.1650635094584
20
62.75
30
1.06481934381009e-011
 70
     32
  0
VERTEX
  8
MY3DLAYER
10
12.165063509464
20
62.75
30
25.0000036396194
 70
     32
  0
VERTEX
  8
MY3DLAYER
10
12.4148145657255
20
63.3529523872437
30
25.0000036396193
 70
     32
  0
VERTEX
  8
MY3DLAYER
10
12.41481456572
20
63.3529523872437
30
1.05946140749325e-011
 70
     32
  0
SEQEND
  0
POLYLINE
 8
GROUP0
 66
     1
70
    8
 10
0.0
 20
 0.0
 30
0.0
  0
VERTEX
  8
MY3DLAYER
10
12.1650635094584
20
62.75
30
1.06481934381009e-011
 70
     32
  0
VERTEX
  8
MY3DLAYER
10
11.7677669529636
20
62.2322330470337
30
1.07384323655424e-011
 70
     32
  0
VERTEX
  8
MY3DLAYER
10
11.7677669529692
20
62.2322330470337
30
25.0000036396194
 70
     32
  0
VERTEX
  8
MY3DLAYER
10
12.165063509464
20
62.75
30
25.0000036396194
 70
     32
  0
VERTEX
  8
MY3DLAYER
10
12.1650635094584
20
62.75
30
1.06481934381009e-011
 70
     32
  0
SEQEND
  0
POLYLINE
 8
GROUP0
 66
     1
70
    8
 10
0.0
 20
 0.0
 30
0.0
  0
VERTEX
  8
MY3DLAYER
10
11.7677669529636
20
62.2322330470337
30
1.07384323655424e-011
 70
     32
  0
VERTEX
  8
MY3DLAYER
10
11.2499999999972
20
61.8349364905389
30
1.08540509913269e-011
 70
     32
  0
VERTEX
  8
MY3DLAYER
10
11.2500000000028
20
61.8349364905389
30
25.0000036396196
 70
     32
  0
VERTEX
  8
MY3DLAYER
10
11.7677669529692
20
62.2322330470337
30
25.0000036396194
 70
     32
  0
VERTEX
  8
MY3DLAYER
10
11.7677669529636
20
62.2322330470337
30
1.07384323655424e-011
 70
     32
  0
SEQEND
  0
POLYLINE
 8
GROUP0
 66
     1
70
    8
 10
0.0
 20
 0.0
 30
0.0
  0
VERTEX
  8
MY3DLAYER
10
11.2499999999972
20
61.8349364905389
30
1.08540509913269e-011
 70
     32
  0
VERTEX
  8
MY3DLAYER
10
10.6470476127536
20
61.5851854342773
30
1.09894093824892e-011
 70
     32
  0
VERTEX
  8
MY3DLAYER
10
10.6470476127591
20
61.5851854342773
30
25.0000036396197
 70
     32
  0
VERTEX
  8
MY3DLAYER
10
11.2500000000028
20
61.8349364905389
30
25.0000036396196
 70
     32
  0
VERTEX
  8
MY3DLAYER
10
11.2499999999972
20
61.8349364905389
30
1.08540509913269e-011
 70
     32
  0
SEQEND
  0
POLYLINE
 8
GROUP0
 66
     1
70
    8
 10
0.0
 20
 0.0
 30
0.0
  0
VERTEX
  8
MY3DLAYER
10
10.6470476127536
20
61.5851854342773
30
1.09894093824892e-011
 70
     32
  0
VERTEX
  8
MY3DLAYER
10
9.99999999999723
20
61.5
30
1.11332276730991e-011
 70
     32
  0
VERTEX
  8
MY3DLAYER
10
10.0000000000028
20
61.5
30
25.0000036396198
 70
     32
  0
VERTEX
  8
MY3DLAYER
10
10.6470476127591
20
61.5851854342773
30
25.0000036396197
 70
     32
  0
VERTEX
  8
MY3DLAYER
10
10.6470476127536
20
61.5851854342773
30
1.09894093824892e-011
 70
     32
  0
SEQEND
  0
POLYLINE
 8
GROUP0
 66
     1
70
    8
 10
0.0
 20
 0.0
 30
0.0
  0
VERTEX
  8
MY3DLAYER
10
9.99999999999723
20
61.5
30
1.11332276730991e-011
 70
     32
  0
VERTEX
  8
MY3DLAYER
10
9.35295238724098
20
61.5851854342773
30
1.1277045963709e-011
 70
     32
  0
VERTEX
  8
MY3DLAYER
10
9.35295238724656
20
61.5851854342773
30
25.00000363962
 70
     32
  0
VERTEX
  8
MY3DLAYER
10
10.0000000000028
20
61.5
30
25.0000036396198
 70
     32
  0
VERTEX
  8
MY3DLAYER
10
9.99999999999723
20
61.5
30
1.11332276730991e-011
 70
     32
  0
SEQEND
  0
POLYLINE
 8
GROUP0
 66
     1
70
    8
 10
0.0
 20
 0.0
 30
0.0
  0
VERTEX
  8
MY3DLAYER
10
9.35295238724098
20
61.5851854342773
30
1.1277045963709e-011
 70
     32
  0
VERTEX
  8
MY3DLAYER
10
8.74999999999724
20
61.8349364905389
30
1.14124043548713e-011
 70
     32
  0
VERTEX
  8
MY3DLAYER
10
8.75000000000282
20
61.8349364905389
30
25.0000036396201
 70
     32
  0
VERTEX
  8
MY3DLAYER
10
9.35295238724656
20
61.5851854342773
30
25.00000363962
 70
     32
  0
VERTEX
  8
MY3DLAYER
10
9.35295238724098
20
61.5851854342773
30
1.1277045963709e-011
 70
     32
  0
SEQEND
  0
POLYLINE
 8
GROUP0
 66
     1
70
    8
 10
0.0
 20
 0.0
 30
0.0
  0
VERTEX
  8
MY3DLAYER
10
8.74999999999724
20
61.8349364905389
30
1.14124043548713e-011
 70
     32
  0
VERTEX
  8
MY3DLAYER
10
8.23223304703092
20
62.2322330470337
30
1.15280229806558e-011
 70
     32
  0
VERTEX
  8
MY3DLAYER
10
8.2322330470365
20
62.2322330470337
30
25.0000036396202
 70
     32
  0
VERTEX
  8
MY3DLAYER
10
8.75000000000282
20
61.8349364905389
30
25.0000036396201
 70
     32
  0
VERTEX
  8
MY3DLAYER
10
8.74999999999724
20
61.8349364905389
30
1.14124043548713e-011
 70
     32
  0
SEQEND
  0
POLYLINE
 8
GROUP0
 66
     1
70
    8
 10
0.0
 20
 0.0
 30
0.0
  0
VERTEX
  8
MY3DLAYER
10
8.23223304703092
20
62.2322330470337
30
1.15280229806558e-011
 70
     32
  0
VERTEX
  8
MY3DLAYER
10
7.83493649053617
20
62.75
30
1.16154419416148e-011
 70
     32
  0
VERTEX
  8
MY3DLAYER
10
7.83493649054174
20
62.75
30
25.0000036396203
 70
     32
  0
VERTEX
  8
MY3DLAYER
10
8.2322330470365
20
62.2322330470337
30
25.0000036396202
 70
     32
  0
VERTEX
  8
MY3DLAYER
10
8.23223304703092
20
62.2322330470337
30
1.15280229806558e-011
 70
     32
  0
SEQEND
  0
POLYLINE
 8
GROUP0
 66
     1
70
    8
 10
0.0
 20
 0.0
 30
0.0
  0
VERTEX
  8
MY3DLAYER
10
7.83493649053617
20
62.75
30
1.16154419416148e-011
 70
     32
  0
VERTEX
  8
MY3DLAYER
10
7.58518543427459
20
63.3529523872437
30
1.16718412712657e-011
 70
     32
  0
VERTEX
  8
MY3DLAYER
10
7.58518543428016
20
63.3529523872437
30
25.0000036396204
 70
     32
  0
VERTEX
  8
MY3DLAYER
10
7.83493649054174
20
62.75
30
25.0000036396203
 70
     32
  0
VERTEX
  8
MY3DLAYER
10
7.83493649053617
20
62.75
30
1.16154419416148e-011
 70
     32
  0
SEQEND
  0
POLYLINE
 8
GROUP0
 66
     1
70
    8
 10
0.0
 20
 0.0
 30
0.0
  0
VERTEX
  8
MY3DLAYER
10
7.58518543427459
20
63.3529523872437
30
1.16718412712657e-011
 70
     32
  0
VERTEX
  8
MY3DLAYER
10
7.49999999999726
20
64.0
30
1.16915810366436e-011
 70
     32
  0
VERTEX
  8
MY3DLAYER
10
7.50000000000283
20
64.0
30
25.0000036396204
 70
     32
  0
VERTEX
  8
MY3DLAYER
10
7.58518543428016
20
63.3529523872437
30
25.0000036396204
 70
     32
  0
VERTEX
  8
MY3DLAYER
10
7.58518543427459
20
63.3529523872437
30
1.16718412712657e-011
 70
     32
  0
SEQEND
  0
POLYLINE
 8
GROUP0
 66
     1
70
    8
 10
0.0
 20
 0.0
 30
0.0
  0
VERTEX
  8
MY3DLAYER
10
7.49999999999726
20
64.0
30
1.16915810366436e-011
 70
     32
  0
VERTEX
  8
MY3DLAYER
10
7.58518543427459
20
64.6470476127563
30
1.16718412712657e-011
 70
     32
  0
VERTEX
  8
MY3DLAYER
10
7.58518543428016
20
64.6470476127563
30
25.0000036396204
 70
     32
  0
VERTEX
  8
MY3DLAYER
10
7.50000000000283
20
64.0
30
25.0000036396204
 70
     32
  0
VERTEX
  8
MY3DLAYER
10
7.49999999999726
20
64.0
30
1.16915810366436e-011
 70
     32
  0
SEQEND
  0
POLYLINE
 8
GROUP0
 66
     1
70
    8
 10
0.0
 20
 0.0
 30
0.0
  0
VERTEX
  8
MY3DLAYER
10
7.58518543427459
20
64.6470476127563
30
1.16718412712657e-011
 70
     32
  0
VERTEX
  8
MY3DLAYER
10
7.83493649053617
20
65.25
30
1.16154419416148e-011
 70
     32
  0
VERTEX
  8
MY3DLAYER
10
7.83493649054174
20
65.25
30
25.0000036396203
 70
     32
  0
VERTEX
  8
MY3DLAYER
10
7.58518543428016
20
64.6470476127563
30
25.0000036396204
 70
     32
  0
VERTEX
  8
MY3DLAYER
10
7.58518543427459
20
64.6470476127563
30
1.16718412712657e-011
 70
     32
  0
SEQEND
  0
POLYLINE
 8
GROUP0
 66
     1
70
    8
 10
0.0
 20
 0.0
 30
0.0
  0
VERTEX
  8
MY3DLAYER
10
7.83493649053617
20
65.25
30
1.16154419416148e-011
 70
     32
  0
VERTEX
  8
MY3DLAYER
10
8.23223304703092
20
65.7677669529664
30
1.15280229806558e-011
 70
     32
  0
VERTEX
  8
MY3DLAYER
10
8.2322330470365
20
65.7677669529664
30
25.0000036396202
 70
     32
  0
VERTEX
  8
MY3DLAYER
10
7.83493649054174
20
65.25
30
25.0000036396203
 70
     32
  0
VERTEX
  8
MY3DLAYER
10
7.83493649053617
20
65.25
30
1.16154419416148e-011
 70
     32
  0
SEQEND
  0
POLYLINE
 8
GROUP0
 66
     1
70
    8
 10
0.0
 20
 0.0
 30
0.0
  0
VERTEX
  8
MY3DLAYER
10
8.23223304703092
20
65.7677669529664
30
1.15280229806558e-011
 70
     32
  0
VERTEX
  8
MY3DLAYER
10
8.74999999999724
20
66.1650635094611
30
1.14124043548713e-011
 70
     32
  0
VERTEX
  8
MY3DLAYER
10
8.75000000000282
20
66.1650635094611
30
25.0000036396201
 70
     32
  0
VERTEX
  8
MY3DLAYER
10
8.2322330470365
20
65.7677669529664
30
25.0000036396202
 70
     32
  0
VERTEX
  8
MY3DLAYER
10
8.23223304703092
20
65.7677669529664
30
1.15280229806558e-011
 70
     32
  0
SEQEND
  0
POLYLINE
 8
GROUP0
 66
     1
70
    8
 10
0.0
 20
 0.0
 30
0.0
  0
VERTEX
  8
MY3DLAYER
10
8.74999999999724
20
66.1650635094611
30
1.14124043548713e-011
 70
     32
  0
VERTEX
  8
MY3DLAYER
10
9.35295238724098
20
66.4148145657227
30
1.1277045963709e-011
 70
     32
  0
VERTEX
  8
MY3DLAYER
10
9.35295238724656
20
66.4148145657227
30
25.00000363962
 70
     32
  0
VERTEX
  8
MY3DLAYER
10
8.75000000000282
20
66.1650635094611
30
25.0000036396201
 70
     32
  0
VERTEX
  8
MY3DLAYER
10
8.74999999999724
20
66.1650635094611
30
1.14124043548713e-011
 70
     32
  0
SEQEND
  0
POLYLINE
 8
GROUP0
 66
     1
70
    8
 10
0.0
 20
 0.0
 30
0.0
  0
VERTEX
  8
MY3DLAYER
10
9.35295238724098
20
66.4148145657227
30
1.1277045963709e-011
 70
     32
  0
VERTEX
  8
MY3DLAYER
10
9.99999999999723
20
66.5
30
1.11332276730991e-011
 70
     32
  0
VERTEX
  8
MY3DLAYER
10
10.0000000000028
20
66.5
30
25.0000036396198
 70
     32
  0
VERTEX
  8
MY3DLAYER
10
9.35295238724656
20
66.4148145657227
30
25.00000363962
 70
     32
  0
VERTEX
  8
MY3DLAYER
10
9.35295238724098
20
66.4148145657227
30
1.1277045963709e-011
 70
     32
  0
SEQEND
  0
POLYLINE
 8
GROUP0
 66
     1
70
    8
 10
0.0
 20
 0.0
 30
0.0
  0
VERTEX
  8
MY3DLAYER
10
9.99999999999723
20
66.5
30
1.11332276730991e-011
 70
     32
  0
VERTEX
  8
MY3DLAYER
10
10.6470476127536
20
66.4148145657227
30
1.09894093824892e-011
 70
     32
  0
VERTEX
  8
MY3DLAYER
10
10.6470476127591
20
66.4148145657227
30
25.0000036396197
 70
     32
  0
VERTEX
  8
MY3DLAYER
10
10.0000000000028
20
66.5
30
25.0000036396198
 70
     32
  0
VERTEX
  8
MY3DLAYER
10
9.99999999999723
20
66.5
30
1.11332276730991e-011
 70
     32
  0
SEQEND
  0
POLYLINE
 8
GROUP0
 66
     1
70
    8
 10
0.0
 20
 0.0
 30
0.0
  0
VERTEX
  8
MY3DLAYER
10
10.6470476127536
20
66.4148145657227
30
1.09894093824892e-011
 70
     32
  0
VERTEX
  8
MY3DLAYER
10
11.2499999999973
20
66.1650635094611
30
1.08540509913269e-011
 70
     32
  0
VERTEX
  8
MY3DLAYER
10
11.2500000000029
20
66.1650635094611
30
25.0000036396196
 70
     32
  0
VERTEX
  8
MY3DLAYER
10
10.6470476127591
20
66.4148145657227
30
25.0000036396197
 70
     32
  0
VERTEX
  8
MY3DLAYER
10
10.6470476127536
20
66.4148145657227
30
1.09894093824892e-011
 70
     32
  0
SEQEND
  0
POLYLINE
 8
GROUP0
 66
     1
70
    8
 10
0.0
 20
 0.0
 30
0.0
  0
VERTEX
  8
MY3DLAYER
10
11.2499999999973
20
66.1650635094611
30
1.08540509913269e-011
 70
     32
  0
VERTEX
  8
MY3DLAYER
10
11.7677669529636
20
65.7677669529664
30
1.07384323655424e-011
 70
     32
  0
VERTEX
  8
MY3DLAYER
10
11.7677669529692
20
65.7677669529664
30
25.0000036396194
 70
     32
  0
VERTEX
  8
MY3DLAYER
10
11.2500000000029
20
66.1650635094611
30
25.0000036396196
 70
     32
  0
VERTEX
  8
MY3DLAYER
10
11.2499999999973
20
66.1650635094611
30
1.08540509913269e-011
 70
     32
  0
SEQEND
  0
POLYLINE
 8
GROUP0
 66
     1
70
    8
 10
0.0
 20
 0.0
 30
0.0
  0
VERTEX
  8
MY3DLAYER
10
11.7677669529636
20
65.7677669529664
30
1.07384323655424e-011
 70
     32
  0
VERTEX
  8
MY3DLAYER
10
12.1650635094584
20
65.25
30
1.06481934381009e-011
 70
     32
  0
VERTEX
  8
MY3DLAYER
10
12.165063509464
20
65.25
30
25.0000036396194
 70
     32
  0
VERTEX
  8
MY3DLAYER
10
11.7677669529692
20
65.7677669529664
30
25.0000036396194
 70
     32
  0
VERTEX
  8
MY3DLAYER
10
11.7677669529636
20
65.7677669529664
30
1.07384323655424e-011
 70
     32
  0
SEQEND
  0
POLYLINE
 8
GROUP0
 66
     1
70
    8
 10
0.0
 20
 0.0
 30
0.0
  0
VERTEX
  8
MY3DLAYER
10
106.585185434275
20
63.3529523872437
30
-1.04282360524621e-011
 70
     32
  0
VERTEX
  8
MY3DLAYER
10
106.499999999997
20
64.0
30
-1.04084962870843e-011
 70
     32
  0
VERTEX
  8
MY3DLAYER
10
106.500000000003
20
64.0
30
25.0000036395983
 70
     32
  0
VERTEX
  8
MY3DLAYER
10
106.58518543428
20
63.3529523872437
30
25.0000036395983
 70
     32
  0
VERTEX
  8
MY3DLAYER
10
106.585185434275
20
63.3529523872437
30
-1.04282360524621e-011
 70
     32
  0
SEQEND
  0
POLYLINE
 8
GROUP0
 66
     1
70
    8
 10
0.0
 20
 0.0
 30
0.0
  0
VERTEX
  8
MY3DLAYER
10
106.499999999997
20
64.0
30
-1.04084962870843e-011
 70
     32
  0
VERTEX
  8
MY3DLAYER
10
106.585185434275
20
64.6470476127563
30
-1.04282360524621e-011
 70
     32
  0
VERTEX
  8
MY3DLAYER
10
106.58518543428
20
64.6470476127563
30
25.0000036395983
 70
     32
  0
VERTEX
  8
MY3DLAYER
10
106.500000000003
20
64.0
30
25.0000036395983
 70
     32
  0
VERTEX
  8
MY3DLAYER
10
106.499999999997
20
64.0
30
-1.04084962870843e-011
 70
     32
  0
SEQEND
  0
POLYLINE
 8
GROUP0
 66
     1
70
    8
 10
0.0
 20
 0.0
 30
0.0
  0
VERTEX
  8
MY3DLAYER
10
106.585185434275
20
64.6470476127563
30
-1.04282360524621e-011
 70
     32
  0
VERTEX
  8
MY3DLAYER
10
106.834936490536
20
65.25
30
-1.04846353821131e-011
 70
     32
  0
VERTEX
  8
MY3DLAYER
10
106.834936490542
20
65.25
30
25.0000036395982
 70
     32
  0
VERTEX
  8
MY3DLAYER
10
106.58518543428
20
64.6470476127563
30
25.0000036395983
 70
     32
  0
VERTEX
  8
MY3DLAYER
10
106.585185434275
20
64.6470476127563
30
-1.04282360524621e-011
 70
     32
  0
SEQEND
  0
POLYLINE
 8
GROUP0
 66
     1
70
    8
 10
0.0
 20
 0.0
 30
0.0
  0
VERTEX
  8
MY3DLAYER
10
106.834936490536
20
65.25
30
-1.04846353821131e-011
 70
     32
  0
VERTEX
  8
MY3DLAYER
10
107.232233047031
20
65.7677669529664
30
-1.05720543430721e-011
 70
     32
  0
VERTEX
  8
MY3DLAYER
10
107.232233047036
20
65.7677669529664
30
25.0000036395981
 70
     32
  0
VERTEX
  8
MY3DLAYER
10
106.834936490542
20
65.25
30
25.0000036395982
 70
     32
  0
VERTEX
  8
MY3DLAYER
10
106.834936490536
20
65.25
30
-1.04846353821131e-011
 70
     32
  0
SEQEND
  0
POLYLINE
 8
GROUP0
 66
     1
70
    8
 10
0.0
 20
 0.0
 30
0.0
  0
VERTEX
  8
MY3DLAYER
10
107.232233047031
20
65.7677669529664
30
-1.05720543430721e-011
 70
     32
  0
VERTEX
  8
MY3DLAYER
10
107.749999999997
20
66.1650635094611
30
-1.06876729688565e-011
 70
     32
  0
VERTEX
  8
MY3DLAYER
10
107.750000000003
20
66.1650635094611
30
25.000003639598
 70
     32
  0
VERTEX
  8
MY3DLAYER
10
107.232233047036
20
65.7677669529664
30
25.0000036395981
 70
     32
  0
VERTEX
  8
MY3DLAYER
10
107.232233047031
20
65.7677669529664
30
-1.05720543430721e-011
 70
     32
  0
SEQEND
  0
POLYLINE
 8
GROUP0
 66
     1
70
    8
 10
0.0
 20
 0.0
 30
0.0
  0
VERTEX
  8
MY3DLAYER
10
107.749999999997
20
66.1650635094611
30
-1.06876729688565e-011
 70
     32
  0
VERTEX
  8
MY3DLAYER
10
108.352952387241
20
66.4148145657227
30
-1.08230313600188e-011
 70
     32
  0
VERTEX
  8
MY3DLAYER
10
108.352952387246
20
66.4148145657227
30
25.0000036395979
 70
     32
  0
VERTEX
  8
MY3DLAYER
10
107.750000000003
20
66.1650635094611
30
25.000003639598
 70
     32
  0
VERTEX
  8
MY3DLAYER
10
107.749999999997
20
66.1650635094611
30
-1.06876729688565e-011
 70
     32
  0
SEQEND
  0
POLYLINE
 8
GROUP0
 66
     1
70
    8
 10
0.0
 20
 0.0
 30
0.0
  0
VERTEX
  8
MY3DLAYER
10
108.352952387241
20
66.4148145657227
30
-1.08230313600188e-011
 70
     32
  0
VERTEX
  8
MY3DLAYER
10
108.999999999997
20
66.5
30
-1.09668496506288e-011
 70
     32
  0
VERTEX
  8
MY3DLAYER
10
109.000000000003
20
66.5
30
25.0000036395977
 70
     32
  0
VERTEX
  8
MY3DLAYER
10
108.352952387246
20
66.4148145657227
30
25.0000036395979
 70
     32
  0
VERTEX
  8
MY3DLAYER
10
108.352952387241
20
66.4148145657227
30
-1.08230313600188e-011
 70
     32
  0
SEQEND
  0
POLYLINE
 8
GROUP0
 66
     1
70
    8
 10
0.0
 20
 0.0
 30
0.0
  0
VERTEX
  8
MY3DLAYER
10
108.999999999997
20
66.5
30
-1.09668496506288e-011
 70
     32
  0
VERTEX
  8
MY3DLAYER
10
109.647047612754
20
66.4148145657227
30
-1.11134879077213e-011
 70
     32
  0
VERTEX
  8
MY3DLAYER
10
109.647047612759
20
66.4148145657227
30
25.0000036395976
 70
     32
  0
VERTEX
  8
MY3DLAYER
10
109.000000000003
20
66.5
30
25.0000036395977
 70
     32
  0
VERTEX
  8
MY3DLAYER
10
108.999999999997
20
66.5
30
-1.09668496506288e-011
 70
     32
  0
SEQEND
  0
POLYLINE
 8
GROUP0
 66
     1
70
    8
 10
0.0
 20
 0.0
 30
0.0
  0
VERTEX
  8
MY3DLAYER
10
109.647047612754
20
66.4148145657227
30
-1.11134879077213e-011
 70
     32
  0
VERTEX
  8
MY3DLAYER
10
110.249999999997
20
66.1650635094611
30
-1.1246026332401e-011
 70
     32
  0
VERTEX
  8
MY3DLAYER
10
110.250000000003
20
66.1650635094611
30
25.0000036395975
 70
     32
  0
VERTEX
  8
MY3DLAYER
10
109.647047612759
20
66.4148145657227
30
25.0000036395976
 70
     32
  0
VERTEX
  8
MY3DLAYER
10
109.647047612754
20
66.4148145657227
30
-1.11134879077213e-011
 70
     32
  0
SEQEND
  0
POLYLINE
 8
GROUP0
 66
     1
70
    8
 10
0.0
 20
 0.0
 30
0.0
  0
VERTEX
  8
MY3DLAYER
10
110.249999999997
20
66.1650635094611
30
-1.1246026332401e-011
 70
     32
  0
VERTEX
  8
MY3DLAYER
10
110.767766952964
20
65.7677669529664
30
-1.13616449581855e-011
 70
     32
  0
VERTEX
  8
MY3DLAYER
10
110.767766952969
20
65.7677669529664
30
25.0000036395973
 70
     32
  0
VERTEX
  8
MY3DLAYER
10
110.250000000003
20
66.1650635094611
30
25.0000036395975
 70
     32
  0
VERTEX
  8
MY3DLAYER
10
110.249999999997
20
66.1650635094611
30
-1.1246026332401e-011
 70
     32
  0
SEQEND
  0
POLYLINE
 8
GROUP0
 66
     1
70
    8
 10
0.0
 20
 0.0
 30
0.0
  0
VERTEX
  8
MY3DLAYER
10
110.767766952964
20
65.7677669529664
30
-1.13616449581855e-011
 70
     32
  0
VERTEX
  8
MY3DLAYER
10
111.165063509458
20
65.25
30
-1.1451883885627e-011
 70
     32
  0
VERTEX
  8
MY3DLAYER
10
111.165063509464
20
65.25
30
25.0000036395972
 70
     32
  0
VERTEX
  8
MY3DLAYER
10
110.767766952969
20
65.7677669529664
30
25.0000036395973
 70
     32
  0
VERTEX
  8
MY3DLAYER
10
110.767766952964
20
65.7677669529664
30
-1.13616449581855e-011
 70
     32
  0
SEQEND
  0
POLYLINE
 8
GROUP0
 66
     1
70
    8
 10
0.0
 20
 0.0
 30
0.0
  0
VERTEX
  8
MY3DLAYER
10
111.165063509458
20
65.25
30
-1.1451883885627e-011
 70
     32
  0
VERTEX
  8
MY3DLAYER
10
111.41481456572
20
64.6470476127563
30
-1.1508283215278e-011
 70
     32
  0
VERTEX
  8
MY3DLAYER
10
111.414814565725
20
64.6470476127563
30
25.0000036395972
 70
     32
  0
VERTEX
  8
MY3DLAYER
10
111.165063509464
20
65.25
30
25.0000036395972
 70
     32
  0
VERTEX
  8
MY3DLAYER
10
111.165063509458
20
65.25
30
-1.1451883885627e-011
 70
     32
  0
SEQEND
  0
POLYLINE
 8
GROUP0
 66
     1
70
    8
 10
0.0
 20
 0.0
 30
0.0
  0
VERTEX
  8
MY3DLAYER
10
111.41481456572
20
64.6470476127563
30
-1.1508283215278e-011
 70
     32
  0
VERTEX
  8
MY3DLAYER
10
111.499999999997
20
64.0
30
-1.15252030141733e-011
 70
     32
  0
VERTEX
  8
MY3DLAYER
10
111.500000000003
20
64.0
30
25.0000036395972
 70
     32
  0
VERTEX
  8
MY3DLAYER
10
111.414814565725
20
64.6470476127563
30
25.0000036395972
 70
     32
  0
VERTEX
  8
MY3DLAYER
10
111.41481456572
20
64.6470476127563
30
-1.1508283215278e-011
 70
     32
  0
SEQEND
  0
POLYLINE
 8
GROUP0
 66
     1
70
    8
 10
0.0
 20
 0.0
 30
0.0
  0
VERTEX
  8
MY3DLAYER
10
111.499999999997
20
64.0
30
-1.15252030141733e-011
 70
     32
  0
VERTEX
  8
MY3DLAYER
10
111.41481456572
20
63.3529523872437
30
-1.1508283215278e-011
 70
     32
  0
VERTEX
  8
MY3DLAYER
10
111.414814565725
20
63.3529523872437
30
25.0000036395972
 70
     32
  0
VERTEX
  8
MY3DLAYER
10
111.500000000003
20
64.0
30
25.0000036395972
 70
     32
  0
VERTEX
  8
MY3DLAYER
10
111.499999999997
20
64.0
30
-1.15252030141733e-011
 70
     32
  0
SEQEND
  0
POLYLINE
 8
GROUP0
 66
     1
70
    8
 10
0.0
 20
 0.0
 30
0.0
  0
VERTEX
  8
MY3DLAYER
10
111.41481456572
20
63.3529523872437
30
-1.1508283215278e-011
 70
     32
  0
VERTEX
  8
MY3DLAYER
10
111.165063509458
20
62.75
30
-1.1451883885627e-011
 70
     32
  0
VERTEX
  8
MY3DLAYER
10
111.165063509464
20
62.75
30
25.0000036395972
 70
     32
  0
VERTEX
  8
MY3DLAYER
10
111.414814565725
20
63.3529523872437
30
25.0000036395972
 70
     32
  0
VERTEX
  8
MY3DLAYER
10
111.41481456572
20
63.3529523872437
30
-1.1508283215278e-011
 70
     32
  0
SEQEND
  0
POLYLINE
 8
GROUP0
 66
     1
70
    8
 10
0.0
 20
 0.0
 30
0.0
  0
VERTEX
  8
MY3DLAYER
10
111.165063509458
20
62.75
30
-1.1451883885627e-011
 70
     32
  0
VERTEX
  8
MY3DLAYER
10
110.767766952964
20
62.2322330470336
30
-1.13616449581855e-011
 70
     32
  0
VERTEX
  8
MY3DLAYER
10
110.767766952969
20
62.2322330470336
30
25.0000036395973
 70
     32
  0
VERTEX
  8
MY3DLAYER
10
111.165063509464
20
62.75
30
25.0000036395972
 70
     32
  0
VERTEX
  8
MY3DLAYER
10
111.165063509458
20
62.75
30
-1.1451883885627e-011
 70
     32
  0
SEQEND
  0
POLYLINE
 8
GROUP0
 66
     1
70
    8
 10
0.0
 20
 0.0
 30
0.0
  0
VERTEX
  8
MY3DLAYER
10
110.767766952964
20
62.2322330470336
30
-1.13616449581855e-011
 70
     32
  0
VERTEX
  8
MY3DLAYER
10
110.249999999997
20
61.8349364905389
30
-1.1246026332401e-011
 70
     32
  0
VERTEX
  8
MY3DLAYER
10
110.250000000003
20
61.8349364905389
30
25.0000036395975
 70
     32
  0
VERTEX
  8
MY3DLAYER
10
110.767766952969
20
62.2322330470336
30
25.0000036395973
 70
     32
  0
VERTEX
  8
MY3DLAYER
10
110.767766952964
20
62.2322330470336
30
-1.13616449581855e-011
 70
     32
  0
SEQEND
  0
POLYLINE
 8
GROUP0
 66
     1
70
    8
 10
0.0
 20
 0.0
 30
0.0
  0
VERTEX
  8
MY3DLAYER
10
110.249999999997
20
61.8349364905389
30
-1.1246026332401e-011
 70
     32
  0
VERTEX
  8
MY3DLAYER
10
109.647047612754
20
61.5851854342773
30
-1.11134879077213e-011
 70
     32
  0
VERTEX
  8
MY3DLAYER
10
109.647047612759
20
61.5851854342773
30
25.0000036395976
 70
     32
  0
VERTEX
  8
MY3DLAYER
10
110.250000000003
20
61.8349364905389
30
25.0000036395975
 70
     32
  0
VERTEX
  8
MY3DLAYER
10
110.249999999997
20
61.8349364905389
30
-1.1246026332401e-011
 70
     32
  0
SEQEND
  0
POLYLINE
 8
GROUP0
 66
     1
70
    8
 10
0.0
 20
 0.0
 30
0.0
  0
VERTEX
  8
MY3DLAYER
10
109.647047612754
20
61.5851854342773
30
-1.11134879077213e-011
 70
     32
  0
VERTEX
  8
MY3DLAYER
10
108.999999999997
20
61.5
30
-1.09668496506288e-011
 70
     32
  0
VERTEX
  8
MY3DLAYER
10
109.000000000003
20
61.5
30
25.0000036395977
 70
     32
  0
VERTEX
  8
MY3DLAYER
10
109.647047612759
20
61.5851854342773
30
25.0000036395976
 70
     32
  0
VERTEX
  8
MY3DLAYER
10
109.647047612754
20
61.5851854342773
30
-1.11134879077213e-011
 70
     32
  0
SEQEND
  0
POLYLINE
 8
GROUP0
 66
     1
70
    8
 10
0.0
 20
 0.0
 30
0.0
  0
VERTEX
  8
MY3DLAYER
10
108.999999999997
20
61.5
30
-1.09668496506288e-011
 70
     32
  0
VERTEX
  8
MY3DLAYER
10
108.352952387241
20
61.5851854342773
30
-1.08230313600188e-011
 70
     32
  0
VERTEX
  8
MY3DLAYER
10
108.352952387246
20
61.5851854342773
30
25.0000036395979
 70
     32
  0
VERTEX
  8
MY3DLAYER
10
109.000000000003
20
61.5
30
25.0000036395977
 70
     32
  0
VERTEX
  8
MY3DLAYER
10
108.999999999997
20
61.5
30
-1.09668496506288e-011
 70
     32
  0
SEQEND
  0
POLYLINE
 8
GROUP0
 66
     1
70
    8
 10
0.0
 20
 0.0
 30
0.0
  0
VERTEX
  8
MY3DLAYER
10
108.352952387241
20
61.5851854342773
30
-1.08230313600188e-011
 70
     32
  0
VERTEX
  8
MY3DLAYER
10
107.749999999997
20
61.8349364905389
30
-1.06876729688565e-011
 70
     32
  0
VERTEX
  8
MY3DLAYER
10
107.750000000003
20
61.8349364905389
30
25.000003639598
 70
     32
  0
VERTEX
  8
MY3DLAYER
10
108.352952387246
20
61.5851854342773
30
25.0000036395979
 70
     32
  0
VERTEX
  8
MY3DLAYER
10
108.352952387241
20
61.5851854342773
30
-1.08230313600188e-011
 70
     32
  0
SEQEND
  0
POLYLINE
 8
GROUP0
 66
     1
70
    8
 10
0.0
 20
 0.0
 30
0.0
  0
VERTEX
  8
MY3DLAYER
10
107.749999999997
20
61.8349364905389
30
-1.06876729688565e-011
 70
     32
  0
VERTEX
  8
MY3DLAYER
10
107.232233047031
20
62.2322330470336
30
-1.05720543430721e-011
 70
     32
  0
VERTEX
  8
MY3DLAYER
10
107.232233047036
20
62.2322330470336
30
25.0000036395981
 70
     32
  0
VERTEX
  8
MY3DLAYER
10
107.750000000003
20
61.8349364905389
30
25.000003639598
 70
     32
  0
VERTEX
  8
MY3DLAYER
10
107.749999999997
20
61.8349364905389
30
-1.06876729688565e-011
 70
     32
  0
SEQEND
  0
POLYLINE
 8
GROUP0
 66
     1
70
    8
 10
0.0
 20
 0.0
 30
0.0
  0
VERTEX
  8
MY3DLAYER
10
107.232233047031
20
62.2322330470336
30
-1.05720543430721e-011
 70
     32
  0
VERTEX
  8
MY3DLAYER
10
106.834936490536
20
62.75
30
-1.04846353821131e-011
 70
     32
  0
VERTEX
  8
MY3DLAYER
10
106.834936490542
20
62.75
30
25.0000036395982
 70
     32
  0
VERTEX
  8
MY3DLAYER
10
107.232233047036
20
62.2322330470336
30
25.0000036395981
 70
     32
  0
VERTEX
  8
MY3DLAYER
10
107.232233047031
20
62.2322330470336
30
-1.05720543430721e-011
 70
     32
  0
SEQEND
  0
POLYLINE
 8
GROUP0
 66
     1
70
    8
 10
0.0
 20
 0.0
 30
0.0
  0
VERTEX
  8
MY3DLAYER
10
106.834936490536
20
62.75
30
-1.04846353821131e-011
 70
     32
  0
VERTEX
  8
MY3DLAYER
10
106.585185434275
20
63.3529523872437
30
-1.04282360524621e-011
 70
     32
  0
VERTEX
  8
MY3DLAYER
10
106.58518543428
20
63.3529523872437
30
25.0000036395983
 70
     32
  0
VERTEX
  8
MY3DLAYER
10
106.834936490542
20
62.75
30
25.0000036395982
 70
     32
  0
VERTEX
  8
MY3DLAYER
10
106.834936490536
20
62.75
30
-1.04846353821131e-011
 70
     32
  0
SEQEND
  0
POLYLINE
 8
GROUP0
 66
     1
70
    8
 10
0.0
 20
 0.0
 30
0.0
  0
VERTEX
  8
MY3DLAYER
10
110.249999999997
20
12.1650635094611
30
-1.12009068686802e-011
 70
     32
  0
VERTEX
  8
MY3DLAYER
10
110.767766952964
20
11.7677669529664
30
-1.13165254944647e-011
 70
     32
  0
VERTEX
  8
MY3DLAYER
10
110.767766952969
20
11.7677669529664
30
25.0000036395973
 70
     32
  0
VERTEX
  8
MY3DLAYER
10
110.250000000003
20
12.1650635094611
30
25.0000036395975
 70
     32
  0
VERTEX
  8
MY3DLAYER
10
110.249999999997
20
12.1650635094611
30
-1.12009068686802e-011
 70
     32
  0
SEQEND
  0
POLYLINE
 8
GROUP0
 66
     1
70
    8
 10
0.0
 20
 0.0
 30
0.0
  0
VERTEX
  8
MY3DLAYER
10
110.767766952964
20
11.7677669529664
30
-1.13165254944647e-011
 70
     32
  0
VERTEX
  8
MY3DLAYER
10
111.165063509458
20
11.25
30
-1.14067644219062e-011
 70
     32
  0
VERTEX
  8
MY3DLAYER
10
111.165063509464
20
11.25
30
25.0000036395972
 70
     32
  0
VERTEX
  8
MY3DLAYER
10
110.767766952969
20
11.7677669529664
30
25.0000036395973
 70
     32
  0
VERTEX
  8
MY3DLAYER
10
110.767766952964
20
11.7677669529664
30
-1.13165254944647e-011
 70
     32
  0
SEQEND
  0
POLYLINE
 8
GROUP0
 66
     1
70
    8
 10
0.0
 20
 0.0
 30
0.0
  0
VERTEX
  8
MY3DLAYER
10
111.165063509458
20
11.25
30
-1.14067644219062e-011
 70
     32
  0
VERTEX
  8
MY3DLAYER
10
111.41481456572
20
10.6470476127563
30
-1.14631637515572e-011
 70
     32
  0
VERTEX
  8
MY3DLAYER
10
111.414814565725
20
10.6470476127563
30
25.0000036395972
 70
     32
  0
VERTEX
  8
MY3DLAYER
10
111.165063509464
20
11.25
30
25.0000036395972
 70
     32
  0
VERTEX
  8
MY3DLAYER
10
111.165063509458
20
11.25
30
-1.14067644219062e-011
 70
     32
  0
SEQEND
  0
POLYLINE
 8
GROUP0
 66
     1
70
    8
 10
0.0
 20
 0.0
 30
0.0
  0
VERTEX
  8
MY3DLAYER
10
111.41481456572
20
10.6470476127563
30
-1.14631637515572e-011
 70
     32
  0
VERTEX
  8
MY3DLAYER
10
111.499999999997
20
10.0
30
-1.14800835504525e-011
 70
     32
  0
VERTEX
  8
MY3DLAYER
10
111.500000000003
20
10.0
30
25.0000036395972
 70
     32
  0
VERTEX
  8
MY3DLAYER
10
111.414814565725
20
10.6470476127563
30
25.0000036395972
 70
     32
  0
VERTEX
  8
MY3DLAYER
10
111.41481456572
20
10.6470476127563
30
-1.14631637515572e-011
 70
     32
  0
SEQEND
  0
POLYLINE
 8
GROUP0
 66
     1
70
    8
 10
0.0
 20
 0.0
 30
0.0
  0
VERTEX
  8
MY3DLAYER
10
111.499999999997
20
10.0
30
-1.14800835504525e-011
 70
     32
  0
VERTEX
  8
MY3DLAYER
10
111.41481456572
20
9.35295238724371
30
-1.14631637515572e-011
 70
     32
  0
VERTEX
  8
MY3DLAYER
10
111.414814565725
20
9.35295238724371
30
25.0000036395972
 70
     32
  0
VERTEX
  8
MY3DLAYER
10
111.500000000003
20
10.0
30
25.0000036395972
 70
     32
  0
VERTEX
  8
MY3DLAYER
10
111.499999999997
20
10.0
30
-1.14800835504525e-011
 70
     32
  0
SEQEND
  0
POLYLINE
 8
GROUP0
 66
     1
70
    8
 10
0.0
 20
 0.0
 30
0.0
  0
VERTEX
  8
MY3DLAYER
10
111.41481456572
20
9.35295238724371
30
-1.14631637515572e-011
 70
     32
  0
VERTEX
  8
MY3DLAYER
10
111.165063509458
20
8.75000000000001
30
-1.14067644219062e-011
 70
     32
  0
VERTEX
  8
MY3DLAYER
10
111.165063509464
20
8.75000000000001
30
25.0000036395972
 70
     32
  0
VERTEX
  8
MY3DLAYER
10
111.414814565725
20
9.35295238724371
30
25.0000036395972
 70
     32
  0
VERTEX
  8
MY3DLAYER
10
111.41481456572
20
9.35295238724371
30
-1.14631637515572e-011
 70
     32
  0
SEQEND
  0
POLYLINE
 8
GROUP0
 66
     1
70
    8
 10
0.0
 20
 0.0
 30
0.0
  0
VERTEX
  8
MY3DLAYER
10
111.165063509458
20
8.75000000000001
30
-1.14067644219062e-011
 70
     32
  0
VERTEX
  8
MY3DLAYER
10
110.767766952964
20
8.23223304703364
30
-1.13165254944647e-011
 70
     32
  0
VERTEX
  8
MY3DLAYER
10
110.767766952969
20
8.23223304703364
30
25.0000036395973
 70
     32
  0
VERTEX
  8
MY3DLAYER
10
111.165063509464
20
8.75000000000001
30
25.0000036395972
 70
     32
  0
VERTEX
  8
MY3DLAYER
10
111.165063509458
20
8.75000000000001
30
-1.14067644219062e-011
 70
     32
  0
SEQEND
  0
POLYLINE
 8
GROUP0
 66
     1
70
    8
 10
0.0
 20
 0.0
 30
0.0
  0
VERTEX
  8
MY3DLAYER
10
110.767766952964
20
8.23223304703364
30
-1.13165254944647e-011
 70
     32
  0
VERTEX
  8
MY3DLAYER
10
110.249999999997
20
7.83493649053891
30
-1.12009068686802e-011
 70
     32
  0
VERTEX
  8
MY3DLAYER
10
110.250000000003
20
7.83493649053891
30
25.0000036395975
 70
     32
  0
VERTEX
  8
MY3DLAYER
10
110.767766952969
20
8.23223304703364
30
25.0000036395973
 70
     32
  0
VERTEX
  8
MY3DLAYER
10
110.767766952964
20
8.23223304703364
30
-1.13165254944647e-011
 70
     32
  0
SEQEND
  0
POLYLINE
 8
GROUP0
 66
     1
70
    8
 10
0.0
 20
 0.0
 30
0.0
  0
VERTEX
  8
MY3DLAYER
10
110.249999999997
20
7.83493649053891
30
-1.12009068686802e-011
 70
     32
  0
VERTEX
  8
MY3DLAYER
10
109.647047612753
20
7.58518543427734
30
-1.10683684440005e-011
 70
     32
  0
VERTEX
  8
MY3DLAYER
10
109.647047612759
20
7.58518543427734
30
25.0000036395976
 70
     32
  0
VERTEX
  8
MY3DLAYER
10
110.250000000003
20
7.83493649053891
30
25.0000036395975
 70
     32
  0
VERTEX
  8
MY3DLAYER
10
110.249999999997
20
7.83493649053891
30
-1.12009068686802e-011
 70
     32
  0
SEQEND
  0
POLYLINE
 8
GROUP0
 66
     1
70
    8
 10
0.0
 20
 0.0
 30
0.0
  0
VERTEX
  8
MY3DLAYER
10
109.647047612753
20
7.58518543427734
30
-1.10683684440005e-011
 70
     32
  0
VERTEX
  8
MY3DLAYER
10
108.999999999997
20
7.50000000000001
30
-1.0921730186908e-011
 70
     32
  0
VERTEX
  8
MY3DLAYER
10
109.000000000003
20
7.50000000000001
30
25.0000036395977
 70
     32
  0
VERTEX
  8
MY3DLAYER
10
109.647047612759
20
7.58518543427734
30
25.0000036395976
 70
     32
  0
VERTEX
  8
MY3DLAYER
10
109.647047612753
20
7.58518543427734
30
-1.10683684440005e-011
 70
     32
  0
SEQEND
  0
POLYLINE
 8
GROUP0
 66
     1
70
    8
 10
0.0
 20
 0.0
 30
0.0
  0
VERTEX
  8
MY3DLAYER
10
108.999999999997
20
7.50000000000001
30
-1.0921730186908e-011
 70
     32
  0
VERTEX
  8
MY3DLAYER
10
108.352952387241
20
7.58518543427734
30
-1.07779118962981e-011
 70
     32
  0
VERTEX
  8
MY3DLAYER
10
108.352952387246
20
7.58518543427734
30
25.0000036395979
 70
     32
  0
VERTEX
  8
MY3DLAYER
10
109.000000000003
20
7.50000000000001
30
25.0000036395977
 70
     32
  0
VERTEX
  8
MY3DLAYER
10
108.999999999997
20
7.50000000000001
30
-1.0921730186908e-011
 70
     32
  0
SEQEND
  0
POLYLINE
 8
GROUP0
 66
     1
70
    8
 10
0.0
 20
 0.0
 30
0.0
  0
VERTEX
  8
MY3DLAYER
10
108.352952387241
20
7.58518543427734
30
-1.07779118962981e-011
 70
     32
  0
VERTEX
  8
MY3DLAYER
10
107.749999999997
20
7.83493649053891
30
-1.06425535051358e-011
 70
     32
  0
VERTEX
  8
MY3DLAYER
10
107.750000000003
20
7.83493649053891
30
25.000003639598
 70
     32
  0
VERTEX
  8
MY3DLAYER
10
108.352952387246
20
7.58518543427734
30
25.0000036395979
 70
     32
  0
VERTEX
  8
MY3DLAYER
10
108.352952387241
20
7.58518543427734
30
-1.07779118962981e-011
 70
     32
  0
SEQEND
  0
POLYLINE
 8
GROUP0
 66
     1
70
    8
 10
0.0
 20
 0.0
 30
0.0
  0
VERTEX
  8
MY3DLAYER
10
107.749999999997
20
7.83493649053891
30
-1.06425535051358e-011
 70
     32
  0
VERTEX
  8
MY3DLAYER
10
107.232233047031
20
8.23223304703364
30
-1.05269348793513e-011
 70
     32
  0
VERTEX
  8
MY3DLAYER
10
107.232233047036
20
8.23223304703364
30
25.0000036395981
 70
     32
  0
VERTEX
  8
MY3DLAYER
10
107.750000000003
20
7.83493649053891
30
25.000003639598
 70
     32
  0
VERTEX
  8
MY3DLAYER
10
107.749999999997
20
7.83493649053891
30
-1.06425535051358e-011
 70
     32
  0
SEQEND
  0
POLYLINE
 8
GROUP0
 66
     1
70
    8
 10
0.0
 20
 0.0
 30
0.0
  0
VERTEX
  8
MY3DLAYER
10
107.232233047031
20
8.23223304703364
30
-1.05269348793513e-011
 70
     32
  0
VERTEX
  8
MY3DLAYER
10
106.834936490536
20
8.75000000000001
30
-1.04395159183923e-011
 70
     32
  0
VERTEX
  8
MY3DLAYER
10
106.834936490542
20
8.75000000000001
30
25.0000036395982
 70
     32
  0
VERTEX
  8
MY3DLAYER
10
107.232233047036
20
8.23223304703364
30
25.0000036395981
 70
     32
  0
VERTEX
  8
MY3DLAYER
10
107.232233047031
20
8.23223304703364
30
-1.05269348793513e-011
 70
     32
  0
SEQEND
  0
POLYLINE
 8
GROUP0
 66
     1
70
    8
 10
0.0
 20
 0.0
 30
0.0
  0
VERTEX
  8
MY3DLAYER
10
106.834936490536
20
8.75000000000001
30
-1.04395159183923e-011
 70
     32
  0
VERTEX
  8
MY3DLAYER
10
106.585185434275
20
9.35295238724371
30
-1.03831165887414e-011
 70
     32
  0
VERTEX
  8
MY3DLAYER
10
106.58518543428
20
9.35295238724371
30
25.0000036395983
 70
     32
  0
VERTEX
  8
MY3DLAYER
10
106.834936490542
20
8.75000000000001
30
25.0000036395982
 70
     32
  0
VERTEX
  8
MY3DLAYER
10
106.834936490536
20
8.75000000000001
30
-1.04395159183923e-011
 70
     32
  0
SEQEND
  0
POLYLINE
 8
GROUP0
 66
     1
70
    8
 10
0.0
 20
 0.0
 30
0.0
  0
VERTEX
  8
MY3DLAYER
10
106.585185434275
20
9.35295238724371
30
-1.03831165887414e-011
 70
     32
  0
VERTEX
  8
MY3DLAYER
10
106.499999999997
20
10.0
30
-1.03633768233635e-011
 70
     32
  0
VERTEX
  8
MY3DLAYER
10
106.500000000003
20
10.0
30
25.0000036395983
 70
     32
  0
VERTEX
  8
MY3DLAYER
10
106.58518543428
20
9.35295238724371
30
25.0000036395983
 70
     32
  0
VERTEX
  8
MY3DLAYER
10
106.585185434275
20
9.35295238724371
30
-1.03831165887414e-011
 70
     32
  0
SEQEND
  0
POLYLINE
 8
GROUP0
 66
     1
70
    8
 10
0.0
 20
 0.0
 30
0.0
  0
VERTEX
  8
MY3DLAYER
10
106.499999999997
20
10.0
30
-1.03633768233635e-011
 70
     32
  0
VERTEX
  8
MY3DLAYER
10
106.585185434275
20
10.6470476127563
30
-1.03831165887414e-011
 70
     32
  0
VERTEX
  8
MY3DLAYER
10
106.58518543428
20
10.6470476127563
30
25.0000036395983
 70
     32
  0
VERTEX
  8
MY3DLAYER
10
106.500000000003
20
10.0
30
25.0000036395983
 70
     32
  0
VERTEX
  8
MY3DLAYER
10
106.499999999997
20
10.0
30
-1.03633768233635e-011
 70
     32
  0
SEQEND
  0
POLYLINE
 8
GROUP0
 66
     1
70
    8
 10
0.0
 20
 0.0
 30
0.0
  0
VERTEX
  8
MY3DLAYER
10
106.585185434275
20
10.6470476127563
30
-1.03831165887414e-011
 70
     32
  0
VERTEX
  8
MY3DLAYER
10
106.834936490536
20
11.25
30
-1.04395159183923e-011
 70
     32
  0
VERTEX
  8
MY3DLAYER
10
106.834936490542
20
11.25
30
25.0000036395982
 70
     32
  0
VERTEX
  8
MY3DLAYER
10
106.58518543428
20
10.6470476127563
30
25.0000036395983
 70
     32
  0
VERTEX
  8
MY3DLAYER
10
106.585185434275
20
10.6470476127563
30
-1.03831165887414e-011
 70
     32
  0
SEQEND
  0
POLYLINE
 8
GROUP0
 66
     1
70
    8
 10
0.0
 20
 0.0
 30
0.0
  0
VERTEX
  8
MY3DLAYER
10
106.834936490536
20
11.25
30
-1.04395159183923e-011
 70
     32
  0
VERTEX
  8
MY3DLAYER
10
107.232233047031
20
11.7677669529664
30
-1.05269348793513e-011
 70
     32
  0
VERTEX
  8
MY3DLAYER
10
107.232233047036
20
11.7677669529664
30
25.0000036395981
 70
     32
  0
VERTEX
  8
MY3DLAYER
10
106.834936490542
20
11.25
30
25.0000036395982
 70
     32
  0
VERTEX
  8
MY3DLAYER
10
106.834936490536
20
11.25
30
-1.04395159183923e-011
 70
     32
  0
SEQEND
  0
POLYLINE
 8
GROUP0
 66
     1
70
    8
 10
0.0
 20
 0.0
 30
0.0
  0
VERTEX
  8
MY3DLAYER
10
107.232233047031
20
11.7677669529664
30
-1.05269348793513e-011
 70
     32
  0
VERTEX
  8
MY3DLAYER
10
107.749999999997
20
12.1650635094611
30
-1.06425535051358e-011
 70
     32
  0
VERTEX
  8
MY3DLAYER
10
107.750000000003
20
12.1650635094611
30
25.000003639598
 70
     32
  0
VERTEX
  8
MY3DLAYER
10
107.232233047036
20
11.7677669529664
30
25.0000036395981
 70
     32
  0
VERTEX
  8
MY3DLAYER
10
107.232233047031
20
11.7677669529664
30
-1.05269348793513e-011
 70
     32
  0
SEQEND
  0
POLYLINE
 8
GROUP0
 66
     1
70
    8
 10
0.0
 20
 0.0
 30
0.0
  0
VERTEX
  8
MY3DLAYER
10
107.749999999997
20
12.1650635094611
30
-1.06425535051358e-011
 70
     32
  0
VERTEX
  8
MY3DLAYER
10
108.352952387241
20
12.4148145657227
30
-1.07779118962981e-011
 70
     32
  0
VERTEX
  8
MY3DLAYER
10
108.352952387246
20
12.4148145657227
30
25.0000036395979
 70
     32
  0
VERTEX
  8
MY3DLAYER
10
107.750000000003
20
12.1650635094611
30
25.000003639598
 70
     32
  0
VERTEX
  8
MY3DLAYER
10
107.749999999997
20
12.1650635094611
30
-1.06425535051358e-011
 70
     32
  0
SEQEND
  0
POLYLINE
 8
GROUP0
 66
     1
70
    8
 10
0.0
 20
 0.0
 30
0.0
  0
VERTEX
  8
MY3DLAYER
10
108.352952387241
20
12.4148145657227
30
-1.07779118962981e-011
 70
     32
  0
VERTEX
  8
MY3DLAYER
10
108.999999999997
20
12.5
30
-1.0921730186908e-011
 70
     32
  0
VERTEX
  8
MY3DLAYER
10
109.000000000003
20
12.5
30
25.0000036395977
 70
     32
  0
VERTEX
  8
MY3DLAYER
10
108.352952387246
20
12.4148145657227
30
25.0000036395979
 70
     32
  0
VERTEX
  8
MY3DLAYER
10
108.352952387241
20
12.4148145657227
30
-1.07779118962981e-011
 70
     32
  0
SEQEND
  0
POLYLINE
 8
GROUP0
 66
     1
70
    8
 10
0.0
 20
 0.0
 30
0.0
  0
VERTEX
  8
MY3DLAYER
10
108.999999999997
20
12.5
30
-1.0921730186908e-011
 70
     32
  0
VERTEX
  8
MY3DLAYER
10
109.647047612754
20
12.4148145657227
30
-1.10683684440005e-011
 70
     32
  0
VERTEX
  8
MY3DLAYER
10
109.647047612759
20
12.4148145657227
30
25.0000036395976
 70
     32
  0
VERTEX
  8
MY3DLAYER
10
109.000000000003
20
12.5
30
25.0000036395977
 70
     32
  0
VERTEX
  8
MY3DLAYER
10
108.999999999997
20
12.5
30
-1.0921730186908e-011
 70
     32
  0
SEQEND
  0
POLYLINE
 8
GROUP0
 66
     1
70
    8
 10
0.0
 20
 0.0
 30
0.0
  0
VERTEX
  8
MY3DLAYER
10
109.647047612754
20
12.4148145657227
30
-1.10683684440005e-011
 70
     32
  0
VERTEX
  8
MY3DLAYER
10
110.249999999997
20
12.1650635094611
30
-1.12009068686802e-011
 70
     32
  0
VERTEX
  8
MY3DLAYER
10
110.250000000003
20
12.1650635094611
30
25.0000036395975
 70
     32
  0
VERTEX
  8
MY3DLAYER
10
109.647047612759
20
12.4148145657227
30
25.0000036395976
 70
     32
  0
VERTEX
  8
MY3DLAYER
10
109.647047612754
20
12.4148145657227
30
-1.10683684440005e-011
 70
     32
  0
SEQEND
  0
POLYLINE
 8
GROUP0
 66
     1
70
    8
 10
0.0
 20
 0.0
 30
0.0
  0
VERTEX
  8
MY3DLAYER
10
11.2499999999973
20
7.83493649053891
30
1.08991704550476e-011
 70
     32
  0
VERTEX
  8
MY3DLAYER
10
10.6470476127536
20
7.58518543427733
30
1.10345288462099e-011
 70
     32
  0
VERTEX
  8
MY3DLAYER
10
10.6470476127591
20
7.58518543427733
30
25.0000036396197
 70
     32
  0
VERTEX
  8
MY3DLAYER
10
11.2500000000029
20
7.83493649053891
30
25.0000036396196
 70
     32
  0
VERTEX
  8
MY3DLAYER
10
11.2499999999973
20
7.83493649053891
30
1.08991704550476e-011
 70
     32
  0
SEQEND
  0
POLYLINE
 8
GROUP0
 66
     1
70
    8
 10
0.0
 20
 0.0
 30
0.0
  0
VERTEX
  8
MY3DLAYER
10
10.6470476127536
20
7.58518543427733
30
1.10345288462099e-011
 70
     32
  0
VERTEX
  8
MY3DLAYER
10
9.99999999999723
20
7.5
30
1.11783471368199e-011
 70
     32
  0
VERTEX
  8
MY3DLAYER
10
10.0000000000028
20
7.5
30
25.0000036396198
 70
     32
  0
VERTEX
  8
MY3DLAYER
10
10.6470476127591
20
7.58518543427733
30
25.0000036396197
 70
     32
  0
VERTEX
  8
MY3DLAYER
10
10.6470476127536
20
7.58518543427733
30
1.10345288462099e-011
 70
     32
  0
SEQEND
  0
POLYLINE
 8
GROUP0
 66
     1
70
    8
 10
0.0
 20
 0.0
 30
0.0
  0
VERTEX
  8
MY3DLAYER
10
9.99999999999723
20
7.5
30
1.11783471368199e-011
 70
     32
  0
VERTEX
  8
MY3DLAYER
10
9.35295238724098
20
7.58518543427733
30
1.13221654274298e-011
 70
     32
  0
VERTEX
  8
MY3DLAYER
10
9.35295238724656
20
7.58518543427733
30
25.00000363962
 70
     32
  0
VERTEX
  8
MY3DLAYER
10
10.0000000000028
20
7.5
30
25.0000036396198
 70
     32
  0
VERTEX
  8
MY3DLAYER
10
9.99999999999723
20
7.5
30
1.11783471368199e-011
 70
     32
  0
SEQEND
  0
POLYLINE
 8
GROUP0
 66
     1
70
    8
 10
0.0
 20
 0.0
 30
0.0
  0
VERTEX
  8
MY3DLAYER
10
9.35295238724098
20
7.58518543427733
30
1.13221654274298e-011
 70
     32
  0
VERTEX
  8
MY3DLAYER
10
8.74999999999724
20
7.8349364905389
30
1.14575238185921e-011
 70
     32
  0
VERTEX
  8
MY3DLAYER
10
8.75000000000282
20
7.8349364905389
30
25.0000036396201
 70
     32
  0
VERTEX
  8
MY3DLAYER
10
9.35295238724656
20
7.58518543427733
30
25.00000363962
 70
     32
  0
VERTEX
  8
MY3DLAYER
10
9.35295238724098
20
7.58518543427733
30
1.13221654274298e-011
 70
     32
  0
SEQEND
  0
POLYLINE
 8
GROUP0
 66
     1
70
    8
 10
0.0
 20
 0.0
 30
0.0
  0
VERTEX
  8
MY3DLAYER
10
8.74999999999724
20
7.8349364905389
30
1.14575238185921e-011
 70
     32
  0
VERTEX
  8
MY3DLAYER
10
8.23223304703092
20
8.23223304703363
30
1.15731424443766e-011
 70
     32
  0
VERTEX
  8
MY3DLAYER
10
8.2322330470365
20
8.23223304703363
30
25.0000036396202
 70
     32
  0
VERTEX
  8
MY3DLAYER
10
8.75000000000282
20
7.8349364905389
30
25.0000036396201
 70
     32
  0
VERTEX
  8
MY3DLAYER
10
8.74999999999724
20
7.8349364905389
30
1.14575238185921e-011
 70
     32
  0
SEQEND
  0
POLYLINE
 8
GROUP0
 66
     1
70
    8
 10
0.0
 20
 0.0
 30
0.0
  0
VERTEX
  8
MY3DLAYER
10
8.23223304703092
20
8.23223304703363
30
1.15731424443766e-011
 70
     32
  0
VERTEX
  8
MY3DLAYER
10
7.83493649053617
20
8.75
30
1.16605614053356e-011
 70
     32
  0
VERTEX
  8
MY3DLAYER
10
7.83493649054174
20
8.75
30
25.0000036396203
 70
     32
  0
VERTEX
  8
MY3DLAYER
10
8.2322330470365
20
8.23223304703363
30
25.0000036396202
 70
     32
  0
VERTEX
  8
MY3DLAYER
10
8.23223304703092
20
8.23223304703363
30
1.15731424443766e-011
 70
     32
  0
SEQEND
  0
POLYLINE
 8
GROUP0
 66
     1
70
    8
 10
0.0
 20
 0.0
 30
0.0
  0
VERTEX
  8
MY3DLAYER
10
7.83493649053617
20
8.75
30
1.16605614053356e-011
 70
     32
  0
VERTEX
  8
MY3DLAYER
10
7.58518543427459
20
9.3529523872437
30
1.17169607349865e-011
 70
     32
  0
VERTEX
  8
MY3DLAYER
10
7.58518543428016
20
9.3529523872437
30
25.0000036396204
 70
     32
  0
VERTEX
  8
MY3DLAYER
10
7.83493649054174
20
8.75
30
25.0000036396203
 70
     32
  0
VERTEX
  8
MY3DLAYER
10
7.83493649053617
20
8.75
30
1.16605614053356e-011
 70
     32
  0
SEQEND
  0
POLYLINE
 8
GROUP0
 66
     1
70
    8
 10
0.0
 20
 0.0
 30
0.0
  0
VERTEX
  8
MY3DLAYER
10
7.58518543427459
20
9.3529523872437
30
1.17169607349865e-011
 70
     32
  0
VERTEX
  8
MY3DLAYER
10
7.49999999999726
20
10.0
30
1.17367005003643e-011
 70
     32
  0
VERTEX
  8
MY3DLAYER
10
7.50000000000283
20
10.0
30
25.0000036396204
 70
     32
  0
VERTEX
  8
MY3DLAYER
10
7.58518543428016
20
9.3529523872437
30
25.0000036396204
 70
     32
  0
VERTEX
  8
MY3DLAYER
10
7.58518543427459
20
9.3529523872437
30
1.17169607349865e-011
 70
     32
  0
SEQEND
  0
POLYLINE
 8
GROUP0
 66
     1
70
    8
 10
0.0
 20
 0.0
 30
0.0
  0
VERTEX
  8
MY3DLAYER
10
7.49999999999726
20
10.0
30
1.17367005003643e-011
 70
     32
  0
VERTEX
  8
MY3DLAYER
10
7.58518543427459
20
10.6470476127563
30
1.17169607349865e-011
 70
     32
  0
VERTEX
  8
MY3DLAYER
10
7.58518543428016
20
10.6470476127563
30
25.0000036396204
 70
     32
  0
VERTEX
  8
MY3DLAYER
10
7.50000000000283
20
10.0
30
25.0000036396204
 70
     32
  0
VERTEX
  8
MY3DLAYER
10
7.49999999999726
20
10.0
30
1.17367005003643e-011
 70
     32
  0
SEQEND
  0
POLYLINE
 8
GROUP0
 66
     1
70
    8
 10
0.0
 20
 0.0
 30
0.0
  0
VERTEX
  8
MY3DLAYER
10
7.58518543427459
20
10.6470476127563
30
1.17169607349865e-011
 70
     32
  0
VERTEX
  8
MY3DLAYER
10
7.83493649053617
20
11.25
30
1.16605614053356e-011
 70
     32
  0
VERTEX
  8
MY3DLAYER
10
7.83493649054174
20
11.25
30
25.0000036396203
 70
     32
  0
VERTEX
  8
MY3DLAYER
10
7.58518543428016
20
10.6470476127563
30
25.0000036396204
 70
     32
  0
VERTEX
  8
MY3DLAYER
10
7.58518543427459
20
10.6470476127563
30
1.17169607349865e-011
 70
     32
  0
SEQEND
  0
POLYLINE
 8
GROUP0
 66
     1
70
    8
 10
0.0
 20
 0.0
 30
0.0
  0
VERTEX
  8
MY3DLAYER
10
7.83493649053617
20
11.25
30
1.16605614053356e-011
 70
     32
  0
VERTEX
  8
MY3DLAYER
10
8.23223304703092
20
11.7677669529664
30
1.15731424443766e-011
 70
     32
  0
VERTEX
  8
MY3DLAYER
10
8.2322330470365
20
11.7677669529664
30
25.0000036396202
 70
     32
  0
VERTEX
  8
MY3DLAYER
10
7.83493649054174
20
11.25
30
25.0000036396203
 70
     32
  0
VERTEX
  8
MY3DLAYER
10
7.83493649053617
20
11.25
30
1.16605614053356e-011
 70
     32
  0
SEQEND
  0
POLYLINE
 8
GROUP0
 66
     1
70
    8
 10
0.0
 20
 0.0
 30
0.0
  0
VERTEX
  8
MY3DLAYER
10
8.23223304703092
20
11.7677669529664
30
1.15731424443766e-011
 70
     32
  0
VERTEX
  8
MY3DLAYER
10
8.74999999999724
20
12.1650635094611
30
1.14575238185921e-011
 70
     32
  0
VERTEX
  8
MY3DLAYER
10
8.75000000000282
20
12.1650635094611
30
25.0000036396201
 70
     32
  0
VERTEX
  8
MY3DLAYER
10
8.2322330470365
20
11.7677669529664
30
25.0000036396202
 70
     32
  0
VERTEX
  8
MY3DLAYER
10
8.23223304703092
20
11.7677669529664
30
1.15731424443766e-011
 70
     32
  0
SEQEND
  0
POLYLINE
 8
GROUP0
 66
     1
70
    8
 10
0.0
 20
 0.0
 30
0.0
  0
VERTEX
  8
MY3DLAYER
10
8.74999999999724
20
12.1650635094611
30
1.14575238185921e-011
 70
     32
  0
VERTEX
  8
MY3DLAYER
10
9.35295238724098
20
12.4148145657227
30
1.13221654274298e-011
 70
     32
  0
VERTEX
  8
MY3DLAYER
10
9.35295238724656
20
12.4148145657227
30
25.00000363962
 70
     32
  0
VERTEX
  8
MY3DLAYER
10
8.75000000000282
20
12.1650635094611
30
25.0000036396201
 70
     32
  0
VERTEX
  8
MY3DLAYER
10
8.74999999999724
20
12.1650635094611
30
1.14575238185921e-011
 70
     32
  0
SEQEND
  0
POLYLINE
 8
GROUP0
 66
     1
70
    8
 10
0.0
 20
 0.0
 30
0.0
  0
VERTEX
  8
MY3DLAYER
10
9.35295238724098
20
12.4148145657227
30
1.13221654274298e-011
 70
     32
  0
VERTEX
  8
MY3DLAYER
10
9.99999999999723
20
12.5
30
1.11783471368199e-011
 70
     32
  0
VERTEX
  8
MY3DLAYER
10
10.0000000000028
20
12.5
30
25.0000036396198
 70
     32
  0
VERTEX
  8
MY3DLAYER
10
9.35295238724656
20
12.4148145657227
30
25.00000363962
 70
     32
  0
VERTEX
  8
MY3DLAYER
10
9.35295238724098
20
12.4148145657227
30
1.13221654274298e-011
 70
     32
  0
SEQEND
  0
POLYLINE
 8
GROUP0
 66
     1
70
    8
 10
0.0
 20
 0.0
 30
0.0
  0
VERTEX
  8
MY3DLAYER
10
9.99999999999723
20
12.5
30
1.11783471368199e-011
 70
     32
  0
VERTEX
  8
MY3DLAYER
10
10.6470476127536
20
12.4148145657227
30
1.10345288462099e-011
 70
     32
  0
VERTEX
  8
MY3DLAYER
10
10.6470476127591
20
12.4148145657227
30
25.0000036396197
 70
     32
  0
VERTEX
  8
MY3DLAYER
10
10.0000000000028
20
12.5
30
25.0000036396198
 70
     32
  0
VERTEX
  8
MY3DLAYER
10
9.99999999999723
20
12.5
30
1.11783471368199e-011
 70
     32
  0
SEQEND
  0
POLYLINE
 8
GROUP0
 66
     1
70
    8
 10
0.0
 20
 0.0
 30
0.0
  0
VERTEX
  8
MY3DLAYER
10
10.6470476127536
20
12.4148145657227
30
1.10345288462099e-011
 70
     32
  0
VERTEX
  8
MY3DLAYER
10
11.2499999999972
20
12.1650635094611
30
1.08991704550476e-011
 70
     32
  0
VERTEX
  8
MY3DLAYER
10
11.2500000000028
20
12.1650635094611
30
25.0000036396196
 70
     32
  0
VERTEX
  8
MY3DLAYER
10
10.6470476127591
20
12.4148145657227
30
25.0000036396197
 70
     32
  0
VERTEX
  8
MY3DLAYER
10
10.6470476127536
20
12.4148145657227
30
1.10345288462099e-011
 70
     32
  0
SEQEND
  0
POLYLINE
 8
GROUP0
 66
     1
70
    8
 10
0.0
 20
 0.0
 30
0.0
  0
VERTEX
  8
MY3DLAYER
10
11.2499999999972
20
12.1650635094611
30
1.08991704550476e-011
 70
     32
  0
VERTEX
  8
MY3DLAYER
10
11.7677669529636
20
11.7677669529664
30
1.07835518292632e-011
 70
     32
  0
VERTEX
  8
MY3DLAYER
10
11.7677669529692
20
11.7677669529664
30
25.0000036396194
 70
     32
  0
VERTEX
  8
MY3DLAYER
10
11.2500000000028
20
12.1650635094611
30
25.0000036396196
 70
     32
  0
VERTEX
  8
MY3DLAYER
10
11.2499999999972
20
12.1650635094611
30
1.08991704550476e-011
 70
     32
  0
SEQEND
  0
POLYLINE
 8
GROUP0
 66
     1
70
    8
 10
0.0
 20
 0.0
 30
0.0
  0
VERTEX
  8
MY3DLAYER
10
11.7677669529636
20
11.7677669529664
30
1.07835518292632e-011
 70
     32
  0
VERTEX
  8
MY3DLAYER
10
12.1650635094584
20
11.25
30
1.06933129018216e-011
 70
     32
  0
VERTEX
  8
MY3DLAYER
10
12.165063509464
20
11.25
30
25.0000036396194
 70
     32
  0
VERTEX
  8
MY3DLAYER
10
11.7677669529692
20
11.7677669529664
30
25.0000036396194
 70
     32
  0
VERTEX
  8
MY3DLAYER
10
11.7677669529636
20
11.7677669529664
30
1.07835518292632e-011
 70
     32
  0
SEQEND
  0
POLYLINE
 8
GROUP0
 66
     1
70
    8
 10
0.0
 20
 0.0
 30
0.0
  0
VERTEX
  8
MY3DLAYER
10
12.1650635094584
20
11.25
30
1.06933129018216e-011
 70
     32
  0
VERTEX
  8
MY3DLAYER
10
12.41481456572
20
10.6470476127563
30
1.06397335386532e-011
 70
     32
  0
VERTEX
  8
MY3DLAYER
10
12.4148145657255
20
10.6470476127563
30
25.0000036396193
 70
     32
  0
VERTEX
  8
MY3DLAYER
10
12.165063509464
20
11.25
30
25.0000036396194
 70
     32
  0
VERTEX
  8
MY3DLAYER
10
12.1650635094584
20
11.25
30
1.06933129018216e-011
 70
     32
  0
SEQEND
  0
POLYLINE
 8
GROUP0
 66
     1
70
    8
 10
0.0
 20
 0.0
 30
0.0
  0
VERTEX
  8
MY3DLAYER
10
12.41481456572
20
10.6470476127563
30
1.06397335386532e-011
 70
     32
  0
VERTEX
  8
MY3DLAYER
10
12.4999999999973
20
10.0
30
1.06199937732754e-011
 70
     32
  0
VERTEX
  8
MY3DLAYER
10
12.5000000000029
20
10.0
30
25.0000036396193
 70
     32
  0
VERTEX
  8
MY3DLAYER
10
12.4148145657255
20
10.6470476127563
30
25.0000036396193
 70
     32
  0
VERTEX
  8
MY3DLAYER
10
12.41481456572
20
10.6470476127563
30
1.06397335386532e-011
 70
     32
  0
SEQEND
  0
POLYLINE
 8
GROUP0
 66
     1
70
    8
 10
0.0
 20
 0.0
 30
0.0
  0
VERTEX
  8
MY3DLAYER
10
12.4999999999973
20
10.0
30
1.06199937732754e-011
 70
     32
  0
VERTEX
  8
MY3DLAYER
10
12.41481456572
20
9.3529523872437
30
1.06397335386532e-011
 70
     32
  0
VERTEX
  8
MY3DLAYER
10
12.4148145657255
20
9.3529523872437
30
25.0000036396193
 70
     32
  0
VERTEX
  8
MY3DLAYER
10
12.5000000000029
20
10.0
30
25.0000036396193
 70
     32
  0
VERTEX
  8
MY3DLAYER
10
12.4999999999973
20
10.0
30
1.06199937732754e-011
 70
     32
  0
SEQEND
  0
POLYLINE
 8
GROUP0
 66
     1
70
    8
 10
0.0
 20
 0.0
 30
0.0
  0
VERTEX
  8
MY3DLAYER
10
12.41481456572
20
9.3529523872437
30
1.06397335386532e-011
 70
     32
  0
VERTEX
  8
MY3DLAYER
10
12.1650635094584
20
8.75
30
1.06933129018216e-011
 70
     32
  0
VERTEX
  8
MY3DLAYER
10
12.165063509464
20
8.75
30
25.0000036396194
 70
     32
  0
VERTEX
  8
MY3DLAYER
10
12.4148145657255
20
9.3529523872437
30
25.0000036396193
 70
     32
  0
VERTEX
  8
MY3DLAYER
10
12.41481456572
20
9.3529523872437
30
1.06397335386532e-011
 70
     32
  0
SEQEND
  0
POLYLINE
 8
GROUP0
 66
     1
70
    8
 10
0.0
 20
 0.0
 30
0.0
  0
VERTEX
  8
MY3DLAYER
10
12.1650635094584
20
8.75
30
1.06933129018216e-011
 70
     32
  0
VERTEX
  8
MY3DLAYER
10
11.7677669529636
20
8.23223304703363
30
1.07835518292632e-011
 70
     32
  0
VERTEX
  8
MY3DLAYER
10
11.7677669529692
20
8.23223304703363
30
25.0000036396194
 70
     32
  0
VERTEX
  8
MY3DLAYER
10
12.165063509464
20
8.75
30
25.0000036396194
 70
     32
  0
VERTEX
  8
MY3DLAYER
10
12.1650635094584
20
8.75
30
1.06933129018216e-011
 70
     32
  0
SEQEND
  0
POLYLINE
 8
GROUP0
 66
     1
70
    8
 10
0.0
 20
 0.0
 30
0.0
  0
VERTEX
  8
MY3DLAYER
10
11.7677669529636
20
8.23223304703363
30
1.07835518292632e-011
 70
     32
  0
VERTEX
  8
MY3DLAYER
10
11.2499999999973
20
7.83493649053891
30
1.08991704550476e-011
 70
     32
  0
VERTEX
  8
MY3DLAYER
10
11.2500000000029
20
7.83493649053891
30
25.0000036396196
 70
     32
  0
VERTEX
  8
MY3DLAYER
10
11.7677669529692
20
8.23223304703363
30
25.0000036396194
 70
     32
  0
VERTEX
  8
MY3DLAYER
10
11.7677669529636
20
8.23223304703363
30
1.07835518292632e-011
 70
     32
  0
SEQEND
  0
POLYLINE
 8
GROUP0
 66
     1
70
    8
 10
0.0
 20
 0.0
 30
0.0
  0
VERTEX
  8
MY3DLAYER
10
118.999999999997
20
0.0
30
-1.31551436410859e-011
 70
     32
  0
VERTEX
  8
MY3DLAYER
10
-2.75228728696675e-012
20
0.0
30
1.34089406245153e-011
 70
     32
  0
VERTEX
  8
MY3DLAYER
10
-2.75228728696675e-012
20
74.0000000000001
30
1.33638211607945e-011
 70
     32
  0
VERTEX
  8
MY3DLAYER
10
118.999999999997
20
74.0000000000001
30
-1.32002631048067e-011
 70
     32
  0
VERTEX
  8
MY3DLAYER
10
118.999999999997
20
0.0
30
-1.31551436410859e-011
 70
     32
  0
SEQEND
  0
POLYLINE
 8
GROUP0
 66
     1
70
    8
 10
0.0
 20
 0.0
 30
0.0
  0
VERTEX
  8
MY3DLAYER
10
10.6470476127536
20
7.58518543427733
30
1.10345288462099e-011
 70
     32
  0
VERTEX
  8
MY3DLAYER
10
11.2499999999973
20
7.83493649053891
30
1.08991704550476e-011
 70
     32
  0
VERTEX
  8
MY3DLAYER
10
11.7677669529636
20
8.23223304703363
30
1.07835518292632e-011
 70
     32
  0
VERTEX
  8
MY3DLAYER
10
12.1650635094584
20
8.75
30
1.06933129018216e-011
 70
     32
  0
VERTEX
  8
MY3DLAYER
10
12.41481456572
20
9.3529523872437
30
1.06397335386532e-011
 70
     32
  0
VERTEX
  8
MY3DLAYER
10
12.4999999999973
20
10.0
30
1.06199937732754e-011
 70
     32
  0
VERTEX
  8
MY3DLAYER
10
12.41481456572
20
10.6470476127563
30
1.06397335386532e-011
 70
     32
  0
VERTEX
  8
MY3DLAYER
10
12.1650635094584
20
11.25
30
1.06933129018216e-011
 70
     32
  0
VERTEX
  8
MY3DLAYER
10
11.7677669529636
20
11.7677669529664
30
1.07835518292632e-011
 70
     32
  0
VERTEX
  8
MY3DLAYER
10
11.2499999999972
20
12.1650635094611
30
1.08991704550476e-011
 70
     32
  0
VERTEX
  8
MY3DLAYER
10
10.6470476127536
20
12.4148145657227
30
1.10345288462099e-011
 70
     32
  0
VERTEX
  8
MY3DLAYER
10
9.99999999999723
20
12.5
30
1.11783471368199e-011
 70
     32
  0
VERTEX
  8
MY3DLAYER
10
9.35295238724098
20
12.4148145657227
30
1.13221654274298e-011
 70
     32
  0
VERTEX
  8
MY3DLAYER
10
8.74999999999724
20
12.1650635094611
30
1.14575238185921e-011
 70
     32
  0
VERTEX
  8
MY3DLAYER
10
8.23223304703092
20
11.7677669529664
30
1.15731424443766e-011
 70
     32
  0
VERTEX
  8
MY3DLAYER
10
7.83493649053617
20
11.25
30
1.16605614053356e-011
 70
     32
  0
VERTEX
  8
MY3DLAYER
10
7.58518543427459
20
10.6470476127563
30
1.17169607349865e-011
 70
     32
  0
VERTEX
  8
MY3DLAYER
10
7.49999999999726
20
10.0
30
1.17367005003643e-011
 70
     32
  0
VERTEX
  8
MY3DLAYER
10
7.58518543427459
20
9.3529523872437
30
1.17169607349865e-011
 70
     32
  0
VERTEX
  8
MY3DLAYER
10
7.83493649053617
20
8.75
30
1.16605614053356e-011
 70
     32
  0
VERTEX
  8
MY3DLAYER
10
8.23223304703092
20
8.23223304703363
30
1.15731424443766e-011
 70
     32
  0
VERTEX
  8
MY3DLAYER
10
8.74999999999724
20
7.8349364905389
30
1.14575238185921e-011
 70
     32
  0
VERTEX
  8
MY3DLAYER
10
9.35295238724098
20
7.58518543427733
30
1.13221654274298e-011
 70
     32
  0
VERTEX
  8
MY3DLAYER
10
9.99999999999723
20
7.5
30
1.11783471368199e-011
 70
     32
  0
VERTEX
  8
MY3DLAYER
10
10.6470476127536
20
7.58518543427733
30
1.10345288462099e-011
 70
     32
  0
SEQEND
  0
POLYLINE
 8
GROUP0
 66
     1
70
    8
 10
0.0
 20
 0.0
 30
0.0
  0
VERTEX
  8
MY3DLAYER
10
7.58518543427459
20
64.6470476127563
30
1.16718412712657e-011
 70
     32
  0
VERTEX
  8
MY3DLAYER
10
7.49999999999726
20
64.0
30
1.16915810366436e-011
 70
     32
  0
VERTEX
  8
MY3DLAYER
10
7.58518543427459
20
63.3529523872437
30
1.16718412712657e-011
 70
     32
  0
VERTEX
  8
MY3DLAYER
10
7.83493649053617
20
62.75
30
1.16154419416148e-011
 70
     32
  0
VERTEX
  8
MY3DLAYER
10
8.23223304703092
20
62.2322330470337
30
1.15280229806558e-011
 70
     32
  0
VERTEX
  8
MY3DLAYER
10
8.74999999999724
20
61.8349364905389
30
1.14124043548713e-011
 70
     32
  0
VERTEX
  8
MY3DLAYER
10
9.35295238724098
20
61.5851854342773
30
1.1277045963709e-011
 70
     32
  0
VERTEX
  8
MY3DLAYER
10
9.99999999999723
20
61.5
30
1.11332276730991e-011
 70
     32
  0
VERTEX
  8
MY3DLAYER
10
10.6470476127536
20
61.5851854342773
30
1.09894093824892e-011
 70
     32
  0
VERTEX
  8
MY3DLAYER
10
11.2499999999972
20
61.8349364905389
30
1.08540509913269e-011
 70
     32
  0
VERTEX
  8
MY3DLAYER
10
11.7677669529636
20
62.2322330470337
30
1.07384323655424e-011
 70
     32
  0
VERTEX
  8
MY3DLAYER
10
12.1650635094584
20
62.75
30
1.06481934381009e-011
 70
     32
  0
VERTEX
  8
MY3DLAYER
10
12.41481456572
20
63.3529523872437
30
1.05946140749325e-011
 70
     32
  0
VERTEX
  8
MY3DLAYER
10
12.4999999999973
20
64.0
30
1.05748743095546e-011
 70
     32
  0
VERTEX
  8
MY3DLAYER
10
12.41481456572
20
64.6470476127563
30
1.05946140749325e-011
 70
     32
  0
VERTEX
  8
MY3DLAYER
10
12.1650635094584
20
65.25
30
1.06481934381009e-011
 70
     32
  0
VERTEX
  8
MY3DLAYER
10
11.7677669529636
20
65.7677669529664
30
1.07384323655424e-011
 70
     32
  0
VERTEX
  8
MY3DLAYER
10
11.2499999999973
20
66.1650635094611
30
1.08540509913269e-011
 70
     32
  0
VERTEX
  8
MY3DLAYER
10
10.6470476127536
20
66.4148145657227
30
1.09894093824892e-011
 70
     32
  0
VERTEX
  8
MY3DLAYER
10
9.99999999999723
20
66.5
30
1.11332276730991e-011
 70
     32
  0
VERTEX
  8
MY3DLAYER
10
9.35295238724098
20
66.4148145657227
30
1.1277045963709e-011
 70
     32
  0
VERTEX
  8
MY3DLAYER
10
8.74999999999724
20
66.1650635094611
30
1.14124043548713e-011
 70
     32
  0
VERTEX
  8
MY3DLAYER
10
8.23223304703092
20
65.7677669529664
30
1.15280229806558e-011
 70
     32
  0
VERTEX
  8
MY3DLAYER
10
7.83493649053617
20
65.25
30
1.16154419416148e-011
 70
     32
  0
VERTEX
  8
MY3DLAYER
10
7.58518543427459
20
64.6470476127563
30
1.16718412712657e-011
 70
     32
  0
SEQEND
  0
POLYLINE
 8
GROUP0
 66
     1
70
    8
 10
0.0
 20
 0.0
 30
0.0
  0
VERTEX
  8
MY3DLAYER
10
106.585185434275
20
64.6470476127563
30
-1.04282360524621e-011
 70
     32
  0
VERTEX
  8
MY3DLAYER
10
106.499999999997
20
64.0
30
-1.04084962870843e-011
 70
     32
  0
VERTEX
  8
MY3DLAYER
10
106.585185434275
20
63.3529523872437
30
-1.04282360524621e-011
 70
     32
  0
VERTEX
  8
MY3DLAYER
10
106.834936490536
20
62.75
30
-1.04846353821131e-011
 70
     32
  0
VERTEX
  8
MY3DLAYER
10
107.232233047031
20
62.2322330470336
30
-1.05720543430721e-011
 70
     32
  0
VERTEX
  8
MY3DLAYER
10
107.749999999997
20
61.8349364905389
30
-1.06876729688565e-011
 70
     32
  0
VERTEX
  8
MY3DLAYER
10
108.352952387241
20
61.5851854342773
30
-1.08230313600188e-011
 70
     32
  0
VERTEX
  8
MY3DLAYER
10
108.999999999997
20
61.5
30
-1.09668496506288e-011
 70
     32
  0
VERTEX
  8
MY3DLAYER
10
109.647047612754
20
61.5851854342773
30
-1.11134879077213e-011
 70
     32
  0
VERTEX
  8
MY3DLAYER
10
110.249999999997
20
61.8349364905389
30
-1.1246026332401e-011
 70
     32
  0
VERTEX
  8
MY3DLAYER
10
110.767766952964
20
62.2322330470336
30
-1.13616449581855e-011
 70
     32
  0
VERTEX
  8
MY3DLAYER
10
111.165063509458
20
62.75
30
-1.1451883885627e-011
 70
     32
  0
VERTEX
  8
MY3DLAYER
10
111.41481456572
20
63.3529523872437
30
-1.1508283215278e-011
 70
     32
  0
VERTEX
  8
MY3DLAYER
10
111.499999999997
20
64.0
30
-1.15252030141733e-011
 70
     32
  0
VERTEX
  8
MY3DLAYER
10
111.41481456572
20
64.6470476127563
30
-1.1508283215278e-011
 70
     32
  0
VERTEX
  8
MY3DLAYER
10
111.165063509458
20
65.25
30
-1.1451883885627e-011
 70
     32
  0
VERTEX
  8
MY3DLAYER
10
110.767766952964
20
65.7677669529664
30
-1.13616449581855e-011
 70
     32
  0
VERTEX
  8
MY3DLAYER
10
110.249999999997
20
66.1650635094611
30
-1.1246026332401e-011
 70
     32
  0
VERTEX
  8
MY3DLAYER
10
109.647047612754
20
66.4148145657227
30
-1.11134879077213e-011
 70
     32
  0
VERTEX
  8
MY3DLAYER
10
108.999999999997
20
66.5
30
-1.09668496506288e-011
 70
     32
  0
VERTEX
  8
MY3DLAYER
10
108.352952387241
20
66.4148145657227
30
-1.08230313600188e-011
 70
     32
  0
VERTEX
  8
MY3DLAYER
10
107.749999999997
20
66.1650635094611
30
-1.06876729688565e-011
 70
     32
  0
VERTEX
  8
MY3DLAYER
10
107.232233047031
20
65.7677669529664
30
-1.05720543430721e-011
 70
     32
  0
VERTEX
  8
MY3DLAYER
10
106.834936490536
20
65.25
30
-1.04846353821131e-011
 70
     32
  0
VERTEX
  8
MY3DLAYER
10
106.585185434275
20
64.6470476127563
30
-1.04282360524621e-011
 70
     32
  0
SEQEND
  0
POLYLINE
 8
GROUP0
 66
     1
70
    8
 10
0.0
 20
 0.0
 30
0.0
  0
VERTEX
  8
MY3DLAYER
10
106.585185434275
20
10.6470476127563
30
-1.03831165887414e-011
 70
     32
  0
VERTEX
  8
MY3DLAYER
10
106.499999999997
20
10.0
30
-1.03633768233635e-011
 70
     32
  0
VERTEX
  8
MY3DLAYER
10
106.585185434275
20
9.35295238724371
30
-1.03831165887414e-011
 70
     32
  0
VERTEX
  8
MY3DLAYER
10
106.834936490536
20
8.75000000000001
30
-1.04395159183923e-011
 70
     32
  0
VERTEX
  8
MY3DLAYER
10
107.232233047031
20
8.23223304703364
30
-1.05269348793513e-011
 70
     32
  0
VERTEX
  8
MY3DLAYER
10
107.749999999997
20
7.83493649053891
30
-1.06425535051358e-011
 70
     32
  0
VERTEX
  8
MY3DLAYER
10
108.352952387241
20
7.58518543427734
30
-1.07779118962981e-011
 70
     32
  0
VERTEX
  8
MY3DLAYER
10
108.999999999997
20
7.50000000000001
30
-1.0921730186908e-011
 70
     32
  0
VERTEX
  8
MY3DLAYER
10
109.647047612753
20
7.58518543427734
30
-1.10683684440005e-011
 70
     32
  0
VERTEX
  8
MY3DLAYER
10
110.249999999997
20
7.83493649053891
30
-1.12009068686802e-011
 70
     32
  0
VERTEX
  8
MY3DLAYER
10
110.767766952964
20
8.23223304703364
30
-1.13165254944647e-011
 70
     32
  0
VERTEX
  8
MY3DLAYER
10
111.165063509458
20
8.75000000000001
30
-1.14067644219062e-011
 70
     32
  0
VERTEX
  8
MY3DLAYER
10
111.41481456572
20
9.35295238724371
30
-1.14631637515572e-011
 70
     32
  0
VERTEX
  8
MY3DLAYER
10
111.499999999997
20
10.0
30
-1.14800835504525e-011
 70
     32
  0
VERTEX
  8
MY3DLAYER
10
111.41481456572
20
10.6470476127563
30
-1.14631637515572e-011
 70
     32
  0
VERTEX
  8
MY3DLAYER
10
111.165063509458
20
11.25
30
-1.14067644219062e-011
 70
     32
  0
VERTEX
  8
MY3DLAYER
10
110.767766952964
20
11.7677669529664
30
-1.13165254944647e-011
 70
     32
  0
VERTEX
  8
MY3DLAYER
10
110.249999999997
20
12.1650635094611
30
-1.12009068686802e-011
 70
     32
  0
VERTEX
  8
MY3DLAYER
10
109.647047612754
20
12.4148145657227
30
-1.10683684440005e-011
 70
     32
  0
VERTEX
  8
MY3DLAYER
10
108.999999999997
20
12.5
30
-1.0921730186908e-011
 70
     32
  0
VERTEX
  8
MY3DLAYER
10
108.352952387241
20
12.4148145657227
30
-1.07779118962981e-011
 70
     32
  0
VERTEX
  8
MY3DLAYER
10
107.749999999997
20
12.1650635094611
30
-1.06425535051358e-011
 70
     32
  0
VERTEX
  8
MY3DLAYER
10
107.232233047031
20
11.7677669529664
30
-1.05269348793513e-011
 70
     32
  0
VERTEX
  8
MY3DLAYER
10
106.834936490536
20
11.25
30
-1.04395159183923e-011
 70
     32
  0
VERTEX
  8
MY3DLAYER
10
106.585185434275
20
10.6470476127563
30
-1.03831165887414e-011
 70
     32
  0
SEQEND
  0
POLYLINE
 8
GROUP0
 66
     1
70
    8
 10
0.0
 20
 0.0
 30
0.0
  0
VERTEX
  8
MY3DLAYER
10
119.000000000003
20
74.0000000000001
30
25.0000036395955
 70
     32
  0
VERTEX
  8
MY3DLAYER
10
2.8199664825479e-012
20
74.0000000000002
30
25.0000036396221
 70
     32
  0
VERTEX
  8
MY3DLAYER
10
2.8199664825479e-012
20
0.0
30
25.0000036396221
 70
     32
  0
VERTEX
  8
MY3DLAYER
10
119.000000000003
20
0.0
30
25.0000036395955
 70
     32
  0
VERTEX
  8
MY3DLAYER
10
119.000000000003
20
74.0000000000001
30
25.0000036395955
 70
     32
  0
SEQEND
  0
POLYLINE
 8
GROUP0
 66
     1
70
    8
 10
0.0
 20
 0.0
 30
0.0
  0
VERTEX
  8
MY3DLAYER
10
10.0000000000028
20
66.5
30
25.0000036396198
 70
     32
  0
VERTEX
  8
MY3DLAYER
10
10.6470476127591
20
66.4148145657227
30
25.0000036396197
 70
     32
  0
VERTEX
  8
MY3DLAYER
10
11.2500000000029
20
66.1650635094611
30
25.0000036396196
 70
     32
  0
VERTEX
  8
MY3DLAYER
10
11.7677669529692
20
65.7677669529664
30
25.0000036396194
 70
     32
  0
VERTEX
  8
MY3DLAYER
10
12.165063509464
20
65.25
30
25.0000036396194
 70
     32
  0
VERTEX
  8
MY3DLAYER
10
12.4148145657255
20
64.6470476127563
30
25.0000036396193
 70
     32
  0
VERTEX
  8
MY3DLAYER
10
12.5000000000029
20
64.0
30
25.0000036396193
 70
     32
  0
VERTEX
  8
MY3DLAYER
10
12.4148145657255
20
63.3529523872437
30
25.0000036396193
 70
     32
  0
VERTEX
  8
MY3DLAYER
10
12.165063509464
20
62.75
30
25.0000036396194
 70
     32
  0
VERTEX
  8
MY3DLAYER
10
11.7677669529692
20
62.2322330470337
30
25.0000036396194
 70
     32
  0
VERTEX
  8
MY3DLAYER
10
11.2500000000028
20
61.8349364905389
30
25.0000036396196
 70
     32
  0
VERTEX
  8
MY3DLAYER
10
10.6470476127591
20
61.5851854342773
30
25.0000036396197
 70
     32
  0
VERTEX
  8
MY3DLAYER
10
10.0000000000028
20
61.5
30
25.0000036396198
 70
     32
  0
VERTEX
  8
MY3DLAYER
10
9.35295238724656
20
61.5851854342773
30
25.00000363962
 70
     32
  0
VERTEX
  8
MY3DLAYER
10
8.75000000000282
20
61.8349364905389
30
25.0000036396201
 70
     32
  0
VERTEX
  8
MY3DLAYER
10
8.2322330470365
20
62.2322330470337
30
25.0000036396202
 70
     32
  0
VERTEX
  8
MY3DLAYER
10
7.83493649054174
20
62.75
30
25.0000036396203
 70
     32
  0
VERTEX
  8
MY3DLAYER
10
7.58518543428016
20
63.3529523872437
30
25.0000036396204
 70
     32
  0
VERTEX
  8
MY3DLAYER
10
7.50000000000283
20
64.0
30
25.0000036396204
 70
     32
  0
VERTEX
  8
MY3DLAYER
10
7.58518543428016
20
64.6470476127563
30
25.0000036396204
 70
     32
  0
VERTEX
  8
MY3DLAYER
10
7.83493649054174
20
65.25
30
25.0000036396203
 70
     32
  0
VERTEX
  8
MY3DLAYER
10
8.2322330470365
20
65.7677669529664
30
25.0000036396202
 70
     32
  0
VERTEX
  8
MY3DLAYER
10
8.75000000000282
20
66.1650635094611
30
25.0000036396201
 70
     32
  0
VERTEX
  8
MY3DLAYER
10
9.35295238724656
20
66.4148145657227
30
25.00000363962
 70
     32
  0
VERTEX
  8
MY3DLAYER
10
10.0000000000028
20
66.5
30
25.0000036396198
 70
     32
  0
SEQEND
  0
POLYLINE
 8
GROUP0
 66
     1
70
    8
 10
0.0
 20
 0.0
 30
0.0
  0
VERTEX
  8
MY3DLAYER
10
109.647047612759
20
61.5851854342773
30
25.0000036395976
 70
     32
  0
VERTEX
  8
MY3DLAYER
10
109.000000000003
20
61.5
30
25.0000036395977
 70
     32
  0
VERTEX
  8
MY3DLAYER
10
108.352952387246
20
61.5851854342773
30
25.0000036395979
 70
     32
  0
VERTEX
  8
MY3DLAYER
10
107.750000000003
20
61.8349364905389
30
25.000003639598
 70
     32
  0
VERTEX
  8
MY3DLAYER
10
107.232233047036
20
62.2322330470336
30
25.0000036395981
 70
     32
  0
VERTEX
  8
MY3DLAYER
10
106.834936490542
20
62.75
30
25.0000036395982
 70
     32
  0
VERTEX
  8
MY3DLAYER
10
106.58518543428
20
63.3529523872437
30
25.0000036395983
 70
     32
  0
VERTEX
  8
MY3DLAYER
10
106.500000000003
20
64.0
30
25.0000036395983
 70
     32
  0
VERTEX
  8
MY3DLAYER
10
106.58518543428
20
64.6470476127563
30
25.0000036395983
 70
     32
  0
VERTEX
  8
MY3DLAYER
10
106.834936490542
20
65.25
30
25.0000036395982
 70
     32
  0
VERTEX
  8
MY3DLAYER
10
107.232233047036
20
65.7677669529664
30
25.0000036395981
 70
     32
  0
VERTEX
  8
MY3DLAYER
10
107.750000000003
20
66.1650635094611
30
25.000003639598
 70
     32
  0
VERTEX
  8
MY3DLAYER
10
108.352952387246
20
66.4148145657227
30
25.0000036395979
 70
     32
  0
VERTEX
  8
MY3DLAYER
10
109.000000000003
20
66.5
30
25.0000036395977
 70
     32
  0
VERTEX
  8
MY3DLAYER
10
109.647047612759
20
66.4148145657227
30
25.0000036395976
 70
     32
  0
VERTEX
  8
MY3DLAYER
10
110.250000000003
20
66.1650635094611
30
25.0000036395975
 70
     32
  0
VERTEX
  8
MY3DLAYER
10
110.767766952969
20
65.7677669529664
30
25.0000036395973
 70
     32
  0
VERTEX
  8
MY3DLAYER
10
111.165063509464
20
65.25
30
25.0000036395972
 70
     32
  0
VERTEX
  8
MY3DLAYER
10
111.414814565725
20
64.6470476127563
30
25.0000036395972
 70
     32
  0
VERTEX
  8
MY3DLAYER
10
111.500000000003
20
64.0
30
25.0000036395972
 70
     32
  0
VERTEX
  8
MY3DLAYER
10
111.414814565725
20
63.3529523872437
30
25.0000036395972
 70
     32
  0
VERTEX
  8
MY3DLAYER
10
111.165063509464
20
62.75
30
25.0000036395972
 70
     32
  0
VERTEX
  8
MY3DLAYER
10
110.767766952969
20
62.2322330470336
30
25.0000036395973
 70
     32
  0
VERTEX
  8
MY3DLAYER
10
110.250000000003
20
61.8349364905389
30
25.0000036395975
 70
     32
  0
VERTEX
  8
MY3DLAYER
10
109.647047612759
20
61.5851854342773
30
25.0000036395976
 70
     32
  0
SEQEND
  0
POLYLINE
 8
GROUP0
 66
     1
70
    8
 10
0.0
 20
 0.0
 30
0.0
  0
VERTEX
  8
MY3DLAYER
10
11.2500000000028
20
12.1650635094611
30
25.0000036396196
 70
     32
  0
VERTEX
  8
MY3DLAYER
10
11.7677669529692
20
11.7677669529664
30
25.0000036396194
 70
     32
  0
VERTEX
  8
MY3DLAYER
10
12.165063509464
20
11.25
30
25.0000036396194
 70
     32
  0
VERTEX
  8
MY3DLAYER
10
12.4148145657255
20
10.6470476127563
30
25.0000036396193
 70
     32
  0
VERTEX
  8
MY3DLAYER
10
12.5000000000029
20
10.0
30
25.0000036396193
 70
     32
  0
VERTEX
  8
MY3DLAYER
10
12.4148145657255
20
9.3529523872437
30
25.0000036396193
 70
     32
  0
VERTEX
  8
MY3DLAYER
10
12.165063509464
20
8.75
30
25.0000036396194
 70
     32
  0
VERTEX
  8
MY3DLAYER
10
11.7677669529692
20
8.23223304703363
30
25.0000036396194
 70
     32
  0
VERTEX
  8
MY3DLAYER
10
11.2500000000029
20
7.83493649053891
30
25.0000036396196
 70
     32
  0
VERTEX
  8
MY3DLAYER
10
10.6470476127591
20
7.58518543427733
30
25.0000036396197
 70
     32
  0
VERTEX
  8
MY3DLAYER
10
10.0000000000028
20
7.5
30
25.0000036396198
 70
     32
  0
VERTEX
  8
MY3DLAYER
10
9.35295238724656
20
7.58518543427733
30
25.00000363962
 70
     32
  0
VERTEX
  8
MY3DLAYER
10
8.75000000000282
20
7.8349364905389
30
25.0000036396201
 70
     32
  0
VERTEX
  8
MY3DLAYER
10
8.2322330470365
20
8.23223304703363
30
25.0000036396202
 70
     32
  0
VERTEX
  8
MY3DLAYER
10
7.83493649054174
20
8.75
30
25.0000036396203
 70
     32
  0
VERTEX
  8
MY3DLAYER
10
7.58518543428016
20
9.3529523872437
30
25.0000036396204
 70
     32
  0
VERTEX
  8
MY3DLAYER
10
7.50000000000283
20
10.0
30
25.0000036396204
 70
     32
  0
VERTEX
  8
MY3DLAYER
10
7.58518543428016
20
10.6470476127563
30
25.0000036396204
 70
     32
  0
VERTEX
  8
MY3DLAYER
10
7.83493649054174
20
11.25
30
25.0000036396203
 70
     32
  0
VERTEX
  8
MY3DLAYER
10
8.2322330470365
20
11.7677669529664
30
25.0000036396202
 70
     32
  0
VERTEX
  8
MY3DLAYER
10
8.75000000000282
20
12.1650635094611
30
25.0000036396201
 70
     32
  0
VERTEX
  8
MY3DLAYER
10
9.35295238724656
20
12.4148145657227
30
25.00000363962
 70
     32
  0
VERTEX
  8
MY3DLAYER
10
10.0000000000028
20
12.5
30
25.0000036396198
 70
     32
  0
VERTEX
  8
MY3DLAYER
10
10.6470476127591
20
12.4148145657227
30
25.0000036396197
 70
     32
  0
VERTEX
  8
MY3DLAYER
10
11.2500000000028
20
12.1650635094611
30
25.0000036396196
 70
     32
  0
SEQEND
  0
POLYLINE
 8
GROUP0
 66
     1
70
    8
 10
0.0
 20
 0.0
 30
0.0
  0
VERTEX
  8
MY3DLAYER
10
110.250000000003
20
12.1650635094611
30
25.0000036395975
 70
     32
  0
VERTEX
  8
MY3DLAYER
10
110.767766952969
20
11.7677669529664
30
25.0000036395973
 70
     32
  0
VERTEX
  8
MY3DLAYER
10
111.165063509464
20
11.25
30
25.0000036395972
 70
     32
  0
VERTEX
  8
MY3DLAYER
10
111.414814565725
20
10.6470476127563
30
25.0000036395972
 70
     32
  0
VERTEX
  8
MY3DLAYER
10
111.500000000003
20
10.0
30
25.0000036395972
 70
     32
  0
VERTEX
  8
MY3DLAYER
10
111.414814565725
20
9.35295238724371
30
25.0000036395972
 70
     32
  0
VERTEX
  8
MY3DLAYER
10
111.165063509464
20
8.75000000000001
30
25.0000036395972
 70
     32
  0
VERTEX
  8
MY3DLAYER
10
110.767766952969
20
8.23223304703364
30
25.0000036395973
 70
     32
  0
VERTEX
  8
MY3DLAYER
10
110.250000000003
20
7.83493649053891
30
25.0000036395975
 70
     32
  0
VERTEX
  8
MY3DLAYER
10
109.647047612759
20
7.58518543427734
30
25.0000036395976
 70
     32
  0
VERTEX
  8
MY3DLAYER
10
109.000000000003
20
7.50000000000001
30
25.0000036395977
 70
     32
  0
VERTEX
  8
MY3DLAYER
10
108.352952387246
20
7.58518543427734
30
25.0000036395979
 70
     32
  0
VERTEX
  8
MY3DLAYER
10
107.750000000003
20
7.83493649053891
30
25.000003639598
 70
     32
  0
VERTEX
  8
MY3DLAYER
10
107.232233047036
20
8.23223304703364
30
25.0000036395981
 70
     32
  0
VERTEX
  8
MY3DLAYER
10
106.834936490542
20
8.75000000000001
30
25.0000036395982
 70
     32
  0
VERTEX
  8
MY3DLAYER
10
106.58518543428
20
9.35295238724371
30
25.0000036395983
 70
     32
  0
VERTEX
  8
MY3DLAYER
10
106.500000000003
20
10.0
30
25.0000036395983
 70
     32
  0
VERTEX
  8
MY3DLAYER
10
106.58518543428
20
10.6470476127563
30
25.0000036395983
 70
     32
  0
VERTEX
  8
MY3DLAYER
10
106.834936490542
20
11.25
30
25.0000036395982
 70
     32
  0
VERTEX
  8
MY3DLAYER
10
107.232233047036
20
11.7677669529664
30
25.0000036395981
 70
     32
  0
VERTEX
  8
MY3DLAYER
10
107.750000000003
20
12.1650635094611
30
25.000003639598
 70
     32
  0
VERTEX
  8
MY3DLAYER
10
108.352952387246
20
12.4148145657227
30
25.0000036395979
 70
     32
  0
VERTEX
  8
MY3DLAYER
10
109.000000000003
20
12.5
30
25.0000036395977
 70
     32
  0
VERTEX
  8
MY3DLAYER
10
109.647047612759
20
12.4148145657227
30
25.0000036395976
 70
     32
  0
VERTEX
  8
MY3DLAYER
10
110.250000000003
20
12.1650635094611
30
25.0000036395975
 70
     32
  0
SEQEND
  0
POLYLINE
 8
GROUP0
 66
     1
70
    8
 10
0.0
 20
 0.0
 30
0.0
  0
VERTEX
  8
MY3DLAYER
10
5.00000000000286
20
54.0000000000001
30
25.0000036396209
 70
     32
  0
VERTEX
  8
MY3DLAYER
10
30.0000000000028
20
54.0000000000001
30
25.0000036396154
 70
     32
  0
VERTEX
  8
MY3DLAYER
10
30.0000000000028
20
64.0000000000001
30
25.0000036396155
 70
     32
  0
VERTEX
  8
MY3DLAYER
10
89.0000000000027
20
64.0000000000001
30
25.0000036396023
 70
     32
  0
VERTEX
  8
MY3DLAYER
10
89.0000000000027
20
54.0000000000001
30
25.0000036396022
 70
     32
  0
VERTEX
  8
MY3DLAYER
10
114.000000000003
20
54.0000000000001
30
25.0000036395966
 70
     32
  0
VERTEX
  8
MY3DLAYER
10
114.000000000003
20
20.0000000000001
30
25.0000036395966
 70
     32
  0
VERTEX
  8
MY3DLAYER
10
5.00000000000286
20
20.0000000000001
30
25.000003639621
 70
     32
  0
VERTEX
  8
MY3DLAYER
10
5.00000000000286
20
54.0000000000001
30
25.0000036396209
 70
     32
  0
SEQEND
  0
POLYLINE
 8
GROUP0
 66
     1
70
    8
 10
0.0
 20
 0.0
 30
0.0
  0
VERTEX
  8
MY3DLAYER
10
30.0000000000017
20
54.0000000000001
30
20.0000036396154
 70
     32
  0
VERTEX
  8
MY3DLAYER
10
89.0000000000015
20
54.0000000000001
30
20.0000036396022
 70
     32
  0
VERTEX
  8
MY3DLAYER
10
89.0000000000015
20
64.0000000000001
30
20.0000036396023
 70
     32
  0
VERTEX
  8
MY3DLAYER
10
30.0000000000017
20
64.0000000000001
30
20.0000036396155
 70
     32
  0
VERTEX
  8
MY3DLAYER
10
30.0000000000017
20
54.0000000000001
30
20.0000036396154
 70
     32
  0
SEQEND
  0
POLYLINE
 8
GROUP0
 66
     1
70
    8
 10
0.0
 20
 0.0
 30
0.0
  0
VERTEX
  8
MY3DLAYER
10
89.0000000000027
20
54.0000000000001
30
25.0000036396022
 70
     32
  0
VERTEX
  8
MY3DLAYER
10
89.0000000000027
20
64.0000000000001
30
25.0000036396023
 70
     32
  0
VERTEX
  8
MY3DLAYER
10
89.0000000000015
20
64.0000000000001
30
20.0000036396023
 70
     32
  0
VERTEX
  8
MY3DLAYER
10
89.0000000000015
20
54.0000000000001
30
20.0000036396022
 70
     32
  0
VERTEX
  8
MY3DLAYER
10
89.0000000000027
20
54.0000000000001
30
25.0000036396022
 70
     32
  0
SEQEND
  0
POLYLINE
 8
GROUP0
 66
     1
70
    8
 10
0.0
 20
 0.0
 30
0.0
  0
VERTEX
  8
MY3DLAYER
10
89.0000000000027
20
64.0000000000001
30
25.0000036396023
 70
     32
  0
VERTEX
  8
MY3DLAYER
10
30.0000000000028
20
64.0000000000001
30
25.0000036396155
 70
     32
  0
VERTEX
  8
MY3DLAYER
10
30.0000000000017
20
64.0000000000001
30
20.0000036396155
 70
     32
  0
VERTEX
  8
MY3DLAYER
10
89.0000000000015
20
64.0000000000001
30
20.0000036396023
 70
     32
  0
VERTEX
  8
MY3DLAYER
10
89.0000000000027
20
64.0000000000001
30
25.0000036396023
 70
     32
  0
SEQEND
  0
POLYLINE
 8
GROUP0
 66
     1
70
    8
 10
0.0
 20
 0.0
 30
0.0
  0
VERTEX
  8
MY3DLAYER
10
30.0000000000028
20
64.0000000000001
30
25.0000036396155
 70
     32
  0
VERTEX
  8
MY3DLAYER
10
30.0000000000028
20
54.0000000000001
30
25.0000036396154
 70
     32
  0
VERTEX
  8
MY3DLAYER
10
30.0000000000017
20
54.0000000000001
30
20.0000036396154
 70
     32
  0
VERTEX
  8
MY3DLAYER
10
30.0000000000017
20
64.0000000000001
30
20.0000036396155
 70
     32
  0
VERTEX
  8
MY3DLAYER
10
30.0000000000028
20
64.0000000000001
30
25.0000036396155
 70
     32
  0
SEQEND
 0
ENDSEC
 0
EOF
