 0
SECTION
 2
ENTITIES
  0
POLYLINE
 8
GROUP0
 66
     1
70
    8
 10
0.0
 20
 0.0
 30
0.0
  0
VERTEX
  8
MY3DLAYER
10
18.0
20
8.84835335549896
30
-1.52655665885959e-015
 70
     32
  0
VERTEX
  8
MY3DLAYER
10
33.0
20
8.84835335549896
30
-1.52655665885959e-015
 70
     32
  0
VERTEX
  8
MY3DLAYER
10
33.0
20
13.848353355499
30
-1.52655665885959e-015
 70
     32
  0
VERTEX
  8
MY3DLAYER
10
18.0
20
13.848353355499
30
-1.52655665885959e-015
 70
     32
  0
VERTEX
  8
MY3DLAYER
10
18.0
20
8.84835335549896
30
-1.52655665885959e-015
 70
     32
  0
SEQEND
  0
POLYLINE
 8
GROUP0
 66
     1
70
    8
 10
0.0
 20
 0.0
 30
0.0
  0
VERTEX
  8
MY3DLAYER
10
31.466782232921
20
10.432874804362
30
-1.97064586870965e-015
 70
     32
  0
VERTEX
  8
MY3DLAYER
10
31.4920744259666
20
10.4121180379559
30
-1.52655665885959e-015
 70
     32
  0
VERTEX
  8
MY3DLAYER
10
31.5159549090099
20
10.3897515248097
30
-1.97064586870965e-015
 70
     32
  0
VERTEX
  8
MY3DLAYER
10
31.5383214221561
20
10.3658710417664
30
-1.52655665885959e-015
 70
     32
  0
VERTEX
  8
MY3DLAYER
10
31.5590781885622
20
10.3405788487208
30
-1.97064586870965e-015
 70
     32
  0
VERTEX
  8
MY3DLAYER
10
31.5781363245679
20
10.3139832507262
30
-1.52655665885959e-015
 70
     32
  0
VERTEX
  8
MY3DLAYER
10
31.5954142203088
20
10.2861981342164
30
-1.52655665885959e-015
 70
     32
  0
VERTEX
  8
MY3DLAYER
10
31.610837889183
20
10.2573424793259
30
-1.97064586870965e-015
 70
     32
  0
VERTEX
  8
MY3DLAYER
10
31.6243412846723
20
10.227539850399
30
-1.52655665885959e-015
 70
     32
  0
VERTEX
  8
MY3DLAYER
10
31.6358665831642
20
10.196917866868
30
-1.52655665885959e-015
 70
     32
  0
VERTEX
  8
MY3DLAYER
10
31.6453644315611
20
10.1656076567677
30
-2.41473507855972e-015
 70
     32
  0
VERTEX
  8
MY3DLAYER
10
31.6527941586182
20
10.1337432952245
30
-1.52655665885959e-015
 70
     32
  0
VERTEX
  8
MY3DLAYER
10
31.6581239491035
20
10.1014612303264
30
-1.97064586870965e-015
 70
     32
  0
VERTEX
  8
MY3DLAYER
10
31.6613309800359
20
10.0688996988315
30
-1.52655665885959e-015
 70
     32
  0
VERTEX
  8
MY3DLAYER
10
31.6624015184166
20
10.0361981342164
30
-1.52655665885959e-015
 70
     32
  0
VERTEX
  8
MY3DLAYER
10
31.6613309800359
20
10.0034965696013
30
-1.52655665885959e-015
 70
     32
  0
VERTEX
  8
MY3DLAYER
10
31.6581239491035
20
9.97093503810639
30
-1.97064586870965e-015
 70
     32
  0
VERTEX
  8
MY3DLAYER
10
31.6527941586182
20
9.93865297320835
30
-1.52655665885959e-015
 70
     32
  0
VERTEX
  8
MY3DLAYER
10
31.6453644315611
20
9.90678861166515
30
-2.41473507855972e-015
 70
     32
  0
VERTEX
  8
MY3DLAYER
10
31.6358665831642
20
9.87547840156483
30
-1.52655665885959e-015
 70
     32
  0
VERTEX
  8
MY3DLAYER
10
31.6243412846723
20
9.84485641803387
30
-1.52655665885959e-015
 70
     32
  0
VERTEX
  8
MY3DLAYER
10
31.610837889183
20
9.81505378910691
30
-1.97064586870965e-015
 70
     32
  0
VERTEX
  8
MY3DLAYER
10
31.5954142203088
20
9.78619813421641
30
-1.52655665885959e-015
 70
     32
  0
VERTEX
  8
MY3DLAYER
10
31.5781363245679
20
9.75841301770661
30
-1.52655665885959e-015
 70
     32
  0
VERTEX
  8
MY3DLAYER
10
31.5590781885622
20
9.73181741971205
30
-1.97064586870965e-015
 70
     32
  0
VERTEX
  8
MY3DLAYER
10
31.5383214221561
20
9.70652522666638
30
-1.52655665885959e-015
 70
     32
  0
VERTEX
  8
MY3DLAYER
10
31.5159549090099
20
9.68264474362314
30
-1.97064586870965e-015
 70
     32
  0
VERTEX
  8
MY3DLAYER
10
31.4920744259666
20
9.66027823047692
30
-1.52655665885959e-015
 70
     32
  0
VERTEX
  8
MY3DLAYER
10
31.466782232921
20
9.63952146407079
30
-1.97064586870965e-015
 70
     32
  0
VERTEX
  8
MY3DLAYER
10
31.4401866349264
20
9.62046332806514
30
-1.52655665885959e-015
 70
     32
  0
VERTEX
  8
MY3DLAYER
10
31.4124015184166
20
9.60318543232419
30
-1.97064586870965e-015
 70
     32
  0
VERTEX
  8
MY3DLAYER
10
31.3835458635261
20
9.58776176345007
30
-1.97064586870965e-015
 70
     32
  0
VERTEX
  8
MY3DLAYER
10
31.3537432345992
20
9.57425836796077
30
-1.97064586870965e-015
 70
     32
  0
VERTEX
  8
MY3DLAYER
10
31.3231212510682
20
9.56273306946886
30
-1.08246744900953e-015
 70
     32
  0
VERTEX
  8
MY3DLAYER
10
31.2918110409679
20
9.55323522107188
30
-1.52655665885959e-015
 70
     32
  0
VERTEX
  8
MY3DLAYER
10
31.2599466794247
20
9.5458054940148
30
-1.08246744900953e-015
 70
     32
  0
VERTEX
  8
MY3DLAYER
10
31.2276646145266
20
9.54047570352951
30
-1.08246744900953e-015
 70
     32
  0
VERTEX
  8
MY3DLAYER
10
31.1951030830317
20
9.53726867259711
30
-1.08246744900953e-015
 70
     32
  0
VERTEX
  8
MY3DLAYER
10
31.1624015184166
20
9.53619813421641
30
-1.08246744900953e-015
 70
     32
  0
VERTEX
  8
MY3DLAYER
10
31.1296999538015
20
9.53726867259711
30
-1.97064586870965e-015
 70
     32
  0
VERTEX
  8
MY3DLAYER
10
31.0971384223066
20
9.54047570352951
30
-1.97064586870965e-015
 70
     32
  0
VERTEX
  8
MY3DLAYER
10
31.0648563574086
20
9.5458054940148
30
-1.97064586870965e-015
 70
     32
  0
VERTEX
  8
MY3DLAYER
10
31.0329919958654
20
9.55323522107188
30
-1.52655665885959e-015
 70
     32
  0
VERTEX
  8
MY3DLAYER
10
31.001681785765
20
9.56273306946886
30
-1.08246744900953e-015
 70
     32
  0
VERTEX
  8
MY3DLAYER
10
30.9710598022341
20
9.57425836796077
30
-1.08246744900953e-015
 70
     32
  0
VERTEX
  8
MY3DLAYER
10
30.9412571733071
20
9.58776176345007
30
-1.08246744900953e-015
 70
     32
  0
VERTEX
  8
MY3DLAYER
10
30.9124015184166
20
9.60318543232419
30
-1.08246744900953e-015
 70
     32
  0
VERTEX
  8
MY3DLAYER
10
30.8846164019068
20
9.62046332806514
30
-1.52655665885959e-015
 70
     32
  0
VERTEX
  8
MY3DLAYER
10
30.8580208039123
20
9.63952146407079
30
-1.08246744900953e-015
 70
     32
  0
VERTEX
  8
MY3DLAYER
10
30.8327286108666
20
9.66027823047692
30
-1.52655665885959e-015
 70
     32
  0
VERTEX
  8
MY3DLAYER
10
30.8088481278233
20
9.68264474362314
30
-1.08246744900953e-015
 70
     32
  0
VERTEX
  8
MY3DLAYER
10
30.7864816146771
20
9.70652522666638
30
-1.52655665885959e-015
 70
     32
  0
VERTEX
  8
MY3DLAYER
10
30.765724848271
20
9.73181741971205
30
-1.08246744900953e-015
 70
     32
  0
VERTEX
  8
MY3DLAYER
10
30.7466667122653
20
9.75841301770661
30
-1.52655665885959e-015
 70
     32
  0
VERTEX
  8
MY3DLAYER
10
30.7293888165244
20
9.78619813421641
30
-1.52655665885959e-015
 70
     32
  0
VERTEX
  8
MY3DLAYER
10
30.7139651476503
20
9.81505378910691
30
-1.08246744900953e-015
 70
     32
  0
VERTEX
  8
MY3DLAYER
10
30.700461752161
20
9.84485641803387
30
-6.38378239159465e-016
 70
     32
  0
VERTEX
  8
MY3DLAYER
10
30.6889364536691
20
9.87547840156483
30
-1.52655665885959e-015
 70
     32
  0
VERTEX
  8
MY3DLAYER
10
30.6794386052721
20
9.90678861166515
30
-6.38378239159465e-016
 70
     32
  0
VERTEX
  8
MY3DLAYER
10
30.672008878215
20
9.93865297320835
30
-1.52655665885959e-015
 70
     32
  0
VERTEX
  8
MY3DLAYER
10
30.6666790877297
20
9.97093503810639
30
-1.52655665885959e-015
 70
     32
  0
VERTEX
  8
MY3DLAYER
10
30.6634720567973
20
10.0034965696013
30
-1.52655665885959e-015
 70
     32
  0
VERTEX
  8
MY3DLAYER
10
30.6624015184166
20
10.0361981342164
30
-1.52655665885959e-015
 70
     32
  0
VERTEX
  8
MY3DLAYER
10
30.6634720567973
20
10.0688996988315
30
-1.52655665885959e-015
 70
     32
  0
VERTEX
  8
MY3DLAYER
10
30.6666790877297
20
10.1014612303264
30
-1.52655665885959e-015
 70
     32
  0
VERTEX
  8
MY3DLAYER
10
30.672008878215
20
10.1337432952245
30
-1.52655665885959e-015
 70
     32
  0
VERTEX
  8
MY3DLAYER
10
30.6794386052721
20
10.1656076567677
30
-6.38378239159465e-016
 70
     32
  0
VERTEX
  8
MY3DLAYER
10
30.6889364536691
20
10.196917866868
30
-1.52655665885959e-015
 70
     32
  0
VERTEX
  8
MY3DLAYER
10
30.700461752161
20
10.227539850399
30
-6.38378239159465e-016
 70
     32
  0
VERTEX
  8
MY3DLAYER
10
30.7139651476503
20
10.2573424793259
30
-1.08246744900953e-015
 70
     32
  0
VERTEX
  8
MY3DLAYER
10
30.7293888165244
20
10.2861981342164
30
-1.52655665885959e-015
 70
     32
  0
VERTEX
  8
MY3DLAYER
10
30.7466667122653
20
10.3139832507262
30
-1.52655665885959e-015
 70
     32
  0
VERTEX
  8
MY3DLAYER
10
30.765724848271
20
10.3405788487208
30
-1.08246744900953e-015
 70
     32
  0
VERTEX
  8
MY3DLAYER
10
30.7864816146771
20
10.3658710417664
30
-1.52655665885959e-015
 70
     32
  0
VERTEX
  8
MY3DLAYER
10
30.8088481278233
20
10.3897515248097
30
-1.08246744900953e-015
 70
     32
  0
VERTEX
  8
MY3DLAYER
10
30.8327286108666
20
10.4121180379559
30
-1.52655665885959e-015
 70
     32
  0
VERTEX
  8
MY3DLAYER
10
30.8580208039123
20
10.432874804362
30
-1.08246744900953e-015
 70
     32
  0
VERTEX
  8
MY3DLAYER
10
30.8846164019068
20
10.4519329403677
30
-1.52655665885959e-015
 70
     32
  0
VERTEX
  8
MY3DLAYER
10
30.9124015184166
20
10.4692108361086
30
-1.08246744900953e-015
 70
     32
  0
VERTEX
  8
MY3DLAYER
10
30.9412571733071
20
10.4846345049828
30
-1.08246744900953e-015
 70
     32
  0
VERTEX
  8
MY3DLAYER
10
30.9710598022341
20
10.4981379004721
30
-1.08246744900953e-015
 70
     32
  0
VERTEX
  8
MY3DLAYER
10
31.001681785765
20
10.509663198964
30
-1.08246744900953e-015
 70
     32
  0
VERTEX
  8
MY3DLAYER
10
31.0329919958654
20
10.5191610473609
30
-1.52655665885959e-015
 70
     32
  0
VERTEX
  8
MY3DLAYER
10
31.0648563574086
20
10.526590774418
30
-1.97064586870965e-015
 70
     32
  0
VERTEX
  8
MY3DLAYER
10
31.0971384223066
20
10.5319205649033
30
-1.97064586870965e-015
 70
     32
  0
VERTEX
  8
MY3DLAYER
10
31.1296999538015
20
10.5351275958357
30
-1.97064586870965e-015
 70
     32
  0
VERTEX
  8
MY3DLAYER
10
31.1624015184166
20
10.5361981342164
30
-1.08246744900953e-015
 70
     32
  0
VERTEX
  8
MY3DLAYER
10
31.1951030830317
20
10.5351275958357
30
-1.08246744900953e-015
 70
     32
  0
VERTEX
  8
MY3DLAYER
10
31.2276646145266
20
10.5319205649033
30
-1.08246744900953e-015
 70
     32
  0
VERTEX
  8
MY3DLAYER
10
31.2599466794247
20
10.526590774418
30
-1.08246744900953e-015
 70
     32
  0
VERTEX
  8
MY3DLAYER
10
31.2918110409679
20
10.5191610473609
30
-1.52655665885959e-015
 70
     32
  0
VERTEX
  8
MY3DLAYER
10
31.3231212510682
20
10.509663198964
30
-1.08246744900953e-015
 70
     32
  0
VERTEX
  8
MY3DLAYER
10
31.3537432345992
20
10.4981379004721
30
-1.97064586870965e-015
 70
     32
  0
VERTEX
  8
MY3DLAYER
10
31.3835458635261
20
10.4846345049828
30
-1.97064586870965e-015
 70
     32
  0
VERTEX
  8
MY3DLAYER
10
31.4124015184166
20
10.4692108361086
30
-1.97064586870965e-015
 70
     32
  0
VERTEX
  8
MY3DLAYER
10
31.4401866349264
20
10.4519329403677
30
-1.52655665885959e-015
 70
     32
  0
VERTEX
  8
MY3DLAYER
10
31.466782232921
20
10.432874804362
30
-1.97064586870965e-015
 70
     32
  0
SEQEND
  0
POLYLINE
 8
GROUP0
 66
     1
70
    8
 10
0.0
 20
 0.0
 30
0.0
  0
VERTEX
  8
MY3DLAYER
10
29.088668907191
20
10.0034965696013
30
-1.52655665885959e-015
 70
     32
  0
VERTEX
  8
MY3DLAYER
10
29.0875983688103
20
10.0361981342164
30
-1.08246744900953e-015
 70
     32
  0
VERTEX
  8
MY3DLAYER
10
29.088668907191
20
10.0688996988315
30
-1.52655665885959e-015
 70
     32
  0
VERTEX
  8
MY3DLAYER
10
29.0918759381234
20
10.1014612303264
30
-1.08246744900953e-015
 70
     32
  0
VERTEX
  8
MY3DLAYER
10
29.0972057286087
20
10.1337432952245
30
-1.08246744900953e-015
 70
     32
  0
VERTEX
  8
MY3DLAYER
10
29.1046354556658
20
10.1656076567677
30
-1.52655665885959e-015
 70
     32
  0
VERTEX
  8
MY3DLAYER
10
29.1141333040628
20
10.196917866868
30
-1.52655665885959e-015
 70
     32
  0
VERTEX
  8
MY3DLAYER
10
29.1256586025547
20
10.227539850399
30
-1.52655665885959e-015
 70
     32
  0
VERTEX
  8
MY3DLAYER
10
29.139161998044
20
10.2573424793259
30
-1.08246744900953e-015
 70
     32
  0
VERTEX
  8
MY3DLAYER
10
29.1545856669181
20
10.2861981342164
30
-1.52655665885959e-015
 70
     32
  0
VERTEX
  8
MY3DLAYER
10
29.171863562659
20
10.3139832507262
30
-1.08246744900953e-015
 70
     32
  0
VERTEX
  8
MY3DLAYER
10
29.1909216986647
20
10.3405788487208
30
-1.08246744900953e-015
 70
     32
  0
VERTEX
  8
MY3DLAYER
10
29.2116784650708
20
10.3658710417664
30
-1.52655665885959e-015
 70
     32
  0
VERTEX
  8
MY3DLAYER
10
29.234044978217
20
10.3897515248097
30
-1.08246744900953e-015
 70
     32
  0
VERTEX
  8
MY3DLAYER
10
29.2579254612603
20
10.4121180379559
30
-1.08246744900953e-015
 70
     32
  0
VERTEX
  8
MY3DLAYER
10
29.283217654306
20
10.432874804362
30
-1.08246744900953e-015
 70
     32
  0
VERTEX
  8
MY3DLAYER
10
29.3098132523005
20
10.4519329403677
30
-1.52655665885959e-015
 70
     32
  0
VERTEX
  8
MY3DLAYER
10
29.3375983688103
20
10.4692108361086
30
-1.08246744900953e-015
 70
     32
  0
VERTEX
  8
MY3DLAYER
10
29.3664540237008
20
10.4846345049828
30
-1.52655665885959e-015
 70
     32
  0
VERTEX
  8
MY3DLAYER
10
29.3962566526278
20
10.4981379004721
30
-1.52655665885959e-015
 70
     32
  0
VERTEX
  8
MY3DLAYER
10
29.4268786361587
20
10.509663198964
30
-1.52655665885959e-015
 70
     32
  0
VERTEX
  8
MY3DLAYER
10
29.4581888462591
20
10.5191610473609
30
-1.08246744900953e-015
 70
     32
  0
VERTEX
  8
MY3DLAYER
10
29.4900532078022
20
10.526590774418
30
-1.52655665885959e-015
 70
     32
  0
VERTEX
  8
MY3DLAYER
10
29.5223352727003
20
10.5319205649033
30
-1.52655665885959e-015
 70
     32
  0
VERTEX
  8
MY3DLAYER
10
29.5548968041952
20
10.5351275958357
30
-1.52655665885959e-015
 70
     32
  0
VERTEX
  8
MY3DLAYER
10
29.5875983688103
20
10.5361981342164
30
-1.52655665885959e-015
 70
     32
  0
VERTEX
  8
MY3DLAYER
10
29.6202999334254
20
10.5351275958357
30
-6.38378239159465e-016
 70
     32
  0
VERTEX
  8
MY3DLAYER
10
29.6528614649203
20
10.5319205649033
30
-6.38378239159465e-016
 70
     32
  0
VERTEX
  8
MY3DLAYER
10
29.6851435298184
20
10.526590774418
30
-1.52655665885959e-015
 70
     32
  0
VERTEX
  8
MY3DLAYER
10
29.7170078913616
20
10.5191610473609
30
-6.38378239159465e-016
 70
     32
  0
VERTEX
  8
MY3DLAYER
10
29.7483181014619
20
10.509663198964
30
-1.52655665885959e-015
 70
     32
  0
VERTEX
  8
MY3DLAYER
10
29.7789400849929
20
10.4981379004721
30
-1.52655665885959e-015
 70
     32
  0
VERTEX
  8
MY3DLAYER
10
29.8087427139198
20
10.4846345049828
30
-1.52655665885959e-015
 70
     32
  0
VERTEX
  8
MY3DLAYER
10
29.8375983688103
20
10.4692108361086
30
-1.52655665885959e-015
 70
     32
  0
VERTEX
  8
MY3DLAYER
10
29.8653834853201
20
10.4519329403677
30
-6.38378239159465e-016
 70
     32
  0
VERTEX
  8
MY3DLAYER
10
29.8919790833147
20
10.432874804362
30
-6.38378239159465e-016
 70
     32
  0
VERTEX
  8
MY3DLAYER
10
29.9172712763603
20
10.4121180379559
30
-6.38378239159465e-016
 70
     32
  0
VERTEX
  8
MY3DLAYER
10
29.9411517594036
20
10.3897515248097
30
-6.38378239159465e-016
 70
     32
  0
VERTEX
  8
MY3DLAYER
10
29.9635182725498
20
10.3658710417664
30
-1.52655665885959e-015
 70
     32
  0
VERTEX
  8
MY3DLAYER
10
29.9842750389559
20
10.3405788487208
30
-1.08246744900953e-015
 70
     32
  0
VERTEX
  8
MY3DLAYER
10
30.0033331749616
20
10.3139832507262
30
-6.38378239159465e-016
 70
     32
  0
VERTEX
  8
MY3DLAYER
10
30.0206110707025
20
10.2861981342164
30
-1.52655665885959e-015
 70
     32
  0
VERTEX
  8
MY3DLAYER
10
30.0360347395767
20
10.2573424793259
30
-6.38378239159465e-016
 70
     32
  0
VERTEX
  8
MY3DLAYER
10
30.049538135066
20
10.227539850399
30
-1.52655665885959e-015
 70
     32
  0
VERTEX
  8
MY3DLAYER
10
30.0610634335579
20
10.196917866868
30
-1.52655665885959e-015
 70
     32
  0
VERTEX
  8
MY3DLAYER
10
30.0705612819548
20
10.1656076567677
30
-1.52655665885959e-015
 70
     32
  0
VERTEX
  8
MY3DLAYER
10
30.0779910090119
20
10.1337432952245
30
-6.38378239159465e-016
 70
     32
  0
VERTEX
  8
MY3DLAYER
10
30.0833207994972
20
10.1014612303264
30
-6.38378239159465e-016
 70
     32
  0
VERTEX
  8
MY3DLAYER
10
30.0865278304296
20
10.0688996988315
30
-1.52655665885959e-015
 70
     32
  0
VERTEX
  8
MY3DLAYER
10
30.0875983688103
20
10.0361981342164
30
-6.38378239159465e-016
 70
     32
  0
VERTEX
  8
MY3DLAYER
10
30.0865278304296
20
10.0034965696013
30
-1.52655665885959e-015
 70
     32
  0
VERTEX
  8
MY3DLAYER
10
30.0833207994972
20
9.97093503810639
30
-6.38378239159465e-016
 70
     32
  0
VERTEX
  8
MY3DLAYER
10
30.0779910090119
20
9.93865297320835
30
-6.38378239159465e-016
 70
     32
  0
VERTEX
  8
MY3DLAYER
10
30.0705612819548
20
9.90678861166515
30
-1.52655665885959e-015
 70
     32
  0
VERTEX
  8
MY3DLAYER
10
30.0610634335579
20
9.87547840156483
30
-1.52655665885959e-015
 70
     32
  0
VERTEX
  8
MY3DLAYER
10
30.049538135066
20
9.84485641803387
30
-1.52655665885959e-015
 70
     32
  0
VERTEX
  8
MY3DLAYER
10
30.0360347395767
20
9.81505378910691
30
-6.38378239159465e-016
 70
     32
  0
VERTEX
  8
MY3DLAYER
10
30.0206110707025
20
9.78619813421641
30
-1.52655665885959e-015
 70
     32
  0
VERTEX
  8
MY3DLAYER
10
30.0033331749616
20
9.75841301770661
30
-6.38378239159465e-016
 70
     32
  0
VERTEX
  8
MY3DLAYER
10
29.9842750389559
20
9.73181741971205
30
-1.08246744900953e-015
 70
     32
  0
VERTEX
  8
MY3DLAYER
10
29.9635182725498
20
9.70652522666638
30
-1.52655665885959e-015
 70
     32
  0
VERTEX
  8
MY3DLAYER
10
29.9411517594036
20
9.68264474362314
30
-6.38378239159465e-016
 70
     32
  0
VERTEX
  8
MY3DLAYER
10
29.9172712763603
20
9.66027823047692
30
-6.38378239159465e-016
 70
     32
  0
VERTEX
  8
MY3DLAYER
10
29.8919790833147
20
9.63952146407079
30
-6.38378239159465e-016
 70
     32
  0
VERTEX
  8
MY3DLAYER
10
29.8653834853201
20
9.62046332806514
30
-6.38378239159465e-016
 70
     32
  0
VERTEX
  8
MY3DLAYER
10
29.8375983688103
20
9.60318543232419
30
-1.08246744900953e-015
 70
     32
  0
VERTEX
  8
MY3DLAYER
10
29.8087427139198
20
9.58776176345007
30
-1.52655665885959e-015
 70
     32
  0
VERTEX
  8
MY3DLAYER
10
29.7789400849929
20
9.57425836796077
30
-1.52655665885959e-015
 70
     32
  0
VERTEX
  8
MY3DLAYER
10
29.7483181014619
20
9.56273306946886
30
-1.52655665885959e-015
 70
     32
  0
VERTEX
  8
MY3DLAYER
10
29.7170078913616
20
9.55323522107188
30
-6.38378239159465e-016
 70
     32
  0
VERTEX
  8
MY3DLAYER
10
29.6851435298184
20
9.5458054940148
30
-1.52655665885959e-015
 70
     32
  0
VERTEX
  8
MY3DLAYER
10
29.6528614649203
20
9.54047570352951
30
-6.38378239159465e-016
 70
     32
  0
VERTEX
  8
MY3DLAYER
10
29.6202999334254
20
9.53726867259711
30
-6.38378239159465e-016
 70
     32
  0
VERTEX
  8
MY3DLAYER
10
29.5875983688103
20
9.53619813421641
30
-1.52655665885959e-015
 70
     32
  0
VERTEX
  8
MY3DLAYER
10
29.5548968041952
20
9.53726867259711
30
-1.52655665885959e-015
 70
     32
  0
VERTEX
  8
MY3DLAYER
10
29.5223352727003
20
9.54047570352951
30
-1.52655665885959e-015
 70
     32
  0
VERTEX
  8
MY3DLAYER
10
29.4900532078022
20
9.5458054940148
30
-1.52655665885959e-015
 70
     32
  0
VERTEX
  8
MY3DLAYER
10
29.4581888462591
20
9.55323522107188
30
-1.08246744900953e-015
 70
     32
  0
VERTEX
  8
MY3DLAYER
10
29.4268786361587
20
9.56273306946886
30
-1.52655665885959e-015
 70
     32
  0
VERTEX
  8
MY3DLAYER
10
29.3962566526278
20
9.57425836796077
30
-1.52655665885959e-015
 70
     32
  0
VERTEX
  8
MY3DLAYER
10
29.3664540237008
20
9.58776176345007
30
-1.52655665885959e-015
 70
     32
  0
VERTEX
  8
MY3DLAYER
10
29.3375983688103
20
9.60318543232419
30
-6.38378239159465e-016
 70
     32
  0
VERTEX
  8
MY3DLAYER
10
29.3098132523005
20
9.62046332806514
30
-1.52655665885959e-015
 70
     32
  0
VERTEX
  8
MY3DLAYER
10
29.283217654306
20
9.63952146407079
30
-1.08246744900953e-015
 70
     32
  0
VERTEX
  8
MY3DLAYER
10
29.2579254612603
20
9.66027823047692
30
-1.08246744900953e-015
 70
     32
  0
VERTEX
  8
MY3DLAYER
10
29.234044978217
20
9.68264474362314
30
-1.08246744900953e-015
 70
     32
  0
VERTEX
  8
MY3DLAYER
10
29.2116784650708
20
9.70652522666638
30
-1.52655665885959e-015
 70
     32
  0
VERTEX
  8
MY3DLAYER
10
29.1909216986647
20
9.73181741971205
30
-1.08246744900953e-015
 70
     32
  0
VERTEX
  8
MY3DLAYER
10
29.171863562659
20
9.75841301770661
30
-1.08246744900953e-015
 70
     32
  0
VERTEX
  8
MY3DLAYER
10
29.1545856669181
20
9.78619813421641
30
-1.52655665885959e-015
 70
     32
  0
VERTEX
  8
MY3DLAYER
10
29.139161998044
20
9.81505378910691
30
-1.08246744900953e-015
 70
     32
  0
VERTEX
  8
MY3DLAYER
10
29.1256586025547
20
9.84485641803387
30
-1.52655665885959e-015
 70
     32
  0
VERTEX
  8
MY3DLAYER
10
29.1141333040628
20
9.87547840156483
30
-1.52655665885959e-015
 70
     32
  0
VERTEX
  8
MY3DLAYER
10
29.1046354556658
20
9.90678861166515
30
-1.52655665885959e-015
 70
     32
  0
VERTEX
  8
MY3DLAYER
10
29.0972057286087
20
9.93865297320835
30
-1.08246744900953e-015
 70
     32
  0
VERTEX
  8
MY3DLAYER
10
29.0918759381234
20
9.97093503810639
30
-1.08246744900953e-015
 70
     32
  0
VERTEX
  8
MY3DLAYER
10
29.088668907191
20
10.0034965696013
30
-1.52655665885959e-015
 70
     32
  0
SEQEND
  0
POLYLINE
 8
GROUP0
 66
     1
70
    8
 10
0.0
 20
 0.0
 30
0.0
  0
VERTEX
  8
MY3DLAYER
10
29.0875983688103
20
12.3486981342164
30
-1.08246744900953e-015
 70
     32
  0
VERTEX
  8
MY3DLAYER
10
29.088668907191
20
12.3813996988315
30
-1.52655665885959e-015
 70
     32
  0
VERTEX
  8
MY3DLAYER
10
29.0918759381234
20
12.4139612303264
30
-1.08246744900953e-015
 70
     32
  0
VERTEX
  8
MY3DLAYER
10
29.0972057286087
20
12.4462432952245
30
-1.08246744900953e-015
 70
     32
  0
VERTEX
  8
MY3DLAYER
10
29.1046354556658
20
12.4781076567677
30
-1.52655665885959e-015
 70
     32
  0
VERTEX
  8
MY3DLAYER
10
29.1141333040628
20
12.509417866868
30
-1.52655665885959e-015
 70
     32
  0
VERTEX
  8
MY3DLAYER
10
29.1256586025547
20
12.540039850399
30
-1.52655665885959e-015
 70
     32
  0
VERTEX
  8
MY3DLAYER
10
29.139161998044
20
12.5698424793259
30
-1.08246744900953e-015
 70
     32
  0
VERTEX
  8
MY3DLAYER
10
29.1545856669181
20
12.5986981342164
30
-1.52655665885959e-015
 70
     32
  0
VERTEX
  8
MY3DLAYER
10
29.171863562659
20
12.6264832507262
30
-1.08246744900953e-015
 70
     32
  0
VERTEX
  8
MY3DLAYER
10
29.1909216986647
20
12.6530788487208
30
-1.08246744900953e-015
 70
     32
  0
VERTEX
  8
MY3DLAYER
10
29.2116784650708
20
12.6783710417664
30
-1.52655665885959e-015
 70
     32
  0
VERTEX
  8
MY3DLAYER
10
29.234044978217
20
12.7022515248097
30
-1.08246744900953e-015
 70
     32
  0
VERTEX
  8
MY3DLAYER
10
29.2579254612603
20
12.7246180379559
30
-1.08246744900953e-015
 70
     32
  0
VERTEX
  8
MY3DLAYER
10
29.283217654306
20
12.745374804362
30
-1.08246744900953e-015
 70
     32
  0
VERTEX
  8
MY3DLAYER
10
29.3098132523005
20
12.7644329403677
30
-1.52655665885959e-015
 70
     32
  0
VERTEX
  8
MY3DLAYER
10
29.3375983688103
20
12.7817108361086
30
-1.08246744900953e-015
 70
     32
  0
VERTEX
  8
MY3DLAYER
10
29.3664540237008
20
12.7971345049828
30
-1.52655665885959e-015
 70
     32
  0
VERTEX
  8
MY3DLAYER
10
29.3962566526278
20
12.8106379004721
30
-1.52655665885959e-015
 70
     32
  0
VERTEX
  8
MY3DLAYER
10
29.4268786361587
20
12.822163198964
30
-1.52655665885959e-015
 70
     32
  0
VERTEX
  8
MY3DLAYER
10
29.4581888462591
20
12.8316610473609
30
-1.08246744900953e-015
 70
     32
  0
VERTEX
  8
MY3DLAYER
10
29.4900532078022
20
12.839090774418
30
-1.52655665885959e-015
 70
     32
  0
VERTEX
  8
MY3DLAYER
10
29.5223352727003
20
12.8444205649033
30
-1.52655665885959e-015
 70
     32
  0
VERTEX
  8
MY3DLAYER
10
29.5548968041952
20
12.8476275958357
30
-1.52655665885959e-015
 70
     32
  0
VERTEX
  8
MY3DLAYER
10
29.5875983688103
20
12.8486981342164
30
-1.52655665885959e-015
 70
     32
  0
VERTEX
  8
MY3DLAYER
10
29.6202999334254
20
12.8476275958357
30
-6.38378239159465e-016
 70
     32
  0
VERTEX
  8
MY3DLAYER
10
29.6528614649203
20
12.8444205649033
30
-6.38378239159465e-016
 70
     32
  0
VERTEX
  8
MY3DLAYER
10
29.6851435298184
20
12.839090774418
30
-1.52655665885959e-015
 70
     32
  0
VERTEX
  8
MY3DLAYER
10
29.7170078913616
20
12.8316610473609
30
-6.38378239159465e-016
 70
     32
  0
VERTEX
  8
MY3DLAYER
10
29.7483181014619
20
12.822163198964
30
-1.52655665885959e-015
 70
     32
  0
VERTEX
  8
MY3DLAYER
10
29.7789400849929
20
12.8106379004721
30
-1.52655665885959e-015
 70
     32
  0
VERTEX
  8
MY3DLAYER
10
29.8087427139198
20
12.7971345049828
30
-1.52655665885959e-015
 70
     32
  0
VERTEX
  8
MY3DLAYER
10
29.8375983688103
20
12.7817108361086
30
-1.52655665885959e-015
 70
     32
  0
VERTEX
  8
MY3DLAYER
10
29.8653834853201
20
12.7644329403677
30
-6.38378239159465e-016
 70
     32
  0
VERTEX
  8
MY3DLAYER
10
29.8919790833147
20
12.745374804362
30
-6.38378239159465e-016
 70
     32
  0
VERTEX
  8
MY3DLAYER
10
29.9172712763603
20
12.7246180379559
30
-6.38378239159465e-016
 70
     32
  0
VERTEX
  8
MY3DLAYER
10
29.9411517594036
20
12.7022515248097
30
-6.38378239159465e-016
 70
     32
  0
VERTEX
  8
MY3DLAYER
10
29.9635182725498
20
12.6783710417664
30
-1.52655665885959e-015
 70
     32
  0
VERTEX
  8
MY3DLAYER
10
29.9842750389559
20
12.6530788487208
30
-1.08246744900953e-015
 70
     32
  0
VERTEX
  8
MY3DLAYER
10
30.0033331749616
20
12.6264832507262
30
-6.38378239159465e-016
 70
     32
  0
VERTEX
  8
MY3DLAYER
10
30.0206110707025
20
12.5986981342164
30
-1.52655665885959e-015
 70
     32
  0
VERTEX
  8
MY3DLAYER
10
30.0360347395767
20
12.5698424793259
30
-6.38378239159465e-016
 70
     32
  0
VERTEX
  8
MY3DLAYER
10
30.049538135066
20
12.540039850399
30
-1.52655665885959e-015
 70
     32
  0
VERTEX
  8
MY3DLAYER
10
30.0610634335579
20
12.509417866868
30
-1.52655665885959e-015
 70
     32
  0
VERTEX
  8
MY3DLAYER
10
30.0705612819548
20
12.4781076567677
30
-1.52655665885959e-015
 70
     32
  0
VERTEX
  8
MY3DLAYER
10
30.0779910090119
20
12.4462432952245
30
-6.38378239159465e-016
 70
     32
  0
VERTEX
  8
MY3DLAYER
10
30.0833207994972
20
12.4139612303264
30
-6.38378239159465e-016
 70
     32
  0
VERTEX
  8
MY3DLAYER
10
30.0865278304296
20
12.3813996988315
30
-1.52655665885959e-015
 70
     32
  0
VERTEX
  8
MY3DLAYER
10
30.0875983688103
20
12.3486981342164
30
-6.38378239159465e-016
 70
     32
  0
VERTEX
  8
MY3DLAYER
10
30.0865278304296
20
12.3159965696013
30
-1.52655665885959e-015
 70
     32
  0
VERTEX
  8
MY3DLAYER
10
30.0833207994972
20
12.2834350381064
30
-6.38378239159465e-016
 70
     32
  0
VERTEX
  8
MY3DLAYER
10
30.0779910090119
20
12.2511529732083
30
-6.38378239159465e-016
 70
     32
  0
VERTEX
  8
MY3DLAYER
10
30.0705612819548
20
12.2192886116652
30
-1.52655665885959e-015
 70
     32
  0
VERTEX
  8
MY3DLAYER
10
30.0610634335579
20
12.1879784015648
30
-1.52655665885959e-015
 70
     32
  0
VERTEX
  8
MY3DLAYER
10
30.049538135066
20
12.1573564180339
30
-1.52655665885959e-015
 70
     32
  0
VERTEX
  8
MY3DLAYER
10
30.0360347395767
20
12.1275537891069
30
-6.38378239159465e-016
 70
     32
  0
VERTEX
  8
MY3DLAYER
10
30.0206110707025
20
12.0986981342164
30
-1.52655665885959e-015
 70
     32
  0
VERTEX
  8
MY3DLAYER
10
30.0033331749616
20
12.0709130177066
30
-6.38378239159465e-016
 70
     32
  0
VERTEX
  8
MY3DLAYER
10
29.9842750389559
20
12.0443174197121
30
-1.08246744900953e-015
 70
     32
  0
VERTEX
  8
MY3DLAYER
10
29.9635182725498
20
12.0190252266664
30
-1.52655665885959e-015
 70
     32
  0
VERTEX
  8
MY3DLAYER
10
29.9411517594036
20
11.9951447436231
30
-6.38378239159465e-016
 70
     32
  0
VERTEX
  8
MY3DLAYER
10
29.9172712763603
20
11.9727782304769
30
-6.38378239159465e-016
 70
     32
  0
VERTEX
  8
MY3DLAYER
10
29.8919790833147
20
11.9520214640708
30
-6.38378239159465e-016
 70
     32
  0
VERTEX
  8
MY3DLAYER
10
29.8653834853201
20
11.9329633280651
30
-6.38378239159465e-016
 70
     32
  0
VERTEX
  8
MY3DLAYER
10
29.8375983688103
20
11.9156854323242
30
-1.08246744900953e-015
 70
     32
  0
VERTEX
  8
MY3DLAYER
10
29.8087427139198
20
11.9002617634501
30
-1.52655665885959e-015
 70
     32
  0
VERTEX
  8
MY3DLAYER
10
29.7789400849929
20
11.8867583679608
30
-1.52655665885959e-015
 70
     32
  0
VERTEX
  8
MY3DLAYER
10
29.7483181014619
20
11.8752330694689
30
-1.52655665885959e-015
 70
     32
  0
VERTEX
  8
MY3DLAYER
10
29.7170078913616
20
11.8657352210719
30
-6.38378239159465e-016
 70
     32
  0
VERTEX
  8
MY3DLAYER
10
29.6851435298184
20
11.8583054940148
30
-1.52655665885959e-015
 70
     32
  0
VERTEX
  8
MY3DLAYER
10
29.6528614649203
20
11.8529757035295
30
-6.38378239159465e-016
 70
     32
  0
VERTEX
  8
MY3DLAYER
10
29.6202999334254
20
11.8497686725971
30
-6.38378239159465e-016
 70
     32
  0
VERTEX
  8
MY3DLAYER
10
29.5875983688103
20
11.8486981342164
30
-1.52655665885959e-015
 70
     32
  0
VERTEX
  8
MY3DLAYER
10
29.5548968041952
20
11.8497686725971
30
-1.52655665885959e-015
 70
     32
  0
VERTEX
  8
MY3DLAYER
10
29.5223352727003
20
11.8529757035295
30
-1.52655665885959e-015
 70
     32
  0
VERTEX
  8
MY3DLAYER
10
29.4900532078022
20
11.8583054940148
30
-1.52655665885959e-015
 70
     32
  0
VERTEX
  8
MY3DLAYER
10
29.4581888462591
20
11.8657352210719
30
-1.08246744900953e-015
 70
     32
  0
VERTEX
  8
MY3DLAYER
10
29.4268786361587
20
11.8752330694689
30
-1.52655665885959e-015
 70
     32
  0
VERTEX
  8
MY3DLAYER
10
29.3962566526278
20
11.8867583679608
30
-1.52655665885959e-015
 70
     32
  0
VERTEX
  8
MY3DLAYER
10
29.3664540237008
20
11.9002617634501
30
-1.52655665885959e-015
 70
     32
  0
VERTEX
  8
MY3DLAYER
10
29.3375983688103
20
11.9156854323242
30
-6.38378239159465e-016
 70
     32
  0
VERTEX
  8
MY3DLAYER
10
29.3098132523005
20
11.9329633280651
30
-1.52655665885959e-015
 70
     32
  0
VERTEX
  8
MY3DLAYER
10
29.283217654306
20
11.9520214640708
30
-1.08246744900953e-015
 70
     32
  0
VERTEX
  8
MY3DLAYER
10
29.2579254612603
20
11.9727782304769
30
-1.08246744900953e-015
 70
     32
  0
VERTEX
  8
MY3DLAYER
10
29.234044978217
20
11.9951447436231
30
-1.08246744900953e-015
 70
     32
  0
VERTEX
  8
MY3DLAYER
10
29.2116784650708
20
12.0190252266664
30
-1.52655665885959e-015
 70
     32
  0
VERTEX
  8
MY3DLAYER
10
29.1909216986647
20
12.0443174197121
30
-1.08246744900953e-015
 70
     32
  0
VERTEX
  8
MY3DLAYER
10
29.171863562659
20
12.0709130177066
30
-1.08246744900953e-015
 70
     32
  0
VERTEX
  8
MY3DLAYER
10
29.1545856669181
20
12.0986981342164
30
-1.52655665885959e-015
 70
     32
  0
VERTEX
  8
MY3DLAYER
10
29.139161998044
20
12.1275537891069
30
-1.08246744900953e-015
 70
     32
  0
VERTEX
  8
MY3DLAYER
10
29.1256586025547
20
12.1573564180339
30
-1.52655665885959e-015
 70
     32
  0
VERTEX
  8
MY3DLAYER
10
29.1141333040628
20
12.1879784015648
30
-1.52655665885959e-015
 70
     32
  0
VERTEX
  8
MY3DLAYER
10
29.1046354556658
20
12.2192886116652
30
-1.52655665885959e-015
 70
     32
  0
VERTEX
  8
MY3DLAYER
10
29.0972057286087
20
12.2511529732083
30
-1.08246744900953e-015
 70
     32
  0
VERTEX
  8
MY3DLAYER
10
29.0918759381234
20
12.2834350381064
30
-1.08246744900953e-015
 70
     32
  0
VERTEX
  8
MY3DLAYER
10
29.088668907191
20
12.3159965696013
30
-1.52655665885959e-015
 70
     32
  0
VERTEX
  8
MY3DLAYER
10
29.0875983688103
20
12.3486981342164
30
-1.08246744900953e-015
 70
     32
  0
SEQEND
  0
POLYLINE
 8
GROUP0
 66
     1
70
    8
 10
0.0
 20
 0.0
 30
0.0
  0
VERTEX
  8
MY3DLAYER
10
31.6453644315611
20
12.4781076567677
30
-2.41473507855972e-015
 70
     32
  0
VERTEX
  8
MY3DLAYER
10
31.6527941586182
20
12.4462432952245
30
-1.52655665885959e-015
 70
     32
  0
VERTEX
  8
MY3DLAYER
10
31.6581239491035
20
12.4139612303265
30
-1.97064586870965e-015
 70
     32
  0
VERTEX
  8
MY3DLAYER
10
31.6613309800359
20
12.3813996988315
30
-1.52655665885959e-015
 70
     32
  0
VERTEX
  8
MY3DLAYER
10
31.6624015184166
20
12.3486981342165
30
-1.52655665885959e-015
 70
     32
  0
VERTEX
  8
MY3DLAYER
10
31.6613309800359
20
12.3159965696014
30
-1.52655665885959e-015
 70
     32
  0
VERTEX
  8
MY3DLAYER
10
31.6581239491035
20
12.2834350381064
30
-1.97064586870965e-015
 70
     32
  0
VERTEX
  8
MY3DLAYER
10
31.6527941586182
20
12.2511529732084
30
-1.52655665885959e-015
 70
     32
  0
VERTEX
  8
MY3DLAYER
10
31.6453644315611
20
12.2192886116652
30
-2.41473507855972e-015
 70
     32
  0
VERTEX
  8
MY3DLAYER
10
31.6358665831642
20
12.1879784015649
30
-1.52655665885959e-015
 70
     32
  0
VERTEX
  8
MY3DLAYER
10
31.6243412846723
20
12.1573564180339
30
-1.52655665885959e-015
 70
     32
  0
VERTEX
  8
MY3DLAYER
10
31.610837889183
20
12.127553789107
30
-1.97064586870965e-015
 70
     32
  0
VERTEX
  8
MY3DLAYER
10
31.5954142203088
20
12.0986981342165
30
-1.52655665885959e-015
 70
     32
  0
VERTEX
  8
MY3DLAYER
10
31.5781363245679
20
12.0709130177067
30
-1.52655665885959e-015
 70
     32
  0
VERTEX
  8
MY3DLAYER
10
31.5590781885622
20
12.0443174197121
30
-1.97064586870965e-015
 70
     32
  0
VERTEX
  8
MY3DLAYER
10
31.5383214221561
20
12.0190252266664
30
-1.52655665885959e-015
 70
     32
  0
VERTEX
  8
MY3DLAYER
10
31.5159549090099
20
11.9951447436232
30
-1.97064586870965e-015
 70
     32
  0
VERTEX
  8
MY3DLAYER
10
31.4920744259666
20
11.972778230477
30
-1.52655665885959e-015
 70
     32
  0
VERTEX
  8
MY3DLAYER
10
31.466782232921
20
11.9520214640709
30
-1.97064586870965e-015
 70
     32
  0
VERTEX
  8
MY3DLAYER
10
31.4401866349264
20
11.9329633280652
30
-1.52655665885959e-015
 70
     32
  0
VERTEX
  8
MY3DLAYER
10
31.4124015184166
20
11.9156854323242
30
-1.97064586870965e-015
 70
     32
  0
VERTEX
  8
MY3DLAYER
10
31.3835458635261
20
11.9002617634501
30
-1.97064586870965e-015
 70
     32
  0
VERTEX
  8
MY3DLAYER
10
31.3537432345992
20
11.8867583679608
30
-1.97064586870965e-015
 70
     32
  0
VERTEX
  8
MY3DLAYER
10
31.3231212510682
20
11.8752330694689
30
-1.08246744900953e-015
 70
     32
  0
VERTEX
  8
MY3DLAYER
10
31.2918110409679
20
11.8657352210719
30
-1.52655665885959e-015
 70
     32
  0
VERTEX
  8
MY3DLAYER
10
31.2599466794247
20
11.8583054940149
30
-1.08246744900953e-015
 70
     32
  0
VERTEX
  8
MY3DLAYER
10
31.2276646145266
20
11.8529757035296
30
-1.08246744900953e-015
 70
     32
  0
VERTEX
  8
MY3DLAYER
10
31.1951030830317
20
11.8497686725972
30
-1.08246744900953e-015
 70
     32
  0
VERTEX
  8
MY3DLAYER
10
31.1624015184166
20
11.8486981342165
30
-1.08246744900953e-015
 70
     32
  0
VERTEX
  8
MY3DLAYER
10
31.1296999538015
20
11.8497686725972
30
-1.97064586870965e-015
 70
     32
  0
VERTEX
  8
MY3DLAYER
10
31.0971384223066
20
11.8529757035296
30
-1.97064586870965e-015
 70
     32
  0
VERTEX
  8
MY3DLAYER
10
31.0648563574086
20
11.8583054940149
30
-1.97064586870965e-015
 70
     32
  0
VERTEX
  8
MY3DLAYER
10
31.0329919958654
20
11.8657352210719
30
-1.52655665885959e-015
 70
     32
  0
VERTEX
  8
MY3DLAYER
10
31.001681785765
20
11.8752330694689
30
-1.08246744900953e-015
 70
     32
  0
VERTEX
  8
MY3DLAYER
10
30.9710598022341
20
11.8867583679608
30
-1.08246744900953e-015
 70
     32
  0
VERTEX
  8
MY3DLAYER
10
30.9412571733071
20
11.9002617634501
30
-1.08246744900953e-015
 70
     32
  0
VERTEX
  8
MY3DLAYER
10
30.9124015184166
20
11.9156854323242
30
-1.08246744900953e-015
 70
     32
  0
VERTEX
  8
MY3DLAYER
10
30.8846164019068
20
11.9329633280652
30
-1.52655665885959e-015
 70
     32
  0
VERTEX
  8
MY3DLAYER
10
30.8580208039123
20
11.9520214640709
30
-1.08246744900953e-015
 70
     32
  0
VERTEX
  8
MY3DLAYER
10
30.8327286108666
20
11.972778230477
30
-1.52655665885959e-015
 70
     32
  0
VERTEX
  8
MY3DLAYER
10
30.8088481278233
20
11.9951447436232
30
-1.08246744900953e-015
 70
     32
  0
VERTEX
  8
MY3DLAYER
10
30.7864816146771
20
12.0190252266664
30
-1.52655665885959e-015
 70
     32
  0
VERTEX
  8
MY3DLAYER
10
30.765724848271
20
12.0443174197121
30
-1.08246744900953e-015
 70
     32
  0
VERTEX
  8
MY3DLAYER
10
30.7466667122653
20
12.0709130177067
30
-1.52655665885959e-015
 70
     32
  0
VERTEX
  8
MY3DLAYER
10
30.7293888165244
20
12.0986981342165
30
-1.52655665885959e-015
 70
     32
  0
VERTEX
  8
MY3DLAYER
10
30.7139651476503
20
12.127553789107
30
-1.08246744900953e-015
 70
     32
  0
VERTEX
  8
MY3DLAYER
10
30.700461752161
20
12.1573564180339
30
-6.38378239159465e-016
 70
     32
  0
VERTEX
  8
MY3DLAYER
10
30.6889364536691
20
12.1879784015649
30
-1.52655665885959e-015
 70
     32
  0
VERTEX
  8
MY3DLAYER
10
30.6794386052721
20
12.2192886116652
30
-6.38378239159465e-016
 70
     32
  0
VERTEX
  8
MY3DLAYER
10
30.672008878215
20
12.2511529732084
30
-1.52655665885959e-015
 70
     32
  0
VERTEX
  8
MY3DLAYER
10
30.6666790877297
20
12.2834350381064
30
-1.52655665885959e-015
 70
     32
  0
VERTEX
  8
MY3DLAYER
10
30.6634720567973
20
12.3159965696014
30
-1.52655665885959e-015
 70
     32
  0
VERTEX
  8
MY3DLAYER
10
30.6624015184166
20
12.3486981342165
30
-1.52655665885959e-015
 70
     32
  0
VERTEX
  8
MY3DLAYER
10
30.6634720567973
20
12.3813996988315
30
-1.52655665885959e-015
 70
     32
  0
VERTEX
  8
MY3DLAYER
10
30.6666790877297
20
12.4139612303265
30
-1.52655665885959e-015
 70
     32
  0
VERTEX
  8
MY3DLAYER
10
30.672008878215
20
12.4462432952245
30
-1.52655665885959e-015
 70
     32
  0
VERTEX
  8
MY3DLAYER
10
30.6794386052721
20
12.4781076567677
30
-6.38378239159465e-016
 70
     32
  0
VERTEX
  8
MY3DLAYER
10
30.6889364536691
20
12.5094178668681
30
-1.52655665885959e-015
 70
     32
  0
VERTEX
  8
MY3DLAYER
10
30.700461752161
20
12.540039850399
30
-6.38378239159465e-016
 70
     32
  0
VERTEX
  8
MY3DLAYER
10
30.7139651476503
20
12.569842479326
30
-1.08246744900953e-015
 70
     32
  0
VERTEX
  8
MY3DLAYER
10
30.7293888165244
20
12.5986981342165
30
-1.52655665885959e-015
 70
     32
  0
VERTEX
  8
MY3DLAYER
10
30.7466667122653
20
12.6264832507263
30
-1.52655665885959e-015
 70
     32
  0
VERTEX
  8
MY3DLAYER
10
30.765724848271
20
12.6530788487208
30
-1.08246744900953e-015
 70
     32
  0
VERTEX
  8
MY3DLAYER
10
30.7864816146771
20
12.6783710417665
30
-1.52655665885959e-015
 70
     32
  0
VERTEX
  8
MY3DLAYER
10
30.8088481278233
20
12.7022515248097
30
-1.08246744900953e-015
 70
     32
  0
VERTEX
  8
MY3DLAYER
10
30.8327286108666
20
12.724618037956
30
-1.52655665885959e-015
 70
     32
  0
VERTEX
  8
MY3DLAYER
10
30.8580208039123
20
12.7453748043621
30
-1.08246744900953e-015
 70
     32
  0
VERTEX
  8
MY3DLAYER
10
30.8846164019068
20
12.7644329403677
30
-1.52655665885959e-015
 70
     32
  0
VERTEX
  8
MY3DLAYER
10
30.9124015184166
20
12.7817108361087
30
-1.08246744900953e-015
 70
     32
  0
VERTEX
  8
MY3DLAYER
10
30.9412571733071
20
12.7971345049828
30
-1.08246744900953e-015
 70
     32
  0
VERTEX
  8
MY3DLAYER
10
30.9710598022341
20
12.8106379004721
30
-1.08246744900953e-015
 70
     32
  0
VERTEX
  8
MY3DLAYER
10
31.001681785765
20
12.822163198964
30
-1.08246744900953e-015
 70
     32
  0
VERTEX
  8
MY3DLAYER
10
31.0329919958654
20
12.831661047361
30
-1.52655665885959e-015
 70
     32
  0
VERTEX
  8
MY3DLAYER
10
31.0648563574086
20
12.8390907744181
30
-1.97064586870965e-015
 70
     32
  0
VERTEX
  8
MY3DLAYER
10
31.0971384223066
20
12.8444205649034
30
-1.97064586870965e-015
 70
     32
  0
VERTEX
  8
MY3DLAYER
10
31.1296999538015
20
12.8476275958358
30
-1.97064586870965e-015
 70
     32
  0
VERTEX
  8
MY3DLAYER
10
31.1624015184166
20
12.8486981342165
30
-1.08246744900953e-015
 70
     32
  0
VERTEX
  8
MY3DLAYER
10
31.1951030830317
20
12.8476275958358
30
-1.08246744900953e-015
 70
     32
  0
VERTEX
  8
MY3DLAYER
10
31.2276646145266
20
12.8444205649034
30
-1.08246744900953e-015
 70
     32
  0
VERTEX
  8
MY3DLAYER
10
31.2599466794247
20
12.8390907744181
30
-1.08246744900953e-015
 70
     32
  0
VERTEX
  8
MY3DLAYER
10
31.2918110409679
20
12.831661047361
30
-1.52655665885959e-015
 70
     32
  0
VERTEX
  8
MY3DLAYER
10
31.3231212510682
20
12.822163198964
30
-1.08246744900953e-015
 70
     32
  0
VERTEX
  8
MY3DLAYER
10
31.3537432345992
20
12.8106379004721
30
-1.97064586870965e-015
 70
     32
  0
VERTEX
  8
MY3DLAYER
10
31.3835458635261
20
12.7971345049828
30
-1.97064586870965e-015
 70
     32
  0
VERTEX
  8
MY3DLAYER
10
31.4124015184166
20
12.7817108361087
30
-1.97064586870965e-015
 70
     32
  0
VERTEX
  8
MY3DLAYER
10
31.4401866349264
20
12.7644329403677
30
-1.52655665885959e-015
 70
     32
  0
VERTEX
  8
MY3DLAYER
10
31.466782232921
20
12.7453748043621
30
-1.97064586870965e-015
 70
     32
  0
VERTEX
  8
MY3DLAYER
10
31.4920744259666
20
12.724618037956
30
-1.52655665885959e-015
 70
     32
  0
VERTEX
  8
MY3DLAYER
10
31.5159549090099
20
12.7022515248097
30
-1.97064586870965e-015
 70
     32
  0
VERTEX
  8
MY3DLAYER
10
31.5383214221561
20
12.6783710417665
30
-1.52655665885959e-015
 70
     32
  0
VERTEX
  8
MY3DLAYER
10
31.5590781885622
20
12.6530788487208
30
-1.97064586870965e-015
 70
     32
  0
VERTEX
  8
MY3DLAYER
10
31.5781363245679
20
12.6264832507263
30
-1.52655665885959e-015
 70
     32
  0
VERTEX
  8
MY3DLAYER
10
31.5954142203088
20
12.5986981342165
30
-1.52655665885959e-015
 70
     32
  0
VERTEX
  8
MY3DLAYER
10
31.610837889183
20
12.569842479326
30
-1.97064586870965e-015
 70
     32
  0
VERTEX
  8
MY3DLAYER
10
31.6243412846723
20
12.540039850399
30
-1.52655665885959e-015
 70
     32
  0
VERTEX
  8
MY3DLAYER
10
31.6358665831642
20
12.509417866868
30
-1.52655665885959e-015
 70
     32
  0
VERTEX
  8
MY3DLAYER
10
31.6453644315611
20
12.4781076567677
30
-2.41473507855972e-015
 70
     32
  0
SEQEND
  0
POLYLINE
 8
GROUP0
 66
     1
70
    8
 10
0.0
 20
 0.0
 30
0.0
  0
VERTEX
  8
MY3DLAYER
10
25.8139364536691
20
12.5094178668681
30
-1.52655665885959e-015
 70
     32
  0
VERTEX
  8
MY3DLAYER
10
25.825461752161
20
12.540039850399
30
-1.52655665885959e-015
 70
     32
  0
VERTEX
  8
MY3DLAYER
10
25.8389651476503
20
12.569842479326
30
-1.08246744900953e-015
 70
     32
  0
VERTEX
  8
MY3DLAYER
10
25.8543888165244
20
12.5986981342165
30
-1.52655665885959e-015
 70
     32
  0
VERTEX
  8
MY3DLAYER
10
25.8716667122653
20
12.6264832507263
30
-1.52655665885959e-015
 70
     32
  0
VERTEX
  8
MY3DLAYER
10
25.890724848271
20
12.6530788487208
30
-1.08246744900953e-015
 70
     32
  0
VERTEX
  8
MY3DLAYER
10
25.9114816146771
20
12.6783710417665
30
-1.52655665885959e-015
 70
     32
  0
VERTEX
  8
MY3DLAYER
10
25.9338481278233
20
12.7022515248097
30
-1.08246744900953e-015
 70
     32
  0
VERTEX
  8
MY3DLAYER
10
25.9577286108666
20
12.724618037956
30
-1.52655665885959e-015
 70
     32
  0
VERTEX
  8
MY3DLAYER
10
25.9830208039123
20
12.7453748043621
30
-1.08246744900953e-015
 70
     32
  0
VERTEX
  8
MY3DLAYER
10
26.0096164019068
20
12.7644329403677
30
-1.52655665885959e-015
 70
     32
  0
VERTEX
  8
MY3DLAYER
10
26.0374015184166
20
12.7817108361087
30
-1.08246744900953e-015
 70
     32
  0
VERTEX
  8
MY3DLAYER
10
26.0662571733071
20
12.7971345049828
30
-6.38378239159465e-016
 70
     32
  0
VERTEX
  8
MY3DLAYER
10
26.0960598022341
20
12.8106379004721
30
-1.52655665885959e-015
 70
     32
  0
VERTEX
  8
MY3DLAYER
10
26.126681785765
20
12.822163198964
30
-1.52655665885959e-015
 70
     32
  0
VERTEX
  8
MY3DLAYER
10
26.1579919958654
20
12.831661047361
30
-1.52655665885959e-015
 70
     32
  0
VERTEX
  8
MY3DLAYER
10
26.1898563574086
20
12.8390907744181
30
-1.52655665885959e-015
 70
     32
  0
VERTEX
  8
MY3DLAYER
10
26.2221384223066
20
12.8444205649034
30
-1.52655665885959e-015
 70
     32
  0
VERTEX
  8
MY3DLAYER
10
26.2546999538015
20
12.8476275958358
30
-1.52655665885959e-015
 70
     32
  0
VERTEX
  8
MY3DLAYER
10
26.2874015184166
20
12.8486981342165
30
-1.52655665885959e-015
 70
     32
  0
VERTEX
  8
MY3DLAYER
10
26.3201030830317
20
12.8476275958358
30
-6.38378239159465e-016
 70
     32
  0
VERTEX
  8
MY3DLAYER
10
26.3526646145266
20
12.8444205649034
30
-6.38378239159465e-016
 70
     32
  0
VERTEX
  8
MY3DLAYER
10
26.3849466794247
20
12.8390907744181
30
-1.52655665885959e-015
 70
     32
  0
VERTEX
  8
MY3DLAYER
10
26.4168110409679
20
12.831661047361
30
-6.38378239159465e-016
 70
     32
  0
VERTEX
  8
MY3DLAYER
10
26.4481212510682
20
12.822163198964
30
-1.52655665885959e-015
 70
     32
  0
VERTEX
  8
MY3DLAYER
10
26.4787432345992
20
12.8106379004721
30
-1.52655665885959e-015
 70
     32
  0
VERTEX
  8
MY3DLAYER
10
26.5085458635261
20
12.7971345049828
30
-1.52655665885959e-015
 70
     32
  0
VERTEX
  8
MY3DLAYER
10
26.5374015184166
20
12.7817108361087
30
-1.52655665885959e-015
 70
     32
  0
VERTEX
  8
MY3DLAYER
10
26.5651866349264
20
12.7644329403677
30
-6.38378239159465e-016
 70
     32
  0
VERTEX
  8
MY3DLAYER
10
26.591782232921
20
12.7453748043621
30
-1.08246744900953e-015
 70
     32
  0
VERTEX
  8
MY3DLAYER
10
26.6170744259666
20
12.724618037956
30
-6.38378239159465e-016
 70
     32
  0
VERTEX
  8
MY3DLAYER
10
26.6409549090099
20
12.7022515248097
30
-6.38378239159465e-016
 70
     32
  0
VERTEX
  8
MY3DLAYER
10
26.6633214221561
20
12.6783710417665
30
-1.52655665885959e-015
 70
     32
  0
VERTEX
  8
MY3DLAYER
10
26.6840781885622
20
12.6530788487208
30
-1.08246744900953e-015
 70
     32
  0
VERTEX
  8
MY3DLAYER
10
26.7031363245679
20
12.6264832507263
30
-6.38378239159465e-016
 70
     32
  0
VERTEX
  8
MY3DLAYER
10
26.7204142203088
20
12.5986981342165
30
-1.52655665885959e-015
 70
     32
  0
VERTEX
  8
MY3DLAYER
10
26.735837889183
20
12.569842479326
30
-1.08246744900953e-015
 70
     32
  0
VERTEX
  8
MY3DLAYER
10
26.7493412846723
20
12.540039850399
30
-1.52655665885959e-015
 70
     32
  0
VERTEX
  8
MY3DLAYER
10
26.7608665831642
20
12.509417866868
30
-1.52655665885959e-015
 70
     32
  0
VERTEX
  8
MY3DLAYER
10
26.7703644315611
20
12.4781076567677
30
-1.52655665885959e-015
 70
     32
  0
VERTEX
  8
MY3DLAYER
10
26.7777941586182
20
12.4462432952245
30
-6.38378239159465e-016
 70
     32
  0
VERTEX
  8
MY3DLAYER
10
26.7831239491035
20
12.4139612303265
30
-6.38378239159465e-016
 70
     32
  0
VERTEX
  8
MY3DLAYER
10
26.7863309800359
20
12.3813996988315
30
-1.52655665885959e-015
 70
     32
  0
VERTEX
  8
MY3DLAYER
10
26.7874015184166
20
12.3486981342165
30
-6.38378239159465e-016
 70
     32
  0
VERTEX
  8
MY3DLAYER
10
26.7863309800359
20
12.3159965696014
30
-1.52655665885959e-015
 70
     32
  0
VERTEX
  8
MY3DLAYER
10
26.7831239491035
20
12.2834350381064
30
-6.38378239159465e-016
 70
     32
  0
VERTEX
  8
MY3DLAYER
10
26.7777941586182
20
12.2511529732084
30
-6.38378239159465e-016
 70
     32
  0
VERTEX
  8
MY3DLAYER
10
26.7703644315611
20
12.2192886116652
30
-1.52655665885959e-015
 70
     32
  0
VERTEX
  8
MY3DLAYER
10
26.7608665831642
20
12.1879784015649
30
-1.52655665885959e-015
 70
     32
  0
VERTEX
  8
MY3DLAYER
10
26.7493412846723
20
12.1573564180339
30
-1.52655665885959e-015
 70
     32
  0
VERTEX
  8
MY3DLAYER
10
26.735837889183
20
12.127553789107
30
-1.08246744900953e-015
 70
     32
  0
VERTEX
  8
MY3DLAYER
10
26.7204142203088
20
12.0986981342165
30
-1.52655665885959e-015
 70
     32
  0
VERTEX
  8
MY3DLAYER
10
26.7031363245679
20
12.0709130177067
30
-6.38378239159465e-016
 70
     32
  0
VERTEX
  8
MY3DLAYER
10
26.6840781885622
20
12.0443174197121
30
-1.08246744900953e-015
 70
     32
  0
VERTEX
  8
MY3DLAYER
10
26.6633214221561
20
12.0190252266664
30
-1.52655665885959e-015
 70
     32
  0
VERTEX
  8
MY3DLAYER
10
26.6409549090099
20
11.9951447436232
30
-6.38378239159465e-016
 70
     32
  0
VERTEX
  8
MY3DLAYER
10
26.6170744259666
20
11.972778230477
30
-6.38378239159465e-016
 70
     32
  0
VERTEX
  8
MY3DLAYER
10
26.591782232921
20
11.9520214640709
30
-1.08246744900953e-015
 70
     32
  0
VERTEX
  8
MY3DLAYER
10
26.5651866349264
20
11.9329633280652
30
-6.38378239159465e-016
 70
     32
  0
VERTEX
  8
MY3DLAYER
10
26.5374015184166
20
11.9156854323242
30
-1.08246744900953e-015
 70
     32
  0
VERTEX
  8
MY3DLAYER
10
26.5085458635261
20
11.9002617634501
30
-1.52655665885959e-015
 70
     32
  0
VERTEX
  8
MY3DLAYER
10
26.4787432345992
20
11.8867583679608
30
-1.52655665885959e-015
 70
     32
  0
VERTEX
  8
MY3DLAYER
10
26.4481212510682
20
11.8752330694689
30
-1.52655665885959e-015
 70
     32
  0
VERTEX
  8
MY3DLAYER
10
26.4168110409679
20
11.8657352210719
30
-6.38378239159465e-016
 70
     32
  0
VERTEX
  8
MY3DLAYER
10
26.3849466794247
20
11.8583054940149
30
-1.52655665885959e-015
 70
     32
  0
VERTEX
  8
MY3DLAYER
10
26.3526646145266
20
11.8529757035296
30
-6.38378239159465e-016
 70
     32
  0
VERTEX
  8
MY3DLAYER
10
26.3201030830317
20
11.8497686725972
30
-6.38378239159465e-016
 70
     32
  0
VERTEX
  8
MY3DLAYER
10
26.2874015184166
20
11.8486981342165
30
-1.52655665885959e-015
 70
     32
  0
VERTEX
  8
MY3DLAYER
10
26.2546999538015
20
11.8497686725972
30
-1.52655665885959e-015
 70
     32
  0
VERTEX
  8
MY3DLAYER
10
26.2221384223066
20
11.8529757035296
30
-1.52655665885959e-015
 70
     32
  0
VERTEX
  8
MY3DLAYER
10
26.1898563574086
20
11.8583054940149
30
-1.52655665885959e-015
 70
     32
  0
VERTEX
  8
MY3DLAYER
10
26.1579919958654
20
11.8657352210719
30
-1.52655665885959e-015
 70
     32
  0
VERTEX
  8
MY3DLAYER
10
26.126681785765
20
11.8752330694689
30
-1.52655665885959e-015
 70
     32
  0
VERTEX
  8
MY3DLAYER
10
26.0960598022341
20
11.8867583679608
30
-1.52655665885959e-015
 70
     32
  0
VERTEX
  8
MY3DLAYER
10
26.0662571733071
20
11.9002617634501
30
-6.38378239159465e-016
 70
     32
  0
VERTEX
  8
MY3DLAYER
10
26.0374015184166
20
11.9156854323242
30
-6.38378239159465e-016
 70
     32
  0
VERTEX
  8
MY3DLAYER
10
26.0096164019068
20
11.9329633280652
30
-1.52655665885959e-015
 70
     32
  0
VERTEX
  8
MY3DLAYER
10
25.9830208039123
20
11.9520214640709
30
-1.08246744900953e-015
 70
     32
  0
VERTEX
  8
MY3DLAYER
10
25.9577286108666
20
11.972778230477
30
-1.52655665885959e-015
 70
     32
  0
VERTEX
  8
MY3DLAYER
10
25.9338481278233
20
11.9951447436232
30
-1.08246744900953e-015
 70
     32
  0
VERTEX
  8
MY3DLAYER
10
25.9114816146771
20
12.0190252266664
30
-1.52655665885959e-015
 70
     32
  0
VERTEX
  8
MY3DLAYER
10
25.890724848271
20
12.0443174197121
30
-1.08246744900953e-015
 70
     32
  0
VERTEX
  8
MY3DLAYER
10
25.8716667122653
20
12.0709130177067
30
-1.52655665885959e-015
 70
     32
  0
VERTEX
  8
MY3DLAYER
10
25.8543888165244
20
12.0986981342165
30
-1.52655665885959e-015
 70
     32
  0
VERTEX
  8
MY3DLAYER
10
25.8389651476503
20
12.127553789107
30
-1.08246744900953e-015
 70
     32
  0
VERTEX
  8
MY3DLAYER
10
25.825461752161
20
12.1573564180339
30
-1.52655665885959e-015
 70
     32
  0
VERTEX
  8
MY3DLAYER
10
25.8139364536691
20
12.1879784015649
30
-1.52655665885959e-015
 70
     32
  0
VERTEX
  8
MY3DLAYER
10
25.8044386052721
20
12.2192886116652
30
-1.52655665885959e-015
 70
     32
  0
VERTEX
  8
MY3DLAYER
10
25.797008878215
20
12.2511529732084
30
-1.08246744900953e-015
 70
     32
  0
VERTEX
  8
MY3DLAYER
10
25.7916790877297
20
12.2834350381064
30
-1.08246744900953e-015
 70
     32
  0
VERTEX
  8
MY3DLAYER
10
25.7884720567973
20
12.3159965696014
30
-1.52655665885959e-015
 70
     32
  0
VERTEX
  8
MY3DLAYER
10
25.7874015184166
20
12.3486981342165
30
-1.52655665885959e-015
 70
     32
  0
VERTEX
  8
MY3DLAYER
10
25.7884720567973
20
12.3813996988315
30
-1.52655665885959e-015
 70
     32
  0
VERTEX
  8
MY3DLAYER
10
25.7916790877297
20
12.4139612303265
30
-1.08246744900953e-015
 70
     32
  0
VERTEX
  8
MY3DLAYER
10
25.797008878215
20
12.4462432952245
30
-1.08246744900953e-015
 70
     32
  0
VERTEX
  8
MY3DLAYER
10
25.8044386052721
20
12.4781076567677
30
-1.52655665885959e-015
 70
     32
  0
VERTEX
  8
MY3DLAYER
10
25.8139364536691
20
12.5094178668681
30
-1.52655665885959e-015
 70
     32
  0
SEQEND
  0
POLYLINE
 8
GROUP0
 66
     1
70
    8
 10
0.0
 20
 0.0
 30
0.0
  0
VERTEX
  8
MY3DLAYER
10
25.0885182726928
20
12.6783710403176
30
-1.52655665885959e-015
 70
     32
  0
VERTEX
  8
MY3DLAYER
10
25.1092750390989
20
12.6530788472719
30
-6.38378239159465e-016
 70
     32
  0
VERTEX
  8
MY3DLAYER
10
25.1283331751046
20
12.6264832492773
30
-1.52655665885959e-015
 70
     32
  0
VERTEX
  8
MY3DLAYER
10
25.1456110708455
20
12.5986981327675
30
-1.52655665885959e-015
 70
     32
  0
VERTEX
  8
MY3DLAYER
10
25.1610347397197
20
12.569842477877
30
-6.38378239159465e-016
 70
     32
  0
VERTEX
  8
MY3DLAYER
10
25.1745381352089
20
12.5400398489501
30
-1.52655665885959e-015
 70
     32
  0
VERTEX
  8
MY3DLAYER
10
25.1860634337009
20
12.5094178654191
30
-1.52655665885959e-015
 70
     32
  0
VERTEX
  8
MY3DLAYER
10
25.1955612820978
20
12.4781076553188
30
-1.52655665885959e-015
 70
     32
  0
VERTEX
  8
MY3DLAYER
10
25.2029910091549
20
12.4462432937756
30
-6.38378239159465e-016
 70
     32
  0
VERTEX
  8
MY3DLAYER
10
25.2083207996402
20
12.4139612288776
30
-6.38378239159465e-016
 70
     32
  0
VERTEX
  8
MY3DLAYER
10
25.2115278305726
20
12.3813996973826
30
-1.52655665885959e-015
 70
     32
  0
VERTEX
  8
MY3DLAYER
10
25.2125983689533
20
12.3486981327675
30
-1.52655665885959e-015
 70
     32
  0
VERTEX
  8
MY3DLAYER
10
25.2115278305726
20
12.3159965681525
30
-1.52655665885959e-015
 70
     32
  0
VERTEX
  8
MY3DLAYER
10
25.2083207996402
20
12.2834350366575
30
-6.38378239159465e-016
 70
     32
  0
VERTEX
  8
MY3DLAYER
10
25.2029910091549
20
12.2511529717595
30
-6.38378239159465e-016
 70
     32
  0
VERTEX
  8
MY3DLAYER
10
25.1955612820978
20
12.2192886102163
30
-1.52655665885959e-015
 70
     32
  0
VERTEX
  8
MY3DLAYER
10
25.1860634337009
20
12.1879784001159
30
-1.52655665885959e-015
 70
     32
  0
VERTEX
  8
MY3DLAYER
10
25.1745381352089
20
12.157356416585
30
-1.52655665885959e-015
 70
     32
  0
VERTEX
  8
MY3DLAYER
10
25.1610347397197
20
12.127553787658
30
-6.38378239159465e-016
 70
     32
  0
VERTEX
  8
MY3DLAYER
10
25.1456110708455
20
12.0986981327675
30
-1.52655665885959e-015
 70
     32
  0
VERTEX
  8
MY3DLAYER
10
25.1283331751046
20
12.0709130162577
30
-1.52655665885959e-015
 70
     32
  0
VERTEX
  8
MY3DLAYER
10
25.1092750390989
20
12.0443174182632
30
-6.38378239159465e-016
 70
     32
  0
VERTEX
  8
MY3DLAYER
10
25.0885182726928
20
12.0190252252175
30
-1.52655665885959e-015
 70
     32
  0
VERTEX
  8
MY3DLAYER
10
25.0661517595466
20
11.9951447421743
30
-6.38378239159465e-016
 70
     32
  0
VERTEX
  8
MY3DLAYER
10
25.0422712765033
20
11.972778229028
30
-1.52655665885959e-015
 70
     32
  0
VERTEX
  8
MY3DLAYER
10
25.0169790834577
20
11.9520214626219
30
-6.38378239159465e-016
 70
     32
  0
VERTEX
  8
MY3DLAYER
10
24.9903834854631
20
11.9329633266163
30
-1.52655665885959e-015
 70
     32
  0
VERTEX
  8
MY3DLAYER
10
24.9625983689533
20
11.9156854308753
30
-6.38378239159465e-016
 70
     32
  0
VERTEX
  8
MY3DLAYER
10
24.9337427140628
20
11.9002617620012
30
-1.08246744900953e-015
 70
     32
  0
VERTEX
  8
MY3DLAYER
10
24.9039400851359
20
11.8867583665119
30
-1.52655665885959e-015
 70
     32
  0
VERTEX
  8
MY3DLAYER
10
24.8733181016049
20
11.87523306802
30
-1.52655665885959e-015
 70
     32
  0
VERTEX
  8
MY3DLAYER
10
24.8420078915046
20
11.865735219623
30
-1.52655665885959e-015
 70
     32
  0
VERTEX
  8
MY3DLAYER
10
24.8101435299614
20
11.8583054925659
30
-1.52655665885959e-015
 70
     32
  0
VERTEX
  8
MY3DLAYER
10
24.7778614650633
20
11.8529757020806
30
-1.52655665885959e-015
 70
     32
  0
VERTEX
  8
MY3DLAYER
10
24.7452999335684
20
11.8497686711482
30
-1.52655665885959e-015
 70
     32
  0
VERTEX
  8
MY3DLAYER
10
24.7125983689533
20
11.8486981327675
30
-1.52655665885959e-015
 70
     32
  0
VERTEX
  8
MY3DLAYER
10
24.6798968043382
20
11.8497686711482
30
-1.08246744900953e-015
 70
     32
  0
VERTEX
  8
MY3DLAYER
10
24.6473352728433
20
11.8529757020806
30
-1.08246744900953e-015
 70
     32
  0
VERTEX
  8
MY3DLAYER
10
24.6150532079452
20
11.8583054925659
30
-1.52655665885959e-015
 70
     32
  0
VERTEX
  8
MY3DLAYER
10
24.583188846402
20
11.865735219623
30
-1.08246744900953e-015
 70
     32
  0
VERTEX
  8
MY3DLAYER
10
24.5518786363017
20
11.87523306802
30
-1.52655665885959e-015
 70
     32
  0
VERTEX
  8
MY3DLAYER
10
24.5212566527708
20
11.8867583665119
30
-1.52655665885959e-015
 70
     32
  0
VERTEX
  8
MY3DLAYER
10
24.4914540238438
20
11.9002617620012
30
-1.52655665885959e-015
 70
     32
  0
VERTEX
  8
MY3DLAYER
10
24.4625983689533
20
11.9156854308753
30
-1.52655665885959e-015
 70
     32
  0
VERTEX
  8
MY3DLAYER
10
24.4348132524435
20
11.9329633266163
30
-1.08246744900953e-015
 70
     32
  0
VERTEX
  8
MY3DLAYER
10
24.4082176544489
20
11.9520214626219
30
-1.97064586870965e-015
 70
     32
  0
VERTEX
  8
MY3DLAYER
10
24.3829254614033
20
11.972778229028
30
-1.08246744900953e-015
 70
     32
  0
VERTEX
  8
MY3DLAYER
10
24.35904497836
20
11.9951447421743
30
-1.08246744900953e-015
 70
     32
  0
VERTEX
  8
MY3DLAYER
10
24.3366784652138
20
12.0190252252175
30
-1.52655665885959e-015
 70
     32
  0
VERTEX
  8
MY3DLAYER
10
24.3159216988077
20
12.0443174182632
30
-1.97064586870965e-015
 70
     32
  0
VERTEX
  8
MY3DLAYER
10
24.296863562802
20
12.0709130162577
30
-1.08246744900953e-015
 70
     32
  0
VERTEX
  8
MY3DLAYER
10
24.2795856670611
20
12.0986981327675
30
-1.52655665885959e-015
 70
     32
  0
VERTEX
  8
MY3DLAYER
10
24.264161998187
20
12.127553787658
30
-1.97064586870965e-015
 70
     32
  0
VERTEX
  8
MY3DLAYER
10
24.2506586026977
20
12.157356416585
30
-1.52655665885959e-015
 70
     32
  0
VERTEX
  8
MY3DLAYER
10
24.2391333042058
20
12.1879784001159
30
-1.52655665885959e-015
 70
     32
  0
VERTEX
  8
MY3DLAYER
10
24.2296354558088
20
12.2192886102163
30
-1.52655665885959e-015
 70
     32
  0
VERTEX
  8
MY3DLAYER
10
24.2222057287517
20
12.2511529717595
30
-1.08246744900953e-015
 70
     32
  0
VERTEX
  8
MY3DLAYER
10
24.2168759382664
20
12.2834350366575
30
-1.08246744900953e-015
 70
     32
  0
VERTEX
  8
MY3DLAYER
10
24.213668907334
20
12.3159965681525
30
-1.52655665885959e-015
 70
     32
  0
VERTEX
  8
MY3DLAYER
10
24.2125983689533
20
12.3486981327675
30
-1.08246744900953e-015
 70
     32
  0
VERTEX
  8
MY3DLAYER
10
24.213668907334
20
12.3813996973826
30
-1.52655665885959e-015
 70
     32
  0
VERTEX
  8
MY3DLAYER
10
24.2168759382664
20
12.4139612288776
30
-1.08246744900953e-015
 70
     32
  0
VERTEX
  8
MY3DLAYER
10
24.2222057287517
20
12.4462432937756
30
-1.08246744900953e-015
 70
     32
  0
VERTEX
  8
MY3DLAYER
10
24.2296354558088
20
12.4781076553188
30
-1.52655665885959e-015
 70
     32
  0
VERTEX
  8
MY3DLAYER
10
24.2391333042058
20
12.5094178654191
30
-1.52655665885959e-015
 70
     32
  0
VERTEX
  8
MY3DLAYER
10
24.2506586026977
20
12.5400398489501
30
-1.52655665885959e-015
 70
     32
  0
VERTEX
  8
MY3DLAYER
10
24.264161998187
20
12.569842477877
30
-1.97064586870965e-015
 70
     32
  0
VERTEX
  8
MY3DLAYER
10
24.2795856670611
20
12.5986981327675
30
-1.52655665885959e-015
 70
     32
  0
VERTEX
  8
MY3DLAYER
10
24.296863562802
20
12.6264832492773
30
-1.08246744900953e-015
 70
     32
  0
VERTEX
  8
MY3DLAYER
10
24.3159216988077
20
12.6530788472719
30
-1.97064586870965e-015
 70
     32
  0
VERTEX
  8
MY3DLAYER
10
24.3366784652138
20
12.6783710403176
30
-1.52655665885959e-015
 70
     32
  0
VERTEX
  8
MY3DLAYER
10
24.35904497836
20
12.7022515233608
30
-1.08246744900953e-015
 70
     32
  0
VERTEX
  8
MY3DLAYER
10
24.3829254614033
20
12.724618036507
30
-1.08246744900953e-015
 70
     32
  0
VERTEX
  8
MY3DLAYER
10
24.4082176544489
20
12.7453748029131
30
-1.97064586870965e-015
 70
     32
  0
VERTEX
  8
MY3DLAYER
10
24.4348132524435
20
12.7644329389188
30
-1.08246744900953e-015
 70
     32
  0
VERTEX
  8
MY3DLAYER
10
24.4625983689533
20
12.7817108346598
30
-1.97064586870965e-015
 70
     32
  0
VERTEX
  8
MY3DLAYER
10
24.4914540238438
20
12.7971345035339
30
-1.52655665885959e-015
 70
     32
  0
VERTEX
  8
MY3DLAYER
10
24.5212566527708
20
12.8106378990232
30
-1.52655665885959e-015
 70
     32
  0
VERTEX
  8
MY3DLAYER
10
24.5518786363017
20
12.8221631975151
30
-1.52655665885959e-015
 70
     32
  0
VERTEX
  8
MY3DLAYER
10
24.583188846402
20
12.8316610459121
30
-1.08246744900953e-015
 70
     32
  0
VERTEX
  8
MY3DLAYER
10
24.6150532079452
20
12.8390907729691
30
-1.52655665885959e-015
 70
     32
  0
VERTEX
  8
MY3DLAYER
10
24.6473352728433
20
12.8444205634544
30
-1.08246744900953e-015
 70
     32
  0
VERTEX
  8
MY3DLAYER
10
24.6798968043382
20
12.8476275943868
30
-1.08246744900953e-015
 70
     32
  0
VERTEX
  8
MY3DLAYER
10
24.7125983689533
20
12.8486981327675
30
-1.52655665885959e-015
 70
     32
  0
VERTEX
  8
MY3DLAYER
10
24.7452999335684
20
12.8476275943868
30
-1.52655665885959e-015
 70
     32
  0
VERTEX
  8
MY3DLAYER
10
24.7778614650633
20
12.8444205634544
30
-1.52655665885959e-015
 70
     32
  0
VERTEX
  8
MY3DLAYER
10
24.8101435299614
20
12.8390907729691
30
-1.52655665885959e-015
 70
     32
  0
VERTEX
  8
MY3DLAYER
10
24.8420078915046
20
12.8316610459121
30
-1.52655665885959e-015
 70
     32
  0
VERTEX
  8
MY3DLAYER
10
24.8733181016049
20
12.8221631975151
30
-1.52655665885959e-015
 70
     32
  0
VERTEX
  8
MY3DLAYER
10
24.9039400851359
20
12.8106378990232
30
-1.52655665885959e-015
 70
     32
  0
VERTEX
  8
MY3DLAYER
10
24.9337427140628
20
12.7971345035339
30
-1.08246744900953e-015
 70
     32
  0
VERTEX
  8
MY3DLAYER
10
24.9625983689533
20
12.7817108346598
30
-1.08246744900953e-015
 70
     32
  0
VERTEX
  8
MY3DLAYER
10
24.9903834854631
20
12.7644329389188
30
-1.52655665885959e-015
 70
     32
  0
VERTEX
  8
MY3DLAYER
10
25.0169790834577
20
12.7453748029131
30
-6.38378239159465e-016
 70
     32
  0
VERTEX
  8
MY3DLAYER
10
25.0422712765033
20
12.724618036507
30
-1.52655665885959e-015
 70
     32
  0
VERTEX
  8
MY3DLAYER
10
25.0661517595466
20
12.7022515233608
30
-6.38378239159465e-016
 70
     32
  0
VERTEX
  8
MY3DLAYER
10
25.0885182726928
20
12.6783710403176
30
-1.52655665885959e-015
 70
     32
  0
SEQEND
  0
POLYLINE
 8
GROUP0
 66
     1
70
    8
 10
0.0
 20
 0.0
 30
0.0
  0
VERTEX
  8
MY3DLAYER
10
25.7874015184166
20
10.0361981342165
30
-1.52655665885959e-015
 70
     32
  0
VERTEX
  8
MY3DLAYER
10
25.7884720567973
20
10.0688996988315
30
-1.52655665885959e-015
 70
     32
  0
VERTEX
  8
MY3DLAYER
10
25.7916790877297
20
10.1014612303265
30
-1.08246744900953e-015
 70
     32
  0
VERTEX
  8
MY3DLAYER
10
25.797008878215
20
10.1337432952245
30
-1.08246744900953e-015
 70
     32
  0
VERTEX
  8
MY3DLAYER
10
25.8044386052721
20
10.1656076567677
30
-1.52655665885959e-015
 70
     32
  0
VERTEX
  8
MY3DLAYER
10
25.8139364536691
20
10.1969178668681
30
-1.52655665885959e-015
 70
     32
  0
VERTEX
  8
MY3DLAYER
10
25.825461752161
20
10.227539850399
30
-1.52655665885959e-015
 70
     32
  0
VERTEX
  8
MY3DLAYER
10
25.8389651476503
20
10.257342479326
30
-1.08246744900953e-015
 70
     32
  0
VERTEX
  8
MY3DLAYER
10
25.8543888165244
20
10.2861981342165
30
-1.52655665885959e-015
 70
     32
  0
VERTEX
  8
MY3DLAYER
10
25.8716667122653
20
10.3139832507263
30
-1.52655665885959e-015
 70
     32
  0
VERTEX
  8
MY3DLAYER
10
25.890724848271
20
10.3405788487208
30
-1.08246744900953e-015
 70
     32
  0
VERTEX
  8
MY3DLAYER
10
25.9114816146771
20
10.3658710417665
30
-1.52655665885959e-015
 70
     32
  0
VERTEX
  8
MY3DLAYER
10
25.9338481278233
20
10.3897515248097
30
-1.08246744900953e-015
 70
     32
  0
VERTEX
  8
MY3DLAYER
10
25.9577286108666
20
10.412118037956
30
-1.52655665885959e-015
 70
     32
  0
VERTEX
  8
MY3DLAYER
10
25.9830208039123
20
10.4328748043621
30
-1.08246744900953e-015
 70
     32
  0
VERTEX
  8
MY3DLAYER
10
26.0096164019068
20
10.4519329403677
30
-1.52655665885959e-015
 70
     32
  0
VERTEX
  8
MY3DLAYER
10
26.0374015184166
20
10.4692108361087
30
-1.08246744900953e-015
 70
     32
  0
VERTEX
  8
MY3DLAYER
10
26.0662571733071
20
10.4846345049828
30
-6.38378239159465e-016
 70
     32
  0
VERTEX
  8
MY3DLAYER
10
26.0960598022341
20
10.4981379004721
30
-1.52655665885959e-015
 70
     32
  0
VERTEX
  8
MY3DLAYER
10
26.126681785765
20
10.509663198964
30
-1.52655665885959e-015
 70
     32
  0
VERTEX
  8
MY3DLAYER
10
26.1579919958654
20
10.519161047361
30
-1.52655665885959e-015
 70
     32
  0
VERTEX
  8
MY3DLAYER
10
26.1898563574086
20
10.5265907744181
30
-1.52655665885959e-015
 70
     32
  0
VERTEX
  8
MY3DLAYER
10
26.2221384223066
20
10.5319205649034
30
-1.52655665885959e-015
 70
     32
  0
VERTEX
  8
MY3DLAYER
10
26.2546999538015
20
10.5351275958358
30
-1.52655665885959e-015
 70
     32
  0
VERTEX
  8
MY3DLAYER
10
26.2874015184166
20
10.5361981342165
30
-1.52655665885959e-015
 70
     32
  0
VERTEX
  8
MY3DLAYER
10
26.3201030830317
20
10.5351275958358
30
-6.38378239159465e-016
 70
     32
  0
VERTEX
  8
MY3DLAYER
10
26.3526646145266
20
10.5319205649034
30
-6.38378239159465e-016
 70
     32
  0
VERTEX
  8
MY3DLAYER
10
26.3849466794247
20
10.5265907744181
30
-1.52655665885959e-015
 70
     32
  0
VERTEX
  8
MY3DLAYER
10
26.4168110409679
20
10.519161047361
30
-6.38378239159465e-016
 70
     32
  0
VERTEX
  8
MY3DLAYER
10
26.4481212510682
20
10.509663198964
30
-1.52655665885959e-015
 70
     32
  0
VERTEX
  8
MY3DLAYER
10
26.4787432345992
20
10.4981379004721
30
-1.52655665885959e-015
 70
     32
  0
VERTEX
  8
MY3DLAYER
10
26.5085458635261
20
10.4846345049828
30
-1.52655665885959e-015
 70
     32
  0
VERTEX
  8
MY3DLAYER
10
26.5374015184166
20
10.4692108361087
30
-1.52655665885959e-015
 70
     32
  0
VERTEX
  8
MY3DLAYER
10
26.5651866349264
20
10.4519329403677
30
-6.38378239159465e-016
 70
     32
  0
VERTEX
  8
MY3DLAYER
10
26.591782232921
20
10.4328748043621
30
-1.08246744900953e-015
 70
     32
  0
VERTEX
  8
MY3DLAYER
10
26.6170744259666
20
10.412118037956
30
-6.38378239159465e-016
 70
     32
  0
VERTEX
  8
MY3DLAYER
10
26.6409549090099
20
10.3897515248097
30
-6.38378239159465e-016
 70
     32
  0
VERTEX
  8
MY3DLAYER
10
26.6633214221561
20
10.3658710417665
30
-1.52655665885959e-015
 70
     32
  0
VERTEX
  8
MY3DLAYER
10
26.6840781885622
20
10.3405788487208
30
-1.08246744900953e-015
 70
     32
  0
VERTEX
  8
MY3DLAYER
10
26.7031363245679
20
10.3139832507263
30
-6.38378239159465e-016
 70
     32
  0
VERTEX
  8
MY3DLAYER
10
26.7204142203088
20
10.2861981342165
30
-1.52655665885959e-015
 70
     32
  0
VERTEX
  8
MY3DLAYER
10
26.735837889183
20
10.257342479326
30
-1.08246744900953e-015
 70
     32
  0
VERTEX
  8
MY3DLAYER
10
26.7493412846723
20
10.227539850399
30
-1.52655665885959e-015
 70
     32
  0
VERTEX
  8
MY3DLAYER
10
26.7608665831642
20
10.1969178668681
30
-1.52655665885959e-015
 70
     32
  0
VERTEX
  8
MY3DLAYER
10
26.7703644315611
20
10.1656076567677
30
-1.52655665885959e-015
 70
     32
  0
VERTEX
  8
MY3DLAYER
10
26.7777941586182
20
10.1337432952245
30
-6.38378239159465e-016
 70
     32
  0
VERTEX
  8
MY3DLAYER
10
26.7831239491035
20
10.1014612303265
30
-6.38378239159465e-016
 70
     32
  0
VERTEX
  8
MY3DLAYER
10
26.7863309800359
20
10.0688996988315
30
-1.52655665885959e-015
 70
     32
  0
VERTEX
  8
MY3DLAYER
10
26.7874015184166
20
10.0361981342165
30
-6.38378239159465e-016
 70
     32
  0
VERTEX
  8
MY3DLAYER
10
26.7863309800359
20
10.0034965696014
30
-1.52655665885959e-015
 70
     32
  0
VERTEX
  8
MY3DLAYER
10
26.7831239491035
20
9.97093503810644
30
-6.38378239159465e-016
 70
     32
  0
VERTEX
  8
MY3DLAYER
10
26.7777941586182
20
9.9386529732084
30
-6.38378239159465e-016
 70
     32
  0
VERTEX
  8
MY3DLAYER
10
26.7703644315611
20
9.90678861166521
30
-1.52655665885959e-015
 70
     32
  0
VERTEX
  8
MY3DLAYER
10
26.7608665831642
20
9.87547840156489
30
-1.52655665885959e-015
 70
     32
  0
VERTEX
  8
MY3DLAYER
10
26.7493412846723
20
9.84485641803392
30
-1.52655665885959e-015
 70
     32
  0
VERTEX
  8
MY3DLAYER
10
26.735837889183
20
9.81505378910697
30
-1.08246744900953e-015
 70
     32
  0
VERTEX
  8
MY3DLAYER
10
26.7204142203088
20
9.78619813421647
30
-1.52655665885959e-015
 70
     32
  0
VERTEX
  8
MY3DLAYER
10
26.7031363245679
20
9.75841301770667
30
-6.38378239159465e-016
 70
     32
  0
VERTEX
  8
MY3DLAYER
10
26.6840781885622
20
9.73181741971211
30
-1.08246744900953e-015
 70
     32
  0
VERTEX
  8
MY3DLAYER
10
26.6633214221561
20
9.70652522666643
30
-1.52655665885959e-015
 70
     32
  0
VERTEX
  8
MY3DLAYER
10
26.6409549090099
20
9.68264474362319
30
-6.38378239159465e-016
 70
     32
  0
VERTEX
  8
MY3DLAYER
10
26.6170744259666
20
9.66027823047698
30
-6.38378239159465e-016
 70
     32
  0
VERTEX
  8
MY3DLAYER
10
26.591782232921
20
9.63952146407085
30
-1.08246744900953e-015
 70
     32
  0
VERTEX
  8
MY3DLAYER
10
26.5651866349264
20
9.6204633280652
30
-6.38378239159465e-016
 70
     32
  0
VERTEX
  8
MY3DLAYER
10
26.5374015184166
20
9.60318543232425
30
-1.08246744900953e-015
 70
     32
  0
VERTEX
  8
MY3DLAYER
10
26.5085458635261
20
9.58776176345012
30
-1.52655665885959e-015
 70
     32
  0
VERTEX
  8
MY3DLAYER
10
26.4787432345992
20
9.57425836796082
30
-1.52655665885959e-015
 70
     32
  0
VERTEX
  8
MY3DLAYER
10
26.4481212510682
20
9.56273306946892
30
-1.52655665885959e-015
 70
     32
  0
VERTEX
  8
MY3DLAYER
10
26.4168110409679
20
9.55323522107193
30
-6.38378239159465e-016
 70
     32
  0
VERTEX
  8
MY3DLAYER
10
26.3849466794247
20
9.54580549401485
30
-1.52655665885959e-015
 70
     32
  0
VERTEX
  8
MY3DLAYER
10
26.3526646145266
20
9.54047570352956
30
-6.38378239159465e-016
 70
     32
  0
VERTEX
  8
MY3DLAYER
10
26.3201030830317
20
9.53726867259717
30
-6.38378239159465e-016
 70
     32
  0
VERTEX
  8
MY3DLAYER
10
26.2874015184166
20
9.53619813421647
30
-1.52655665885959e-015
 70
     32
  0
VERTEX
  8
MY3DLAYER
10
26.2546999538015
20
9.53726867259717
30
-1.52655665885959e-015
 70
     32
  0
VERTEX
  8
MY3DLAYER
10
26.2221384223066
20
9.54047570352956
30
-1.52655665885959e-015
 70
     32
  0
VERTEX
  8
MY3DLAYER
10
26.1898563574086
20
9.54580549401485
30
-1.52655665885959e-015
 70
     32
  0
VERTEX
  8
MY3DLAYER
10
26.1579919958654
20
9.55323522107193
30
-1.52655665885959e-015
 70
     32
  0
VERTEX
  8
MY3DLAYER
10
26.126681785765
20
9.56273306946892
30
-1.52655665885959e-015
 70
     32
  0
VERTEX
  8
MY3DLAYER
10
26.0960598022341
20
9.57425836796082
30
-1.52655665885959e-015
 70
     32
  0
VERTEX
  8
MY3DLAYER
10
26.0662571733071
20
9.58776176345012
30
-6.38378239159465e-016
 70
     32
  0
VERTEX
  8
MY3DLAYER
10
26.0374015184166
20
9.60318543232425
30
-6.38378239159465e-016
 70
     32
  0
VERTEX
  8
MY3DLAYER
10
26.0096164019068
20
9.6204633280652
30
-1.52655665885959e-015
 70
     32
  0
VERTEX
  8
MY3DLAYER
10
25.9830208039123
20
9.63952146407085
30
-1.08246744900953e-015
 70
     32
  0
VERTEX
  8
MY3DLAYER
10
25.9577286108666
20
9.66027823047698
30
-1.52655665885959e-015
 70
     32
  0
VERTEX
  8
MY3DLAYER
10
25.9338481278233
20
9.68264474362319
30
-1.08246744900953e-015
 70
     32
  0
VERTEX
  8
MY3DLAYER
10
25.9114816146771
20
9.70652522666643
30
-1.52655665885959e-015
 70
     32
  0
VERTEX
  8
MY3DLAYER
10
25.890724848271
20
9.73181741971211
30
-1.08246744900953e-015
 70
     32
  0
VERTEX
  8
MY3DLAYER
10
25.8716667122653
20
9.75841301770667
30
-1.52655665885959e-015
 70
     32
  0
VERTEX
  8
MY3DLAYER
10
25.8543888165244
20
9.78619813421647
30
-1.52655665885959e-015
 70
     32
  0
VERTEX
  8
MY3DLAYER
10
25.8389651476503
20
9.81505378910697
30
-1.08246744900953e-015
 70
     32
  0
VERTEX
  8
MY3DLAYER
10
25.825461752161
20
9.84485641803392
30
-1.52655665885959e-015
 70
     32
  0
VERTEX
  8
MY3DLAYER
10
25.8139364536691
20
9.87547840156489
30
-1.52655665885959e-015
 70
     32
  0
VERTEX
  8
MY3DLAYER
10
25.8044386052721
20
9.90678861166521
30
-1.52655665885959e-015
 70
     32
  0
VERTEX
  8
MY3DLAYER
10
25.797008878215
20
9.9386529732084
30
-1.08246744900953e-015
 70
     32
  0
VERTEX
  8
MY3DLAYER
10
25.7916790877297
20
9.97093503810644
30
-1.08246744900953e-015
 70
     32
  0
VERTEX
  8
MY3DLAYER
10
25.7884720567973
20
10.0034965696014
30
-1.52655665885959e-015
 70
     32
  0
VERTEX
  8
MY3DLAYER
10
25.7874015184166
20
10.0361981342165
30
-1.52655665885959e-015
 70
     32
  0
SEQEND
  0
POLYLINE
 8
GROUP0
 66
     1
70
    8
 10
0.0
 20
 0.0
 30
0.0
  0
VERTEX
  8
MY3DLAYER
10
24.2125983688103
20
10.0361981342164
30
-1.08246744900953e-015
 70
     32
  0
VERTEX
  8
MY3DLAYER
10
24.213668907191
20
10.0688996988315
30
-1.52655665885959e-015
 70
     32
  0
VERTEX
  8
MY3DLAYER
10
24.2168759381234
20
10.1014612303264
30
-1.08246744900953e-015
 70
     32
  0
VERTEX
  8
MY3DLAYER
10
24.2222057286087
20
10.1337432952245
30
-1.08246744900953e-015
 70
     32
  0
VERTEX
  8
MY3DLAYER
10
24.2296354556658
20
10.1656076567677
30
-1.52655665885959e-015
 70
     32
  0
VERTEX
  8
MY3DLAYER
10
24.2391333040628
20
10.196917866868
30
-1.52655665885959e-015
 70
     32
  0
VERTEX
  8
MY3DLAYER
10
24.2506586025547
20
10.227539850399
30
-1.52655665885959e-015
 70
     32
  0
VERTEX
  8
MY3DLAYER
10
24.264161998044
20
10.2573424793259
30
-1.97064586870965e-015
 70
     32
  0
VERTEX
  8
MY3DLAYER
10
24.2795856669181
20
10.2861981342164
30
-1.52655665885959e-015
 70
     32
  0
VERTEX
  8
MY3DLAYER
10
24.296863562659
20
10.3139832507262
30
-1.08246744900953e-015
 70
     32
  0
VERTEX
  8
MY3DLAYER
10
24.3159216986647
20
10.3405788487208
30
-1.97064586870965e-015
 70
     32
  0
VERTEX
  8
MY3DLAYER
10
24.3366784650708
20
10.3658710417664
30
-1.52655665885959e-015
 70
     32
  0
VERTEX
  8
MY3DLAYER
10
24.359044978217
20
10.3897515248097
30
-1.08246744900953e-015
 70
     32
  0
VERTEX
  8
MY3DLAYER
10
24.3829254612603
20
10.4121180379559
30
-1.08246744900953e-015
 70
     32
  0
VERTEX
  8
MY3DLAYER
10
24.408217654306
20
10.432874804362
30
-1.97064586870965e-015
 70
     32
  0
VERTEX
  8
MY3DLAYER
10
24.4348132523005
20
10.4519329403677
30
-1.08246744900953e-015
 70
     32
  0
VERTEX
  8
MY3DLAYER
10
24.4625983688103
20
10.4692108361086
30
-1.97064586870965e-015
 70
     32
  0
VERTEX
  8
MY3DLAYER
10
24.4914540237008
20
10.4846345049828
30
-1.52655665885959e-015
 70
     32
  0
VERTEX
  8
MY3DLAYER
10
24.5212566526278
20
10.4981379004721
30
-1.52655665885959e-015
 70
     32
  0
VERTEX
  8
MY3DLAYER
10
24.5518786361587
20
10.509663198964
30
-1.52655665885959e-015
 70
     32
  0
VERTEX
  8
MY3DLAYER
10
24.5831888462591
20
10.5191610473609
30
-1.08246744900953e-015
 70
     32
  0
VERTEX
  8
MY3DLAYER
10
24.6150532078022
20
10.526590774418
30
-1.52655665885959e-015
 70
     32
  0
VERTEX
  8
MY3DLAYER
10
24.6473352727003
20
10.5319205649033
30
-1.08246744900953e-015
 70
     32
  0
VERTEX
  8
MY3DLAYER
10
24.6798968041952
20
10.5351275958357
30
-1.08246744900953e-015
 70
     32
  0
VERTEX
  8
MY3DLAYER
10
24.7125983688103
20
10.5361981342164
30
-1.52655665885959e-015
 70
     32
  0
VERTEX
  8
MY3DLAYER
10
24.7452999334254
20
10.5351275958357
30
-1.52655665885959e-015
 70
     32
  0
VERTEX
  8
MY3DLAYER
10
24.7778614649203
20
10.5319205649033
30
-1.52655665885959e-015
 70
     32
  0
VERTEX
  8
MY3DLAYER
10
24.8101435298184
20
10.526590774418
30
-1.52655665885959e-015
 70
     32
  0
VERTEX
  8
MY3DLAYER
10
24.8420078913616
20
10.5191610473609
30
-1.52655665885959e-015
 70
     32
  0
VERTEX
  8
MY3DLAYER
10
24.8733181014619
20
10.509663198964
30
-1.52655665885959e-015
 70
     32
  0
VERTEX
  8
MY3DLAYER
10
24.9039400849929
20
10.4981379004721
30
-1.52655665885959e-015
 70
     32
  0
VERTEX
  8
MY3DLAYER
10
24.9337427139198
20
10.4846345049828
30
-1.08246744900953e-015
 70
     32
  0
VERTEX
  8
MY3DLAYER
10
24.9625983688103
20
10.4692108361086
30
-1.08246744900953e-015
 70
     32
  0
VERTEX
  8
MY3DLAYER
10
24.9903834853201
20
10.4519329403677
30
-1.52655665885959e-015
 70
     32
  0
VERTEX
  8
MY3DLAYER
10
25.0169790833147
20
10.432874804362
30
-6.38378239159465e-016
 70
     32
  0
VERTEX
  8
MY3DLAYER
10
25.0422712763603
20
10.4121180379559
30
-1.52655665885959e-015
 70
     32
  0
VERTEX
  8
MY3DLAYER
10
25.0661517594036
20
10.3897515248097
30
-6.38378239159465e-016
 70
     32
  0
VERTEX
  8
MY3DLAYER
10
25.0885182725498
20
10.3658710417664
30
-1.52655665885959e-015
 70
     32
  0
VERTEX
  8
MY3DLAYER
10
25.1092750389559
20
10.3405788487208
30
-6.38378239159465e-016
 70
     32
  0
VERTEX
  8
MY3DLAYER
10
25.1283331749616
20
10.3139832507262
30
-1.52655665885959e-015
 70
     32
  0
VERTEX
  8
MY3DLAYER
10
25.1456110707025
20
10.2861981342164
30
-1.52655665885959e-015
 70
     32
  0
VERTEX
  8
MY3DLAYER
10
25.1610347395767
20
10.2573424793259
30
-6.38378239159465e-016
 70
     32
  0
VERTEX
  8
MY3DLAYER
10
25.174538135066
20
10.227539850399
30
-1.52655665885959e-015
 70
     32
  0
VERTEX
  8
MY3DLAYER
10
25.1860634335579
20
10.196917866868
30
-1.52655665885959e-015
 70
     32
  0
VERTEX
  8
MY3DLAYER
10
25.1955612819548
20
10.1656076567677
30
-1.52655665885959e-015
 70
     32
  0
VERTEX
  8
MY3DLAYER
10
25.2029910090119
20
10.1337432952245
30
-6.38378239159465e-016
 70
     32
  0
VERTEX
  8
MY3DLAYER
10
25.2083207994972
20
10.1014612303264
30
-6.38378239159465e-016
 70
     32
  0
VERTEX
  8
MY3DLAYER
10
25.2115278304296
20
10.0688996988315
30
-1.52655665885959e-015
 70
     32
  0
VERTEX
  8
MY3DLAYER
10
25.2125983688103
20
10.0361981342164
30
-1.52655665885959e-015
 70
     32
  0
VERTEX
  8
MY3DLAYER
10
25.2115278304296
20
10.0034965696013
30
-1.52655665885959e-015
 70
     32
  0
VERTEX
  8
MY3DLAYER
10
25.2083207994972
20
9.97093503810639
30
-6.38378239159465e-016
 70
     32
  0
VERTEX
  8
MY3DLAYER
10
25.2029910090119
20
9.93865297320835
30
-6.38378239159465e-016
 70
     32
  0
VERTEX
  8
MY3DLAYER
10
25.1955612819548
20
9.90678861166515
30
-1.52655665885959e-015
 70
     32
  0
VERTEX
  8
MY3DLAYER
10
25.1860634335579
20
9.87547840156483
30
-1.52655665885959e-015
 70
     32
  0
VERTEX
  8
MY3DLAYER
10
25.174538135066
20
9.84485641803387
30
-1.52655665885959e-015
 70
     32
  0
VERTEX
  8
MY3DLAYER
10
25.1610347395767
20
9.81505378910691
30
-6.38378239159465e-016
 70
     32
  0
VERTEX
  8
MY3DLAYER
10
25.1456110707025
20
9.78619813421641
30
-1.52655665885959e-015
 70
     32
  0
VERTEX
  8
MY3DLAYER
10
25.1283331749616
20
9.75841301770661
30
-1.52655665885959e-015
 70
     32
  0
VERTEX
  8
MY3DLAYER
10
25.1092750389559
20
9.73181741971205
30
-6.38378239159465e-016
 70
     32
  0
VERTEX
  8
MY3DLAYER
10
25.0885182725498
20
9.70652522666638
30
-1.52655665885959e-015
 70
     32
  0
VERTEX
  8
MY3DLAYER
10
25.0661517594036
20
9.68264474362314
30
-6.38378239159465e-016
 70
     32
  0
VERTEX
  8
MY3DLAYER
10
25.0422712763603
20
9.66027823047692
30
-1.52655665885959e-015
 70
     32
  0
VERTEX
  8
MY3DLAYER
10
25.0169790833147
20
9.63952146407079
30
-6.38378239159465e-016
 70
     32
  0
VERTEX
  8
MY3DLAYER
10
24.9903834853201
20
9.62046332806514
30
-1.52655665885959e-015
 70
     32
  0
VERTEX
  8
MY3DLAYER
10
24.9625983688103
20
9.60318543232419
30
-6.38378239159465e-016
 70
     32
  0
VERTEX
  8
MY3DLAYER
10
24.9337427139198
20
9.58776176345007
30
-1.08246744900953e-015
 70
     32
  0
VERTEX
  8
MY3DLAYER
10
24.9039400849929
20
9.57425836796077
30
-1.52655665885959e-015
 70
     32
  0
VERTEX
  8
MY3DLAYER
10
24.8733181014619
20
9.56273306946886
30
-1.52655665885959e-015
 70
     32
  0
VERTEX
  8
MY3DLAYER
10
24.8420078913616
20
9.55323522107188
30
-1.52655665885959e-015
 70
     32
  0
VERTEX
  8
MY3DLAYER
10
24.8101435298184
20
9.5458054940148
30
-1.52655665885959e-015
 70
     32
  0
VERTEX
  8
MY3DLAYER
10
24.7778614649203
20
9.54047570352951
30
-1.52655665885959e-015
 70
     32
  0
VERTEX
  8
MY3DLAYER
10
24.7452999334254
20
9.53726867259711
30
-1.52655665885959e-015
 70
     32
  0
VERTEX
  8
MY3DLAYER
10
24.7125983688103
20
9.53619813421641
30
-1.52655665885959e-015
 70
     32
  0
VERTEX
  8
MY3DLAYER
10
24.6798968041952
20
9.53726867259711
30
-1.08246744900953e-015
 70
     32
  0
VERTEX
  8
MY3DLAYER
10
24.6473352727003
20
9.54047570352951
30
-1.08246744900953e-015
 70
     32
  0
VERTEX
  8
MY3DLAYER
10
24.6150532078022
20
9.5458054940148
30
-1.52655665885959e-015
 70
     32
  0
VERTEX
  8
MY3DLAYER
10
24.5831888462591
20
9.55323522107188
30
-1.08246744900953e-015
 70
     32
  0
VERTEX
  8
MY3DLAYER
10
24.5518786361587
20
9.56273306946886
30
-1.52655665885959e-015
 70
     32
  0
VERTEX
  8
MY3DLAYER
10
24.5212566526278
20
9.57425836796077
30
-1.52655665885959e-015
 70
     32
  0
VERTEX
  8
MY3DLAYER
10
24.4914540237008
20
9.58776176345007
30
-1.52655665885959e-015
 70
     32
  0
VERTEX
  8
MY3DLAYER
10
24.4625983688103
20
9.60318543232419
30
-1.52655665885959e-015
 70
     32
  0
VERTEX
  8
MY3DLAYER
10
24.4348132523005
20
9.62046332806514
30
-1.08246744900953e-015
 70
     32
  0
VERTEX
  8
MY3DLAYER
10
24.408217654306
20
9.63952146407079
30
-1.97064586870965e-015
 70
     32
  0
VERTEX
  8
MY3DLAYER
10
24.3829254612603
20
9.66027823047692
30
-1.08246744900953e-015
 70
     32
  0
VERTEX
  8
MY3DLAYER
10
24.359044978217
20
9.68264474362314
30
-1.08246744900953e-015
 70
     32
  0
VERTEX
  8
MY3DLAYER
10
24.3366784650708
20
9.70652522666638
30
-1.52655665885959e-015
 70
     32
  0
VERTEX
  8
MY3DLAYER
10
24.3159216986647
20
9.73181741971205
30
-1.97064586870965e-015
 70
     32
  0
VERTEX
  8
MY3DLAYER
10
24.296863562659
20
9.75841301770661
30
-1.08246744900953e-015
 70
     32
  0
VERTEX
  8
MY3DLAYER
10
24.2795856669181
20
9.78619813421641
30
-1.52655665885959e-015
 70
     32
  0
VERTEX
  8
MY3DLAYER
10
24.264161998044
20
9.81505378910691
30
-1.97064586870965e-015
 70
     32
  0
VERTEX
  8
MY3DLAYER
10
24.2506586025547
20
9.84485641803387
30
-1.52655665885959e-015
 70
     32
  0
VERTEX
  8
MY3DLAYER
10
24.2391333040628
20
9.87547840156483
30
-1.52655665885959e-015
 70
     32
  0
VERTEX
  8
MY3DLAYER
10
24.2296354556658
20
9.90678861166515
30
-1.52655665885959e-015
 70
     32
  0
VERTEX
  8
MY3DLAYER
10
24.2222057286087
20
9.93865297320835
30
-1.08246744900953e-015
 70
     32
  0
VERTEX
  8
MY3DLAYER
10
24.2168759381234
20
9.97093503810639
30
-1.08246744900953e-015
 70
     32
  0
VERTEX
  8
MY3DLAYER
10
24.213668907191
20
10.0034965696013
30
-1.52655665885959e-015
 70
     32
  0
VERTEX
  8
MY3DLAYER
10
24.2125983688103
20
10.0361981342164
30
-1.08246744900953e-015
 70
     32
  0
SEQEND
  0
POLYLINE
 8
GROUP0
 66
     1
70
    8
 10
0.0
 20
 0.0
 30
0.0
  0
VERTEX
  8
MY3DLAYER
10
20.9124015184166
20
12.3486981342165
30
-1.08246744900953e-015
 70
     32
  0
VERTEX
  8
MY3DLAYER
10
20.9134720567973
20
12.3813996988315
30
-1.52655665885959e-015
 70
     32
  0
VERTEX
  8
MY3DLAYER
10
20.9166790877297
20
12.4139612303265
30
-1.08246744900953e-015
 70
     32
  0
VERTEX
  8
MY3DLAYER
10
20.922008878215
20
12.4462432952245
30
-1.08246744900953e-015
 70
     32
  0
VERTEX
  8
MY3DLAYER
10
20.9294386052721
20
12.4781076567677
30
-1.52655665885959e-015
 70
     32
  0
VERTEX
  8
MY3DLAYER
10
20.9389364536691
20
12.5094178668681
30
-1.52655665885959e-015
 70
     32
  0
VERTEX
  8
MY3DLAYER
10
20.950461752161
20
12.540039850399
30
-1.52655665885959e-015
 70
     32
  0
VERTEX
  8
MY3DLAYER
10
20.9639651476503
20
12.569842479326
30
-1.08246744900953e-015
 70
     32
  0
VERTEX
  8
MY3DLAYER
10
20.9793888165244
20
12.5986981342165
30
-1.52655665885959e-015
 70
     32
  0
VERTEX
  8
MY3DLAYER
10
20.9966667122653
20
12.6264832507263
30
-1.08246744900953e-015
 70
     32
  0
VERTEX
  8
MY3DLAYER
10
21.015724848271
20
12.6530788487208
30
-1.97064586870965e-015
 70
     32
  0
VERTEX
  8
MY3DLAYER
10
21.0364816146771
20
12.6783710417665
30
-1.52655665885959e-015
 70
     32
  0
VERTEX
  8
MY3DLAYER
10
21.0588481278233
20
12.7022515248097
30
-1.08246744900953e-015
 70
     32
  0
VERTEX
  8
MY3DLAYER
10
21.0827286108666
20
12.724618037956
30
-1.08246744900953e-015
 70
     32
  0
VERTEX
  8
MY3DLAYER
10
21.1080208039123
20
12.7453748043621
30
-1.08246744900953e-015
 70
     32
  0
VERTEX
  8
MY3DLAYER
10
21.1346164019068
20
12.7644329403677
30
-1.08246744900953e-015
 70
     32
  0
VERTEX
  8
MY3DLAYER
10
21.1624015184166
20
12.7817108361087
30
-1.97064586870965e-015
 70
     32
  0
VERTEX
  8
MY3DLAYER
10
21.1912571733071
20
12.7971345049828
30
-1.52655665885959e-015
 70
     32
  0
VERTEX
  8
MY3DLAYER
10
21.2210598022341
20
12.8106379004721
30
-1.52655665885959e-015
 70
     32
  0
VERTEX
  8
MY3DLAYER
10
21.251681785765
20
12.822163198964
30
-1.52655665885959e-015
 70
     32
  0
VERTEX
  8
MY3DLAYER
10
21.2829919958654
20
12.831661047361
30
-1.08246744900953e-015
 70
     32
  0
VERTEX
  8
MY3DLAYER
10
21.3148563574085
20
12.8390907744181
30
-1.52655665885959e-015
 70
     32
  0
VERTEX
  8
MY3DLAYER
10
21.3471384223066
20
12.8444205649034
30
-1.08246744900953e-015
 70
     32
  0
VERTEX
  8
MY3DLAYER
10
21.3796999538015
20
12.8476275958358
30
-1.08246744900953e-015
 70
     32
  0
VERTEX
  8
MY3DLAYER
10
21.4124015184166
20
12.8486981342165
30
-1.52655665885959e-015
 70
     32
  0
VERTEX
  8
MY3DLAYER
10
21.4451030830317
20
12.8476275958358
30
-1.52655665885959e-015
 70
     32
  0
VERTEX
  8
MY3DLAYER
10
21.4776646145266
20
12.8444205649034
30
-1.52655665885959e-015
 70
     32
  0
VERTEX
  8
MY3DLAYER
10
21.5099466794247
20
12.8390907744181
30
-1.52655665885959e-015
 70
     32
  0
VERTEX
  8
MY3DLAYER
10
21.5418110409679
20
12.831661047361
30
-6.38378239159465e-016
 70
     32
  0
VERTEX
  8
MY3DLAYER
10
21.5731212510682
20
12.822163198964
30
-1.52655665885959e-015
 70
     32
  0
VERTEX
  8
MY3DLAYER
10
21.6037432345992
20
12.8106379004721
30
-1.52655665885959e-015
 70
     32
  0
VERTEX
  8
MY3DLAYER
10
21.6335458635261
20
12.7971345049828
30
-1.52655665885959e-015
 70
     32
  0
VERTEX
  8
MY3DLAYER
10
21.6624015184166
20
12.7817108361087
30
-1.08246744900953e-015
 70
     32
  0
VERTEX
  8
MY3DLAYER
10
21.6901866349264
20
12.7644329403677
30
-1.52655665885959e-015
 70
     32
  0
VERTEX
  8
MY3DLAYER
10
21.716782232921
20
12.7453748043621
30
-6.38378239159465e-016
 70
     32
  0
VERTEX
  8
MY3DLAYER
10
21.7420744259666
20
12.724618037956
30
-6.38378239159465e-016
 70
     32
  0
VERTEX
  8
MY3DLAYER
10
21.7659549090099
20
12.7022515248097
30
-6.38378239159465e-016
 70
     32
  0
VERTEX
  8
MY3DLAYER
10
21.7883214221561
20
12.6783710417665
30
-1.52655665885959e-015
 70
     32
  0
VERTEX
  8
MY3DLAYER
10
21.8090781885622
20
12.6530788487208
30
-6.38378239159465e-016
 70
     32
  0
VERTEX
  8
MY3DLAYER
10
21.8281363245679
20
12.6264832507263
30
-6.38378239159465e-016
 70
     32
  0
VERTEX
  8
MY3DLAYER
10
21.8454142203088
20
12.5986981342165
30
-1.52655665885959e-015
 70
     32
  0
VERTEX
  8
MY3DLAYER
10
21.860837889183
20
12.569842479326
30
-6.38378239159465e-016
 70
     32
  0
VERTEX
  8
MY3DLAYER
10
21.8743412846723
20
12.540039850399
30
-1.52655665885959e-015
 70
     32
  0
VERTEX
  8
MY3DLAYER
10
21.8858665831642
20
12.509417866868
30
-1.52655665885959e-015
 70
     32
  0
VERTEX
  8
MY3DLAYER
10
21.8953644315611
20
12.4781076567677
30
-1.52655665885959e-015
 70
     32
  0
VERTEX
  8
MY3DLAYER
10
21.9027941586182
20
12.4462432952245
30
-6.38378239159465e-016
 70
     32
  0
VERTEX
  8
MY3DLAYER
10
21.9081239491035
20
12.4139612303265
30
-6.38378239159465e-016
 70
     32
  0
VERTEX
  8
MY3DLAYER
10
21.9113309800359
20
12.3813996988315
30
-1.52655665885959e-015
 70
     32
  0
VERTEX
  8
MY3DLAYER
10
21.9124015184166
20
12.3486981342165
30
-6.38378239159465e-016
 70
     32
  0
VERTEX
  8
MY3DLAYER
10
21.9113309800359
20
12.3159965696014
30
-1.52655665885959e-015
 70
     32
  0
VERTEX
  8
MY3DLAYER
10
21.9081239491035
20
12.2834350381064
30
-6.38378239159465e-016
 70
     32
  0
VERTEX
  8
MY3DLAYER
10
21.9027941586182
20
12.2511529732084
30
-6.38378239159465e-016
 70
     32
  0
VERTEX
  8
MY3DLAYER
10
21.8953644315611
20
12.2192886116652
30
-1.52655665885959e-015
 70
     32
  0
VERTEX
  8
MY3DLAYER
10
21.8858665831642
20
12.1879784015649
30
-1.52655665885959e-015
 70
     32
  0
VERTEX
  8
MY3DLAYER
10
21.8743412846723
20
12.1573564180339
30
-1.52655665885959e-015
 70
     32
  0
VERTEX
  8
MY3DLAYER
10
21.860837889183
20
12.127553789107
30
-6.38378239159465e-016
 70
     32
  0
VERTEX
  8
MY3DLAYER
10
21.8454142203088
20
12.0986981342165
30
-1.52655665885959e-015
 70
     32
  0
VERTEX
  8
MY3DLAYER
10
21.8281363245679
20
12.0709130177067
30
-6.38378239159465e-016
 70
     32
  0
VERTEX
  8
MY3DLAYER
10
21.8090781885622
20
12.0443174197121
30
-6.38378239159465e-016
 70
     32
  0
VERTEX
  8
MY3DLAYER
10
21.7883214221561
20
12.0190252266664
30
-1.52655665885959e-015
 70
     32
  0
VERTEX
  8
MY3DLAYER
10
21.7659549090099
20
11.9951447436232
30
-6.38378239159465e-016
 70
     32
  0
VERTEX
  8
MY3DLAYER
10
21.7420744259666
20
11.972778230477
30
-6.38378239159465e-016
 70
     32
  0
VERTEX
  8
MY3DLAYER
10
21.716782232921
20
11.9520214640709
30
-6.38378239159465e-016
 70
     32
  0
VERTEX
  8
MY3DLAYER
10
21.6901866349264
20
11.9329633280652
30
-1.52655665885959e-015
 70
     32
  0
VERTEX
  8
MY3DLAYER
10
21.6624015184166
20
11.9156854323242
30
-6.38378239159465e-016
 70
     32
  0
VERTEX
  8
MY3DLAYER
10
21.6335458635261
20
11.9002617634501
30
-1.52655665885959e-015
 70
     32
  0
VERTEX
  8
MY3DLAYER
10
21.6037432345992
20
11.8867583679608
30
-1.52655665885959e-015
 70
     32
  0
VERTEX
  8
MY3DLAYER
10
21.5731212510682
20
11.8752330694689
30
-1.52655665885959e-015
 70
     32
  0
VERTEX
  8
MY3DLAYER
10
21.5418110409679
20
11.8657352210719
30
-6.38378239159465e-016
 70
     32
  0
VERTEX
  8
MY3DLAYER
10
21.5099466794247
20
11.8583054940149
30
-1.52655665885959e-015
 70
     32
  0
VERTEX
  8
MY3DLAYER
10
21.4776646145266
20
11.8529757035296
30
-1.52655665885959e-015
 70
     32
  0
VERTEX
  8
MY3DLAYER
10
21.4451030830317
20
11.8497686725972
30
-1.52655665885959e-015
 70
     32
  0
VERTEX
  8
MY3DLAYER
10
21.4124015184166
20
11.8486981342165
30
-1.52655665885959e-015
 70
     32
  0
VERTEX
  8
MY3DLAYER
10
21.3796999538015
20
11.8497686725972
30
-1.08246744900953e-015
 70
     32
  0
VERTEX
  8
MY3DLAYER
10
21.3471384223066
20
11.8529757035296
30
-1.08246744900953e-015
 70
     32
  0
VERTEX
  8
MY3DLAYER
10
21.3148563574085
20
11.8583054940149
30
-1.52655665885959e-015
 70
     32
  0
VERTEX
  8
MY3DLAYER
10
21.2829919958654
20
11.8657352210719
30
-1.08246744900953e-015
 70
     32
  0
VERTEX
  8
MY3DLAYER
10
21.251681785765
20
11.8752330694689
30
-1.52655665885959e-015
 70
     32
  0
VERTEX
  8
MY3DLAYER
10
21.2210598022341
20
11.8867583679608
30
-1.52655665885959e-015
 70
     32
  0
VERTEX
  8
MY3DLAYER
10
21.1912571733071
20
11.9002617634501
30
-1.52655665885959e-015
 70
     32
  0
VERTEX
  8
MY3DLAYER
10
21.1624015184166
20
11.9156854323242
30
-1.52655665885959e-015
 70
     32
  0
VERTEX
  8
MY3DLAYER
10
21.1346164019068
20
11.9329633280652
30
-1.08246744900953e-015
 70
     32
  0
VERTEX
  8
MY3DLAYER
10
21.1080208039123
20
11.9520214640709
30
-1.08246744900953e-015
 70
     32
  0
VERTEX
  8
MY3DLAYER
10
21.0827286108666
20
11.972778230477
30
-1.08246744900953e-015
 70
     32
  0
VERTEX
  8
MY3DLAYER
10
21.0588481278233
20
11.9951447436232
30
-1.08246744900953e-015
 70
     32
  0
VERTEX
  8
MY3DLAYER
10
21.0364816146771
20
12.0190252266664
30
-1.52655665885959e-015
 70
     32
  0
VERTEX
  8
MY3DLAYER
10
21.015724848271
20
12.0443174197121
30
-1.97064586870965e-015
 70
     32
  0
VERTEX
  8
MY3DLAYER
10
20.9966667122653
20
12.0709130177067
30
-1.08246744900953e-015
 70
     32
  0
VERTEX
  8
MY3DLAYER
10
20.9793888165244
20
12.0986981342165
30
-1.52655665885959e-015
 70
     32
  0
VERTEX
  8
MY3DLAYER
10
20.9639651476503
20
12.127553789107
30
-1.08246744900953e-015
 70
     32
  0
VERTEX
  8
MY3DLAYER
10
20.950461752161
20
12.1573564180339
30
-1.52655665885959e-015
 70
     32
  0
VERTEX
  8
MY3DLAYER
10
20.9389364536691
20
12.1879784015649
30
-1.52655665885959e-015
 70
     32
  0
VERTEX
  8
MY3DLAYER
10
20.9294386052721
20
12.2192886116652
30
-1.52655665885959e-015
 70
     32
  0
VERTEX
  8
MY3DLAYER
10
20.922008878215
20
12.2511529732084
30
-1.08246744900953e-015
 70
     32
  0
VERTEX
  8
MY3DLAYER
10
20.9166790877297
20
12.2834350381064
30
-1.08246744900953e-015
 70
     32
  0
VERTEX
  8
MY3DLAYER
10
20.9134720567973
20
12.3159965696014
30
-1.52655665885959e-015
 70
     32
  0
VERTEX
  8
MY3DLAYER
10
20.9124015184166
20
12.3486981342165
30
-1.08246744900953e-015
 70
     32
  0
SEQEND
  0
POLYLINE
 8
GROUP0
 66
     1
70
    8
 10
0.0
 20
 0.0
 30
0.0
  0
VERTEX
  8
MY3DLAYER
10
19.3375983689533
20
12.3486981327675
30
-1.08246744900953e-015
 70
     32
  0
VERTEX
  8
MY3DLAYER
10
19.338668907334
20
12.3813996973826
30
-1.08246744900953e-015
 70
     32
  0
VERTEX
  8
MY3DLAYER
10
19.3418759382664
20
12.4139612288776
30
-1.97064586870965e-015
 70
     32
  0
VERTEX
  8
MY3DLAYER
10
19.3472057287517
20
12.4462432937756
30
-1.08246744900953e-015
 70
     32
  0
VERTEX
  8
MY3DLAYER
10
19.3546354558088
20
12.4781076553188
30
-1.52655665885959e-015
 70
     32
  0
VERTEX
  8
MY3DLAYER
10
19.3641333042058
20
12.5094178654191
30
-1.08246744900953e-015
 70
     32
  0
VERTEX
  8
MY3DLAYER
10
19.3756586026977
20
12.5400398489501
30
-1.08246744900953e-015
 70
     32
  0
VERTEX
  8
MY3DLAYER
10
19.389161998187
20
12.569842477877
30
-1.97064586870965e-015
 70
     32
  0
VERTEX
  8
MY3DLAYER
10
19.4045856670611
20
12.5986981327675
30
-1.08246744900953e-015
 70
     32
  0
VERTEX
  8
MY3DLAYER
10
19.421863562802
20
12.6264832492773
30
-1.08246744900953e-015
 70
     32
  0
VERTEX
  8
MY3DLAYER
10
19.4409216988077
20
12.6530788472719
30
-1.97064586870965e-015
 70
     32
  0
VERTEX
  8
MY3DLAYER
10
19.4616784652138
20
12.6783710403176
30
-1.08246744900953e-015
 70
     32
  0
VERTEX
  8
MY3DLAYER
10
19.48404497836
20
12.7022515233608
30
-1.97064586870965e-015
 70
     32
  0
VERTEX
  8
MY3DLAYER
10
19.5079254614033
20
12.724618036507
30
-1.08246744900953e-015
 70
     32
  0
VERTEX
  8
MY3DLAYER
10
19.5332176544489
20
12.7453748029131
30
-1.97064586870965e-015
 70
     32
  0
VERTEX
  8
MY3DLAYER
10
19.5598132524435
20
12.7644329389188
30
-1.08246744900953e-015
 70
     32
  0
VERTEX
  8
MY3DLAYER
10
19.5875983689533
20
12.7817108346598
30
-1.97064586870965e-015
 70
     32
  0
VERTEX
  8
MY3DLAYER
10
19.6164540238438
20
12.7971345035339
30
-1.52655665885959e-015
 70
     32
  0
VERTEX
  8
MY3DLAYER
10
19.6462566527708
20
12.8106378990232
30
-1.52655665885959e-015
 70
     32
  0
VERTEX
  8
MY3DLAYER
10
19.6768786363017
20
12.8221631975151
30
-1.08246744900953e-015
 70
     32
  0
VERTEX
  8
MY3DLAYER
10
19.708188846402
20
12.8316610459121
30
-1.08246744900953e-015
 70
     32
  0
VERTEX
  8
MY3DLAYER
10
19.7400532079452
20
12.8390907729691
30
-1.08246744900953e-015
 70
     32
  0
VERTEX
  8
MY3DLAYER
10
19.7723352728433
20
12.8444205634544
30
-1.08246744900953e-015
 70
     32
  0
VERTEX
  8
MY3DLAYER
10
19.8048968043382
20
12.8476275943868
30
-1.08246744900953e-015
 70
     32
  0
VERTEX
  8
MY3DLAYER
10
19.8375983689533
20
12.8486981327675
30
-1.08246744900953e-015
 70
     32
  0
VERTEX
  8
MY3DLAYER
10
19.8702999335684
20
12.8476275943868
30
-1.52655665885959e-015
 70
     32
  0
VERTEX
  8
MY3DLAYER
10
19.9028614650633
20
12.8444205634544
30
-1.52655665885959e-015
 70
     32
  0
VERTEX
  8
MY3DLAYER
10
19.9351435299614
20
12.8390907729691
30
-1.52655665885959e-015
 70
     32
  0
VERTEX
  8
MY3DLAYER
10
19.9670078915046
20
12.8316610459121
30
-1.52655665885959e-015
 70
     32
  0
VERTEX
  8
MY3DLAYER
10
19.9983181016049
20
12.8221631975151
30
-1.08246744900953e-015
 70
     32
  0
VERTEX
  8
MY3DLAYER
10
20.0289400851359
20
12.8106378990232
30
-1.08246744900953e-015
 70
     32
  0
VERTEX
  8
MY3DLAYER
10
20.0587427140628
20
12.7971345035339
30
-1.08246744900953e-015
 70
     32
  0
VERTEX
  8
MY3DLAYER
10
20.0875983689533
20
12.7817108346598
30
-1.08246744900953e-015
 70
     32
  0
VERTEX
  8
MY3DLAYER
10
20.1153834854631
20
12.7644329389188
30
-1.52655665885959e-015
 70
     32
  0
VERTEX
  8
MY3DLAYER
10
20.1419790834577
20
12.7453748029131
30
-6.38378239159465e-016
 70
     32
  0
VERTEX
  8
MY3DLAYER
10
20.1672712765033
20
12.724618036507
30
-1.52655665885959e-015
 70
     32
  0
VERTEX
  8
MY3DLAYER
10
20.1911517595466
20
12.7022515233608
30
-6.38378239159465e-016
 70
     32
  0
VERTEX
  8
MY3DLAYER
10
20.2135182726928
20
12.6783710403176
30
-1.52655665885959e-015
 70
     32
  0
VERTEX
  8
MY3DLAYER
10
20.2342750390989
20
12.6530788472719
30
-6.38378239159465e-016
 70
     32
  0
VERTEX
  8
MY3DLAYER
10
20.2533331751046
20
12.6264832492773
30
-1.52655665885959e-015
 70
     32
  0
VERTEX
  8
MY3DLAYER
10
20.2706110708455
20
12.5986981327675
30
-1.52655665885959e-015
 70
     32
  0
VERTEX
  8
MY3DLAYER
10
20.2860347397197
20
12.569842477877
30
-6.38378239159465e-016
 70
     32
  0
VERTEX
  8
MY3DLAYER
10
20.2995381352089
20
12.5400398489501
30
-1.08246744900953e-015
 70
     32
  0
VERTEX
  8
MY3DLAYER
10
20.3110634337009
20
12.5094178654191
30
-1.52655665885959e-015
 70
     32
  0
VERTEX
  8
MY3DLAYER
10
20.3205612820978
20
12.4781076553188
30
-1.08246744900953e-015
 70
     32
  0
VERTEX
  8
MY3DLAYER
10
20.3279910091549
20
12.4462432937756
30
-1.52655665885959e-015
 70
     32
  0
VERTEX
  8
MY3DLAYER
10
20.3333207996402
20
12.4139612288776
30
-1.52655665885959e-015
 70
     32
  0
VERTEX
  8
MY3DLAYER
10
20.3365278305726
20
12.3813996973826
30
-1.52655665885959e-015
 70
     32
  0
VERTEX
  8
MY3DLAYER
10
20.3375983689533
20
12.3486981327675
30
-1.52655665885959e-015
 70
     32
  0
VERTEX
  8
MY3DLAYER
10
20.3365278305726
20
12.3159965681525
30
-1.52655665885959e-015
 70
     32
  0
VERTEX
  8
MY3DLAYER
10
20.3333207996402
20
12.2834350366575
30
-1.52655665885959e-015
 70
     32
  0
VERTEX
  8
MY3DLAYER
10
20.3279910091549
20
12.2511529717595
30
-1.52655665885959e-015
 70
     32
  0
VERTEX
  8
MY3DLAYER
10
20.3205612820978
20
12.2192886102163
30
-1.08246744900953e-015
 70
     32
  0
VERTEX
  8
MY3DLAYER
10
20.3110634337009
20
12.1879784001159
30
-1.52655665885959e-015
 70
     32
  0
VERTEX
  8
MY3DLAYER
10
20.2995381352089
20
12.157356416585
30
-1.08246744900953e-015
 70
     32
  0
VERTEX
  8
MY3DLAYER
10
20.2860347397197
20
12.127553787658
30
-6.38378239159465e-016
 70
     32
  0
VERTEX
  8
MY3DLAYER
10
20.2706110708455
20
12.0986981327675
30
-1.52655665885959e-015
 70
     32
  0
VERTEX
  8
MY3DLAYER
10
20.2533331751046
20
12.0709130162577
30
-1.52655665885959e-015
 70
     32
  0
VERTEX
  8
MY3DLAYER
10
20.2342750390989
20
12.0443174182632
30
-6.38378239159465e-016
 70
     32
  0
VERTEX
  8
MY3DLAYER
10
20.2135182726928
20
12.0190252252175
30
-1.52655665885959e-015
 70
     32
  0
VERTEX
  8
MY3DLAYER
10
20.1911517595466
20
11.9951447421743
30
-6.38378239159465e-016
 70
     32
  0
VERTEX
  8
MY3DLAYER
10
20.1672712765033
20
11.972778229028
30
-1.52655665885959e-015
 70
     32
  0
VERTEX
  8
MY3DLAYER
10
20.1419790834577
20
11.9520214626219
30
-6.38378239159465e-016
 70
     32
  0
VERTEX
  8
MY3DLAYER
10
20.1153834854631
20
11.9329633266163
30
-1.52655665885959e-015
 70
     32
  0
VERTEX
  8
MY3DLAYER
10
20.0875983689533
20
11.9156854308753
30
-6.38378239159465e-016
 70
     32
  0
VERTEX
  8
MY3DLAYER
10
20.0587427140628
20
11.9002617620012
30
-1.08246744900953e-015
 70
     32
  0
VERTEX
  8
MY3DLAYER
10
20.0289400851359
20
11.8867583665119
30
-1.08246744900953e-015
 70
     32
  0
VERTEX
  8
MY3DLAYER
10
19.9983181016049
20
11.87523306802
30
-1.08246744900953e-015
 70
     32
  0
VERTEX
  8
MY3DLAYER
10
19.9670078915046
20
11.865735219623
30
-1.52655665885959e-015
 70
     32
  0
VERTEX
  8
MY3DLAYER
10
19.9351435299614
20
11.8583054925659
30
-1.52655665885959e-015
 70
     32
  0
VERTEX
  8
MY3DLAYER
10
19.9028614650633
20
11.8529757020806
30
-1.52655665885959e-015
 70
     32
  0
VERTEX
  8
MY3DLAYER
10
19.8702999335684
20
11.8497686711482
30
-1.52655665885959e-015
 70
     32
  0
VERTEX
  8
MY3DLAYER
10
19.8375983689533
20
11.8486981327675
30
-1.08246744900953e-015
 70
     32
  0
VERTEX
  8
MY3DLAYER
10
19.8048968043382
20
11.8497686711482
30
-1.08246744900953e-015
 70
     32
  0
VERTEX
  8
MY3DLAYER
10
19.7723352728433
20
11.8529757020806
30
-1.08246744900953e-015
 70
     32
  0
VERTEX
  8
MY3DLAYER
10
19.7400532079452
20
11.8583054925659
30
-1.08246744900953e-015
 70
     32
  0
VERTEX
  8
MY3DLAYER
10
19.708188846402
20
11.865735219623
30
-1.08246744900953e-015
 70
     32
  0
VERTEX
  8
MY3DLAYER
10
19.6768786363017
20
11.87523306802
30
-1.08246744900953e-015
 70
     32
  0
VERTEX
  8
MY3DLAYER
10
19.6462566527708
20
11.8867583665119
30
-1.52655665885959e-015
 70
     32
  0
VERTEX
  8
MY3DLAYER
10
19.6164540238438
20
11.9002617620012
30
-1.52655665885959e-015
 70
     32
  0
VERTEX
  8
MY3DLAYER
10
19.5875983689533
20
11.9156854308753
30
-1.52655665885959e-015
 70
     32
  0
VERTEX
  8
MY3DLAYER
10
19.5598132524435
20
11.9329633266163
30
-1.08246744900953e-015
 70
     32
  0
VERTEX
  8
MY3DLAYER
10
19.5332176544489
20
11.9520214626219
30
-1.97064586870965e-015
 70
     32
  0
VERTEX
  8
MY3DLAYER
10
19.5079254614033
20
11.972778229028
30
-1.08246744900953e-015
 70
     32
  0
VERTEX
  8
MY3DLAYER
10
19.48404497836
20
11.9951447421743
30
-1.97064586870965e-015
 70
     32
  0
VERTEX
  8
MY3DLAYER
10
19.4616784652138
20
12.0190252252175
30
-1.08246744900953e-015
 70
     32
  0
VERTEX
  8
MY3DLAYER
10
19.4409216988077
20
12.0443174182632
30
-1.97064586870965e-015
 70
     32
  0
VERTEX
  8
MY3DLAYER
10
19.421863562802
20
12.0709130162577
30
-1.08246744900953e-015
 70
     32
  0
VERTEX
  8
MY3DLAYER
10
19.4045856670611
20
12.0986981327675
30
-1.08246744900953e-015
 70
     32
  0
VERTEX
  8
MY3DLAYER
10
19.389161998187
20
12.127553787658
30
-1.97064586870965e-015
 70
     32
  0
VERTEX
  8
MY3DLAYER
10
19.3756586026977
20
12.157356416585
30
-1.08246744900953e-015
 70
     32
  0
VERTEX
  8
MY3DLAYER
10
19.3641333042058
20
12.1879784001159
30
-1.08246744900953e-015
 70
     32
  0
VERTEX
  8
MY3DLAYER
10
19.3546354558088
20
12.2192886102163
30
-1.52655665885959e-015
 70
     32
  0
VERTEX
  8
MY3DLAYER
10
19.3472057287517
20
12.2511529717595
30
-1.08246744900953e-015
 70
     32
  0
VERTEX
  8
MY3DLAYER
10
19.3418759382664
20
12.2834350366575
30
-1.97064586870965e-015
 70
     32
  0
VERTEX
  8
MY3DLAYER
10
19.338668907334
20
12.3159965681525
30
-1.08246744900953e-015
 70
     32
  0
VERTEX
  8
MY3DLAYER
10
19.3375983689533
20
12.3486981327675
30
-1.08246744900953e-015
 70
     32
  0
SEQEND
  0
POLYLINE
 8
GROUP0
 66
     1
70
    8
 10
0.0
 20
 0.0
 30
0.0
  0
VERTEX
  8
MY3DLAYER
10
20.9166790877297
20
9.97093503810644
30
-1.08246744900953e-015
 70
     32
  0
VERTEX
  8
MY3DLAYER
10
20.9134720567973
20
10.0034965696014
30
-1.52655665885959e-015
 70
     32
  0
VERTEX
  8
MY3DLAYER
10
20.9124015184166
20
10.0361981342165
30
-1.08246744900953e-015
 70
     32
  0
VERTEX
  8
MY3DLAYER
10
20.9134720567973
20
10.0688996988315
30
-1.52655665885959e-015
 70
     32
  0
VERTEX
  8
MY3DLAYER
10
20.9166790877297
20
10.1014612303265
30
-1.08246744900953e-015
 70
     32
  0
VERTEX
  8
MY3DLAYER
10
20.922008878215
20
10.1337432952245
30
-1.08246744900953e-015
 70
     32
  0
VERTEX
  8
MY3DLAYER
10
20.9294386052721
20
10.1656076567677
30
-1.52655665885959e-015
 70
     32
  0
VERTEX
  8
MY3DLAYER
10
20.9389364536691
20
10.1969178668681
30
-1.52655665885959e-015
 70
     32
  0
VERTEX
  8
MY3DLAYER
10
20.950461752161
20
10.227539850399
30
-1.52655665885959e-015
 70
     32
  0
VERTEX
  8
MY3DLAYER
10
20.9639651476503
20
10.257342479326
30
-1.08246744900953e-015
 70
     32
  0
VERTEX
  8
MY3DLAYER
10
20.9793888165244
20
10.2861981342165
30
-1.52655665885959e-015
 70
     32
  0
VERTEX
  8
MY3DLAYER
10
20.9966667122653
20
10.3139832507263
30
-1.08246744900953e-015
 70
     32
  0
VERTEX
  8
MY3DLAYER
10
21.015724848271
20
10.3405788487208
30
-1.97064586870965e-015
 70
     32
  0
VERTEX
  8
MY3DLAYER
10
21.0364816146771
20
10.3658710417665
30
-1.52655665885959e-015
 70
     32
  0
VERTEX
  8
MY3DLAYER
10
21.0588481278233
20
10.3897515248097
30
-1.08246744900953e-015
 70
     32
  0
VERTEX
  8
MY3DLAYER
10
21.0827286108666
20
10.412118037956
30
-1.08246744900953e-015
 70
     32
  0
VERTEX
  8
MY3DLAYER
10
21.1080208039123
20
10.4328748043621
30
-1.08246744900953e-015
 70
     32
  0
VERTEX
  8
MY3DLAYER
10
21.1346164019068
20
10.4519329403677
30
-1.08246744900953e-015
 70
     32
  0
VERTEX
  8
MY3DLAYER
10
21.1624015184166
20
10.4692108361087
30
-1.97064586870965e-015
 70
     32
  0
VERTEX
  8
MY3DLAYER
10
21.1912571733071
20
10.4846345049828
30
-1.52655665885959e-015
 70
     32
  0
VERTEX
  8
MY3DLAYER
10
21.2210598022341
20
10.4981379004721
30
-1.52655665885959e-015
 70
     32
  0
VERTEX
  8
MY3DLAYER
10
21.251681785765
20
10.509663198964
30
-1.52655665885959e-015
 70
     32
  0
VERTEX
  8
MY3DLAYER
10
21.2829919958654
20
10.519161047361
30
-1.08246744900953e-015
 70
     32
  0
VERTEX
  8
MY3DLAYER
10
21.3148563574085
20
10.5265907744181
30
-1.52655665885959e-015
 70
     32
  0
VERTEX
  8
MY3DLAYER
10
21.3471384223066
20
10.5319205649034
30
-1.08246744900953e-015
 70
     32
  0
VERTEX
  8
MY3DLAYER
10
21.3796999538015
20
10.5351275958358
30
-1.08246744900953e-015
 70
     32
  0
VERTEX
  8
MY3DLAYER
10
21.4124015184166
20
10.5361981342165
30
-1.52655665885959e-015
 70
     32
  0
VERTEX
  8
MY3DLAYER
10
21.4451030830317
20
10.5351275958358
30
-1.52655665885959e-015
 70
     32
  0
VERTEX
  8
MY3DLAYER
10
21.4776646145266
20
10.5319205649034
30
-1.52655665885959e-015
 70
     32
  0
VERTEX
  8
MY3DLAYER
10
21.5099466794247
20
10.5265907744181
30
-1.52655665885959e-015
 70
     32
  0
VERTEX
  8
MY3DLAYER
10
21.5418110409679
20
10.519161047361
30
-6.38378239159465e-016
 70
     32
  0
VERTEX
  8
MY3DLAYER
10
21.5731212510682
20
10.509663198964
30
-1.52655665885959e-015
 70
     32
  0
VERTEX
  8
MY3DLAYER
10
21.6037432345992
20
10.4981379004721
30
-1.52655665885959e-015
 70
     32
  0
VERTEX
  8
MY3DLAYER
10
21.6335458635261
20
10.4846345049828
30
-1.52655665885959e-015
 70
     32
  0
VERTEX
  8
MY3DLAYER
10
21.6624015184166
20
10.4692108361087
30
-1.08246744900953e-015
 70
     32
  0
VERTEX
  8
MY3DLAYER
10
21.6901866349264
20
10.4519329403677
30
-1.52655665885959e-015
 70
     32
  0
VERTEX
  8
MY3DLAYER
10
21.716782232921
20
10.4328748043621
30
-6.38378239159465e-016
 70
     32
  0
VERTEX
  8
MY3DLAYER
10
21.7420744259666
20
10.412118037956
30
-6.38378239159465e-016
 70
     32
  0
VERTEX
  8
MY3DLAYER
10
21.7659549090099
20
10.3897515248097
30
-6.38378239159465e-016
 70
     32
  0
VERTEX
  8
MY3DLAYER
10
21.7883214221561
20
10.3658710417665
30
-1.52655665885959e-015
 70
     32
  0
VERTEX
  8
MY3DLAYER
10
21.8090781885622
20
10.3405788487208
30
-6.38378239159465e-016
 70
     32
  0
VERTEX
  8
MY3DLAYER
10
21.8281363245679
20
10.3139832507263
30
-6.38378239159465e-016
 70
     32
  0
VERTEX
  8
MY3DLAYER
10
21.8454142203088
20
10.2861981342165
30
-1.52655665885959e-015
 70
     32
  0
VERTEX
  8
MY3DLAYER
10
21.860837889183
20
10.257342479326
30
-6.38378239159465e-016
 70
     32
  0
VERTEX
  8
MY3DLAYER
10
21.8743412846723
20
10.227539850399
30
-1.52655665885959e-015
 70
     32
  0
VERTEX
  8
MY3DLAYER
10
21.8858665831642
20
10.1969178668681
30
-1.52655665885959e-015
 70
     32
  0
VERTEX
  8
MY3DLAYER
10
21.8953644315611
20
10.1656076567677
30
-1.52655665885959e-015
 70
     32
  0
VERTEX
  8
MY3DLAYER
10
21.9027941586182
20
10.1337432952245
30
-6.38378239159465e-016
 70
     32
  0
VERTEX
  8
MY3DLAYER
10
21.9081239491035
20
10.1014612303265
30
-6.38378239159465e-016
 70
     32
  0
VERTEX
  8
MY3DLAYER
10
21.9113309800359
20
10.0688996988315
30
-1.52655665885959e-015
 70
     32
  0
VERTEX
  8
MY3DLAYER
10
21.9124015184166
20
10.0361981342165
30
-6.38378239159465e-016
 70
     32
  0
VERTEX
  8
MY3DLAYER
10
21.9113309800359
20
10.0034965696014
30
-1.52655665885959e-015
 70
     32
  0
VERTEX
  8
MY3DLAYER
10
21.9081239491035
20
9.97093503810644
30
-6.38378239159465e-016
 70
     32
  0
VERTEX
  8
MY3DLAYER
10
21.9027941586182
20
9.9386529732084
30
-6.38378239159465e-016
 70
     32
  0
VERTEX
  8
MY3DLAYER
10
21.8953644315611
20
9.90678861166521
30
-1.52655665885959e-015
 70
     32
  0
VERTEX
  8
MY3DLAYER
10
21.8858665831642
20
9.87547840156489
30
-1.52655665885959e-015
 70
     32
  0
VERTEX
  8
MY3DLAYER
10
21.8743412846723
20
9.84485641803392
30
-1.52655665885959e-015
 70
     32
  0
VERTEX
  8
MY3DLAYER
10
21.860837889183
20
9.81505378910697
30
-6.38378239159465e-016
 70
     32
  0
VERTEX
  8
MY3DLAYER
10
21.8454142203088
20
9.78619813421647
30
-1.52655665885959e-015
 70
     32
  0
VERTEX
  8
MY3DLAYER
10
21.8281363245679
20
9.75841301770667
30
-6.38378239159465e-016
 70
     32
  0
VERTEX
  8
MY3DLAYER
10
21.8090781885622
20
9.73181741971211
30
-6.38378239159465e-016
 70
     32
  0
VERTEX
  8
MY3DLAYER
10
21.7883214221561
20
9.70652522666643
30
-1.52655665885959e-015
 70
     32
  0
VERTEX
  8
MY3DLAYER
10
21.7659549090099
20
9.68264474362319
30
-6.38378239159465e-016
 70
     32
  0
VERTEX
  8
MY3DLAYER
10
21.7420744259666
20
9.66027823047698
30
-6.38378239159465e-016
 70
     32
  0
VERTEX
  8
MY3DLAYER
10
21.716782232921
20
9.63952146407085
30
-6.38378239159465e-016
 70
     32
  0
VERTEX
  8
MY3DLAYER
10
21.6901866349264
20
9.6204633280652
30
-1.52655665885959e-015
 70
     32
  0
VERTEX
  8
MY3DLAYER
10
21.6624015184166
20
9.60318543232425
30
-6.38378239159465e-016
 70
     32
  0
VERTEX
  8
MY3DLAYER
10
21.6335458635261
20
9.58776176345012
30
-1.52655665885959e-015
 70
     32
  0
VERTEX
  8
MY3DLAYER
10
21.6037432345992
20
9.57425836796082
30
-1.52655665885959e-015
 70
     32
  0
VERTEX
  8
MY3DLAYER
10
21.5731212510682
20
9.56273306946892
30
-1.52655665885959e-015
 70
     32
  0
VERTEX
  8
MY3DLAYER
10
21.5418110409679
20
9.55323522107193
30
-6.38378239159465e-016
 70
     32
  0
VERTEX
  8
MY3DLAYER
10
21.5099466794247
20
9.54580549401485
30
-1.52655665885959e-015
 70
     32
  0
VERTEX
  8
MY3DLAYER
10
21.4776646145266
20
9.54047570352956
30
-1.52655665885959e-015
 70
     32
  0
VERTEX
  8
MY3DLAYER
10
21.4451030830317
20
9.53726867259717
30
-1.52655665885959e-015
 70
     32
  0
VERTEX
  8
MY3DLAYER
10
21.4124015184166
20
9.53619813421647
30
-1.52655665885959e-015
 70
     32
  0
VERTEX
  8
MY3DLAYER
10
21.3796999538015
20
9.53726867259717
30
-1.08246744900953e-015
 70
     32
  0
VERTEX
  8
MY3DLAYER
10
21.3471384223066
20
9.54047570352956
30
-1.08246744900953e-015
 70
     32
  0
VERTEX
  8
MY3DLAYER
10
21.3148563574085
20
9.54580549401485
30
-1.52655665885959e-015
 70
     32
  0
VERTEX
  8
MY3DLAYER
10
21.2829919958654
20
9.55323522107193
30
-1.08246744900953e-015
 70
     32
  0
VERTEX
  8
MY3DLAYER
10
21.251681785765
20
9.56273306946892
30
-1.52655665885959e-015
 70
     32
  0
VERTEX
  8
MY3DLAYER
10
21.2210598022341
20
9.57425836796082
30
-1.52655665885959e-015
 70
     32
  0
VERTEX
  8
MY3DLAYER
10
21.1912571733071
20
9.58776176345012
30
-1.52655665885959e-015
 70
     32
  0
VERTEX
  8
MY3DLAYER
10
21.1624015184166
20
9.60318543232425
30
-1.52655665885959e-015
 70
     32
  0
VERTEX
  8
MY3DLAYER
10
21.1346164019068
20
9.6204633280652
30
-1.08246744900953e-015
 70
     32
  0
VERTEX
  8
MY3DLAYER
10
21.1080208039123
20
9.63952146407085
30
-1.08246744900953e-015
 70
     32
  0
VERTEX
  8
MY3DLAYER
10
21.0827286108666
20
9.66027823047698
30
-1.08246744900953e-015
 70
     32
  0
VERTEX
  8
MY3DLAYER
10
21.0588481278233
20
9.68264474362319
30
-1.08246744900953e-015
 70
     32
  0
VERTEX
  8
MY3DLAYER
10
21.0364816146771
20
9.70652522666643
30
-1.52655665885959e-015
 70
     32
  0
VERTEX
  8
MY3DLAYER
10
21.015724848271
20
9.73181741971211
30
-1.97064586870965e-015
 70
     32
  0
VERTEX
  8
MY3DLAYER
10
20.9966667122653
20
9.75841301770667
30
-1.08246744900953e-015
 70
     32
  0
VERTEX
  8
MY3DLAYER
10
20.9793888165244
20
9.78619813421647
30
-1.52655665885959e-015
 70
     32
  0
VERTEX
  8
MY3DLAYER
10
20.9639651476503
20
9.81505378910697
30
-1.08246744900953e-015
 70
     32
  0
VERTEX
  8
MY3DLAYER
10
20.950461752161
20
9.84485641803392
30
-1.52655665885959e-015
 70
     32
  0
VERTEX
  8
MY3DLAYER
10
20.9389364536691
20
9.87547840156489
30
-1.52655665885959e-015
 70
     32
  0
VERTEX
  8
MY3DLAYER
10
20.9294386052721
20
9.90678861166521
30
-1.52655665885959e-015
 70
     32
  0
VERTEX
  8
MY3DLAYER
10
20.922008878215
20
9.9386529732084
30
-1.08246744900953e-015
 70
     32
  0
VERTEX
  8
MY3DLAYER
10
20.9166790877297
20
9.97093503810644
30
-1.08246744900953e-015
 70
     32
  0
SEQEND
  0
POLYLINE
 8
GROUP0
 66
     1
70
    8
 10
0.0
 20
 0.0
 30
0.0
  0
VERTEX
  8
MY3DLAYER
10
19.9028614649203
20
9.54047570352951
30
-1.52655665885959e-015
 70
     32
  0
VERTEX
  8
MY3DLAYER
10
19.8702999334254
20
9.53726867259711
30
-1.52655665885959e-015
 70
     32
  0
VERTEX
  8
MY3DLAYER
10
19.8375983688103
20
9.53619813421641
30
-1.08246744900953e-015
 70
     32
  0
VERTEX
  8
MY3DLAYER
10
19.8048968041952
20
9.53726867259711
30
-1.08246744900953e-015
 70
     32
  0
VERTEX
  8
MY3DLAYER
10
19.7723352727003
20
9.54047570352951
30
-1.08246744900953e-015
 70
     32
  0
VERTEX
  8
MY3DLAYER
10
19.7400532078022
20
9.5458054940148
30
-1.08246744900953e-015
 70
     32
  0
VERTEX
  8
MY3DLAYER
10
19.7081888462591
20
9.55323522107188
30
-1.08246744900953e-015
 70
     32
  0
VERTEX
  8
MY3DLAYER
10
19.6768786361587
20
9.56273306946886
30
-1.08246744900953e-015
 70
     32
  0
VERTEX
  8
MY3DLAYER
10
19.6462566526278
20
9.57425836796077
30
-1.52655665885959e-015
 70
     32
  0
VERTEX
  8
MY3DLAYER
10
19.6164540237008
20
9.58776176345007
30
-1.52655665885959e-015
 70
     32
  0
VERTEX
  8
MY3DLAYER
10
19.5875983688103
20
9.60318543232419
30
-1.52655665885959e-015
 70
     32
  0
VERTEX
  8
MY3DLAYER
10
19.5598132523005
20
9.62046332806514
30
-1.08246744900953e-015
 70
     32
  0
VERTEX
  8
MY3DLAYER
10
19.533217654306
20
9.63952146407079
30
-1.97064586870965e-015
 70
     32
  0
VERTEX
  8
MY3DLAYER
10
19.5079254612603
20
9.66027823047692
30
-1.08246744900953e-015
 70
     32
  0
VERTEX
  8
MY3DLAYER
10
19.484044978217
20
9.68264474362314
30
-1.97064586870965e-015
 70
     32
  0
VERTEX
  8
MY3DLAYER
10
19.4616784650708
20
9.70652522666638
30
-1.08246744900953e-015
 70
     32
  0
VERTEX
  8
MY3DLAYER
10
19.4409216986647
20
9.73181741971205
30
-1.97064586870965e-015
 70
     32
  0
VERTEX
  8
MY3DLAYER
10
19.421863562659
20
9.75841301770661
30
-1.08246744900953e-015
 70
     32
  0
VERTEX
  8
MY3DLAYER
10
19.4045856669181
20
9.78619813421641
30
-1.08246744900953e-015
 70
     32
  0
VERTEX
  8
MY3DLAYER
10
19.389161998044
20
9.81505378910691
30
-1.97064586870965e-015
 70
     32
  0
VERTEX
  8
MY3DLAYER
10
19.3756586025547
20
9.84485641803387
30
-1.08246744900953e-015
 70
     32
  0
VERTEX
  8
MY3DLAYER
10
19.3641333040628
20
9.87547840156483
30
-1.08246744900953e-015
 70
     32
  0
VERTEX
  8
MY3DLAYER
10
19.3546354556658
20
9.90678861166515
30
-1.52655665885959e-015
 70
     32
  0
VERTEX
  8
MY3DLAYER
10
19.3472057286087
20
9.93865297320835
30
-1.08246744900953e-015
 70
     32
  0
VERTEX
  8
MY3DLAYER
10
19.3418759381234
20
9.97093503810639
30
-1.97064586870965e-015
 70
     32
  0
VERTEX
  8
MY3DLAYER
10
19.338668907191
20
10.0034965696013
30
-1.08246744900953e-015
 70
     32
  0
VERTEX
  8
MY3DLAYER
10
19.3375983688103
20
10.0361981342164
30
-1.08246744900953e-015
 70
     32
  0
VERTEX
  8
MY3DLAYER
10
19.338668907191
20
10.0688996988315
30
-1.08246744900953e-015
 70
     32
  0
VERTEX
  8
MY3DLAYER
10
19.3418759381234
20
10.1014612303264
30
-1.97064586870965e-015
 70
     32
  0
VERTEX
  8
MY3DLAYER
10
19.3472057286087
20
10.1337432952245
30
-1.08246744900953e-015
 70
     32
  0
VERTEX
  8
MY3DLAYER
10
19.3546354556658
20
10.1656076567677
30
-1.52655665885959e-015
 70
     32
  0
VERTEX
  8
MY3DLAYER
10
19.3641333040628
20
10.196917866868
30
-1.08246744900953e-015
 70
     32
  0
VERTEX
  8
MY3DLAYER
10
19.3756586025547
20
10.227539850399
30
-1.08246744900953e-015
 70
     32
  0
VERTEX
  8
MY3DLAYER
10
19.389161998044
20
10.2573424793259
30
-1.97064586870965e-015
 70
     32
  0
VERTEX
  8
MY3DLAYER
10
19.4045856669181
20
10.2861981342164
30
-1.08246744900953e-015
 70
     32
  0
VERTEX
  8
MY3DLAYER
10
19.421863562659
20
10.3139832507262
30
-1.08246744900953e-015
 70
     32
  0
VERTEX
  8
MY3DLAYER
10
19.4409216986647
20
10.3405788487208
30
-1.97064586870965e-015
 70
     32
  0
VERTEX
  8
MY3DLAYER
10
19.4616784650708
20
10.3658710417664
30
-1.08246744900953e-015
 70
     32
  0
VERTEX
  8
MY3DLAYER
10
19.484044978217
20
10.3897515248097
30
-1.97064586870965e-015
 70
     32
  0
VERTEX
  8
MY3DLAYER
10
19.5079254612603
20
10.4121180379559
30
-1.08246744900953e-015
 70
     32
  0
VERTEX
  8
MY3DLAYER
10
19.533217654306
20
10.432874804362
30
-1.97064586870965e-015
 70
     32
  0
VERTEX
  8
MY3DLAYER
10
19.5598132523005
20
10.4519329403677
30
-1.08246744900953e-015
 70
     32
  0
VERTEX
  8
MY3DLAYER
10
19.5875983688103
20
10.4692108361086
30
-1.97064586870965e-015
 70
     32
  0
VERTEX
  8
MY3DLAYER
10
19.6164540237008
20
10.4846345049828
30
-1.52655665885959e-015
 70
     32
  0
VERTEX
  8
MY3DLAYER
10
19.6462566526278
20
10.4981379004721
30
-1.52655665885959e-015
 70
     32
  0
VERTEX
  8
MY3DLAYER
10
19.6768786361587
20
10.509663198964
30
-1.08246744900953e-015
 70
     32
  0
VERTEX
  8
MY3DLAYER
10
19.7081888462591
20
10.5191610473609
30
-1.08246744900953e-015
 70
     32
  0
VERTEX
  8
MY3DLAYER
10
19.7400532078022
20
10.526590774418
30
-1.08246744900953e-015
 70
     32
  0
VERTEX
  8
MY3DLAYER
10
19.7723352727003
20
10.5319205649033
30
-1.08246744900953e-015
 70
     32
  0
VERTEX
  8
MY3DLAYER
10
19.8048968041952
20
10.5351275958357
30
-1.08246744900953e-015
 70
     32
  0
VERTEX
  8
MY3DLAYER
10
19.8375983688103
20
10.5361981342164
30
-1.08246744900953e-015
 70
     32
  0
VERTEX
  8
MY3DLAYER
10
19.8702999334254
20
10.5351275958357
30
-1.52655665885959e-015
 70
     32
  0
VERTEX
  8
MY3DLAYER
10
19.9028614649203
20
10.5319205649033
30
-1.52655665885959e-015
 70
     32
  0
VERTEX
  8
MY3DLAYER
10
19.9351435298184
20
10.526590774418
30
-1.52655665885959e-015
 70
     32
  0
VERTEX
  8
MY3DLAYER
10
19.9670078913616
20
10.5191610473609
30
-1.52655665885959e-015
 70
     32
  0
VERTEX
  8
MY3DLAYER
10
19.9983181014619
20
10.509663198964
30
-1.08246744900953e-015
 70
     32
  0
VERTEX
  8
MY3DLAYER
10
20.0289400849929
20
10.4981379004721
30
-1.08246744900953e-015
 70
     32
  0
VERTEX
  8
MY3DLAYER
10
20.0587427139198
20
10.4846345049828
30
-1.08246744900953e-015
 70
     32
  0
VERTEX
  8
MY3DLAYER
10
20.0875983688103
20
10.4692108361086
30
-1.08246744900953e-015
 70
     32
  0
VERTEX
  8
MY3DLAYER
10
20.1153834853201
20
10.4519329403677
30
-1.52655665885959e-015
 70
     32
  0
VERTEX
  8
MY3DLAYER
10
20.1419790833147
20
10.432874804362
30
-6.38378239159465e-016
 70
     32
  0
VERTEX
  8
MY3DLAYER
10
20.1672712763603
20
10.4121180379559
30
-1.52655665885959e-015
 70
     32
  0
VERTEX
  8
MY3DLAYER
10
20.1911517594036
20
10.3897515248097
30
-6.38378239159465e-016
 70
     32
  0
VERTEX
  8
MY3DLAYER
10
20.2135182725498
20
10.3658710417664
30
-1.52655665885959e-015
 70
     32
  0
VERTEX
  8
MY3DLAYER
10
20.2342750389559
20
10.3405788487208
30
-6.38378239159465e-016
 70
     32
  0
VERTEX
  8
MY3DLAYER
10
20.2533331749616
20
10.3139832507262
30
-1.52655665885959e-015
 70
     32
  0
VERTEX
  8
MY3DLAYER
10
20.2706110707025
20
10.2861981342164
30
-1.52655665885959e-015
 70
     32
  0
VERTEX
  8
MY3DLAYER
10
20.2860347395767
20
10.2573424793259
30
-6.38378239159465e-016
 70
     32
  0
VERTEX
  8
MY3DLAYER
10
20.299538135066
20
10.227539850399
30
-1.08246744900953e-015
 70
     32
  0
VERTEX
  8
MY3DLAYER
10
20.3110634335579
20
10.196917866868
30
-1.52655665885959e-015
 70
     32
  0
VERTEX
  8
MY3DLAYER
10
20.3205612819548
20
10.1656076567677
30
-1.08246744900953e-015
 70
     32
  0
VERTEX
  8
MY3DLAYER
10
20.3279910090119
20
10.1337432952245
30
-1.52655665885959e-015
 70
     32
  0
VERTEX
  8
MY3DLAYER
10
20.3333207994972
20
10.1014612303264
30
-1.52655665885959e-015
 70
     32
  0
VERTEX
  8
MY3DLAYER
10
20.3365278304296
20
10.0688996988315
30
-1.52655665885959e-015
 70
     32
  0
VERTEX
  8
MY3DLAYER
10
20.3375983688103
20
10.0361981342164
30
-1.52655665885959e-015
 70
     32
  0
VERTEX
  8
MY3DLAYER
10
20.3365278304296
20
10.0034965696013
30
-1.52655665885959e-015
 70
     32
  0
VERTEX
  8
MY3DLAYER
10
20.3333207994972
20
9.97093503810639
30
-1.52655665885959e-015
 70
     32
  0
VERTEX
  8
MY3DLAYER
10
20.3279910090119
20
9.93865297320835
30
-1.52655665885959e-015
 70
     32
  0
VERTEX
  8
MY3DLAYER
10
20.3205612819548
20
9.90678861166515
30
-1.08246744900953e-015
 70
     32
  0
VERTEX
  8
MY3DLAYER
10
20.3110634335579
20
9.87547840156483
30
-1.52655665885959e-015
 70
     32
  0
VERTEX
  8
MY3DLAYER
10
20.299538135066
20
9.84485641803387
30
-1.08246744900953e-015
 70
     32
  0
VERTEX
  8
MY3DLAYER
10
20.2860347395767
20
9.81505378910691
30
-6.38378239159465e-016
 70
     32
  0
VERTEX
  8
MY3DLAYER
10
20.2706110707025
20
9.78619813421641
30
-1.52655665885959e-015
 70
     32
  0
VERTEX
  8
MY3DLAYER
10
20.2533331749616
20
9.75841301770661
30
-1.52655665885959e-015
 70
     32
  0
VERTEX
  8
MY3DLAYER
10
20.2342750389559
20
9.73181741971205
30
-6.38378239159465e-016
 70
     32
  0
VERTEX
  8
MY3DLAYER
10
20.2135182725498
20
9.70652522666638
30
-1.52655665885959e-015
 70
     32
  0
VERTEX
  8
MY3DLAYER
10
20.1911517594036
20
9.68264474362314
30
-6.38378239159465e-016
 70
     32
  0
VERTEX
  8
MY3DLAYER
10
20.1672712763603
20
9.66027823047692
30
-1.52655665885959e-015
 70
     32
  0
VERTEX
  8
MY3DLAYER
10
20.1419790833147
20
9.63952146407079
30
-6.38378239159465e-016
 70
     32
  0
VERTEX
  8
MY3DLAYER
10
20.1153834853201
20
9.62046332806514
30
-1.52655665885959e-015
 70
     32
  0
VERTEX
  8
MY3DLAYER
10
20.0875983688103
20
9.60318543232419
30
-6.38378239159465e-016
 70
     32
  0
VERTEX
  8
MY3DLAYER
10
20.0587427139198
20
9.58776176345007
30
-1.08246744900953e-015
 70
     32
  0
VERTEX
  8
MY3DLAYER
10
20.0289400849929
20
9.57425836796077
30
-1.08246744900953e-015
 70
     32
  0
VERTEX
  8
MY3DLAYER
10
19.9983181014619
20
9.56273306946886
30
-1.08246744900953e-015
 70
     32
  0
VERTEX
  8
MY3DLAYER
10
19.9670078913616
20
9.55323522107188
30
-1.52655665885959e-015
 70
     32
  0
VERTEX
  8
MY3DLAYER
10
19.9351435298184
20
9.5458054940148
30
-1.52655665885959e-015
 70
     32
  0
VERTEX
  8
MY3DLAYER
10
19.9028614649203
20
9.54047570352951
30
-1.52655665885959e-015
 70
     32
  0
SEQEND
 0
ENDSEC
 0
EOF
