 0
SECTION
 2
ENTITIES
  0
POLYLINE
 8
GROUP0
 66
     1
70
    8
 10
0.0
 20
 0.0
 30
0.0
  0
VERTEX
  8
MY3DLAYER
10
32.75
20
7.17978635400169
30
-1.77635683940025e-015
 70
     32
  0
VERTEX
  8
MY3DLAYER
10
28.0
20
7.17978635400169
30
-1.77635683940025e-015
 70
     32
  0
VERTEX
  8
MY3DLAYER
10
28.0
20
6.61776135400168
30
-7.105427357601e-015
 70
     32
  0
VERTEX
  8
MY3DLAYER
10
27.875
20
6.61776135400168
30
-7.105427357601e-015
 70
     32
  0
VERTEX
  8
MY3DLAYER
10
27.875
20
7.17978635400169
30
-1.77635683940025e-015
 70
     32
  0
VERTEX
  8
MY3DLAYER
10
23.125
20
7.17978635400169
30
-1.77635683940025e-015
 70
     32
  0
VERTEX
  8
MY3DLAYER
10
23.125
20
6.61728635400167
30
-1.06581410364015e-014
 70
     32
  0
VERTEX
  8
MY3DLAYER
10
23.0
20
6.61728635400167
30
-1.06581410364015e-014
 70
     32
  0
VERTEX
  8
MY3DLAYER
10
23.0
20
7.17978635400169
30
-1.77635683940025e-015
 70
     32
  0
VERTEX
  8
MY3DLAYER
10
18.25
20
7.17978635400169
30
-1.77635683940025e-015
 70
     32
  0
VERTEX
  8
MY3DLAYER
10
18.25
20
6.61734635400167
30
-1.24344978758018e-014
 70
     32
  0
VERTEX
  8
MY3DLAYER
10
18.125
20
6.61734635400167
30
-1.24344978758018e-014
 70
     32
  0
VERTEX
  8
MY3DLAYER
10
18.125
20
7.17978635400169
30
-1.77635683940025e-015
 70
     32
  0
VERTEX
  8
MY3DLAYER
10
18.0
20
7.17978635400169
30
-1.77635683940025e-015
 70
     32
  0
VERTEX
  8
MY3DLAYER
10
18.0
20
5.1797863540017
30
0.0
 70
     32
  0
VERTEX
  8
MY3DLAYER
10
18.125
20
5.1797863540017
30
0.0
 70
     32
  0
VERTEX
  8
MY3DLAYER
10
18.125
20
5.7422863540017
30
3.5527136788005e-015
 70
     32
  0
VERTEX
  8
MY3DLAYER
10
18.25
20
5.7422863540017
30
3.5527136788005e-015
 70
     32
  0
VERTEX
  8
MY3DLAYER
10
18.25
20
5.1797863540017
30
0.0
 70
     32
  0
VERTEX
  8
MY3DLAYER
10
23.0
20
5.1797863540017
30
0.0
 70
     32
  0
VERTEX
  8
MY3DLAYER
10
23.0
20
5.7422863540017
30
3.5527136788005e-015
 70
     32
  0
VERTEX
  8
MY3DLAYER
10
23.125
20
5.7422863540017
30
3.5527136788005e-015
 70
     32
  0
VERTEX
  8
MY3DLAYER
10
23.125
20
5.1797863540017
30
0.0
 70
     32
  0
VERTEX
  8
MY3DLAYER
10
27.875
20
5.1797863540017
30
0.0
 70
     32
  0
VERTEX
  8
MY3DLAYER
10
27.875
20
5.7422863540017
30
3.5527136788005e-015
 70
     32
  0
VERTEX
  8
MY3DLAYER
10
28.0
20
5.7422863540017
30
3.5527136788005e-015
 70
     32
  0
VERTEX
  8
MY3DLAYER
10
28.0
20
5.1797863540017
30
0.0
 70
     32
  0
VERTEX
  8
MY3DLAYER
10
32.75
20
5.1797863540017
30
0.0
 70
     32
  0
VERTEX
  8
MY3DLAYER
10
32.75
20
5.7422863540017
30
3.5527136788005e-015
 70
     32
  0
VERTEX
  8
MY3DLAYER
10
32.875
20
5.7422863540017
30
3.5527136788005e-015
 70
     32
  0
VERTEX
  8
MY3DLAYER
10
32.875
20
5.1797863540017
30
0.0
 70
     32
  0
VERTEX
  8
MY3DLAYER
10
33.0
20
5.1797863540017
30
0.0
 70
     32
  0
VERTEX
  8
MY3DLAYER
10
33.0
20
7.17978635400169
30
-1.77635683940025e-015
 70
     32
  0
VERTEX
  8
MY3DLAYER
10
32.875
20
7.17978635400169
30
-1.77635683940025e-015
 70
     32
  0
VERTEX
  8
MY3DLAYER
10
32.875
20
6.61728635400167
30
-1.06581410364015e-014
 70
     32
  0
VERTEX
  8
MY3DLAYER
10
32.75
20
6.61728635400167
30
-1.06581410364015e-014
 70
     32
  0
VERTEX
  8
MY3DLAYER
10
32.75
20
7.17978635400169
30
-1.77635683940025e-015
 70
     32
  0
SEQEND
 0
ENDSEC
 0
EOF
