 0
SECTION
 2
ENTITIES
  0
3DFACE
 8
GROUP0
10
4.99999999999839
20
20.0000000000001
30
5.00000000001229
11
5.00000000000286
21
54.0000000000001
31
25.0000036396209
12
5.00000000000286
22
20.0000000000001
32
25.000003639621
13
5.00000000000286
23
20.0000000000001
33
25.000003639621
70
1
  0
3DFACE
 8
GROUP0
10
5.00000000000286
20
54.0000000000001
30
25.0000036396209
11
4.99999999999839
21
20.0000000000001
31
5.00000000001229
12
4.99999999999839
22
54.0000000000001
32
5.00000000001229
13
4.99999999999839
23
54.0000000000001
33
5.00000000001229
70
1
  0
3DFACE
 8
GROUP0
10
114.000000000003
20
54.0000000000001
30
25.0000036395966
11
113.999999999998
21
20.0000000000001
31
4.99999999998795
12
114.000000000003
22
20.0000000000001
32
25.0000036395966
13
114.000000000003
23
20.0000000000001
33
25.0000036395966
70
1
  0
3DFACE
 8
GROUP0
10
113.999999999998
20
20.0000000000001
30
4.99999999998795
11
114.000000000003
21
54.0000000000001
31
25.0000036395966
12
113.999999999998
22
54.0000000000001
32
4.99999999998795
13
113.999999999998
23
54.0000000000001
33
4.99999999998795
70
1
  0
3DFACE
 8
GROUP0
10
118.999999999997
20
74.0000000000001
30
-1.32002631048067e-011
11
119.000000000003
21
0.0
31
25.0000036395955
12
118.999999999997
22
0.0
32
-1.31551436410859e-011
13
118.999999999997
23
0.0
33
-1.31551436410859e-011
70
1
  0
3DFACE
 8
GROUP0
10
119.000000000003
20
0.0
30
25.0000036395955
11
118.999999999997
21
74.0000000000001
31
-1.32002631048067e-011
12
119.000000000003
22
74.0000000000001
32
25.0000036395955
13
119.000000000003
23
74.0000000000001
33
25.0000036395955
70
1
  0
3DFACE
 8
GROUP0
10
-2.75228728696675e-012
20
0.0
30
1.34089406245153e-011
11
119.000000000003
21
0.0
31
25.0000036395955
12
2.8199664825479e-012
22
0.0
32
25.0000036396221
13
2.8199664825479e-012
23
0.0
33
25.0000036396221
70
1
  0
3DFACE
 8
GROUP0
10
119.000000000003
20
0.0
30
25.0000036395955
11
-2.75228728696675e-012
21
0.0
31
1.34089406245153e-011
12
118.999999999997
22
0.0
32
-1.31551436410859e-011
13
118.999999999997
23
0.0
33
-1.31551436410859e-011
70
1
  0
3DFACE
 8
GROUP0
10
2.8199664825479e-012
20
74.0000000000002
30
25.0000036396221
11
-2.75228728696675e-012
21
0.0
31
1.34089406245153e-011
12
2.8199664825479e-012
22
0.0
32
25.0000036396221
13
2.8199664825479e-012
23
0.0
33
25.0000036396221
70
1
  0
3DFACE
 8
GROUP0
10
-2.75228728696675e-012
20
0.0
30
1.34089406245153e-011
11
2.8199664825479e-012
21
74.0000000000002
31
25.0000036396221
12
-2.75228728696675e-012
22
74.0000000000001
32
1.33638211607945e-011
13
-2.75228728696675e-012
23
74.0000000000001
33
1.33638211607945e-011
70
1
  0
3DFACE
 8
GROUP0
10
113.999999999998
20
54.0000000000001
30
4.99999999998795
11
4.99999999999839
21
20.0000000000001
31
5.00000000001229
12
113.999999999998
22
20.0000000000001
32
4.99999999998795
13
113.999999999998
23
20.0000000000001
33
4.99999999998795
70
1
  0
3DFACE
 8
GROUP0
10
4.99999999999839
20
20.0000000000001
30
5.00000000001229
11
113.999999999998
21
54.0000000000001
31
4.99999999998795
12
4.99999999999839
22
54.0000000000001
32
5.00000000001229
13
4.99999999999839
23
54.0000000000001
33
5.00000000001229
70
1
  0
3DFACE
 8
GROUP0
10
118.999999999997
20
74.0000000000001
30
-1.32002631048067e-011
11
2.8199664825479e-012
21
74.0000000000002
31
25.0000036396221
12
119.000000000003
22
74.0000000000001
32
25.0000036395955
13
119.000000000003
23
74.0000000000001
33
25.0000036395955
70
1
  0
3DFACE
 8
GROUP0
10
2.8199664825479e-012
20
74.0000000000002
30
25.0000036396221
11
118.999999999997
21
74.0000000000001
31
-1.32002631048067e-011
12
-2.75228728696675e-012
22
74.0000000000001
32
1.33638211607945e-011
13
-2.75228728696675e-012
23
74.0000000000001
33
1.33638211607945e-011
70
1
  0
3DFACE
 8
GROUP0
10
5.00000000000286
20
54.0000000000001
30
25.0000036396209
11
30.0000000000017
21
54.0000000000001
31
20.0000036396154
12
30.0000000000028
22
54.0000000000001
32
25.0000036396154
13
30.0000000000028
23
54.0000000000001
33
25.0000036396154
70
1
  0
3DFACE
 8
GROUP0
10
30.0000000000017
20
54.0000000000001
30
20.0000036396154
11
5.00000000000286
21
54.0000000000001
31
25.0000036396209
12
4.99999999999839
22
54.0000000000001
32
5.00000000001229
13
4.99999999999839
23
54.0000000000001
33
5.00000000001229
70
13
  0
3DFACE
 8
GROUP0
10
30.0000000000017
20
54.0000000000001
30
20.0000036396154
11
4.99999999999839
21
54.0000000000001
31
5.00000000001229
12
89.0000000000015
22
54.0000000000001
32
20.0000036396022
13
89.0000000000015
23
54.0000000000001
33
20.0000036396022
70
3
  0
3DFACE
 8
GROUP0
10
89.0000000000015
20
54.0000000000001
30
20.0000036396022
11
114.000000000003
21
54.0000000000001
31
25.0000036395966
12
89.0000000000027
22
54.0000000000001
32
25.0000036396022
13
89.0000000000027
23
54.0000000000001
33
25.0000036396022
70
1
  0
3DFACE
 8
GROUP0
10
114.000000000003
20
54.0000000000001
30
25.0000036395966
11
89.0000000000015
21
54.0000000000001
31
20.0000036396022
12
113.999999999998
22
54.0000000000001
32
4.99999999998795
13
113.999999999998
23
54.0000000000001
33
4.99999999998795
70
3
  0
3DFACE
 8
GROUP0
10
113.999999999998
20
54.0000000000001
30
4.99999999998795
11
89.0000000000015
21
54.0000000000001
31
20.0000036396022
12
4.99999999999839
22
54.0000000000001
32
5.00000000001229
13
4.99999999999839
23
54.0000000000001
33
5.00000000001229
70
3
  0
3DFACE
 8
GROUP0
10
113.999999999998
20
20.0000000000001
30
4.99999999998795
11
5.00000000000286
21
20.0000000000001
31
25.000003639621
12
114.000000000003
22
20.0000000000001
32
25.0000036395966
13
114.000000000003
23
20.0000000000001
33
25.0000036395966
70
1
  0
3DFACE
 8
GROUP0
10
5.00000000000286
20
20.0000000000001
30
25.000003639621
11
113.999999999998
21
20.0000000000001
31
4.99999999998795
12
4.99999999999839
22
20.0000000000001
32
5.00000000001229
13
4.99999999999839
23
20.0000000000001
33
5.00000000001229
70
1
  0
3DFACE
 8
GROUP0
10
12.165063509464
20
65.25
30
25.0000036396194
11
12.41481456572
21
64.6470476127563
31
1.05946140749325e-011
12
12.4148145657255
22
64.6470476127563
32
25.0000036396193
13
12.4148145657255
23
64.6470476127563
33
25.0000036396193
70
1
  0
3DFACE
 8
GROUP0
10
12.41481456572
20
64.6470476127563
30
1.05946140749325e-011
11
12.165063509464
21
65.25
31
25.0000036396194
12
12.1650635094584
22
65.25
32
1.06481934381009e-011
13
12.1650635094584
23
65.25
33
1.06481934381009e-011
70
1
  0
3DFACE
 8
GROUP0
10
12.4148145657255
20
64.6470476127563
30
25.0000036396193
11
12.4999999999973
21
64.0
31
1.05748743095546e-011
12
12.5000000000029
22
64.0
32
25.0000036396193
13
12.5000000000029
23
64.0
33
25.0000036396193
70
1
  0
3DFACE
 8
GROUP0
10
12.4999999999973
20
64.0
30
1.05748743095546e-011
11
12.4148145657255
21
64.6470476127563
31
25.0000036396193
12
12.41481456572
22
64.6470476127563
32
1.05946140749325e-011
13
12.41481456572
23
64.6470476127563
33
1.05946140749325e-011
70
1
  0
3DFACE
 8
GROUP0
10
12.5000000000029
20
64.0
30
25.0000036396193
11
12.41481456572
21
63.3529523872437
31
1.05946140749325e-011
12
12.4148145657255
22
63.3529523872437
32
25.0000036396193
13
12.4148145657255
23
63.3529523872437
33
25.0000036396193
70
1
  0
3DFACE
 8
GROUP0
10
12.41481456572
20
63.3529523872437
30
1.05946140749325e-011
11
12.5000000000029
21
64.0
31
25.0000036396193
12
12.4999999999973
22
64.0
32
1.05748743095546e-011
13
12.4999999999973
23
64.0
33
1.05748743095546e-011
70
1
  0
3DFACE
 8
GROUP0
10
12.4148145657255
20
63.3529523872437
30
25.0000036396193
11
12.1650635094584
21
62.75
31
1.06481934381009e-011
12
12.165063509464
22
62.75
32
25.0000036396194
13
12.165063509464
23
62.75
33
25.0000036396194
70
1
  0
3DFACE
 8
GROUP0
10
12.1650635094584
20
62.75
30
1.06481934381009e-011
11
12.4148145657255
21
63.3529523872437
31
25.0000036396193
12
12.41481456572
22
63.3529523872437
32
1.05946140749325e-011
13
12.41481456572
23
63.3529523872437
33
1.05946140749325e-011
70
1
  0
3DFACE
 8
GROUP0
10
12.165063509464
20
62.75
30
25.0000036396194
11
11.7677669529636
21
62.2322330470337
31
1.07384323655424e-011
12
11.7677669529692
22
62.2322330470337
32
25.0000036396194
13
11.7677669529692
23
62.2322330470337
33
25.0000036396194
70
1
  0
3DFACE
 8
GROUP0
10
11.7677669529636
20
62.2322330470337
30
1.07384323655424e-011
11
12.165063509464
21
62.75
31
25.0000036396194
12
12.1650635094584
22
62.75
32
1.06481934381009e-011
13
12.1650635094584
23
62.75
33
1.06481934381009e-011
70
1
  0
3DFACE
 8
GROUP0
10
11.7677669529636
20
62.2322330470337
30
1.07384323655424e-011
11
11.2500000000028
21
61.8349364905389
31
25.0000036396196
12
11.7677669529692
22
62.2322330470337
32
25.0000036396194
13
11.7677669529692
23
62.2322330470337
33
25.0000036396194
70
1
  0
3DFACE
 8
GROUP0
10
11.2500000000028
20
61.8349364905389
30
25.0000036396196
11
11.7677669529636
21
62.2322330470337
31
1.07384323655424e-011
12
11.2499999999972
22
61.8349364905389
32
1.08540509913269e-011
13
11.2499999999972
23
61.8349364905389
33
1.08540509913269e-011
70
1
  0
3DFACE
 8
GROUP0
10
11.2499999999972
20
61.8349364905389
30
1.08540509913269e-011
11
10.6470476127591
21
61.5851854342773
31
25.0000036396197
12
11.2500000000028
22
61.8349364905389
32
25.0000036396196
13
11.2500000000028
23
61.8349364905389
33
25.0000036396196
70
1
  0
3DFACE
 8
GROUP0
10
10.6470476127591
20
61.5851854342773
30
25.0000036396197
11
11.2499999999972
21
61.8349364905389
31
1.08540509913269e-011
12
10.6470476127536
22
61.5851854342773
32
1.09894093824892e-011
13
10.6470476127536
23
61.5851854342773
33
1.09894093824892e-011
70
1
  0
3DFACE
 8
GROUP0
10
10.6470476127536
20
61.5851854342773
30
1.09894093824892e-011
11
10.0000000000028
21
61.5
31
25.0000036396198
12
10.6470476127591
22
61.5851854342773
32
25.0000036396197
13
10.6470476127591
23
61.5851854342773
33
25.0000036396197
70
1
  0
3DFACE
 8
GROUP0
10
10.0000000000028
20
61.5
30
25.0000036396198
11
10.6470476127536
21
61.5851854342773
31
1.09894093824892e-011
12
9.99999999999723
22
61.5
32
1.11332276730991e-011
13
9.99999999999723
23
61.5
33
1.11332276730991e-011
70
1
  0
3DFACE
 8
GROUP0
10
9.99999999999723
20
61.5
30
1.11332276730991e-011
11
9.35295238724656
21
61.5851854342773
31
25.00000363962
12
10.0000000000028
22
61.5
32
25.0000036396198
13
10.0000000000028
23
61.5
33
25.0000036396198
70
1
  0
3DFACE
 8
GROUP0
10
9.35295238724656
20
61.5851854342773
30
25.00000363962
11
9.99999999999723
21
61.5
31
1.11332276730991e-011
12
9.35295238724098
22
61.5851854342773
32
1.1277045963709e-011
13
9.35295238724098
23
61.5851854342773
33
1.1277045963709e-011
70
1
  0
3DFACE
 8
GROUP0
10
9.35295238724098
20
61.5851854342773
30
1.1277045963709e-011
11
8.75000000000282
21
61.8349364905389
31
25.0000036396201
12
9.35295238724656
22
61.5851854342773
32
25.00000363962
13
9.35295238724656
23
61.5851854342773
33
25.00000363962
70
1
  0
3DFACE
 8
GROUP0
10
8.75000000000282
20
61.8349364905389
30
25.0000036396201
11
9.35295238724098
21
61.5851854342773
31
1.1277045963709e-011
12
8.74999999999724
22
61.8349364905389
32
1.14124043548713e-011
13
8.74999999999724
23
61.8349364905389
33
1.14124043548713e-011
70
1
  0
3DFACE
 8
GROUP0
10
8.74999999999724
20
61.8349364905389
30
1.14124043548713e-011
11
8.2322330470365
21
62.2322330470337
31
25.0000036396202
12
8.75000000000282
22
61.8349364905389
32
25.0000036396201
13
8.75000000000282
23
61.8349364905389
33
25.0000036396201
70
1
  0
3DFACE
 8
GROUP0
10
8.2322330470365
20
62.2322330470337
30
25.0000036396202
11
8.74999999999724
21
61.8349364905389
31
1.14124043548713e-011
12
8.23223304703092
22
62.2322330470337
32
1.15280229806558e-011
13
8.23223304703092
23
62.2322330470337
33
1.15280229806558e-011
70
1
  0
3DFACE
 8
GROUP0
10
7.83493649053617
20
62.75
30
1.16154419416148e-011
11
8.2322330470365
21
62.2322330470337
31
25.0000036396202
12
8.23223304703092
22
62.2322330470337
32
1.15280229806558e-011
13
8.23223304703092
23
62.2322330470337
33
1.15280229806558e-011
70
1
  0
3DFACE
 8
GROUP0
10
8.2322330470365
20
62.2322330470337
30
25.0000036396202
11
7.83493649053617
21
62.75
31
1.16154419416148e-011
12
7.83493649054174
22
62.75
32
25.0000036396203
13
7.83493649054174
23
62.75
33
25.0000036396203
70
1
  0
3DFACE
 8
GROUP0
10
7.58518543427459
20
63.3529523872437
30
1.16718412712657e-011
11
7.83493649054174
21
62.75
31
25.0000036396203
12
7.83493649053617
22
62.75
32
1.16154419416148e-011
13
7.83493649053617
23
62.75
33
1.16154419416148e-011
70
1
  0
3DFACE
 8
GROUP0
10
7.83493649054174
20
62.75
30
25.0000036396203
11
7.58518543427459
21
63.3529523872437
31
1.16718412712657e-011
12
7.58518543428016
22
63.3529523872437
32
25.0000036396204
13
7.58518543428016
23
63.3529523872437
33
25.0000036396204
70
1
  0
3DFACE
 8
GROUP0
10
7.49999999999726
20
64.0
30
1.16915810366436e-011
11
7.58518543428016
21
63.3529523872437
31
25.0000036396204
12
7.58518543427459
22
63.3529523872437
32
1.16718412712657e-011
13
7.58518543427459
23
63.3529523872437
33
1.16718412712657e-011
70
1
  0
3DFACE
 8
GROUP0
10
7.58518543428016
20
63.3529523872437
30
25.0000036396204
11
7.49999999999726
21
64.0
31
1.16915810366436e-011
12
7.50000000000283
22
64.0
32
25.0000036396204
13
7.50000000000283
23
64.0
33
25.0000036396204
70
1
  0
3DFACE
 8
GROUP0
10
7.58518543427459
20
64.6470476127563
30
1.16718412712657e-011
11
7.50000000000283
21
64.0
31
25.0000036396204
12
7.49999999999726
22
64.0
32
1.16915810366436e-011
13
7.49999999999726
23
64.0
33
1.16915810366436e-011
70
1
  0
3DFACE
 8
GROUP0
10
7.50000000000283
20
64.0
30
25.0000036396204
11
7.58518543427459
21
64.6470476127563
31
1.16718412712657e-011
12
7.58518543428016
22
64.6470476127563
32
25.0000036396204
13
7.58518543428016
23
64.6470476127563
33
25.0000036396204
70
1
  0
3DFACE
 8
GROUP0
10
7.83493649053617
20
65.25
30
1.16154419416148e-011
11
7.58518543428016
21
64.6470476127563
31
25.0000036396204
12
7.58518543427459
22
64.6470476127563
32
1.16718412712657e-011
13
7.58518543427459
23
64.6470476127563
33
1.16718412712657e-011
70
1
  0
3DFACE
 8
GROUP0
10
7.58518543428016
20
64.6470476127563
30
25.0000036396204
11
7.83493649053617
21
65.25
31
1.16154419416148e-011
12
7.83493649054174
22
65.25
32
25.0000036396203
13
7.83493649054174
23
65.25
33
25.0000036396203
70
1
  0
3DFACE
 8
GROUP0
10
8.23223304703092
20
65.7677669529664
30
1.15280229806558e-011
11
7.83493649054174
21
65.25
31
25.0000036396203
12
7.83493649053617
22
65.25
32
1.16154419416148e-011
13
7.83493649053617
23
65.25
33
1.16154419416148e-011
70
1
  0
3DFACE
 8
GROUP0
10
7.83493649054174
20
65.25
30
25.0000036396203
11
8.23223304703092
21
65.7677669529664
31
1.15280229806558e-011
12
8.2322330470365
22
65.7677669529664
32
25.0000036396202
13
8.2322330470365
23
65.7677669529664
33
25.0000036396202
70
1
  0
3DFACE
 8
GROUP0
10
8.23223304703092
20
65.7677669529664
30
1.15280229806558e-011
11
8.75000000000282
21
66.1650635094611
31
25.0000036396201
12
8.2322330470365
22
65.7677669529664
32
25.0000036396202
13
8.2322330470365
23
65.7677669529664
33
25.0000036396202
70
1
  0
3DFACE
 8
GROUP0
10
8.75000000000282
20
66.1650635094611
30
25.0000036396201
11
8.23223304703092
21
65.7677669529664
31
1.15280229806558e-011
12
8.74999999999724
22
66.1650635094611
32
1.14124043548713e-011
13
8.74999999999724
23
66.1650635094611
33
1.14124043548713e-011
70
1
  0
3DFACE
 8
GROUP0
10
8.74999999999724
20
66.1650635094611
30
1.14124043548713e-011
11
9.35295238724656
21
66.4148145657227
31
25.00000363962
12
8.75000000000282
22
66.1650635094611
32
25.0000036396201
13
8.75000000000282
23
66.1650635094611
33
25.0000036396201
70
1
  0
3DFACE
 8
GROUP0
10
9.35295238724656
20
66.4148145657227
30
25.00000363962
11
8.74999999999724
21
66.1650635094611
31
1.14124043548713e-011
12
9.35295238724098
22
66.4148145657227
32
1.1277045963709e-011
13
9.35295238724098
23
66.4148145657227
33
1.1277045963709e-011
70
1
  0
3DFACE
 8
GROUP0
10
9.35295238724098
20
66.4148145657227
30
1.1277045963709e-011
11
10.0000000000028
21
66.5
31
25.0000036396198
12
9.35295238724656
22
66.4148145657227
32
25.00000363962
13
9.35295238724656
23
66.4148145657227
33
25.00000363962
70
1
  0
3DFACE
 8
GROUP0
10
10.0000000000028
20
66.5
30
25.0000036396198
11
9.35295238724098
21
66.4148145657227
31
1.1277045963709e-011
12
9.99999999999723
22
66.5
32
1.11332276730991e-011
13
9.99999999999723
23
66.5
33
1.11332276730991e-011
70
1
  0
3DFACE
 8
GROUP0
10
9.99999999999723
20
66.5
30
1.11332276730991e-011
11
10.6470476127591
21
66.4148145657227
31
25.0000036396197
12
10.0000000000028
22
66.5
32
25.0000036396198
13
10.0000000000028
23
66.5
33
25.0000036396198
70
1
  0
3DFACE
 8
GROUP0
10
10.6470476127591
20
66.4148145657227
30
25.0000036396197
11
9.99999999999723
21
66.5
31
1.11332276730991e-011
12
10.6470476127536
22
66.4148145657227
32
1.09894093824892e-011
13
10.6470476127536
23
66.4148145657227
33
1.09894093824892e-011
70
1
  0
3DFACE
 8
GROUP0
10
10.6470476127536
20
66.4148145657227
30
1.09894093824892e-011
11
11.2500000000029
21
66.1650635094611
31
25.0000036396196
12
10.6470476127591
22
66.4148145657227
32
25.0000036396197
13
10.6470476127591
23
66.4148145657227
33
25.0000036396197
70
1
  0
3DFACE
 8
GROUP0
10
11.2500000000029
20
66.1650635094611
30
25.0000036396196
11
10.6470476127536
21
66.4148145657227
31
1.09894093824892e-011
12
11.2499999999973
22
66.1650635094611
32
1.08540509913269e-011
13
11.2499999999973
23
66.1650635094611
33
1.08540509913269e-011
70
1
  0
3DFACE
 8
GROUP0
10
11.2499999999973
20
66.1650635094611
30
1.08540509913269e-011
11
11.7677669529692
21
65.7677669529664
31
25.0000036396194
12
11.2500000000029
22
66.1650635094611
32
25.0000036396196
13
11.2500000000029
23
66.1650635094611
33
25.0000036396196
70
1
  0
3DFACE
 8
GROUP0
10
11.7677669529692
20
65.7677669529664
30
25.0000036396194
11
11.2499999999973
21
66.1650635094611
31
1.08540509913269e-011
12
11.7677669529636
22
65.7677669529664
32
1.07384323655424e-011
13
11.7677669529636
23
65.7677669529664
33
1.07384323655424e-011
70
1
  0
3DFACE
 8
GROUP0
10
11.7677669529692
20
65.7677669529664
30
25.0000036396194
11
12.1650635094584
21
65.25
31
1.06481934381009e-011
12
12.165063509464
22
65.25
32
25.0000036396194
13
12.165063509464
23
65.25
33
25.0000036396194
70
1
  0
3DFACE
 8
GROUP0
10
12.1650635094584
20
65.25
30
1.06481934381009e-011
11
11.7677669529692
21
65.7677669529664
31
25.0000036396194
12
11.7677669529636
22
65.7677669529664
32
1.07384323655424e-011
13
11.7677669529636
23
65.7677669529664
33
1.07384323655424e-011
70
1
  0
3DFACE
 8
GROUP0
10
106.499999999997
20
64.0
30
-1.04084962870843e-011
11
106.58518543428
21
63.3529523872437
31
25.0000036395983
12
106.585185434275
22
63.3529523872437
32
-1.04282360524621e-011
13
106.585185434275
23
63.3529523872437
33
-1.04282360524621e-011
70
1
  0
3DFACE
 8
GROUP0
10
106.58518543428
20
63.3529523872437
30
25.0000036395983
11
106.499999999997
21
64.0
31
-1.04084962870843e-011
12
106.500000000003
22
64.0
32
25.0000036395983
13
106.500000000003
23
64.0
33
25.0000036395983
70
1
  0
3DFACE
 8
GROUP0
10
106.585185434275
20
64.6470476127563
30
-1.04282360524621e-011
11
106.500000000003
21
64.0
31
25.0000036395983
12
106.499999999997
22
64.0
32
-1.04084962870843e-011
13
106.499999999997
23
64.0
33
-1.04084962870843e-011
70
1
  0
3DFACE
 8
GROUP0
10
106.500000000003
20
64.0
30
25.0000036395983
11
106.585185434275
21
64.6470476127563
31
-1.04282360524621e-011
12
106.58518543428
22
64.6470476127563
32
25.0000036395983
13
106.58518543428
23
64.6470476127563
33
25.0000036395983
70
1
  0
3DFACE
 8
GROUP0
10
106.834936490536
20
65.25
30
-1.04846353821131e-011
11
106.58518543428
21
64.6470476127563
31
25.0000036395983
12
106.585185434275
22
64.6470476127563
32
-1.04282360524621e-011
13
106.585185434275
23
64.6470476127563
33
-1.04282360524621e-011
70
1
  0
3DFACE
 8
GROUP0
10
106.58518543428
20
64.6470476127563
30
25.0000036395983
11
106.834936490536
21
65.25
31
-1.04846353821131e-011
12
106.834936490542
22
65.25
32
25.0000036395982
13
106.834936490542
23
65.25
33
25.0000036395982
70
1
  0
3DFACE
 8
GROUP0
10
107.232233047031
20
65.7677669529664
30
-1.05720543430721e-011
11
106.834936490542
21
65.25
31
25.0000036395982
12
106.834936490536
22
65.25
32
-1.04846353821131e-011
13
106.834936490536
23
65.25
33
-1.04846353821131e-011
70
1
  0
3DFACE
 8
GROUP0
10
106.834936490542
20
65.25
30
25.0000036395982
11
107.232233047031
21
65.7677669529664
31
-1.05720543430721e-011
12
107.232233047036
22
65.7677669529664
32
25.0000036395981
13
107.232233047036
23
65.7677669529664
33
25.0000036395981
70
1
  0
3DFACE
 8
GROUP0
10
107.232233047031
20
65.7677669529664
30
-1.05720543430721e-011
11
107.750000000003
21
66.1650635094611
31
25.000003639598
12
107.232233047036
22
65.7677669529664
32
25.0000036395981
13
107.232233047036
23
65.7677669529664
33
25.0000036395981
70
1
  0
3DFACE
 8
GROUP0
10
107.750000000003
20
66.1650635094611
30
25.000003639598
11
107.232233047031
21
65.7677669529664
31
-1.05720543430721e-011
12
107.749999999997
22
66.1650635094611
32
-1.06876729688565e-011
13
107.749999999997
23
66.1650635094611
33
-1.06876729688565e-011
70
1
  0
3DFACE
 8
GROUP0
10
107.749999999997
20
66.1650635094611
30
-1.06876729688565e-011
11
108.352952387246
21
66.4148145657227
31
25.0000036395979
12
107.750000000003
22
66.1650635094611
32
25.000003639598
13
107.750000000003
23
66.1650635094611
33
25.000003639598
70
1
  0
3DFACE
 8
GROUP0
10
108.352952387246
20
66.4148145657227
30
25.0000036395979
11
107.749999999997
21
66.1650635094611
31
-1.06876729688565e-011
12
108.352952387241
22
66.4148145657227
32
-1.08230313600188e-011
13
108.352952387241
23
66.4148145657227
33
-1.08230313600188e-011
70
1
  0
3DFACE
 8
GROUP0
10
108.352952387241
20
66.4148145657227
30
-1.08230313600188e-011
11
109.000000000003
21
66.5
31
25.0000036395977
12
108.352952387246
22
66.4148145657227
32
25.0000036395979
13
108.352952387246
23
66.4148145657227
33
25.0000036395979
70
1
  0
3DFACE
 8
GROUP0
10
109.000000000003
20
66.5
30
25.0000036395977
11
108.352952387241
21
66.4148145657227
31
-1.08230313600188e-011
12
108.999999999997
22
66.5
32
-1.09668496506288e-011
13
108.999999999997
23
66.5
33
-1.09668496506288e-011
70
1
  0
3DFACE
 8
GROUP0
10
108.999999999997
20
66.5
30
-1.09668496506288e-011
11
109.647047612759
21
66.4148145657227
31
25.0000036395976
12
109.000000000003
22
66.5
32
25.0000036395977
13
109.000000000003
23
66.5
33
25.0000036395977
70
1
  0
3DFACE
 8
GROUP0
10
109.647047612759
20
66.4148145657227
30
25.0000036395976
11
108.999999999997
21
66.5
31
-1.09668496506288e-011
12
109.647047612754
22
66.4148145657227
32
-1.11134879077213e-011
13
109.647047612754
23
66.4148145657227
33
-1.11134879077213e-011
70
1
  0
3DFACE
 8
GROUP0
10
109.647047612754
20
66.4148145657227
30
-1.11134879077213e-011
11
110.250000000003
21
66.1650635094611
31
25.0000036395975
12
109.647047612759
22
66.4148145657227
32
25.0000036395976
13
109.647047612759
23
66.4148145657227
33
25.0000036395976
70
1
  0
3DFACE
 8
GROUP0
10
110.250000000003
20
66.1650635094611
30
25.0000036395975
11
109.647047612754
21
66.4148145657227
31
-1.11134879077213e-011
12
110.249999999997
22
66.1650635094611
32
-1.1246026332401e-011
13
110.249999999997
23
66.1650635094611
33
-1.1246026332401e-011
70
1
  0
3DFACE
 8
GROUP0
10
110.249999999997
20
66.1650635094611
30
-1.1246026332401e-011
11
110.767766952969
21
65.7677669529664
31
25.0000036395973
12
110.250000000003
22
66.1650635094611
32
25.0000036395975
13
110.250000000003
23
66.1650635094611
33
25.0000036395975
70
1
  0
3DFACE
 8
GROUP0
10
110.767766952969
20
65.7677669529664
30
25.0000036395973
11
110.249999999997
21
66.1650635094611
31
-1.1246026332401e-011
12
110.767766952964
22
65.7677669529664
32
-1.13616449581855e-011
13
110.767766952964
23
65.7677669529664
33
-1.13616449581855e-011
70
1
  0
3DFACE
 8
GROUP0
10
110.767766952969
20
65.7677669529664
30
25.0000036395973
11
111.165063509458
21
65.25
31
-1.1451883885627e-011
12
111.165063509464
22
65.25
32
25.0000036395972
13
111.165063509464
23
65.25
33
25.0000036395972
70
1
  0
3DFACE
 8
GROUP0
10
111.165063509458
20
65.25
30
-1.1451883885627e-011
11
110.767766952969
21
65.7677669529664
31
25.0000036395973
12
110.767766952964
22
65.7677669529664
32
-1.13616449581855e-011
13
110.767766952964
23
65.7677669529664
33
-1.13616449581855e-011
70
1
  0
3DFACE
 8
GROUP0
10
111.165063509464
20
65.25
30
25.0000036395972
11
111.41481456572
21
64.6470476127563
31
-1.1508283215278e-011
12
111.414814565725
22
64.6470476127563
32
25.0000036395972
13
111.414814565725
23
64.6470476127563
33
25.0000036395972
70
1
  0
3DFACE
 8
GROUP0
10
111.41481456572
20
64.6470476127563
30
-1.1508283215278e-011
11
111.165063509464
21
65.25
31
25.0000036395972
12
111.165063509458
22
65.25
32
-1.1451883885627e-011
13
111.165063509458
23
65.25
33
-1.1451883885627e-011
70
1
  0
3DFACE
 8
GROUP0
10
111.414814565725
20
64.6470476127563
30
25.0000036395972
11
111.499999999997
21
64.0
31
-1.15252030141733e-011
12
111.500000000003
22
64.0
32
25.0000036395972
13
111.500000000003
23
64.0
33
25.0000036395972
70
1
  0
3DFACE
 8
GROUP0
10
111.499999999997
20
64.0
30
-1.15252030141733e-011
11
111.414814565725
21
64.6470476127563
31
25.0000036395972
12
111.41481456572
22
64.6470476127563
32
-1.1508283215278e-011
13
111.41481456572
23
64.6470476127563
33
-1.1508283215278e-011
70
1
  0
3DFACE
 8
GROUP0
10
111.500000000003
20
64.0
30
25.0000036395972
11
111.41481456572
21
63.3529523872437
31
-1.1508283215278e-011
12
111.414814565725
22
63.3529523872437
32
25.0000036395972
13
111.414814565725
23
63.3529523872437
33
25.0000036395972
70
1
  0
3DFACE
 8
GROUP0
10
111.41481456572
20
63.3529523872437
30
-1.1508283215278e-011
11
111.500000000003
21
64.0
31
25.0000036395972
12
111.499999999997
22
64.0
32
-1.15252030141733e-011
13
111.499999999997
23
64.0
33
-1.15252030141733e-011
70
1
  0
3DFACE
 8
GROUP0
10
111.414814565725
20
63.3529523872437
30
25.0000036395972
11
111.165063509458
21
62.75
31
-1.1451883885627e-011
12
111.165063509464
22
62.75
32
25.0000036395972
13
111.165063509464
23
62.75
33
25.0000036395972
70
1
  0
3DFACE
 8
GROUP0
10
111.165063509458
20
62.75
30
-1.1451883885627e-011
11
111.414814565725
21
63.3529523872437
31
25.0000036395972
12
111.41481456572
22
63.3529523872437
32
-1.1508283215278e-011
13
111.41481456572
23
63.3529523872437
33
-1.1508283215278e-011
70
1
  0
3DFACE
 8
GROUP0
10
111.165063509464
20
62.75
30
25.0000036395972
11
110.767766952964
21
62.2322330470336
31
-1.13616449581855e-011
12
110.767766952969
22
62.2322330470336
32
25.0000036395973
13
110.767766952969
23
62.2322330470336
33
25.0000036395973
70
1
  0
3DFACE
 8
GROUP0
10
110.767766952964
20
62.2322330470336
30
-1.13616449581855e-011
11
111.165063509464
21
62.75
31
25.0000036395972
12
111.165063509458
22
62.75
32
-1.1451883885627e-011
13
111.165063509458
23
62.75
33
-1.1451883885627e-011
70
1
  0
3DFACE
 8
GROUP0
10
110.767766952964
20
62.2322330470336
30
-1.13616449581855e-011
11
110.250000000003
21
61.8349364905389
31
25.0000036395975
12
110.767766952969
22
62.2322330470336
32
25.0000036395973
13
110.767766952969
23
62.2322330470336
33
25.0000036395973
70
1
  0
3DFACE
 8
GROUP0
10
110.250000000003
20
61.8349364905389
30
25.0000036395975
11
110.767766952964
21
62.2322330470336
31
-1.13616449581855e-011
12
110.249999999997
22
61.8349364905389
32
-1.1246026332401e-011
13
110.249999999997
23
61.8349364905389
33
-1.1246026332401e-011
70
1
  0
3DFACE
 8
GROUP0
10
110.249999999997
20
61.8349364905389
30
-1.1246026332401e-011
11
109.647047612759
21
61.5851854342773
31
25.0000036395976
12
110.250000000003
22
61.8349364905389
32
25.0000036395975
13
110.250000000003
23
61.8349364905389
33
25.0000036395975
70
1
  0
3DFACE
 8
GROUP0
10
109.647047612759
20
61.5851854342773
30
25.0000036395976
11
110.249999999997
21
61.8349364905389
31
-1.1246026332401e-011
12
109.647047612754
22
61.5851854342773
32
-1.11134879077213e-011
13
109.647047612754
23
61.5851854342773
33
-1.11134879077213e-011
70
1
  0
3DFACE
 8
GROUP0
10
109.647047612754
20
61.5851854342773
30
-1.11134879077213e-011
11
109.000000000003
21
61.5
31
25.0000036395977
12
109.647047612759
22
61.5851854342773
32
25.0000036395976
13
109.647047612759
23
61.5851854342773
33
25.0000036395976
70
1
  0
3DFACE
 8
GROUP0
10
109.000000000003
20
61.5
30
25.0000036395977
11
109.647047612754
21
61.5851854342773
31
-1.11134879077213e-011
12
108.999999999997
22
61.5
32
-1.09668496506288e-011
13
108.999999999997
23
61.5
33
-1.09668496506288e-011
70
1
  0
3DFACE
 8
GROUP0
10
108.999999999997
20
61.5
30
-1.09668496506288e-011
11
108.352952387246
21
61.5851854342773
31
25.0000036395979
12
109.000000000003
22
61.5
32
25.0000036395977
13
109.000000000003
23
61.5
33
25.0000036395977
70
1
  0
3DFACE
 8
GROUP0
10
108.352952387246
20
61.5851854342773
30
25.0000036395979
11
108.999999999997
21
61.5
31
-1.09668496506288e-011
12
108.352952387241
22
61.5851854342773
32
-1.08230313600188e-011
13
108.352952387241
23
61.5851854342773
33
-1.08230313600188e-011
70
1
  0
3DFACE
 8
GROUP0
10
108.352952387241
20
61.5851854342773
30
-1.08230313600188e-011
11
107.750000000003
21
61.8349364905389
31
25.000003639598
12
108.352952387246
22
61.5851854342773
32
25.0000036395979
13
108.352952387246
23
61.5851854342773
33
25.0000036395979
70
1
  0
3DFACE
 8
GROUP0
10
107.750000000003
20
61.8349364905389
30
25.000003639598
11
108.352952387241
21
61.5851854342773
31
-1.08230313600188e-011
12
107.749999999997
22
61.8349364905389
32
-1.06876729688565e-011
13
107.749999999997
23
61.8349364905389
33
-1.06876729688565e-011
70
1
  0
3DFACE
 8
GROUP0
10
107.749999999997
20
61.8349364905389
30
-1.06876729688565e-011
11
107.232233047036
21
62.2322330470336
31
25.0000036395981
12
107.750000000003
22
61.8349364905389
32
25.000003639598
13
107.750000000003
23
61.8349364905389
33
25.000003639598
70
1
  0
3DFACE
 8
GROUP0
10
107.232233047036
20
62.2322330470336
30
25.0000036395981
11
107.749999999997
21
61.8349364905389
31
-1.06876729688565e-011
12
107.232233047031
22
62.2322330470336
32
-1.05720543430721e-011
13
107.232233047031
23
62.2322330470336
33
-1.05720543430721e-011
70
1
  0
3DFACE
 8
GROUP0
10
106.834936490536
20
62.75
30
-1.04846353821131e-011
11
107.232233047036
21
62.2322330470336
31
25.0000036395981
12
107.232233047031
22
62.2322330470336
32
-1.05720543430721e-011
13
107.232233047031
23
62.2322330470336
33
-1.05720543430721e-011
70
1
  0
3DFACE
 8
GROUP0
10
107.232233047036
20
62.2322330470336
30
25.0000036395981
11
106.834936490536
21
62.75
31
-1.04846353821131e-011
12
106.834936490542
22
62.75
32
25.0000036395982
13
106.834936490542
23
62.75
33
25.0000036395982
70
1
  0
3DFACE
 8
GROUP0
10
106.585185434275
20
63.3529523872437
30
-1.04282360524621e-011
11
106.834936490542
21
62.75
31
25.0000036395982
12
106.834936490536
22
62.75
32
-1.04846353821131e-011
13
106.834936490536
23
62.75
33
-1.04846353821131e-011
70
1
  0
3DFACE
 8
GROUP0
10
106.834936490542
20
62.75
30
25.0000036395982
11
106.585185434275
21
63.3529523872437
31
-1.04282360524621e-011
12
106.58518543428
22
63.3529523872437
32
25.0000036395983
13
106.58518543428
23
63.3529523872437
33
25.0000036395983
70
1
  0
3DFACE
 8
GROUP0
10
110.249999999997
20
12.1650635094611
30
-1.12009068686802e-011
11
110.767766952969
21
11.7677669529664
31
25.0000036395973
12
110.250000000003
22
12.1650635094611
32
25.0000036395975
13
110.250000000003
23
12.1650635094611
33
25.0000036395975
70
1
  0
3DFACE
 8
GROUP0
10
110.767766952969
20
11.7677669529664
30
25.0000036395973
11
110.249999999997
21
12.1650635094611
31
-1.12009068686802e-011
12
110.767766952964
22
11.7677669529664
32
-1.13165254944647e-011
13
110.767766952964
23
11.7677669529664
33
-1.13165254944647e-011
70
1
  0
3DFACE
 8
GROUP0
10
110.767766952969
20
11.7677669529664
30
25.0000036395973
11
111.165063509458
21
11.25
31
-1.14067644219062e-011
12
111.165063509464
22
11.25
32
25.0000036395972
13
111.165063509464
23
11.25
33
25.0000036395972
70
1
  0
3DFACE
 8
GROUP0
10
111.165063509458
20
11.25
30
-1.14067644219062e-011
11
110.767766952969
21
11.7677669529664
31
25.0000036395973
12
110.767766952964
22
11.7677669529664
32
-1.13165254944647e-011
13
110.767766952964
23
11.7677669529664
33
-1.13165254944647e-011
70
1
  0
3DFACE
 8
GROUP0
10
111.165063509464
20
11.25
30
25.0000036395972
11
111.41481456572
21
10.6470476127563
31
-1.14631637515572e-011
12
111.414814565725
22
10.6470476127563
32
25.0000036395972
13
111.414814565725
23
10.6470476127563
33
25.0000036395972
70
1
  0
3DFACE
 8
GROUP0
10
111.41481456572
20
10.6470476127563
30
-1.14631637515572e-011
11
111.165063509464
21
11.25
31
25.0000036395972
12
111.165063509458
22
11.25
32
-1.14067644219062e-011
13
111.165063509458
23
11.25
33
-1.14067644219062e-011
70
1
  0
3DFACE
 8
GROUP0
10
111.414814565725
20
10.6470476127563
30
25.0000036395972
11
111.499999999997
21
10.0
31
-1.14800835504525e-011
12
111.500000000003
22
10.0
32
25.0000036395972
13
111.500000000003
23
10.0
33
25.0000036395972
70
1
  0
3DFACE
 8
GROUP0
10
111.499999999997
20
10.0
30
-1.14800835504525e-011
11
111.414814565725
21
10.6470476127563
31
25.0000036395972
12
111.41481456572
22
10.6470476127563
32
-1.14631637515572e-011
13
111.41481456572
23
10.6470476127563
33
-1.14631637515572e-011
70
1
  0
3DFACE
 8
GROUP0
10
111.500000000003
20
10.0
30
25.0000036395972
11
111.41481456572
21
9.35295238724371
31
-1.14631637515572e-011
12
111.414814565725
22
9.35295238724371
32
25.0000036395972
13
111.414814565725
23
9.35295238724371
33
25.0000036395972
70
1
  0
3DFACE
 8
GROUP0
10
111.41481456572
20
9.35295238724371
30
-1.14631637515572e-011
11
111.500000000003
21
10.0
31
25.0000036395972
12
111.499999999997
22
10.0
32
-1.14800835504525e-011
13
111.499999999997
23
10.0
33
-1.14800835504525e-011
70
1
  0
3DFACE
 8
GROUP0
10
111.414814565725
20
9.35295238724371
30
25.0000036395972
11
111.165063509458
21
8.75000000000001
31
-1.14067644219062e-011
12
111.165063509464
22
8.75000000000001
32
25.0000036395972
13
111.165063509464
23
8.75000000000001
33
25.0000036395972
70
1
  0
3DFACE
 8
GROUP0
10
111.165063509458
20
8.75000000000001
30
-1.14067644219062e-011
11
111.414814565725
21
9.35295238724371
31
25.0000036395972
12
111.41481456572
22
9.35295238724371
32
-1.14631637515572e-011
13
111.41481456572
23
9.35295238724371
33
-1.14631637515572e-011
70
1
  0
3DFACE
 8
GROUP0
10
111.165063509464
20
8.75000000000001
30
25.0000036395972
11
110.767766952964
21
8.23223304703364
31
-1.13165254944647e-011
12
110.767766952969
22
8.23223304703364
32
25.0000036395973
13
110.767766952969
23
8.23223304703364
33
25.0000036395973
70
1
  0
3DFACE
 8
GROUP0
10
110.767766952964
20
8.23223304703364
30
-1.13165254944647e-011
11
111.165063509464
21
8.75000000000001
31
25.0000036395972
12
111.165063509458
22
8.75000000000001
32
-1.14067644219062e-011
13
111.165063509458
23
8.75000000000001
33
-1.14067644219062e-011
70
1
  0
3DFACE
 8
GROUP0
10
110.767766952964
20
8.23223304703364
30
-1.13165254944647e-011
11
110.250000000003
21
7.83493649053891
31
25.0000036395975
12
110.767766952969
22
8.23223304703364
32
25.0000036395973
13
110.767766952969
23
8.23223304703364
33
25.0000036395973
70
1
  0
3DFACE
 8
GROUP0
10
110.250000000003
20
7.83493649053891
30
25.0000036395975
11
110.767766952964
21
8.23223304703364
31
-1.13165254944647e-011
12
110.249999999997
22
7.83493649053891
32
-1.12009068686802e-011
13
110.249999999997
23
7.83493649053891
33
-1.12009068686802e-011
70
1
  0
3DFACE
 8
GROUP0
10
110.249999999997
20
7.83493649053891
30
-1.12009068686802e-011
11
109.647047612759
21
7.58518543427734
31
25.0000036395976
12
110.250000000003
22
7.83493649053891
32
25.0000036395975
13
110.250000000003
23
7.83493649053891
33
25.0000036395975
70
1
  0
3DFACE
 8
GROUP0
10
109.647047612759
20
7.58518543427734
30
25.0000036395976
11
110.249999999997
21
7.83493649053891
31
-1.12009068686802e-011
12
109.647047612753
22
7.58518543427734
32
-1.10683684440005e-011
13
109.647047612753
23
7.58518543427734
33
-1.10683684440005e-011
70
1
  0
3DFACE
 8
GROUP0
10
109.647047612753
20
7.58518543427734
30
-1.10683684440005e-011
11
109.000000000003
21
7.50000000000001
31
25.0000036395977
12
109.647047612759
22
7.58518543427734
32
25.0000036395976
13
109.647047612759
23
7.58518543427734
33
25.0000036395976
70
1
  0
3DFACE
 8
GROUP0
10
109.000000000003
20
7.50000000000001
30
25.0000036395977
11
109.647047612753
21
7.58518543427734
31
-1.10683684440005e-011
12
108.999999999997
22
7.50000000000001
32
-1.0921730186908e-011
13
108.999999999997
23
7.50000000000001
33
-1.0921730186908e-011
70
1
  0
3DFACE
 8
GROUP0
10
108.999999999997
20
7.50000000000001
30
-1.0921730186908e-011
11
108.352952387246
21
7.58518543427734
31
25.0000036395979
12
109.000000000003
22
7.50000000000001
32
25.0000036395977
13
109.000000000003
23
7.50000000000001
33
25.0000036395977
70
1
  0
3DFACE
 8
GROUP0
10
108.352952387246
20
7.58518543427734
30
25.0000036395979
11
108.999999999997
21
7.50000000000001
31
-1.0921730186908e-011
12
108.352952387241
22
7.58518543427734
32
-1.07779118962981e-011
13
108.352952387241
23
7.58518543427734
33
-1.07779118962981e-011
70
1
  0
3DFACE
 8
GROUP0
10
108.352952387241
20
7.58518543427734
30
-1.07779118962981e-011
11
107.750000000003
21
7.83493649053891
31
25.000003639598
12
108.352952387246
22
7.58518543427734
32
25.0000036395979
13
108.352952387246
23
7.58518543427734
33
25.0000036395979
70
1
  0
3DFACE
 8
GROUP0
10
107.750000000003
20
7.83493649053891
30
25.000003639598
11
108.352952387241
21
7.58518543427734
31
-1.07779118962981e-011
12
107.749999999997
22
7.83493649053891
32
-1.06425535051358e-011
13
107.749999999997
23
7.83493649053891
33
-1.06425535051358e-011
70
1
  0
3DFACE
 8
GROUP0
10
107.749999999997
20
7.83493649053891
30
-1.06425535051358e-011
11
107.232233047036
21
8.23223304703364
31
25.0000036395981
12
107.750000000003
22
7.83493649053891
32
25.000003639598
13
107.750000000003
23
7.83493649053891
33
25.000003639598
70
1
  0
3DFACE
 8
GROUP0
10
107.232233047036
20
8.23223304703364
30
25.0000036395981
11
107.749999999997
21
7.83493649053891
31
-1.06425535051358e-011
12
107.232233047031
22
8.23223304703364
32
-1.05269348793513e-011
13
107.232233047031
23
8.23223304703364
33
-1.05269348793513e-011
70
1
  0
3DFACE
 8
GROUP0
10
106.834936490536
20
8.75000000000001
30
-1.04395159183923e-011
11
107.232233047036
21
8.23223304703364
31
25.0000036395981
12
107.232233047031
22
8.23223304703364
32
-1.05269348793513e-011
13
107.232233047031
23
8.23223304703364
33
-1.05269348793513e-011
70
1
  0
3DFACE
 8
GROUP0
10
107.232233047036
20
8.23223304703364
30
25.0000036395981
11
106.834936490536
21
8.75000000000001
31
-1.04395159183923e-011
12
106.834936490542
22
8.75000000000001
32
25.0000036395982
13
106.834936490542
23
8.75000000000001
33
25.0000036395982
70
1
  0
3DFACE
 8
GROUP0
10
106.585185434275
20
9.35295238724371
30
-1.03831165887414e-011
11
106.834936490542
21
8.75000000000001
31
25.0000036395982
12
106.834936490536
22
8.75000000000001
32
-1.04395159183923e-011
13
106.834936490536
23
8.75000000000001
33
-1.04395159183923e-011
70
1
  0
3DFACE
 8
GROUP0
10
106.834936490542
20
8.75000000000001
30
25.0000036395982
11
106.585185434275
21
9.35295238724371
31
-1.03831165887414e-011
12
106.58518543428
22
9.35295238724371
32
25.0000036395983
13
106.58518543428
23
9.35295238724371
33
25.0000036395983
70
1
  0
3DFACE
 8
GROUP0
10
106.499999999997
20
10.0
30
-1.03633768233635e-011
11
106.58518543428
21
9.35295238724371
31
25.0000036395983
12
106.585185434275
22
9.35295238724371
32
-1.03831165887414e-011
13
106.585185434275
23
9.35295238724371
33
-1.03831165887414e-011
70
1
  0
3DFACE
 8
GROUP0
10
106.58518543428
20
9.35295238724371
30
25.0000036395983
11
106.499999999997
21
10.0
31
-1.03633768233635e-011
12
106.500000000003
22
10.0
32
25.0000036395983
13
106.500000000003
23
10.0
33
25.0000036395983
70
1
  0
3DFACE
 8
GROUP0
10
106.585185434275
20
10.6470476127563
30
-1.03831165887414e-011
11
106.500000000003
21
10.0
31
25.0000036395983
12
106.499999999997
22
10.0
32
-1.03633768233635e-011
13
106.499999999997
23
10.0
33
-1.03633768233635e-011
70
1
  0
3DFACE
 8
GROUP0
10
106.500000000003
20
10.0
30
25.0000036395983
11
106.585185434275
21
10.6470476127563
31
-1.03831165887414e-011
12
106.58518543428
22
10.6470476127563
32
25.0000036395983
13
106.58518543428
23
10.6470476127563
33
25.0000036395983
70
1
  0
3DFACE
 8
GROUP0
10
106.834936490536
20
11.25
30
-1.04395159183923e-011
11
106.58518543428
21
10.6470476127563
31
25.0000036395983
12
106.585185434275
22
10.6470476127563
32
-1.03831165887414e-011
13
106.585185434275
23
10.6470476127563
33
-1.03831165887414e-011
70
1
  0
3DFACE
 8
GROUP0
10
106.58518543428
20
10.6470476127563
30
25.0000036395983
11
106.834936490536
21
11.25
31
-1.04395159183923e-011
12
106.834936490542
22
11.25
32
25.0000036395982
13
106.834936490542
23
11.25
33
25.0000036395982
70
1
  0
3DFACE
 8
GROUP0
10
107.232233047031
20
11.7677669529664
30
-1.05269348793513e-011
11
106.834936490542
21
11.25
31
25.0000036395982
12
106.834936490536
22
11.25
32
-1.04395159183923e-011
13
106.834936490536
23
11.25
33
-1.04395159183923e-011
70
1
  0
3DFACE
 8
GROUP0
10
106.834936490542
20
11.25
30
25.0000036395982
11
107.232233047031
21
11.7677669529664
31
-1.05269348793513e-011
12
107.232233047036
22
11.7677669529664
32
25.0000036395981
13
107.232233047036
23
11.7677669529664
33
25.0000036395981
70
1
  0
3DFACE
 8
GROUP0
10
107.232233047031
20
11.7677669529664
30
-1.05269348793513e-011
11
107.750000000003
21
12.1650635094611
31
25.000003639598
12
107.232233047036
22
11.7677669529664
32
25.0000036395981
13
107.232233047036
23
11.7677669529664
33
25.0000036395981
70
1
  0
3DFACE
 8
GROUP0
10
107.750000000003
20
12.1650635094611
30
25.000003639598
11
107.232233047031
21
11.7677669529664
31
-1.05269348793513e-011
12
107.749999999997
22
12.1650635094611
32
-1.06425535051358e-011
13
107.749999999997
23
12.1650635094611
33
-1.06425535051358e-011
70
1
  0
3DFACE
 8
GROUP0
10
107.749999999997
20
12.1650635094611
30
-1.06425535051358e-011
11
108.352952387246
21
12.4148145657227
31
25.0000036395979
12
107.750000000003
22
12.1650635094611
32
25.000003639598
13
107.750000000003
23
12.1650635094611
33
25.000003639598
70
1
  0
3DFACE
 8
GROUP0
10
108.352952387246
20
12.4148145657227
30
25.0000036395979
11
107.749999999997
21
12.1650635094611
31
-1.06425535051358e-011
12
108.352952387241
22
12.4148145657227
32
-1.07779118962981e-011
13
108.352952387241
23
12.4148145657227
33
-1.07779118962981e-011
70
1
  0
3DFACE
 8
GROUP0
10
108.352952387241
20
12.4148145657227
30
-1.07779118962981e-011
11
109.000000000003
21
12.5
31
25.0000036395977
12
108.352952387246
22
12.4148145657227
32
25.0000036395979
13
108.352952387246
23
12.4148145657227
33
25.0000036395979
70
1
  0
3DFACE
 8
GROUP0
10
109.000000000003
20
12.5
30
25.0000036395977
11
108.352952387241
21
12.4148145657227
31
-1.07779118962981e-011
12
108.999999999997
22
12.5
32
-1.0921730186908e-011
13
108.999999999997
23
12.5
33
-1.0921730186908e-011
70
1
  0
3DFACE
 8
GROUP0
10
108.999999999997
20
12.5
30
-1.0921730186908e-011
11
109.647047612759
21
12.4148145657227
31
25.0000036395976
12
109.000000000003
22
12.5
32
25.0000036395977
13
109.000000000003
23
12.5
33
25.0000036395977
70
1
  0
3DFACE
 8
GROUP0
10
109.647047612759
20
12.4148145657227
30
25.0000036395976
11
108.999999999997
21
12.5
31
-1.0921730186908e-011
12
109.647047612754
22
12.4148145657227
32
-1.10683684440005e-011
13
109.647047612754
23
12.4148145657227
33
-1.10683684440005e-011
70
1
  0
3DFACE
 8
GROUP0
10
109.647047612754
20
12.4148145657227
30
-1.10683684440005e-011
11
110.250000000003
21
12.1650635094611
31
25.0000036395975
12
109.647047612759
22
12.4148145657227
32
25.0000036395976
13
109.647047612759
23
12.4148145657227
33
25.0000036395976
70
1
  0
3DFACE
 8
GROUP0
10
110.250000000003
20
12.1650635094611
30
25.0000036395975
11
109.647047612754
21
12.4148145657227
31
-1.10683684440005e-011
12
110.249999999997
22
12.1650635094611
32
-1.12009068686802e-011
13
110.249999999997
23
12.1650635094611
33
-1.12009068686802e-011
70
1
  0
3DFACE
 8
GROUP0
10
11.2499999999973
20
7.83493649053891
30
1.08991704550476e-011
11
10.6470476127591
21
7.58518543427733
31
25.0000036396197
12
11.2500000000029
22
7.83493649053891
32
25.0000036396196
13
11.2500000000029
23
7.83493649053891
33
25.0000036396196
70
1
  0
3DFACE
 8
GROUP0
10
10.6470476127591
20
7.58518543427733
30
25.0000036396197
11
11.2499999999973
21
7.83493649053891
31
1.08991704550476e-011
12
10.6470476127536
22
7.58518543427733
32
1.10345288462099e-011
13
10.6470476127536
23
7.58518543427733
33
1.10345288462099e-011
70
1
  0
3DFACE
 8
GROUP0
10
10.6470476127536
20
7.58518543427733
30
1.10345288462099e-011
11
10.0000000000028
21
7.5
31
25.0000036396198
12
10.6470476127591
22
7.58518543427733
32
25.0000036396197
13
10.6470476127591
23
7.58518543427733
33
25.0000036396197
70
1
  0
3DFACE
 8
GROUP0
10
10.0000000000028
20
7.5
30
25.0000036396198
11
10.6470476127536
21
7.58518543427733
31
1.10345288462099e-011
12
9.99999999999723
22
7.5
32
1.11783471368199e-011
13
9.99999999999723
23
7.5
33
1.11783471368199e-011
70
1
  0
3DFACE
 8
GROUP0
10
9.99999999999723
20
7.5
30
1.11783471368199e-011
11
9.35295238724656
21
7.58518543427733
31
25.00000363962
12
10.0000000000028
22
7.5
32
25.0000036396198
13
10.0000000000028
23
7.5
33
25.0000036396198
70
1
  0
3DFACE
 8
GROUP0
10
9.35295238724656
20
7.58518543427733
30
25.00000363962
11
9.99999999999723
21
7.5
31
1.11783471368199e-011
12
9.35295238724098
22
7.58518543427733
32
1.13221654274298e-011
13
9.35295238724098
23
7.58518543427733
33
1.13221654274298e-011
70
1
  0
3DFACE
 8
GROUP0
10
9.35295238724098
20
7.58518543427733
30
1.13221654274298e-011
11
8.75000000000282
21
7.8349364905389
31
25.0000036396201
12
9.35295238724656
22
7.58518543427733
32
25.00000363962
13
9.35295238724656
23
7.58518543427733
33
25.00000363962
70
1
  0
3DFACE
 8
GROUP0
10
8.75000000000282
20
7.8349364905389
30
25.0000036396201
11
9.35295238724098
21
7.58518543427733
31
1.13221654274298e-011
12
8.74999999999724
22
7.8349364905389
32
1.14575238185921e-011
13
8.74999999999724
23
7.8349364905389
33
1.14575238185921e-011
70
1
  0
3DFACE
 8
GROUP0
10
8.74999999999724
20
7.8349364905389
30
1.14575238185921e-011
11
8.2322330470365
21
8.23223304703363
31
25.0000036396202
12
8.75000000000282
22
7.8349364905389
32
25.0000036396201
13
8.75000000000282
23
7.8349364905389
33
25.0000036396201
70
1
  0
3DFACE
 8
GROUP0
10
8.2322330470365
20
8.23223304703363
30
25.0000036396202
11
8.74999999999724
21
7.8349364905389
31
1.14575238185921e-011
12
8.23223304703092
22
8.23223304703363
32
1.15731424443766e-011
13
8.23223304703092
23
8.23223304703363
33
1.15731424443766e-011
70
1
  0
3DFACE
 8
GROUP0
10
7.83493649053617
20
8.75
30
1.16605614053356e-011
11
8.2322330470365
21
8.23223304703363
31
25.0000036396202
12
8.23223304703092
22
8.23223304703363
32
1.15731424443766e-011
13
8.23223304703092
23
8.23223304703363
33
1.15731424443766e-011
70
1
  0
3DFACE
 8
GROUP0
10
8.2322330470365
20
8.23223304703363
30
25.0000036396202
11
7.83493649053617
21
8.75
31
1.16605614053356e-011
12
7.83493649054174
22
8.75
32
25.0000036396203
13
7.83493649054174
23
8.75
33
25.0000036396203
70
1
  0
3DFACE
 8
GROUP0
10
7.58518543427459
20
9.3529523872437
30
1.17169607349865e-011
11
7.83493649054174
21
8.75
31
25.0000036396203
12
7.83493649053617
22
8.75
32
1.16605614053356e-011
13
7.83493649053617
23
8.75
33
1.16605614053356e-011
70
1
  0
3DFACE
 8
GROUP0
10
7.83493649054174
20
8.75
30
25.0000036396203
11
7.58518543427459
21
9.3529523872437
31
1.17169607349865e-011
12
7.58518543428016
22
9.3529523872437
32
25.0000036396204
13
7.58518543428016
23
9.3529523872437
33
25.0000036396204
70
1
  0
3DFACE
 8
GROUP0
10
7.49999999999726
20
10.0
30
1.17367005003643e-011
11
7.58518543428016
21
9.3529523872437
31
25.0000036396204
12
7.58518543427459
22
9.3529523872437
32
1.17169607349865e-011
13
7.58518543427459
23
9.3529523872437
33
1.17169607349865e-011
70
1
  0
3DFACE
 8
GROUP0
10
7.58518543428016
20
9.3529523872437
30
25.0000036396204
11
7.49999999999726
21
10.0
31
1.17367005003643e-011
12
7.50000000000283
22
10.0
32
25.0000036396204
13
7.50000000000283
23
10.0
33
25.0000036396204
70
1
  0
3DFACE
 8
GROUP0
10
7.58518543427459
20
10.6470476127563
30
1.17169607349865e-011
11
7.50000000000283
21
10.0
31
25.0000036396204
12
7.49999999999726
22
10.0
32
1.17367005003643e-011
13
7.49999999999726
23
10.0
33
1.17367005003643e-011
70
1
  0
3DFACE
 8
GROUP0
10
7.50000000000283
20
10.0
30
25.0000036396204
11
7.58518543427459
21
10.6470476127563
31
1.17169607349865e-011
12
7.58518543428016
22
10.6470476127563
32
25.0000036396204
13
7.58518543428016
23
10.6470476127563
33
25.0000036396204
70
1
  0
3DFACE
 8
GROUP0
10
7.83493649053617
20
11.25
30
1.16605614053356e-011
11
7.58518543428016
21
10.6470476127563
31
25.0000036396204
12
7.58518543427459
22
10.6470476127563
32
1.17169607349865e-011
13
7.58518543427459
23
10.6470476127563
33
1.17169607349865e-011
70
1
  0
3DFACE
 8
GROUP0
10
7.58518543428016
20
10.6470476127563
30
25.0000036396204
11
7.83493649053617
21
11.25
31
1.16605614053356e-011
12
7.83493649054174
22
11.25
32
25.0000036396203
13
7.83493649054174
23
11.25
33
25.0000036396203
70
1
  0
3DFACE
 8
GROUP0
10
8.23223304703092
20
11.7677669529664
30
1.15731424443766e-011
11
7.83493649054174
21
11.25
31
25.0000036396203
12
7.83493649053617
22
11.25
32
1.16605614053356e-011
13
7.83493649053617
23
11.25
33
1.16605614053356e-011
70
1
  0
3DFACE
 8
GROUP0
10
7.83493649054174
20
11.25
30
25.0000036396203
11
8.23223304703092
21
11.7677669529664
31
1.15731424443766e-011
12
8.2322330470365
22
11.7677669529664
32
25.0000036396202
13
8.2322330470365
23
11.7677669529664
33
25.0000036396202
70
1
  0
3DFACE
 8
GROUP0
10
8.23223304703092
20
11.7677669529664
30
1.15731424443766e-011
11
8.75000000000282
21
12.1650635094611
31
25.0000036396201
12
8.2322330470365
22
11.7677669529664
32
25.0000036396202
13
8.2322330470365
23
11.7677669529664
33
25.0000036396202
70
1
  0
3DFACE
 8
GROUP0
10
8.75000000000282
20
12.1650635094611
30
25.0000036396201
11
8.23223304703092
21
11.7677669529664
31
1.15731424443766e-011
12
8.74999999999724
22
12.1650635094611
32
1.14575238185921e-011
13
8.74999999999724
23
12.1650635094611
33
1.14575238185921e-011
70
1
  0
3DFACE
 8
GROUP0
10
8.74999999999724
20
12.1650635094611
30
1.14575238185921e-011
11
9.35295238724656
21
12.4148145657227
31
25.00000363962
12
8.75000000000282
22
12.1650635094611
32
25.0000036396201
13
8.75000000000282
23
12.1650635094611
33
25.0000036396201
70
1
  0
3DFACE
 8
GROUP0
10
9.35295238724656
20
12.4148145657227
30
25.00000363962
11
8.74999999999724
21
12.1650635094611
31
1.14575238185921e-011
12
9.35295238724098
22
12.4148145657227
32
1.13221654274298e-011
13
9.35295238724098
23
12.4148145657227
33
1.13221654274298e-011
70
1
  0
3DFACE
 8
GROUP0
10
9.35295238724098
20
12.4148145657227
30
1.13221654274298e-011
11
10.0000000000028
21
12.5
31
25.0000036396198
12
9.35295238724656
22
12.4148145657227
32
25.00000363962
13
9.35295238724656
23
12.4148145657227
33
25.00000363962
70
1
  0
3DFACE
 8
GROUP0
10
10.0000000000028
20
12.5
30
25.0000036396198
11
9.35295238724098
21
12.4148145657227
31
1.13221654274298e-011
12
9.99999999999723
22
12.5
32
1.11783471368199e-011
13
9.99999999999723
23
12.5
33
1.11783471368199e-011
70
1
  0
3DFACE
 8
GROUP0
10
9.99999999999723
20
12.5
30
1.11783471368199e-011
11
10.6470476127591
21
12.4148145657227
31
25.0000036396197
12
10.0000000000028
22
12.5
32
25.0000036396198
13
10.0000000000028
23
12.5
33
25.0000036396198
70
1
  0
3DFACE
 8
GROUP0
10
10.6470476127591
20
12.4148145657227
30
25.0000036396197
11
9.99999999999723
21
12.5
31
1.11783471368199e-011
12
10.6470476127536
22
12.4148145657227
32
1.10345288462099e-011
13
10.6470476127536
23
12.4148145657227
33
1.10345288462099e-011
70
1
  0
3DFACE
 8
GROUP0
10
10.6470476127536
20
12.4148145657227
30
1.10345288462099e-011
11
11.2500000000028
21
12.1650635094611
31
25.0000036396196
12
10.6470476127591
22
12.4148145657227
32
25.0000036396197
13
10.6470476127591
23
12.4148145657227
33
25.0000036396197
70
1
  0
3DFACE
 8
GROUP0
10
11.2500000000028
20
12.1650635094611
30
25.0000036396196
11
10.6470476127536
21
12.4148145657227
31
1.10345288462099e-011
12
11.2499999999972
22
12.1650635094611
32
1.08991704550476e-011
13
11.2499999999972
23
12.1650635094611
33
1.08991704550476e-011
70
1
  0
3DFACE
 8
GROUP0
10
11.2499999999972
20
12.1650635094611
30
1.08991704550476e-011
11
11.7677669529692
21
11.7677669529664
31
25.0000036396194
12
11.2500000000028
22
12.1650635094611
32
25.0000036396196
13
11.2500000000028
23
12.1650635094611
33
25.0000036396196
70
1
  0
3DFACE
 8
GROUP0
10
11.7677669529692
20
11.7677669529664
30
25.0000036396194
11
11.2499999999972
21
12.1650635094611
31
1.08991704550476e-011
12
11.7677669529636
22
11.7677669529664
32
1.07835518292632e-011
13
11.7677669529636
23
11.7677669529664
33
1.07835518292632e-011
70
1
  0
3DFACE
 8
GROUP0
10
11.7677669529692
20
11.7677669529664
30
25.0000036396194
11
12.1650635094584
21
11.25
31
1.06933129018216e-011
12
12.165063509464
22
11.25
32
25.0000036396194
13
12.165063509464
23
11.25
33
25.0000036396194
70
1
  0
3DFACE
 8
GROUP0
10
12.1650635094584
20
11.25
30
1.06933129018216e-011
11
11.7677669529692
21
11.7677669529664
31
25.0000036396194
12
11.7677669529636
22
11.7677669529664
32
1.07835518292632e-011
13
11.7677669529636
23
11.7677669529664
33
1.07835518292632e-011
70
1
  0
3DFACE
 8
GROUP0
10
12.165063509464
20
11.25
30
25.0000036396194
11
12.41481456572
21
10.6470476127563
31
1.06397335386532e-011
12
12.4148145657255
22
10.6470476127563
32
25.0000036396193
13
12.4148145657255
23
10.6470476127563
33
25.0000036396193
70
1
  0
3DFACE
 8
GROUP0
10
12.41481456572
20
10.6470476127563
30
1.06397335386532e-011
11
12.165063509464
21
11.25
31
25.0000036396194
12
12.1650635094584
22
11.25
32
1.06933129018216e-011
13
12.1650635094584
23
11.25
33
1.06933129018216e-011
70
1
  0
3DFACE
 8
GROUP0
10
12.4148145657255
20
10.6470476127563
30
25.0000036396193
11
12.4999999999973
21
10.0
31
1.06199937732754e-011
12
12.5000000000029
22
10.0
32
25.0000036396193
13
12.5000000000029
23
10.0
33
25.0000036396193
70
1
  0
3DFACE
 8
GROUP0
10
12.4999999999973
20
10.0
30
1.06199937732754e-011
11
12.4148145657255
21
10.6470476127563
31
25.0000036396193
12
12.41481456572
22
10.6470476127563
32
1.06397335386532e-011
13
12.41481456572
23
10.6470476127563
33
1.06397335386532e-011
70
1
  0
3DFACE
 8
GROUP0
10
12.5000000000029
20
10.0
30
25.0000036396193
11
12.41481456572
21
9.3529523872437
31
1.06397335386532e-011
12
12.4148145657255
22
9.3529523872437
32
25.0000036396193
13
12.4148145657255
23
9.3529523872437
33
25.0000036396193
70
1
  0
3DFACE
 8
GROUP0
10
12.41481456572
20
9.3529523872437
30
1.06397335386532e-011
11
12.5000000000029
21
10.0
31
25.0000036396193
12
12.4999999999973
22
10.0
32
1.06199937732754e-011
13
12.4999999999973
23
10.0
33
1.06199937732754e-011
70
1
  0
3DFACE
 8
GROUP0
10
12.4148145657255
20
9.3529523872437
30
25.0000036396193
11
12.1650635094584
21
8.75
31
1.06933129018216e-011
12
12.165063509464
22
8.75
32
25.0000036396194
13
12.165063509464
23
8.75
33
25.0000036396194
70
1
  0
3DFACE
 8
GROUP0
10
12.1650635094584
20
8.75
30
1.06933129018216e-011
11
12.4148145657255
21
9.3529523872437
31
25.0000036396193
12
12.41481456572
22
9.3529523872437
32
1.06397335386532e-011
13
12.41481456572
23
9.3529523872437
33
1.06397335386532e-011
70
1
  0
3DFACE
 8
GROUP0
10
12.165063509464
20
8.75
30
25.0000036396194
11
11.7677669529636
21
8.23223304703363
31
1.07835518292632e-011
12
11.7677669529692
22
8.23223304703363
32
25.0000036396194
13
11.7677669529692
23
8.23223304703363
33
25.0000036396194
70
1
  0
3DFACE
 8
GROUP0
10
11.7677669529636
20
8.23223304703363
30
1.07835518292632e-011
11
12.165063509464
21
8.75
31
25.0000036396194
12
12.1650635094584
22
8.75
32
1.06933129018216e-011
13
12.1650635094584
23
8.75
33
1.06933129018216e-011
70
1
  0
3DFACE
 8
GROUP0
10
11.7677669529636
20
8.23223304703363
30
1.07835518292632e-011
11
11.2500000000029
21
7.83493649053891
31
25.0000036396196
12
11.7677669529692
22
8.23223304703363
32
25.0000036396194
13
11.7677669529692
23
8.23223304703363
33
25.0000036396194
70
1
  0
3DFACE
 8
GROUP0
10
11.2500000000029
20
7.83493649053891
30
25.0000036396196
11
11.7677669529636
21
8.23223304703363
31
1.07835518292632e-011
12
11.2499999999973
22
7.83493649053891
32
1.08991704550476e-011
13
11.2499999999973
23
7.83493649053891
33
1.08991704550476e-011
70
1
  0
3DFACE
 8
GROUP0
10
118.999999999997
20
0.0
30
-1.31551436410859e-011
11
111.499999999997
21
10.0
31
-1.14800835504525e-011
12
118.999999999997
22
74.0000000000001
32
-1.32002631048067e-011
13
118.999999999997
23
74.0000000000001
33
-1.32002631048067e-011
70
3
  0
3DFACE
 8
GROUP0
10
111.499999999997
20
10.0
30
-1.14800835504525e-011
11
118.999999999997
21
0.0
31
-1.31551436410859e-011
12
111.41481456572
22
9.35295238724371
32
-1.14631637515572e-011
13
111.41481456572
23
9.35295238724371
33
-1.14631637515572e-011
70
3
  0
3DFACE
 8
GROUP0
10
111.41481456572
20
9.35295238724371
30
-1.14631637515572e-011
11
118.999999999997
21
0.0
31
-1.31551436410859e-011
12
111.165063509458
22
8.75000000000001
32
-1.14067644219062e-011
13
111.165063509458
23
8.75000000000001
33
-1.14067644219062e-011
70
3
  0
3DFACE
 8
GROUP0
10
111.165063509458
20
8.75000000000001
30
-1.14067644219062e-011
11
118.999999999997
21
0.0
31
-1.31551436410859e-011
12
110.767766952964
22
8.23223304703364
32
-1.13165254944647e-011
13
110.767766952964
23
8.23223304703364
33
-1.13165254944647e-011
70
3
  0
3DFACE
 8
GROUP0
10
110.767766952964
20
8.23223304703364
30
-1.13165254944647e-011
11
118.999999999997
21
0.0
31
-1.31551436410859e-011
12
110.249999999997
22
7.83493649053891
32
-1.12009068686802e-011
13
110.249999999997
23
7.83493649053891
33
-1.12009068686802e-011
70
3
  0
3DFACE
 8
GROUP0
10
110.249999999997
20
7.83493649053891
30
-1.12009068686802e-011
11
118.999999999997
21
0.0
31
-1.31551436410859e-011
12
109.647047612753
22
7.58518543427734
32
-1.10683684440005e-011
13
109.647047612753
23
7.58518543427734
33
-1.10683684440005e-011
70
3
  0
3DFACE
 8
GROUP0
10
109.647047612753
20
7.58518543427734
30
-1.10683684440005e-011
11
118.999999999997
21
0.0
31
-1.31551436410859e-011
12
108.999999999997
22
7.50000000000001
32
-1.0921730186908e-011
13
108.999999999997
23
7.50000000000001
33
-1.0921730186908e-011
70
3
  0
3DFACE
 8
GROUP0
10
108.999999999997
20
7.50000000000001
30
-1.0921730186908e-011
11
118.999999999997
21
0.0
31
-1.31551436410859e-011
12
-2.75228728696675e-012
22
0.0
32
1.34089406245153e-011
13
-2.75228728696675e-012
23
0.0
33
1.34089406245153e-011
70
13
  0
3DFACE
 8
GROUP0
10
108.999999999997
20
7.50000000000001
30
-1.0921730186908e-011
11
-2.75228728696675e-012
21
0.0
31
1.34089406245153e-011
12
108.352952387241
22
7.58518543427734
32
-1.07779118962981e-011
13
108.352952387241
23
7.58518543427734
33
-1.07779118962981e-011
70
3
  0
3DFACE
 8
GROUP0
10
108.352952387241
20
7.58518543427734
30
-1.07779118962981e-011
11
-2.75228728696675e-012
21
0.0
31
1.34089406245153e-011
12
107.749999999997
22
7.83493649053891
32
-1.06425535051358e-011
13
107.749999999997
23
7.83493649053891
33
-1.06425535051358e-011
70
3
  0
3DFACE
 8
GROUP0
10
107.749999999997
20
7.83493649053891
30
-1.06425535051358e-011
11
-2.75228728696675e-012
21
0.0
31
1.34089406245153e-011
12
107.232233047031
22
8.23223304703364
32
-1.05269348793513e-011
13
107.232233047031
23
8.23223304703364
33
-1.05269348793513e-011
70
3
  0
3DFACE
 8
GROUP0
10
107.232233047031
20
8.23223304703364
30
-1.05269348793513e-011
11
-2.75228728696675e-012
21
0.0
31
1.34089406245153e-011
12
106.834936490536
22
8.75000000000001
32
-1.04395159183923e-011
13
106.834936490536
23
8.75000000000001
33
-1.04395159183923e-011
70
3
  0
3DFACE
 8
GROUP0
10
106.834936490536
20
8.75000000000001
30
-1.04395159183923e-011
11
-2.75228728696675e-012
21
0.0
31
1.34089406245153e-011
12
106.585185434275
22
9.35295238724371
32
-1.03831165887414e-011
13
106.585185434275
23
9.35295238724371
33
-1.03831165887414e-011
70
3
  0
3DFACE
 8
GROUP0
10
106.585185434275
20
9.35295238724371
30
-1.03831165887414e-011
11
-2.75228728696675e-012
21
0.0
31
1.34089406245153e-011
12
106.499999999997
22
10.0
32
-1.03633768233635e-011
13
106.499999999997
23
10.0
33
-1.03633768233635e-011
70
3
  0
3DFACE
 8
GROUP0
10
106.499999999997
20
10.0
30
-1.03633768233635e-011
11
-2.75228728696675e-012
21
0.0
31
1.34089406245153e-011
12
106.499999999997
22
64.0
32
-1.04084962870843e-011
13
106.499999999997
23
64.0
33
-1.04084962870843e-011
70
15
  0
3DFACE
 8
GROUP0
10
106.499999999997
20
64.0
30
-1.04084962870843e-011
11
-2.75228728696675e-012
21
0.0
31
1.34089406245153e-011
12
11.2499999999973
22
7.83493649053891
32
1.08991704550476e-011
13
11.2499999999973
23
7.83493649053891
33
1.08991704550476e-011
70
15
  0
3DFACE
 8
GROUP0
10
106.499999999997
20
64.0
30
-1.04084962870843e-011
11
11.2499999999973
21
7.83493649053891
31
1.08991704550476e-011
12
11.7677669529636
22
8.23223304703363
32
1.07835518292632e-011
13
11.7677669529636
23
8.23223304703363
33
1.07835518292632e-011
70
13
  0
3DFACE
 8
GROUP0
10
106.499999999997
20
64.0
30
-1.04084962870843e-011
11
11.7677669529636
21
8.23223304703363
31
1.07835518292632e-011
12
12.1650635094584
22
8.75
32
1.06933129018216e-011
13
12.1650635094584
23
8.75
33
1.06933129018216e-011
70
13
  0
3DFACE
 8
GROUP0
10
106.499999999997
20
64.0
30
-1.04084962870843e-011
11
12.1650635094584
21
8.75
31
1.06933129018216e-011
12
12.41481456572
22
9.3529523872437
32
1.06397335386532e-011
13
12.41481456572
23
9.3529523872437
33
1.06397335386532e-011
70
13
  0
3DFACE
 8
GROUP0
10
106.499999999997
20
64.0
30
-1.04084962870843e-011
11
12.41481456572
21
9.3529523872437
31
1.06397335386532e-011
12
12.4999999999973
22
10.0
32
1.06199937732754e-011
13
12.4999999999973
23
10.0
33
1.06199937732754e-011
70
13
  0
3DFACE
 8
GROUP0
10
11.2499999999973
20
7.83493649053891
30
1.08991704550476e-011
11
-2.75228728696675e-012
21
0.0
31
1.34089406245153e-011
12
10.6470476127536
22
7.58518543427733
32
1.10345288462099e-011
13
10.6470476127536
23
7.58518543427733
33
1.10345288462099e-011
70
3
  0
3DFACE
 8
GROUP0
10
10.6470476127536
20
7.58518543427733
30
1.10345288462099e-011
11
-2.75228728696675e-012
21
0.0
31
1.34089406245153e-011
12
9.99999999999723
22
7.5
32
1.11783471368199e-011
13
9.99999999999723
23
7.5
33
1.11783471368199e-011
70
3
  0
3DFACE
 8
GROUP0
10
9.99999999999723
20
7.5
30
1.11783471368199e-011
11
-2.75228728696675e-012
21
0.0
31
1.34089406245153e-011
12
9.35295238724098
22
7.58518543427733
32
1.13221654274298e-011
13
9.35295238724098
23
7.58518543427733
33
1.13221654274298e-011
70
3
  0
3DFACE
 8
GROUP0
10
9.35295238724098
20
7.58518543427733
30
1.13221654274298e-011
11
-2.75228728696675e-012
21
0.0
31
1.34089406245153e-011
12
8.74999999999724
22
7.8349364905389
32
1.14575238185921e-011
13
8.74999999999724
23
7.8349364905389
33
1.14575238185921e-011
70
3
  0
3DFACE
 8
GROUP0
10
8.74999999999724
20
7.8349364905389
30
1.14575238185921e-011
11
-2.75228728696675e-012
21
0.0
31
1.34089406245153e-011
12
8.23223304703092
22
8.23223304703363
32
1.15731424443766e-011
13
8.23223304703092
23
8.23223304703363
33
1.15731424443766e-011
70
3
  0
3DFACE
 8
GROUP0
10
8.23223304703092
20
8.23223304703363
30
1.15731424443766e-011
11
-2.75228728696675e-012
21
0.0
31
1.34089406245153e-011
12
7.83493649053617
22
8.75
32
1.16605614053356e-011
13
7.83493649053617
23
8.75
33
1.16605614053356e-011
70
3
  0
3DFACE
 8
GROUP0
10
7.83493649053617
20
8.75
30
1.16605614053356e-011
11
-2.75228728696675e-012
21
0.0
31
1.34089406245153e-011
12
7.58518543427459
22
9.3529523872437
32
1.17169607349865e-011
13
7.58518543427459
23
9.3529523872437
33
1.17169607349865e-011
70
3
  0
3DFACE
 8
GROUP0
10
7.58518543427459
20
9.3529523872437
30
1.17169607349865e-011
11
-2.75228728696675e-012
21
0.0
31
1.34089406245153e-011
12
7.49999999999726
22
10.0
32
1.17367005003643e-011
13
7.49999999999726
23
10.0
33
1.17367005003643e-011
70
3
  0
3DFACE
 8
GROUP0
10
7.49999999999726
20
10.0
30
1.17367005003643e-011
11
-2.75228728696675e-012
21
0.0
31
1.34089406245153e-011
12
7.49999999999726
22
64.0
32
1.16915810366436e-011
13
7.49999999999726
23
64.0
33
1.16915810366436e-011
70
15
  0
3DFACE
 8
GROUP0
10
118.999999999997
20
74.0000000000001
30
-1.32002631048067e-011
11
108.999999999997
21
66.5
31
-1.09668496506288e-011
12
-2.75228728696675e-012
22
74.0000000000001
32
1.33638211607945e-011
13
-2.75228728696675e-012
23
74.0000000000001
33
1.33638211607945e-011
70
3
  0
3DFACE
 8
GROUP0
10
108.999999999997
20
66.5
30
-1.09668496506288e-011
11
118.999999999997
21
74.0000000000001
31
-1.32002631048067e-011
12
109.647047612754
22
66.4148145657227
32
-1.11134879077213e-011
13
109.647047612754
23
66.4148145657227
33
-1.11134879077213e-011
70
3
  0
3DFACE
 8
GROUP0
10
109.647047612754
20
66.4148145657227
30
-1.11134879077213e-011
11
118.999999999997
21
74.0000000000001
31
-1.32002631048067e-011
12
110.249999999997
22
66.1650635094611
32
-1.1246026332401e-011
13
110.249999999997
23
66.1650635094611
33
-1.1246026332401e-011
70
3
  0
3DFACE
 8
GROUP0
10
110.249999999997
20
66.1650635094611
30
-1.1246026332401e-011
11
118.999999999997
21
74.0000000000001
31
-1.32002631048067e-011
12
110.767766952964
22
65.7677669529664
32
-1.13616449581855e-011
13
110.767766952964
23
65.7677669529664
33
-1.13616449581855e-011
70
3
  0
3DFACE
 8
GROUP0
10
110.767766952964
20
65.7677669529664
30
-1.13616449581855e-011
11
118.999999999997
21
74.0000000000001
31
-1.32002631048067e-011
12
111.165063509458
22
65.25
32
-1.1451883885627e-011
13
111.165063509458
23
65.25
33
-1.1451883885627e-011
70
3
  0
3DFACE
 8
GROUP0
10
111.165063509458
20
65.25
30
-1.1451883885627e-011
11
118.999999999997
21
74.0000000000001
31
-1.32002631048067e-011
12
111.41481456572
22
64.6470476127563
32
-1.1508283215278e-011
13
111.41481456572
23
64.6470476127563
33
-1.1508283215278e-011
70
3
  0
3DFACE
 8
GROUP0
10
111.41481456572
20
64.6470476127563
30
-1.1508283215278e-011
11
118.999999999997
21
74.0000000000001
31
-1.32002631048067e-011
12
111.499999999997
22
64.0
32
-1.15252030141733e-011
13
111.499999999997
23
64.0
33
-1.15252030141733e-011
70
3
  0
3DFACE
 8
GROUP0
10
111.499999999997
20
64.0
30
-1.15252030141733e-011
11
118.999999999997
21
74.0000000000001
31
-1.32002631048067e-011
12
111.499999999997
22
10.0
32
-1.14800835504525e-011
13
111.499999999997
23
10.0
33
-1.14800835504525e-011
70
15
  0
3DFACE
 8
GROUP0
10
-2.75228728696675e-012
20
74.0000000000001
30
1.33638211607945e-011
11
108.999999999997
21
66.5
31
-1.09668496506288e-011
12
108.352952387241
22
66.4148145657227
32
-1.08230313600188e-011
13
108.352952387241
23
66.4148145657227
33
-1.08230313600188e-011
70
13
  0
3DFACE
 8
GROUP0
10
-2.75228728696675e-012
20
74.0000000000001
30
1.33638211607945e-011
11
108.352952387241
21
66.4148145657227
31
-1.08230313600188e-011
12
107.749999999997
22
66.1650635094611
32
-1.06876729688565e-011
13
107.749999999997
23
66.1650635094611
33
-1.06876729688565e-011
70
13
  0
3DFACE
 8
GROUP0
10
-2.75228728696675e-012
20
74.0000000000001
30
1.33638211607945e-011
11
107.749999999997
21
66.1650635094611
31
-1.06876729688565e-011
12
107.232233047031
22
65.7677669529664
32
-1.05720543430721e-011
13
107.232233047031
23
65.7677669529664
33
-1.05720543430721e-011
70
13
  0
3DFACE
 8
GROUP0
10
-2.75228728696675e-012
20
74.0000000000001
30
1.33638211607945e-011
11
107.232233047031
21
65.7677669529664
31
-1.05720543430721e-011
12
106.834936490536
22
65.25
32
-1.04846353821131e-011
13
106.834936490536
23
65.25
33
-1.04846353821131e-011
70
13
  0
3DFACE
 8
GROUP0
10
-2.75228728696675e-012
20
74.0000000000001
30
1.33638211607945e-011
11
106.834936490536
21
65.25
31
-1.04846353821131e-011
12
106.585185434275
22
64.6470476127563
32
-1.04282360524621e-011
13
106.585185434275
23
64.6470476127563
33
-1.04282360524621e-011
70
13
  0
3DFACE
 8
GROUP0
10
-2.75228728696675e-012
20
74.0000000000001
30
1.33638211607945e-011
11
106.585185434275
21
64.6470476127563
31
-1.04282360524621e-011
12
106.499999999997
22
64.0
32
-1.04084962870843e-011
13
106.499999999997
23
64.0
33
-1.04084962870843e-011
70
13
  0
3DFACE
 8
GROUP0
10
-2.75228728696675e-012
20
74.0000000000001
30
1.33638211607945e-011
11
106.499999999997
21
64.0
31
-1.04084962870843e-011
12
11.2499999999973
22
66.1650635094611
32
1.08540509913269e-011
13
11.2499999999973
23
66.1650635094611
33
1.08540509913269e-011
70
15
  0
3DFACE
 8
GROUP0
10
11.2499999999973
20
66.1650635094611
30
1.08540509913269e-011
11
106.499999999997
21
64.0
31
-1.04084962870843e-011
12
11.7677669529636
22
65.7677669529664
32
1.07384323655424e-011
13
11.7677669529636
23
65.7677669529664
33
1.07384323655424e-011
70
3
  0
3DFACE
 8
GROUP0
10
11.7677669529636
20
65.7677669529664
30
1.07384323655424e-011
11
106.499999999997
21
64.0
31
-1.04084962870843e-011
12
12.1650635094584
22
65.25
32
1.06481934381009e-011
13
12.1650635094584
23
65.25
33
1.06481934381009e-011
70
3
  0
3DFACE
 8
GROUP0
10
12.1650635094584
20
65.25
30
1.06481934381009e-011
11
106.499999999997
21
64.0
31
-1.04084962870843e-011
12
12.41481456572
22
64.6470476127563
32
1.05946140749325e-011
13
12.41481456572
23
64.6470476127563
33
1.05946140749325e-011
70
3
  0
3DFACE
 8
GROUP0
10
12.41481456572
20
64.6470476127563
30
1.05946140749325e-011
11
106.499999999997
21
64.0
31
-1.04084962870843e-011
12
12.4999999999973
22
64.0
32
1.05748743095546e-011
13
12.4999999999973
23
64.0
33
1.05748743095546e-011
70
3
  0
3DFACE
 8
GROUP0
10
12.4999999999973
20
64.0
30
1.05748743095546e-011
11
106.499999999997
21
64.0
31
-1.04084962870843e-011
12
12.4999999999973
22
10.0
32
1.06199937732754e-011
13
12.4999999999973
23
10.0
33
1.06199937732754e-011
70
15
  0
3DFACE
 8
GROUP0
10
-2.75228728696675e-012
20
74.0000000000001
30
1.33638211607945e-011
11
11.2499999999973
21
66.1650635094611
31
1.08540509913269e-011
12
10.6470476127536
22
66.4148145657227
32
1.09894093824892e-011
13
10.6470476127536
23
66.4148145657227
33
1.09894093824892e-011
70
13
  0
3DFACE
 8
GROUP0
10
-2.75228728696675e-012
20
74.0000000000001
30
1.33638211607945e-011
11
10.6470476127536
21
66.4148145657227
31
1.09894093824892e-011
12
9.99999999999723
22
66.5
32
1.11332276730991e-011
13
9.99999999999723
23
66.5
33
1.11332276730991e-011
70
13
  0
3DFACE
 8
GROUP0
10
-2.75228728696675e-012
20
74.0000000000001
30
1.33638211607945e-011
11
9.99999999999723
21
66.5
31
1.11332276730991e-011
12
9.35295238724098
22
66.4148145657227
32
1.1277045963709e-011
13
9.35295238724098
23
66.4148145657227
33
1.1277045963709e-011
70
13
  0
3DFACE
 8
GROUP0
10
-2.75228728696675e-012
20
74.0000000000001
30
1.33638211607945e-011
11
9.35295238724098
21
66.4148145657227
31
1.1277045963709e-011
12
8.74999999999724
22
66.1650635094611
32
1.14124043548713e-011
13
8.74999999999724
23
66.1650635094611
33
1.14124043548713e-011
70
13
  0
3DFACE
 8
GROUP0
10
-2.75228728696675e-012
20
74.0000000000001
30
1.33638211607945e-011
11
8.74999999999724
21
66.1650635094611
31
1.14124043548713e-011
12
8.23223304703092
22
65.7677669529664
32
1.15280229806558e-011
13
8.23223304703092
23
65.7677669529664
33
1.15280229806558e-011
70
13
  0
3DFACE
 8
GROUP0
10
-2.75228728696675e-012
20
74.0000000000001
30
1.33638211607945e-011
11
8.23223304703092
21
65.7677669529664
31
1.15280229806558e-011
12
7.83493649053617
22
65.25
32
1.16154419416148e-011
13
7.83493649053617
23
65.25
33
1.16154419416148e-011
70
13
  0
3DFACE
 8
GROUP0
10
-2.75228728696675e-012
20
74.0000000000001
30
1.33638211607945e-011
11
7.83493649053617
21
65.25
31
1.16154419416148e-011
12
7.58518543427459
22
64.6470476127563
32
1.16718412712657e-011
13
7.58518543427459
23
64.6470476127563
33
1.16718412712657e-011
70
13
  0
3DFACE
 8
GROUP0
10
-2.75228728696675e-012
20
74.0000000000001
30
1.33638211607945e-011
11
7.58518543427459
21
64.6470476127563
31
1.16718412712657e-011
12
7.49999999999726
22
64.0
32
1.16915810366436e-011
13
7.49999999999726
23
64.0
33
1.16915810366436e-011
70
13
  0
3DFACE
 8
GROUP0
10
-2.75228728696675e-012
20
74.0000000000001
30
1.33638211607945e-011
11
7.49999999999726
21
64.0
31
1.16915810366436e-011
12
-2.75228728696675e-012
22
0.0
32
1.34089406245153e-011
13
-2.75228728696675e-012
23
0.0
33
1.34089406245153e-011
70
3
  0
3DFACE
 8
GROUP0
10
12.41481456572
20
10.6470476127563
30
1.06397335386532e-011
11
12.4999999999973
21
64.0
31
1.05748743095546e-011
12
12.4999999999973
22
10.0
32
1.06199937732754e-011
13
12.4999999999973
23
10.0
33
1.06199937732754e-011
70
3
  0
3DFACE
 8
GROUP0
10
12.4999999999973
20
64.0
30
1.05748743095546e-011
11
12.41481456572
21
10.6470476127563
31
1.06397335386532e-011
12
12.41481456572
22
63.3529523872437
32
1.05946140749325e-011
13
12.41481456572
23
63.3529523872437
33
1.05946140749325e-011
70
3
  0
3DFACE
 8
GROUP0
10
12.41481456572
20
63.3529523872437
30
1.05946140749325e-011
11
12.41481456572
21
10.6470476127563
31
1.06397335386532e-011
12
12.1650635094584
22
11.25
32
1.06933129018216e-011
13
12.1650635094584
23
11.25
33
1.06933129018216e-011
70
13
  0
3DFACE
 8
GROUP0
10
12.41481456572
20
63.3529523872437
30
1.05946140749325e-011
11
12.1650635094584
21
11.25
31
1.06933129018216e-011
12
12.1650635094584
22
62.75
32
1.06481934381009e-011
13
12.1650635094584
23
62.75
33
1.06481934381009e-011
70
3
  0
3DFACE
 8
GROUP0
10
12.1650635094584
20
62.75
30
1.06481934381009e-011
11
12.1650635094584
21
11.25
31
1.06933129018216e-011
12
11.7677669529636
22
11.7677669529664
32
1.07835518292632e-011
13
11.7677669529636
23
11.7677669529664
33
1.07835518292632e-011
70
13
  0
3DFACE
 8
GROUP0
10
12.1650635094584
20
62.75
30
1.06481934381009e-011
11
11.7677669529636
21
11.7677669529664
31
1.07835518292632e-011
12
11.7677669529636
22
62.2322330470337
32
1.07384323655424e-011
13
11.7677669529636
23
62.2322330470337
33
1.07384323655424e-011
70
3
  0
3DFACE
 8
GROUP0
10
11.7677669529636
20
62.2322330470337
30
1.07384323655424e-011
11
11.7677669529636
21
11.7677669529664
31
1.07835518292632e-011
12
11.2499999999972
22
12.1650635094611
32
1.08991704550476e-011
13
11.2499999999972
23
12.1650635094611
33
1.08991704550476e-011
70
13
  0
3DFACE
 8
GROUP0
10
11.7677669529636
20
62.2322330470337
30
1.07384323655424e-011
11
11.2499999999972
21
12.1650635094611
31
1.08991704550476e-011
12
11.2499999999972
22
61.8349364905389
32
1.08540509913269e-011
13
11.2499999999972
23
61.8349364905389
33
1.08540509913269e-011
70
3
  0
3DFACE
 8
GROUP0
10
11.2499999999972
20
61.8349364905389
30
1.08540509913269e-011
11
11.2499999999972
21
12.1650635094611
31
1.08991704550476e-011
12
10.6470476127536
22
12.4148145657227
32
1.10345288462099e-011
13
10.6470476127536
23
12.4148145657227
33
1.10345288462099e-011
70
13
  0
3DFACE
 8
GROUP0
10
11.2499999999972
20
61.8349364905389
30
1.08540509913269e-011
11
10.6470476127536
21
12.4148145657227
31
1.10345288462099e-011
12
10.6470476127536
22
61.5851854342773
32
1.09894093824892e-011
13
10.6470476127536
23
61.5851854342773
33
1.09894093824892e-011
70
3
  0
3DFACE
 8
GROUP0
10
10.6470476127536
20
61.5851854342773
30
1.09894093824892e-011
11
10.6470476127536
21
12.4148145657227
31
1.10345288462099e-011
12
9.99999999999723
22
12.5
32
1.11783471368199e-011
13
9.99999999999723
23
12.5
33
1.11783471368199e-011
70
13
  0
3DFACE
 8
GROUP0
10
10.6470476127536
20
61.5851854342773
30
1.09894093824892e-011
11
9.99999999999723
21
12.5
31
1.11783471368199e-011
12
9.99999999999723
22
61.5
32
1.11332276730991e-011
13
9.99999999999723
23
61.5
33
1.11332276730991e-011
70
3
  0
3DFACE
 8
GROUP0
10
9.99999999999723
20
61.5
30
1.11332276730991e-011
11
9.99999999999723
21
12.5
31
1.11783471368199e-011
12
9.35295238724098
22
12.4148145657227
32
1.13221654274298e-011
13
9.35295238724098
23
12.4148145657227
33
1.13221654274298e-011
70
13
  0
3DFACE
 8
GROUP0
10
9.99999999999723
20
61.5
30
1.11332276730991e-011
11
9.35295238724098
21
12.4148145657227
31
1.13221654274298e-011
12
9.35295238724098
22
61.5851854342773
32
1.1277045963709e-011
13
9.35295238724098
23
61.5851854342773
33
1.1277045963709e-011
70
3
  0
3DFACE
 8
GROUP0
10
9.35295238724098
20
61.5851854342773
30
1.1277045963709e-011
11
9.35295238724098
21
12.4148145657227
31
1.13221654274298e-011
12
8.74999999999724
22
12.1650635094611
32
1.14575238185921e-011
13
8.74999999999724
23
12.1650635094611
33
1.14575238185921e-011
70
13
  0
3DFACE
 8
GROUP0
10
9.35295238724098
20
61.5851854342773
30
1.1277045963709e-011
11
8.74999999999724
21
12.1650635094611
31
1.14575238185921e-011
12
8.74999999999724
22
61.8349364905389
32
1.14124043548713e-011
13
8.74999999999724
23
61.8349364905389
33
1.14124043548713e-011
70
3
  0
3DFACE
 8
GROUP0
10
8.74999999999724
20
61.8349364905389
30
1.14124043548713e-011
11
8.74999999999724
21
12.1650635094611
31
1.14575238185921e-011
12
8.23223304703092
22
11.7677669529664
32
1.15731424443766e-011
13
8.23223304703092
23
11.7677669529664
33
1.15731424443766e-011
70
13
  0
3DFACE
 8
GROUP0
10
8.74999999999724
20
61.8349364905389
30
1.14124043548713e-011
11
8.23223304703092
21
11.7677669529664
31
1.15731424443766e-011
12
8.23223304703092
22
62.2322330470337
32
1.15280229806558e-011
13
8.23223304703092
23
62.2322330470337
33
1.15280229806558e-011
70
3
  0
3DFACE
 8
GROUP0
10
8.23223304703092
20
62.2322330470337
30
1.15280229806558e-011
11
8.23223304703092
21
11.7677669529664
31
1.15731424443766e-011
12
7.83493649053617
22
11.25
32
1.16605614053356e-011
13
7.83493649053617
23
11.25
33
1.16605614053356e-011
70
13
  0
3DFACE
 8
GROUP0
10
8.23223304703092
20
62.2322330470337
30
1.15280229806558e-011
11
7.83493649053617
21
11.25
31
1.16605614053356e-011
12
7.83493649053617
22
62.75
32
1.16154419416148e-011
13
7.83493649053617
23
62.75
33
1.16154419416148e-011
70
3
  0
3DFACE
 8
GROUP0
10
7.83493649053617
20
62.75
30
1.16154419416148e-011
11
7.83493649053617
21
11.25
31
1.16605614053356e-011
12
7.58518543427459
22
10.6470476127563
32
1.17169607349865e-011
13
7.58518543427459
23
10.6470476127563
33
1.17169607349865e-011
70
13
  0
3DFACE
 8
GROUP0
10
7.83493649053617
20
62.75
30
1.16154419416148e-011
11
7.58518543427459
21
10.6470476127563
31
1.17169607349865e-011
12
7.58518543427459
22
63.3529523872437
32
1.16718412712657e-011
13
7.58518543427459
23
63.3529523872437
33
1.16718412712657e-011
70
3
  0
3DFACE
 8
GROUP0
10
7.58518543427459
20
63.3529523872437
30
1.16718412712657e-011
11
7.58518543427459
21
10.6470476127563
31
1.17169607349865e-011
12
7.49999999999726
22
10.0
32
1.17367005003643e-011
13
7.49999999999726
23
10.0
33
1.17367005003643e-011
70
13
  0
3DFACE
 8
GROUP0
10
7.58518543427459
20
63.3529523872437
30
1.16718412712657e-011
11
7.49999999999726
21
10.0
31
1.17367005003643e-011
12
7.49999999999726
22
64.0
32
1.16915810366436e-011
13
7.49999999999726
23
64.0
33
1.16915810366436e-011
70
3
  0
3DFACE
 8
GROUP0
10
111.41481456572
20
10.6470476127563
30
-1.14631637515572e-011
11
111.499999999997
21
64.0
31
-1.15252030141733e-011
12
111.499999999997
22
10.0
32
-1.14800835504525e-011
13
111.499999999997
23
10.0
33
-1.14800835504525e-011
70
3
  0
3DFACE
 8
GROUP0
10
111.499999999997
20
64.0
30
-1.15252030141733e-011
11
111.41481456572
21
10.6470476127563
31
-1.14631637515572e-011
12
111.41481456572
22
63.3529523872437
32
-1.1508283215278e-011
13
111.41481456572
23
63.3529523872437
33
-1.1508283215278e-011
70
3
  0
3DFACE
 8
GROUP0
10
111.41481456572
20
63.3529523872437
30
-1.1508283215278e-011
11
111.41481456572
21
10.6470476127563
31
-1.14631637515572e-011
12
111.165063509458
22
62.75
32
-1.1451883885627e-011
13
111.165063509458
23
62.75
33
-1.1451883885627e-011
70
3
  0
3DFACE
 8
GROUP0
10
111.165063509458
20
62.75
30
-1.1451883885627e-011
11
111.41481456572
21
10.6470476127563
31
-1.14631637515572e-011
12
111.165063509458
22
11.25
32
-1.14067644219062e-011
13
111.165063509458
23
11.25
33
-1.14067644219062e-011
70
13
  0
3DFACE
 8
GROUP0
10
111.165063509458
20
62.75
30
-1.1451883885627e-011
11
111.165063509458
21
11.25
31
-1.14067644219062e-011
12
110.767766952964
22
11.7677669529664
32
-1.13165254944647e-011
13
110.767766952964
23
11.7677669529664
33
-1.13165254944647e-011
70
13
  0
3DFACE
 8
GROUP0
10
111.165063509458
20
62.75
30
-1.1451883885627e-011
11
110.767766952964
21
11.7677669529664
31
-1.13165254944647e-011
12
110.767766952964
22
62.2322330470336
32
-1.13616449581855e-011
13
110.767766952964
23
62.2322330470336
33
-1.13616449581855e-011
70
3
  0
3DFACE
 8
GROUP0
10
110.767766952964
20
62.2322330470336
30
-1.13616449581855e-011
11
110.767766952964
21
11.7677669529664
31
-1.13165254944647e-011
12
110.249999999997
22
12.1650635094611
32
-1.12009068686802e-011
13
110.249999999997
23
12.1650635094611
33
-1.12009068686802e-011
70
13
  0
3DFACE
 8
GROUP0
10
110.767766952964
20
62.2322330470336
30
-1.13616449581855e-011
11
110.249999999997
21
12.1650635094611
31
-1.12009068686802e-011
12
110.249999999997
22
61.8349364905389
32
-1.1246026332401e-011
13
110.249999999997
23
61.8349364905389
33
-1.1246026332401e-011
70
3
  0
3DFACE
 8
GROUP0
10
110.249999999997
20
61.8349364905389
30
-1.1246026332401e-011
11
110.249999999997
21
12.1650635094611
31
-1.12009068686802e-011
12
109.647047612754
22
12.4148145657227
32
-1.10683684440005e-011
13
109.647047612754
23
12.4148145657227
33
-1.10683684440005e-011
70
13
  0
3DFACE
 8
GROUP0
10
110.249999999997
20
61.8349364905389
30
-1.1246026332401e-011
11
109.647047612754
21
12.4148145657227
31
-1.10683684440005e-011
12
109.647047612754
22
61.5851854342773
32
-1.11134879077213e-011
13
109.647047612754
23
61.5851854342773
33
-1.11134879077213e-011
70
3
  0
3DFACE
 8
GROUP0
10
109.647047612754
20
61.5851854342773
30
-1.11134879077213e-011
11
109.647047612754
21
12.4148145657227
31
-1.10683684440005e-011
12
108.999999999997
22
12.5
32
-1.0921730186908e-011
13
108.999999999997
23
12.5
33
-1.0921730186908e-011
70
13
  0
3DFACE
 8
GROUP0
10
109.647047612754
20
61.5851854342773
30
-1.11134879077213e-011
11
108.999999999997
21
12.5
31
-1.0921730186908e-011
12
108.999999999997
22
61.5
32
-1.09668496506288e-011
13
108.999999999997
23
61.5
33
-1.09668496506288e-011
70
3
  0
3DFACE
 8
GROUP0
10
108.999999999997
20
61.5
30
-1.09668496506288e-011
11
108.999999999997
21
12.5
31
-1.0921730186908e-011
12
108.352952387241
22
12.4148145657227
32
-1.07779118962981e-011
13
108.352952387241
23
12.4148145657227
33
-1.07779118962981e-011
70
13
  0
3DFACE
 8
GROUP0
10
108.999999999997
20
61.5
30
-1.09668496506288e-011
11
108.352952387241
21
12.4148145657227
31
-1.07779118962981e-011
12
108.352952387241
22
61.5851854342773
32
-1.08230313600188e-011
13
108.352952387241
23
61.5851854342773
33
-1.08230313600188e-011
70
3
  0
3DFACE
 8
GROUP0
10
108.352952387241
20
61.5851854342773
30
-1.08230313600188e-011
11
108.352952387241
21
12.4148145657227
31
-1.07779118962981e-011
12
107.749999999997
22
12.1650635094611
32
-1.06425535051358e-011
13
107.749999999997
23
12.1650635094611
33
-1.06425535051358e-011
70
13
  0
3DFACE
 8
GROUP0
10
108.352952387241
20
61.5851854342773
30
-1.08230313600188e-011
11
107.749999999997
21
12.1650635094611
31
-1.06425535051358e-011
12
107.749999999997
22
61.8349364905389
32
-1.06876729688565e-011
13
107.749999999997
23
61.8349364905389
33
-1.06876729688565e-011
70
3
  0
3DFACE
 8
GROUP0
10
107.749999999997
20
61.8349364905389
30
-1.06876729688565e-011
11
107.749999999997
21
12.1650635094611
31
-1.06425535051358e-011
12
107.232233047031
22
11.7677669529664
32
-1.05269348793513e-011
13
107.232233047031
23
11.7677669529664
33
-1.05269348793513e-011
70
13
  0
3DFACE
 8
GROUP0
10
107.749999999997
20
61.8349364905389
30
-1.06876729688565e-011
11
107.232233047031
21
11.7677669529664
31
-1.05269348793513e-011
12
107.232233047031
22
62.2322330470336
32
-1.05720543430721e-011
13
107.232233047031
23
62.2322330470336
33
-1.05720543430721e-011
70
3
  0
3DFACE
 8
GROUP0
10
107.232233047031
20
62.2322330470336
30
-1.05720543430721e-011
11
107.232233047031
21
11.7677669529664
31
-1.05269348793513e-011
12
106.834936490536
22
11.25
32
-1.04395159183923e-011
13
106.834936490536
23
11.25
33
-1.04395159183923e-011
70
13
  0
3DFACE
 8
GROUP0
10
107.232233047031
20
62.2322330470336
30
-1.05720543430721e-011
11
106.834936490536
21
11.25
31
-1.04395159183923e-011
12
106.834936490536
22
62.75
32
-1.04846353821131e-011
13
106.834936490536
23
62.75
33
-1.04846353821131e-011
70
3
  0
3DFACE
 8
GROUP0
10
106.834936490536
20
62.75
30
-1.04846353821131e-011
11
106.834936490536
21
11.25
31
-1.04395159183923e-011
12
106.585185434275
22
63.3529523872437
32
-1.04282360524621e-011
13
106.585185434275
23
63.3529523872437
33
-1.04282360524621e-011
70
3
  0
3DFACE
 8
GROUP0
10
106.585185434275
20
63.3529523872437
30
-1.04282360524621e-011
11
106.834936490536
21
11.25
31
-1.04395159183923e-011
12
106.585185434275
22
10.6470476127563
32
-1.03831165887414e-011
13
106.585185434275
23
10.6470476127563
33
-1.03831165887414e-011
70
13
  0
3DFACE
 8
GROUP0
10
106.585185434275
20
63.3529523872437
30
-1.04282360524621e-011
11
106.585185434275
21
10.6470476127563
31
-1.03831165887414e-011
12
106.499999999997
22
10.0
32
-1.03633768233635e-011
13
106.499999999997
23
10.0
33
-1.03633768233635e-011
70
13
  0
3DFACE
 8
GROUP0
10
106.585185434275
20
63.3529523872437
30
-1.04282360524621e-011
11
106.499999999997
21
10.0
31
-1.03633768233635e-011
12
106.499999999997
22
64.0
32
-1.04084962870843e-011
13
106.499999999997
23
64.0
33
-1.04084962870843e-011
70
3
  0
3DFACE
 8
GROUP0
10
114.000000000003
20
54.0000000000001
30
25.0000036395966
11
109.647047612759
21
61.5851854342773
31
25.0000036395976
12
89.0000000000027
22
54.0000000000001
32
25.0000036396022
13
89.0000000000027
23
54.0000000000001
33
25.0000036396022
70
3
  0
3DFACE
 8
GROUP0
10
109.647047612759
20
61.5851854342773
30
25.0000036395976
11
114.000000000003
21
54.0000000000001
31
25.0000036395966
12
110.250000000003
22
61.8349364905389
32
25.0000036395975
13
110.250000000003
23
61.8349364905389
33
25.0000036395975
70
3
  0
3DFACE
 8
GROUP0
10
110.250000000003
20
61.8349364905389
30
25.0000036395975
11
114.000000000003
21
54.0000000000001
31
25.0000036395966
12
110.767766952969
22
62.2322330470336
32
25.0000036395973
13
110.767766952969
23
62.2322330470336
33
25.0000036395973
70
3
  0
3DFACE
 8
GROUP0
10
110.767766952969
20
62.2322330470336
30
25.0000036395973
11
114.000000000003
21
54.0000000000001
31
25.0000036395966
12
111.165063509464
22
62.75
32
25.0000036395972
13
111.165063509464
23
62.75
33
25.0000036395972
70
3
  0
3DFACE
 8
GROUP0
10
111.165063509464
20
62.75
30
25.0000036395972
11
114.000000000003
21
54.0000000000001
31
25.0000036395966
12
111.414814565725
22
63.3529523872437
32
25.0000036395972
13
111.414814565725
23
63.3529523872437
33
25.0000036395972
70
3
  0
3DFACE
 8
GROUP0
10
111.414814565725
20
63.3529523872437
30
25.0000036395972
11
114.000000000003
21
54.0000000000001
31
25.0000036395966
12
111.500000000003
22
64.0
32
25.0000036395972
13
111.500000000003
23
64.0
33
25.0000036395972
70
3
  0
3DFACE
 8
GROUP0
10
89.0000000000027
20
54.0000000000001
30
25.0000036396022
11
109.647047612759
21
61.5851854342773
31
25.0000036395976
12
109.000000000003
22
61.5
32
25.0000036395977
13
109.000000000003
23
61.5
33
25.0000036395977
70
13
  0
3DFACE
 8
GROUP0
10
89.0000000000027
20
54.0000000000001
30
25.0000036396022
11
109.000000000003
21
61.5
31
25.0000036395977
12
108.352952387246
22
61.5851854342773
32
25.0000036395979
13
108.352952387246
23
61.5851854342773
33
25.0000036395979
70
13
  0
3DFACE
 8
GROUP0
10
89.0000000000027
20
54.0000000000001
30
25.0000036396022
11
108.352952387246
21
61.5851854342773
31
25.0000036395979
12
107.750000000003
22
61.8349364905389
32
25.000003639598
13
107.750000000003
23
61.8349364905389
33
25.000003639598
70
13
  0
3DFACE
 8
GROUP0
10
89.0000000000027
20
54.0000000000001
30
25.0000036396022
11
107.750000000003
21
61.8349364905389
31
25.000003639598
12
107.232233047036
22
62.2322330470336
32
25.0000036395981
13
107.232233047036
23
62.2322330470336
33
25.0000036395981
70
13
  0
3DFACE
 8
GROUP0
10
89.0000000000027
20
54.0000000000001
30
25.0000036396022
11
107.232233047036
21
62.2322330470336
31
25.0000036395981
12
106.834936490542
22
62.75
32
25.0000036395982
13
106.834936490542
23
62.75
33
25.0000036395982
70
13
  0
3DFACE
 8
GROUP0
10
89.0000000000027
20
54.0000000000001
30
25.0000036396022
11
106.834936490542
21
62.75
31
25.0000036395982
12
106.58518543428
22
63.3529523872437
32
25.0000036395983
13
106.58518543428
23
63.3529523872437
33
25.0000036395983
70
13
  0
3DFACE
 8
GROUP0
10
89.0000000000027
20
54.0000000000001
30
25.0000036396022
11
106.58518543428
21
63.3529523872437
31
25.0000036395983
12
106.500000000003
22
64.0
32
25.0000036395983
13
106.500000000003
23
64.0
33
25.0000036395983
70
13
  0
3DFACE
 8
GROUP0
10
89.0000000000027
20
54.0000000000001
30
25.0000036396022
11
106.500000000003
21
64.0
31
25.0000036395983
12
89.0000000000027
22
64.0000000000001
32
25.0000036396023
13
89.0000000000027
23
64.0000000000001
33
25.0000036396023
70
3
  0
3DFACE
 8
GROUP0
10
114.000000000003
20
20.0000000000001
30
25.0000036395966
11
111.414814565725
21
10.6470476127563
31
25.0000036395972
12
111.500000000003
22
10.0
32
25.0000036395972
13
111.500000000003
23
10.0
33
25.0000036395972
70
13
  0
3DFACE
 8
GROUP0
10
111.414814565725
20
10.6470476127563
30
25.0000036395972
11
114.000000000003
21
20.0000000000001
31
25.0000036395966
12
111.165063509464
22
11.25
32
25.0000036395972
13
111.165063509464
23
11.25
33
25.0000036395972
70
3
  0
3DFACE
 8
GROUP0
10
111.165063509464
20
11.25
30
25.0000036395972
11
114.000000000003
21
20.0000000000001
31
25.0000036395966
12
110.767766952969
22
11.7677669529664
32
25.0000036395973
13
110.767766952969
23
11.7677669529664
33
25.0000036395973
70
3
  0
3DFACE
 8
GROUP0
10
110.767766952969
20
11.7677669529664
30
25.0000036395973
11
114.000000000003
21
20.0000000000001
31
25.0000036395966
12
110.250000000003
22
12.1650635094611
32
25.0000036395975
13
110.250000000003
23
12.1650635094611
33
25.0000036395975
70
3
  0
3DFACE
 8
GROUP0
10
110.250000000003
20
12.1650635094611
30
25.0000036395975
11
114.000000000003
21
20.0000000000001
31
25.0000036395966
12
109.647047612759
22
12.4148145657227
32
25.0000036395976
13
109.647047612759
23
12.4148145657227
33
25.0000036395976
70
3
  0
3DFACE
 8
GROUP0
10
109.647047612759
20
12.4148145657227
30
25.0000036395976
11
114.000000000003
21
20.0000000000001
31
25.0000036395966
12
109.000000000003
22
12.5
32
25.0000036395977
13
109.000000000003
23
12.5
33
25.0000036395977
70
3
  0
3DFACE
 8
GROUP0
10
109.000000000003
20
12.5
30
25.0000036395977
11
114.000000000003
21
20.0000000000001
31
25.0000036395966
12
5.00000000000286
22
20.0000000000001
32
25.000003639621
13
5.00000000000286
23
20.0000000000001
33
25.000003639621
70
13
  0
3DFACE
 8
GROUP0
10
109.000000000003
20
12.5
30
25.0000036395977
11
5.00000000000286
21
20.0000000000001
31
25.000003639621
12
108.352952387246
22
12.4148145657227
32
25.0000036395979
13
108.352952387246
23
12.4148145657227
33
25.0000036395979
70
3
  0
3DFACE
 8
GROUP0
10
108.352952387246
20
12.4148145657227
30
25.0000036395979
11
5.00000000000286
21
20.0000000000001
31
25.000003639621
12
107.750000000003
22
12.1650635094611
32
25.000003639598
13
107.750000000003
23
12.1650635094611
33
25.000003639598
70
3
  0
3DFACE
 8
GROUP0
10
107.750000000003
20
12.1650635094611
30
25.000003639598
11
5.00000000000286
21
20.0000000000001
31
25.000003639621
12
107.232233047036
22
11.7677669529664
32
25.0000036395981
13
107.232233047036
23
11.7677669529664
33
25.0000036395981
70
3
  0
3DFACE
 8
GROUP0
10
107.232233047036
20
11.7677669529664
30
25.0000036395981
11
5.00000000000286
21
20.0000000000001
31
25.000003639621
12
106.834936490542
22
11.25
32
25.0000036395982
13
106.834936490542
23
11.25
33
25.0000036395982
70
3
  0
3DFACE
 8
GROUP0
10
106.834936490542
20
11.25
30
25.0000036395982
11
5.00000000000286
21
20.0000000000001
31
25.000003639621
12
106.58518543428
22
10.6470476127563
32
25.0000036395983
13
106.58518543428
23
10.6470476127563
33
25.0000036395983
70
3
  0
3DFACE
 8
GROUP0
10
106.58518543428
20
10.6470476127563
30
25.0000036395983
11
5.00000000000286
21
20.0000000000001
31
25.000003639621
12
106.500000000003
22
10.0
32
25.0000036395983
13
106.500000000003
23
10.0
33
25.0000036395983
70
3
  0
3DFACE
 8
GROUP0
10
106.500000000003
20
10.0
30
25.0000036395983
11
5.00000000000286
21
20.0000000000001
31
25.000003639621
12
11.7677669529692
22
11.7677669529664
32
25.0000036396194
13
11.7677669529692
23
11.7677669529664
33
25.0000036396194
70
15
  0
3DFACE
 8
GROUP0
10
106.500000000003
20
10.0
30
25.0000036395983
11
11.7677669529692
21
11.7677669529664
31
25.0000036396194
12
12.165063509464
22
11.25
32
25.0000036396194
13
12.165063509464
23
11.25
33
25.0000036396194
70
13
  0
3DFACE
 8
GROUP0
10
106.500000000003
20
10.0
30
25.0000036395983
11
12.165063509464
21
11.25
31
25.0000036396194
12
12.4148145657255
22
10.6470476127563
32
25.0000036396193
13
12.4148145657255
23
10.6470476127563
33
25.0000036396193
70
13
  0
3DFACE
 8
GROUP0
10
106.500000000003
20
10.0
30
25.0000036395983
11
12.4148145657255
21
10.6470476127563
31
25.0000036396193
12
12.5000000000029
22
10.0
32
25.0000036396193
13
12.5000000000029
23
10.0
33
25.0000036396193
70
13
  0
3DFACE
 8
GROUP0
10
11.7677669529692
20
11.7677669529664
30
25.0000036396194
11
5.00000000000286
21
20.0000000000001
31
25.000003639621
12
11.2500000000028
22
12.1650635094611
32
25.0000036396196
13
11.2500000000028
23
12.1650635094611
33
25.0000036396196
70
3
  0
3DFACE
 8
GROUP0
10
11.2500000000028
20
12.1650635094611
30
25.0000036396196
11
5.00000000000286
21
20.0000000000001
31
25.000003639621
12
10.6470476127591
22
12.4148145657227
32
25.0000036396197
13
10.6470476127591
23
12.4148145657227
33
25.0000036396197
70
3
  0
3DFACE
 8
GROUP0
10
10.6470476127591
20
12.4148145657227
30
25.0000036396197
11
5.00000000000286
21
20.0000000000001
31
25.000003639621
12
10.0000000000028
22
12.5
32
25.0000036396198
13
10.0000000000028
23
12.5
33
25.0000036396198
70
3
  0
3DFACE
 8
GROUP0
10
10.0000000000028
20
12.5
30
25.0000036396198
11
5.00000000000286
21
20.0000000000001
31
25.000003639621
12
9.35295238724656
22
12.4148145657227
32
25.00000363962
13
9.35295238724656
23
12.4148145657227
33
25.00000363962
70
3
  0
3DFACE
 8
GROUP0
10
9.35295238724656
20
12.4148145657227
30
25.00000363962
11
5.00000000000286
21
20.0000000000001
31
25.000003639621
12
8.75000000000282
22
12.1650635094611
32
25.0000036396201
13
8.75000000000282
23
12.1650635094611
33
25.0000036396201
70
3
  0
3DFACE
 8
GROUP0
10
8.75000000000282
20
12.1650635094611
30
25.0000036396201
11
5.00000000000286
21
20.0000000000001
31
25.000003639621
12
8.2322330470365
22
11.7677669529664
32
25.0000036396202
13
8.2322330470365
23
11.7677669529664
33
25.0000036396202
70
3
  0
3DFACE
 8
GROUP0
10
8.2322330470365
20
11.7677669529664
30
25.0000036396202
11
5.00000000000286
21
20.0000000000001
31
25.000003639621
12
7.83493649054174
22
11.25
32
25.0000036396203
13
7.83493649054174
23
11.25
33
25.0000036396203
70
3
  0
3DFACE
 8
GROUP0
10
7.83493649054174
20
11.25
30
25.0000036396203
11
5.00000000000286
21
20.0000000000001
31
25.000003639621
12
7.58518543428016
22
10.6470476127563
32
25.0000036396204
13
7.58518543428016
23
10.6470476127563
33
25.0000036396204
70
3
  0
3DFACE
 8
GROUP0
10
7.58518543428016
20
10.6470476127563
30
25.0000036396204
11
5.00000000000286
21
20.0000000000001
31
25.000003639621
12
7.50000000000283
22
10.0
32
25.0000036396204
13
7.50000000000283
23
10.0
33
25.0000036396204
70
3
  0
3DFACE
 8
GROUP0
10
119.000000000003
20
74.0000000000001
30
25.0000036395955
11
111.414814565725
21
64.6470476127563
31
25.0000036395972
12
114.000000000003
22
54.0000000000001
32
25.0000036395966
13
114.000000000003
23
54.0000000000001
33
25.0000036395966
70
15
  0
3DFACE
 8
GROUP0
10
111.414814565725
20
64.6470476127563
30
25.0000036395972
11
119.000000000003
21
74.0000000000001
31
25.0000036395955
12
111.165063509464
22
65.25
32
25.0000036395972
13
111.165063509464
23
65.25
33
25.0000036395972
70
3
  0
3DFACE
 8
GROUP0
10
111.165063509464
20
65.25
30
25.0000036395972
11
119.000000000003
21
74.0000000000001
31
25.0000036395955
12
110.767766952969
22
65.7677669529664
32
25.0000036395973
13
110.767766952969
23
65.7677669529664
33
25.0000036395973
70
3
  0
3DFACE
 8
GROUP0
10
110.767766952969
20
65.7677669529664
30
25.0000036395973
11
119.000000000003
21
74.0000000000001
31
25.0000036395955
12
110.250000000003
22
66.1650635094611
32
25.0000036395975
13
110.250000000003
23
66.1650635094611
33
25.0000036395975
70
3
  0
3DFACE
 8
GROUP0
10
110.250000000003
20
66.1650635094611
30
25.0000036395975
11
119.000000000003
21
74.0000000000001
31
25.0000036395955
12
109.647047612759
22
66.4148145657227
32
25.0000036395976
13
109.647047612759
23
66.4148145657227
33
25.0000036395976
70
3
  0
3DFACE
 8
GROUP0
10
109.647047612759
20
66.4148145657227
30
25.0000036395976
11
119.000000000003
21
74.0000000000001
31
25.0000036395955
12
109.000000000003
22
66.5
32
25.0000036395977
13
109.000000000003
23
66.5
33
25.0000036395977
70
3
  0
3DFACE
 8
GROUP0
10
109.000000000003
20
66.5
30
25.0000036395977
11
119.000000000003
21
74.0000000000001
31
25.0000036395955
12
2.8199664825479e-012
22
74.0000000000002
32
25.0000036396221
13
2.8199664825479e-012
23
74.0000000000002
33
25.0000036396221
70
13
  0
3DFACE
 8
GROUP0
10
114.000000000003
20
54.0000000000001
30
25.0000036395966
11
111.414814565725
21
64.6470476127563
31
25.0000036395972
12
111.500000000003
22
64.0
32
25.0000036395972
13
111.500000000003
23
64.0
33
25.0000036395972
70
13
  0
3DFACE
 8
GROUP0
10
109.000000000003
20
66.5
30
25.0000036395977
11
2.8199664825479e-012
21
74.0000000000002
31
25.0000036396221
12
108.352952387246
22
66.4148145657227
32
25.0000036395979
13
108.352952387246
23
66.4148145657227
33
25.0000036395979
70
3
  0
3DFACE
 8
GROUP0
10
108.352952387246
20
66.4148145657227
30
25.0000036395979
11
2.8199664825479e-012
21
74.0000000000002
31
25.0000036396221
12
107.750000000003
22
66.1650635094611
32
25.000003639598
13
107.750000000003
23
66.1650635094611
33
25.000003639598
70
3
  0
3DFACE
 8
GROUP0
10
107.750000000003
20
66.1650635094611
30
25.000003639598
11
2.8199664825479e-012
21
74.0000000000002
31
25.0000036396221
12
107.232233047036
22
65.7677669529664
32
25.0000036395981
13
107.232233047036
23
65.7677669529664
33
25.0000036395981
70
3
  0
3DFACE
 8
GROUP0
10
107.232233047036
20
65.7677669529664
30
25.0000036395981
11
2.8199664825479e-012
21
74.0000000000002
31
25.0000036396221
12
106.834936490542
22
65.25
32
25.0000036395982
13
106.834936490542
23
65.25
33
25.0000036395982
70
3
  0
3DFACE
 8
GROUP0
10
106.834936490542
20
65.25
30
25.0000036395982
11
2.8199664825479e-012
21
74.0000000000002
31
25.0000036396221
12
106.58518543428
22
64.6470476127563
32
25.0000036395983
13
106.58518543428
23
64.6470476127563
33
25.0000036395983
70
3
  0
3DFACE
 8
GROUP0
10
106.58518543428
20
64.6470476127563
30
25.0000036395983
11
2.8199664825479e-012
21
74.0000000000002
31
25.0000036396221
12
106.500000000003
22
64.0
32
25.0000036395983
13
106.500000000003
23
64.0
33
25.0000036395983
70
3
  0
3DFACE
 8
GROUP0
10
106.500000000003
20
64.0
30
25.0000036395983
11
2.8199664825479e-012
21
74.0000000000002
31
25.0000036396221
12
89.0000000000027
22
64.0000000000001
32
25.0000036396023
13
89.0000000000027
23
64.0000000000001
33
25.0000036396023
70
15
  0
3DFACE
 8
GROUP0
10
89.0000000000027
20
64.0000000000001
30
25.0000036396023
11
2.8199664825479e-012
21
74.0000000000002
31
25.0000036396221
12
30.0000000000028
22
64.0000000000001
32
25.0000036396155
13
30.0000000000028
23
64.0000000000001
33
25.0000036396155
70
3
  0
3DFACE
 8
GROUP0
10
30.0000000000028
20
64.0000000000001
30
25.0000036396155
11
2.8199664825479e-012
21
74.0000000000002
31
25.0000036396221
12
30.0000000000028
22
54.0000000000001
32
25.0000036396154
13
30.0000000000028
23
54.0000000000001
33
25.0000036396154
70
3
  0
3DFACE
 8
GROUP0
10
30.0000000000028
20
54.0000000000001
30
25.0000036396154
11
2.8199664825479e-012
21
74.0000000000002
31
25.0000036396221
12
11.2500000000029
22
66.1650635094611
32
25.0000036396196
13
11.2500000000029
23
66.1650635094611
33
25.0000036396196
70
15
  0
3DFACE
 8
GROUP0
10
30.0000000000028
20
54.0000000000001
30
25.0000036396154
11
11.2500000000029
21
66.1650635094611
31
25.0000036396196
12
11.7677669529692
22
65.7677669529664
32
25.0000036396194
13
11.7677669529692
23
65.7677669529664
33
25.0000036396194
70
13
  0
3DFACE
 8
GROUP0
10
30.0000000000028
20
54.0000000000001
30
25.0000036396154
11
11.7677669529692
21
65.7677669529664
31
25.0000036396194
12
12.165063509464
22
65.25
32
25.0000036396194
13
12.165063509464
23
65.25
33
25.0000036396194
70
13
  0
3DFACE
 8
GROUP0
10
30.0000000000028
20
54.0000000000001
30
25.0000036396154
11
12.165063509464
21
65.25
31
25.0000036396194
12
12.4148145657255
22
64.6470476127563
32
25.0000036396193
13
12.4148145657255
23
64.6470476127563
33
25.0000036396193
70
13
  0
3DFACE
 8
GROUP0
10
30.0000000000028
20
54.0000000000001
30
25.0000036396154
11
12.4148145657255
21
64.6470476127563
31
25.0000036396193
12
12.5000000000029
22
64.0
32
25.0000036396193
13
12.5000000000029
23
64.0
33
25.0000036396193
70
13
  0
3DFACE
 8
GROUP0
10
11.2500000000029
20
66.1650635094611
30
25.0000036396196
11
2.8199664825479e-012
21
74.0000000000002
31
25.0000036396221
12
10.6470476127591
22
66.4148145657227
32
25.0000036396197
13
10.6470476127591
23
66.4148145657227
33
25.0000036396197
70
3
  0
3DFACE
 8
GROUP0
10
10.6470476127591
20
66.4148145657227
30
25.0000036396197
11
2.8199664825479e-012
21
74.0000000000002
31
25.0000036396221
12
10.0000000000028
22
66.5
32
25.0000036396198
13
10.0000000000028
23
66.5
33
25.0000036396198
70
3
  0
3DFACE
 8
GROUP0
10
10.0000000000028
20
66.5
30
25.0000036396198
11
2.8199664825479e-012
21
74.0000000000002
31
25.0000036396221
12
9.35295238724656
22
66.4148145657227
32
25.00000363962
13
9.35295238724656
23
66.4148145657227
33
25.00000363962
70
3
  0
3DFACE
 8
GROUP0
10
9.35295238724656
20
66.4148145657227
30
25.00000363962
11
2.8199664825479e-012
21
74.0000000000002
31
25.0000036396221
12
8.75000000000282
22
66.1650635094611
32
25.0000036396201
13
8.75000000000282
23
66.1650635094611
33
25.0000036396201
70
3
  0
3DFACE
 8
GROUP0
10
8.75000000000282
20
66.1650635094611
30
25.0000036396201
11
2.8199664825479e-012
21
74.0000000000002
31
25.0000036396221
12
8.2322330470365
22
65.7677669529664
32
25.0000036396202
13
8.2322330470365
23
65.7677669529664
33
25.0000036396202
70
3
  0
3DFACE
 8
GROUP0
10
8.2322330470365
20
65.7677669529664
30
25.0000036396202
11
2.8199664825479e-012
21
74.0000000000002
31
25.0000036396221
12
7.83493649054174
22
65.25
32
25.0000036396203
13
7.83493649054174
23
65.25
33
25.0000036396203
70
3
  0
3DFACE
 8
GROUP0
10
7.83493649054174
20
65.25
30
25.0000036396203
11
2.8199664825479e-012
21
74.0000000000002
31
25.0000036396221
12
7.58518543428016
22
64.6470476127563
32
25.0000036396204
13
7.58518543428016
23
64.6470476127563
33
25.0000036396204
70
3
  0
3DFACE
 8
GROUP0
10
7.58518543428016
20
64.6470476127563
30
25.0000036396204
11
2.8199664825479e-012
21
74.0000000000002
31
25.0000036396221
12
7.50000000000283
22
64.0
32
25.0000036396204
13
7.50000000000283
23
64.0
33
25.0000036396204
70
3
  0
3DFACE
 8
GROUP0
10
7.50000000000283
20
64.0
30
25.0000036396204
11
2.8199664825479e-012
21
74.0000000000002
31
25.0000036396221
12
5.00000000000286
22
54.0000000000001
32
25.0000036396209
13
5.00000000000286
23
54.0000000000001
33
25.0000036396209
70
15
  0
3DFACE
 8
GROUP0
10
5.00000000000286
20
54.0000000000001
30
25.0000036396209
11
2.8199664825479e-012
21
74.0000000000002
31
25.0000036396221
12
5.00000000000286
22
20.0000000000001
32
25.000003639621
13
5.00000000000286
23
20.0000000000001
33
25.000003639621
70
3
  0
3DFACE
 8
GROUP0
10
119.000000000003
20
0.0
30
25.0000036395955
11
109.000000000003
21
7.50000000000001
31
25.0000036395977
12
2.8199664825479e-012
22
0.0
32
25.0000036396221
13
2.8199664825479e-012
23
0.0
33
25.0000036396221
70
3
  0
3DFACE
 8
GROUP0
10
109.000000000003
20
7.50000000000001
30
25.0000036395977
11
119.000000000003
21
0.0
31
25.0000036395955
12
109.647047612759
22
7.58518543427734
32
25.0000036395976
13
109.647047612759
23
7.58518543427734
33
25.0000036395976
70
3
  0
3DFACE
 8
GROUP0
10
109.647047612759
20
7.58518543427734
30
25.0000036395976
11
119.000000000003
21
0.0
31
25.0000036395955
12
110.250000000003
22
7.83493649053891
32
25.0000036395975
13
110.250000000003
23
7.83493649053891
33
25.0000036395975
70
3
  0
3DFACE
 8
GROUP0
10
110.250000000003
20
7.83493649053891
30
25.0000036395975
11
119.000000000003
21
0.0
31
25.0000036395955
12
110.767766952969
22
8.23223304703364
32
25.0000036395973
13
110.767766952969
23
8.23223304703364
33
25.0000036395973
70
3
  0
3DFACE
 8
GROUP0
10
110.767766952969
20
8.23223304703364
30
25.0000036395973
11
119.000000000003
21
0.0
31
25.0000036395955
12
111.165063509464
22
8.75000000000001
32
25.0000036395972
13
111.165063509464
23
8.75000000000001
33
25.0000036395972
70
3
  0
3DFACE
 8
GROUP0
10
111.165063509464
20
8.75000000000001
30
25.0000036395972
11
119.000000000003
21
0.0
31
25.0000036395955
12
111.414814565725
22
9.35295238724371
32
25.0000036395972
13
111.414814565725
23
9.35295238724371
33
25.0000036395972
70
3
  0
3DFACE
 8
GROUP0
10
111.414814565725
20
9.35295238724371
30
25.0000036395972
11
119.000000000003
21
0.0
31
25.0000036395955
12
114.000000000003
22
20.0000000000001
32
25.0000036395966
13
114.000000000003
23
20.0000000000001
33
25.0000036395966
70
15
  0
3DFACE
 8
GROUP0
10
114.000000000003
20
20.0000000000001
30
25.0000036395966
11
119.000000000003
21
0.0
31
25.0000036395955
12
119.000000000003
22
74.0000000000001
32
25.0000036395955
13
119.000000000003
23
74.0000000000001
33
25.0000036395955
70
13
  0
3DFACE
 8
GROUP0
10
114.000000000003
20
20.0000000000001
30
25.0000036395966
11
119.000000000003
21
74.0000000000001
31
25.0000036395955
12
114.000000000003
22
54.0000000000001
32
25.0000036395966
13
114.000000000003
23
54.0000000000001
33
25.0000036395966
70
3
  0
3DFACE
 8
GROUP0
10
111.414814565725
20
9.35295238724371
30
25.0000036395972
11
114.000000000003
21
20.0000000000001
31
25.0000036395966
12
111.500000000003
22
10.0
32
25.0000036395972
13
111.500000000003
23
10.0
33
25.0000036395972
70
3
  0
3DFACE
 8
GROUP0
10
2.8199664825479e-012
20
0.0
30
25.0000036396221
11
109.000000000003
21
7.50000000000001
31
25.0000036395977
12
108.352952387246
22
7.58518543427734
32
25.0000036395979
13
108.352952387246
23
7.58518543427734
33
25.0000036395979
70
13
  0
3DFACE
 8
GROUP0
10
2.8199664825479e-012
20
0.0
30
25.0000036396221
11
108.352952387246
21
7.58518543427734
31
25.0000036395979
12
107.750000000003
22
7.83493649053891
32
25.000003639598
13
107.750000000003
23
7.83493649053891
33
25.000003639598
70
13
  0
3DFACE
 8
GROUP0
10
2.8199664825479e-012
20
0.0
30
25.0000036396221
11
107.750000000003
21
7.83493649053891
31
25.000003639598
12
107.232233047036
22
8.23223304703364
32
25.0000036395981
13
107.232233047036
23
8.23223304703364
33
25.0000036395981
70
13
  0
3DFACE
 8
GROUP0
10
2.8199664825479e-012
20
0.0
30
25.0000036396221
11
107.232233047036
21
8.23223304703364
31
25.0000036395981
12
106.834936490542
22
8.75000000000001
32
25.0000036395982
13
106.834936490542
23
8.75000000000001
33
25.0000036395982
70
13
  0
3DFACE
 8
GROUP0
10
2.8199664825479e-012
20
0.0
30
25.0000036396221
11
106.834936490542
21
8.75000000000001
31
25.0000036395982
12
106.58518543428
22
9.35295238724371
32
25.0000036395983
13
106.58518543428
23
9.35295238724371
33
25.0000036395983
70
13
  0
3DFACE
 8
GROUP0
10
2.8199664825479e-012
20
0.0
30
25.0000036396221
11
106.58518543428
21
9.35295238724371
31
25.0000036395983
12
106.500000000003
22
10.0
32
25.0000036395983
13
106.500000000003
23
10.0
33
25.0000036395983
70
13
  0
3DFACE
 8
GROUP0
10
2.8199664825479e-012
20
0.0
30
25.0000036396221
11
106.500000000003
21
10.0
31
25.0000036395983
12
11.2500000000029
22
7.83493649053891
32
25.0000036396196
13
11.2500000000029
23
7.83493649053891
33
25.0000036396196
70
15
  0
3DFACE
 8
GROUP0
10
11.2500000000029
20
7.83493649053891
30
25.0000036396196
11
106.500000000003
21
10.0
31
25.0000036395983
12
11.7677669529692
22
8.23223304703363
32
25.0000036396194
13
11.7677669529692
23
8.23223304703363
33
25.0000036396194
70
3
  0
3DFACE
 8
GROUP0
10
11.7677669529692
20
8.23223304703363
30
25.0000036396194
11
106.500000000003
21
10.0
31
25.0000036395983
12
12.165063509464
22
8.75
32
25.0000036396194
13
12.165063509464
23
8.75
33
25.0000036396194
70
3
  0
3DFACE
 8
GROUP0
10
12.165063509464
20
8.75
30
25.0000036396194
11
106.500000000003
21
10.0
31
25.0000036395983
12
12.4148145657255
22
9.3529523872437
32
25.0000036396193
13
12.4148145657255
23
9.3529523872437
33
25.0000036396193
70
3
  0
3DFACE
 8
GROUP0
10
12.4148145657255
20
9.3529523872437
30
25.0000036396193
11
106.500000000003
21
10.0
31
25.0000036395983
12
12.5000000000029
22
10.0
32
25.0000036396193
13
12.5000000000029
23
10.0
33
25.0000036396193
70
3
  0
3DFACE
 8
GROUP0
10
2.8199664825479e-012
20
0.0
30
25.0000036396221
11
11.2500000000029
21
7.83493649053891
31
25.0000036396196
12
10.6470476127591
22
7.58518543427733
32
25.0000036396197
13
10.6470476127591
23
7.58518543427733
33
25.0000036396197
70
13
  0
3DFACE
 8
GROUP0
10
2.8199664825479e-012
20
0.0
30
25.0000036396221
11
10.6470476127591
21
7.58518543427733
31
25.0000036396197
12
10.0000000000028
22
7.5
32
25.0000036396198
13
10.0000000000028
23
7.5
33
25.0000036396198
70
13
  0
3DFACE
 8
GROUP0
10
2.8199664825479e-012
20
0.0
30
25.0000036396221
11
10.0000000000028
21
7.5
31
25.0000036396198
12
9.35295238724656
22
7.58518543427733
32
25.00000363962
13
9.35295238724656
23
7.58518543427733
33
25.00000363962
70
13
  0
3DFACE
 8
GROUP0
10
2.8199664825479e-012
20
0.0
30
25.0000036396221
11
9.35295238724656
21
7.58518543427733
31
25.00000363962
12
8.75000000000282
22
7.8349364905389
32
25.0000036396201
13
8.75000000000282
23
7.8349364905389
33
25.0000036396201
70
13
  0
3DFACE
 8
GROUP0
10
2.8199664825479e-012
20
0.0
30
25.0000036396221
11
8.75000000000282
21
7.8349364905389
31
25.0000036396201
12
8.2322330470365
22
8.23223304703363
32
25.0000036396202
13
8.2322330470365
23
8.23223304703363
33
25.0000036396202
70
13
  0
3DFACE
 8
GROUP0
10
2.8199664825479e-012
20
0.0
30
25.0000036396221
11
8.2322330470365
21
8.23223304703363
31
25.0000036396202
12
7.83493649054174
22
8.75
32
25.0000036396203
13
7.83493649054174
23
8.75
33
25.0000036396203
70
13
  0
3DFACE
 8
GROUP0
10
2.8199664825479e-012
20
0.0
30
25.0000036396221
11
7.83493649054174
21
8.75
31
25.0000036396203
12
7.58518543428016
22
9.3529523872437
32
25.0000036396204
13
7.58518543428016
23
9.3529523872437
33
25.0000036396204
70
13
  0
3DFACE
 8
GROUP0
10
2.8199664825479e-012
20
0.0
30
25.0000036396221
11
7.58518543428016
21
9.3529523872437
31
25.0000036396204
12
7.50000000000283
22
10.0
32
25.0000036396204
13
7.50000000000283
23
10.0
33
25.0000036396204
70
13
  0
3DFACE
 8
GROUP0
10
2.8199664825479e-012
20
0.0
30
25.0000036396221
11
7.50000000000283
21
10.0
31
25.0000036396204
12
5.00000000000286
22
20.0000000000001
32
25.000003639621
13
5.00000000000286
23
20.0000000000001
33
25.000003639621
70
15
  0
3DFACE
 8
GROUP0
10
2.8199664825479e-012
20
0.0
30
25.0000036396221
11
5.00000000000286
21
20.0000000000001
31
25.000003639621
12
2.8199664825479e-012
22
74.0000000000002
32
25.0000036396221
13
2.8199664825479e-012
23
74.0000000000002
33
25.0000036396221
70
3
  0
3DFACE
 8
GROUP0
10
30.0000000000028
20
54.0000000000001
30
25.0000036396154
11
11.7677669529692
21
62.2322330470337
31
25.0000036396194
12
5.00000000000286
22
54.0000000000001
32
25.0000036396209
13
5.00000000000286
23
54.0000000000001
33
25.0000036396209
70
3
  0
3DFACE
 8
GROUP0
10
11.7677669529692
20
62.2322330470337
30
25.0000036396194
11
30.0000000000028
21
54.0000000000001
31
25.0000036396154
12
12.165063509464
22
62.75
32
25.0000036396194
13
12.165063509464
23
62.75
33
25.0000036396194
70
3
  0
3DFACE
 8
GROUP0
10
12.165063509464
20
62.75
30
25.0000036396194
11
30.0000000000028
21
54.0000000000001
31
25.0000036396154
12
12.4148145657255
22
63.3529523872437
32
25.0000036396193
13
12.4148145657255
23
63.3529523872437
33
25.0000036396193
70
3
  0
3DFACE
 8
GROUP0
10
12.4148145657255
20
63.3529523872437
30
25.0000036396193
11
30.0000000000028
21
54.0000000000001
31
25.0000036396154
12
12.5000000000029
22
64.0
32
25.0000036396193
13
12.5000000000029
23
64.0
33
25.0000036396193
70
3
  0
3DFACE
 8
GROUP0
10
5.00000000000286
20
54.0000000000001
30
25.0000036396209
11
11.7677669529692
21
62.2322330470337
31
25.0000036396194
12
11.2500000000028
22
61.8349364905389
32
25.0000036396196
13
11.2500000000028
23
61.8349364905389
33
25.0000036396196
70
13
  0
3DFACE
 8
GROUP0
10
5.00000000000286
20
54.0000000000001
30
25.0000036396209
11
11.2500000000028
21
61.8349364905389
31
25.0000036396196
12
10.6470476127591
22
61.5851854342773
32
25.0000036396197
13
10.6470476127591
23
61.5851854342773
33
25.0000036396197
70
13
  0
3DFACE
 8
GROUP0
10
5.00000000000286
20
54.0000000000001
30
25.0000036396209
11
10.6470476127591
21
61.5851854342773
31
25.0000036396197
12
10.0000000000028
22
61.5
32
25.0000036396198
13
10.0000000000028
23
61.5
33
25.0000036396198
70
13
  0
3DFACE
 8
GROUP0
10
5.00000000000286
20
54.0000000000001
30
25.0000036396209
11
10.0000000000028
21
61.5
31
25.0000036396198
12
9.35295238724656
22
61.5851854342773
32
25.00000363962
13
9.35295238724656
23
61.5851854342773
33
25.00000363962
70
13
  0
3DFACE
 8
GROUP0
10
5.00000000000286
20
54.0000000000001
30
25.0000036396209
11
9.35295238724656
21
61.5851854342773
31
25.00000363962
12
8.75000000000282
22
61.8349364905389
32
25.0000036396201
13
8.75000000000282
23
61.8349364905389
33
25.0000036396201
70
13
  0
3DFACE
 8
GROUP0
10
5.00000000000286
20
54.0000000000001
30
25.0000036396209
11
8.75000000000282
21
61.8349364905389
31
25.0000036396201
12
8.2322330470365
22
62.2322330470337
32
25.0000036396202
13
8.2322330470365
23
62.2322330470337
33
25.0000036396202
70
13
  0
3DFACE
 8
GROUP0
10
5.00000000000286
20
54.0000000000001
30
25.0000036396209
11
8.2322330470365
21
62.2322330470337
31
25.0000036396202
12
7.83493649054174
22
62.75
32
25.0000036396203
13
7.83493649054174
23
62.75
33
25.0000036396203
70
13
  0
3DFACE
 8
GROUP0
10
5.00000000000286
20
54.0000000000001
30
25.0000036396209
11
7.83493649054174
21
62.75
31
25.0000036396203
12
7.58518543428016
22
63.3529523872437
32
25.0000036396204
13
7.58518543428016
23
63.3529523872437
33
25.0000036396204
70
13
  0
3DFACE
 8
GROUP0
10
5.00000000000286
20
54.0000000000001
30
25.0000036396209
11
7.58518543428016
21
63.3529523872437
31
25.0000036396204
12
7.50000000000283
22
64.0
32
25.0000036396204
13
7.50000000000283
23
64.0
33
25.0000036396204
70
13
  0
3DFACE
 8
GROUP0
10
30.0000000000017
20
64.0000000000001
30
20.0000036396155
11
89.0000000000015
21
54.0000000000001
31
20.0000036396022
12
89.0000000000015
22
64.0000000000001
32
20.0000036396023
13
89.0000000000015
23
64.0000000000001
33
20.0000036396023
70
1
  0
3DFACE
 8
GROUP0
10
89.0000000000015
20
54.0000000000001
30
20.0000036396022
11
30.0000000000017
21
64.0000000000001
31
20.0000036396155
12
30.0000000000017
22
54.0000000000001
32
20.0000036396154
13
30.0000000000017
23
54.0000000000001
33
20.0000036396154
70
1
  0
3DFACE
 8
GROUP0
10
89.0000000000027
20
64.0000000000001
30
25.0000036396023
11
89.0000000000015
21
54.0000000000001
31
20.0000036396022
12
89.0000000000027
22
54.0000000000001
32
25.0000036396022
13
89.0000000000027
23
54.0000000000001
33
25.0000036396022
70
1
  0
3DFACE
 8
GROUP0
10
89.0000000000015
20
54.0000000000001
30
20.0000036396022
11
89.0000000000027
21
64.0000000000001
31
25.0000036396023
12
89.0000000000015
22
64.0000000000001
32
20.0000036396023
13
89.0000000000015
23
64.0000000000001
33
20.0000036396023
70
1
  0
3DFACE
 8
GROUP0
10
30.0000000000017
20
64.0000000000001
30
20.0000036396155
11
89.0000000000027
21
64.0000000000001
31
25.0000036396023
12
30.0000000000028
22
64.0000000000001
32
25.0000036396155
13
30.0000000000028
23
64.0000000000001
33
25.0000036396155
70
1
  0
3DFACE
 8
GROUP0
10
89.0000000000027
20
64.0000000000001
30
25.0000036396023
11
30.0000000000017
21
64.0000000000001
31
20.0000036396155
12
89.0000000000015
22
64.0000000000001
32
20.0000036396023
13
89.0000000000015
23
64.0000000000001
33
20.0000036396023
70
1
  0
3DFACE
 8
GROUP0
10
30.0000000000017
20
54.0000000000001
30
20.0000036396154
11
30.0000000000028
21
64.0000000000001
31
25.0000036396155
12
30.0000000000028
22
54.0000000000001
32
25.0000036396154
13
30.0000000000028
23
54.0000000000001
33
25.0000036396154
70
1
  0
3DFACE
 8
GROUP0
10
30.0000000000028
20
64.0000000000001
30
25.0000036396155
11
30.0000000000017
21
54.0000000000001
31
20.0000036396154
12
30.0000000000017
22
64.0000000000001
32
20.0000036396155
13
30.0000000000017
23
64.0000000000001
33
20.0000036396155
70
1
 0
ENDSEC
 0
EOF
