 0
SECTION
 2
ENTITIES
  0
POLYLINE
 8
Layer0
 66
     1
70
    8
 10
0.0
 20
 0.0
 30
0.0
  0
VERTEX
  8
MY3DLAYER
10
75.0
20
75.0
30
0.0
 70
     32
  0
VERTEX
  8
MY3DLAYER
10
75.0
20
-75.0
30
0.0
 70
     32
  0
VERTEX
  8
MY3DLAYER
10
-75.0
20
-75.0
30
0.0
 70
     32
  0
VERTEX
  8
MY3DLAYER
10
-75.0
20
75.0
30
0.0
 70
     32
  0
VERTEX
  8
MY3DLAYER
10
75.0
20
75.0
30
0.0
 70
     32
  0
SEQEND
  0
POLYLINE
 8
Layer0
 66
     1
70
    8
 10
0.0
 20
 0.0
 30
0.0
  0
VERTEX
  8
MY3DLAYER
10
50.0
20
0.0
30
0.0
 70
     32
  0
VERTEX
  8
MY3DLAYER
10
48.2962913144534
20
12.940952255126
30
0.0
 70
     32
  0
VERTEX
  8
MY3DLAYER
10
43.3012701892219
20
25.0
30
0.0
 70
     32
  0
VERTEX
  8
MY3DLAYER
10
35.3553390593274
20
35.3553390593274
30
0.0
 70
     32
  0
VERTEX
  8
MY3DLAYER
10
25.0
20
43.3012701892219
30
0.0
 70
     32
  0
VERTEX
  8
MY3DLAYER
10
12.940952255126
20
48.2962913144534
30
0.0
 70
     32
  0
VERTEX
  8
MY3DLAYER
10
3.06161699786838e-015
20
50.0
30
0.0
 70
     32
  0
VERTEX
  8
MY3DLAYER
10
-12.940952255126
20
48.2962913144534
30
0.0
 70
     32
  0
VERTEX
  8
MY3DLAYER
10
-25.0
20
43.3012701892219
30
0.0
 70
     32
  0
VERTEX
  8
MY3DLAYER
10
-35.3553390593274
20
35.3553390593274
30
0.0
 70
     32
  0
VERTEX
  8
MY3DLAYER
10
-43.3012701892219
20
25.0
30
0.0
 70
     32
  0
VERTEX
  8
MY3DLAYER
10
-48.2962913144534
20
12.9409522551261
30
0.0
 70
     32
  0
VERTEX
  8
MY3DLAYER
10
-50.0
20
6.12323399573677e-015
30
0.0
 70
     32
  0
VERTEX
  8
MY3DLAYER
10
-48.2962913144534
20
-12.940952255126
30
0.0
 70
     32
  0
VERTEX
  8
MY3DLAYER
10
-43.3012701892219
20
-25.0
30
0.0
 70
     32
  0
VERTEX
  8
MY3DLAYER
10
-35.3553390593274
20
-35.3553390593274
30
0.0
 70
     32
  0
VERTEX
  8
MY3DLAYER
10
-25.0
20
-43.3012701892219
30
0.0
 70
     32
  0
VERTEX
  8
MY3DLAYER
10
-12.9409522551261
20
-48.2962913144534
30
0.0
 70
     32
  0
VERTEX
  8
MY3DLAYER
10
-9.18485099360515e-015
20
-50.0
30
0.0
 70
     32
  0
VERTEX
  8
MY3DLAYER
10
12.940952255126
20
-48.2962913144534
30
0.0
 70
     32
  0
VERTEX
  8
MY3DLAYER
10
25.0
20
-43.301270189222
30
0.0
 70
     32
  0
VERTEX
  8
MY3DLAYER
10
35.3553390593274
20
-35.3553390593274
30
0.0
 70
     32
  0
VERTEX
  8
MY3DLAYER
10
43.3012701892219
20
-25.0
30
0.0
 70
     32
  0
VERTEX
  8
MY3DLAYER
10
48.2962913144534
20
-12.9409522551261
30
0.0
 70
     32
  0
VERTEX
  8
MY3DLAYER
10
50.0
20
0.0
30
0.0
 70
     32
  0
SEQEND
  0
POLYLINE
 8
Layer0
 66
     1
70
    8
 10
0.0
 20
 0.0
 30
0.0
  0
VERTEX
  8
MY3DLAYER
10
38.0
20
0.0
30
0.0
 70
     32
  0
VERTEX
  8
MY3DLAYER
10
37.9186390830669
20
-2.48531891074544
30
0.0
 70
     32
  0
VERTEX
  8
MY3DLAYER
10
37.6749047322048
20
-4.95999530436196
30
0.0
 70
     32
  0
VERTEX
  8
MY3DLAYER
10
37.2698406553228
20
-7.41343223661287
30
0.0
 70
     32
  0
VERTEX
  8
MY3DLAYER
10
36.7051813989846
20
-9.83512371389579
30
0.0
 70
     32
  0
VERTEX
  8
MY3DLAYER
10
35.983344920814
20
-12.2146996815201
30
0.0
 70
     32
  0
VERTEX
  8
MY3DLAYER
10
35.1074222354289
20
-14.5419704298734
30
0.0
 70
     32
  0
VERTEX
  8
MY3DLAYER
10
34.0811641782422
20
-16.806970228322
30
0.0
 70
     32
  0
VERTEX
  8
MY3DLAYER
10
32.9089653438087
20
-19.0
30
0.0
 70
     32
  0
VERTEX
  8
MY3DLAYER
10
31.5958452674967
20
-21.1116688547449
30
0.0
 70
     32
  0
VERTEX
  8
MY3DLAYER
10
30.1474269310669
20
-23.1329343023314
30
0.0
 70
     32
  0
VERTEX
  8
MY3DLAYER
10
28.5699126842011
20
-25.0551409738026
30
0.0
 70
     32
  0
VERTEX
  8
MY3DLAYER
10
26.8700576850888
20
-26.8700576850888
30
0.0
 70
     32
  0
VERTEX
  8
MY3DLAYER
10
25.0551409738026
20
-28.5699126842011
30
0.0
 70
     32
  0
VERTEX
  8
MY3DLAYER
10
23.1329343023314
20
-30.1474269310669
30
0.0
 70
     32
  0
VERTEX
  8
MY3DLAYER
10
21.1116688547449
20
-31.5958452674967
30
0.0
 70
     32
  0
VERTEX
  8
MY3DLAYER
10
19.0
20
-32.9089653438087
30
0.0
 70
     32
  0
VERTEX
  8
MY3DLAYER
10
16.8069702283221
20
-34.0811641782421
30
0.0
 70
     32
  0
VERTEX
  8
MY3DLAYER
10
14.5419704298734
20
-35.1074222354289
30
0.0
 70
     32
  0
VERTEX
  8
MY3DLAYER
10
12.2146996815201
20
-35.983344920814
30
0.0
 70
     32
  0
VERTEX
  8
MY3DLAYER
10
9.8351237138958
20
-36.7051813989846
30
0.0
 70
     32
  0
VERTEX
  8
MY3DLAYER
10
7.41343223661288
20
-37.2698406553228
30
0.0
 70
     32
  0
VERTEX
  8
MY3DLAYER
10
4.95999530436197
20
-37.6749047322048
30
0.0
 70
     32
  0
VERTEX
  8
MY3DLAYER
10
2.48531891074544
20
-37.9186390830669
30
0.0
 70
     32
  0
VERTEX
  8
MY3DLAYER
10
2.32682891837997e-015
20
-38.0
30
0.0
 70
     32
  0
VERTEX
  8
MY3DLAYER
10
-2.48531891074543
20
-37.9186390830669
30
0.0
 70
     32
  0
VERTEX
  8
MY3DLAYER
10
-4.95999530436195
20
-37.6749047322048
30
0.0
 70
     32
  0
VERTEX
  8
MY3DLAYER
10
-7.41343223661286
20
-37.2698406553228
30
0.0
 70
     32
  0
VERTEX
  8
MY3DLAYER
10
-9.83512371389578
20
-36.7051813989846
30
0.0
 70
     32
  0
VERTEX
  8
MY3DLAYER
10
-12.2146996815201
20
-35.983344920814
30
0.0
 70
     32
  0
VERTEX
  8
MY3DLAYER
10
-14.5419704298734
20
-35.1074222354289
30
0.0
 70
     32
  0
VERTEX
  8
MY3DLAYER
10
-16.806970228322
20
-34.0811641782422
30
0.0
 70
     32
  0
VERTEX
  8
MY3DLAYER
10
-19.0
20
-32.9089653438087
30
0.0
 70
     32
  0
VERTEX
  8
MY3DLAYER
10
-21.1116688547449
20
-31.5958452674967
30
0.0
 70
     32
  0
VERTEX
  8
MY3DLAYER
10
-23.1329343023314
20
-30.1474269310669
30
0.0
 70
     32
  0
VERTEX
  8
MY3DLAYER
10
-25.0551409738026
20
-28.5699126842011
30
0.0
 70
     32
  0
VERTEX
  8
MY3DLAYER
10
-26.8700576850888
20
-26.8700576850888
30
0.0
 70
     32
  0
VERTEX
  8
MY3DLAYER
10
-28.5699126842011
20
-25.0551409738026
30
0.0
 70
     32
  0
VERTEX
  8
MY3DLAYER
10
-30.1474269310669
20
-23.1329343023314
30
0.0
 70
     32
  0
VERTEX
  8
MY3DLAYER
10
-31.5958452674967
20
-21.1116688547449
30
0.0
 70
     32
  0
VERTEX
  8
MY3DLAYER
10
-32.9089653438087
20
-19.0
30
0.0
 70
     32
  0
VERTEX
  8
MY3DLAYER
10
-34.0811641782421
20
-16.8069702283221
30
0.0
 70
     32
  0
VERTEX
  8
MY3DLAYER
10
-35.1074222354289
20
-14.5419704298734
30
0.0
 70
     32
  0
VERTEX
  8
MY3DLAYER
10
-35.983344920814
20
-12.2146996815201
30
0.0
 70
     32
  0
VERTEX
  8
MY3DLAYER
10
-36.7051813989846
20
-9.8351237138958
30
0.0
 70
     32
  0
VERTEX
  8
MY3DLAYER
10
-37.2698406553228
20
-7.41343223661289
30
0.0
 70
     32
  0
VERTEX
  8
MY3DLAYER
10
-37.6749047322048
20
-4.95999530436198
30
0.0
 70
     32
  0
VERTEX
  8
MY3DLAYER
10
-37.9186390830669
20
-2.48531891074546
30
0.0
 70
     32
  0
VERTEX
  8
MY3DLAYER
10
-38.0
20
-4.65365783675994e-015
30
0.0
 70
     32
  0
VERTEX
  8
MY3DLAYER
10
-37.9186390830669
20
2.48531891074543
30
0.0
 70
     32
  0
VERTEX
  8
MY3DLAYER
10
-37.6749047322048
20
4.95999530436195
30
0.0
 70
     32
  0
VERTEX
  8
MY3DLAYER
10
-37.2698406553228
20
7.41343223661286
30
0.0
 70
     32
  0
VERTEX
  8
MY3DLAYER
10
-36.7051813989846
20
9.83512371389577
30
0.0
 70
     32
  0
VERTEX
  8
MY3DLAYER
10
-35.983344920814
20
12.2146996815201
30
0.0
 70
     32
  0
VERTEX
  8
MY3DLAYER
10
-35.1074222354289
20
14.5419704298734
30
0.0
 70
     32
  0
VERTEX
  8
MY3DLAYER
10
-34.0811641782422
20
16.806970228322
30
0.0
 70
     32
  0
VERTEX
  8
MY3DLAYER
10
-32.9089653438087
20
19.0
30
0.0
 70
     32
  0
VERTEX
  8
MY3DLAYER
10
-31.5958452674967
20
21.1116688547449
30
0.0
 70
     32
  0
VERTEX
  8
MY3DLAYER
10
-30.1474269310669
20
23.1329343023314
30
0.0
 70
     32
  0
VERTEX
  8
MY3DLAYER
10
-28.5699126842011
20
25.0551409738026
30
0.0
 70
     32
  0
VERTEX
  8
MY3DLAYER
10
-26.8700576850888
20
26.8700576850888
30
0.0
 70
     32
  0
VERTEX
  8
MY3DLAYER
10
-25.0551409738026
20
28.5699126842011
30
0.0
 70
     32
  0
VERTEX
  8
MY3DLAYER
10
-23.1329343023314
20
30.1474269310669
30
0.0
 70
     32
  0
VERTEX
  8
MY3DLAYER
10
-21.1116688547449
20
31.5958452674967
30
0.0
 70
     32
  0
VERTEX
  8
MY3DLAYER
10
-19.0
20
32.9089653438087
30
0.0
 70
     32
  0
VERTEX
  8
MY3DLAYER
10
-16.8069702283221
20
34.0811641782421
30
0.0
 70
     32
  0
VERTEX
  8
MY3DLAYER
10
-14.5419704298734
20
35.1074222354289
30
0.0
 70
     32
  0
VERTEX
  8
MY3DLAYER
10
-12.2146996815201
20
35.983344920814
30
0.0
 70
     32
  0
VERTEX
  8
MY3DLAYER
10
-9.83512371389582
20
36.7051813989846
30
0.0
 70
     32
  0
VERTEX
  8
MY3DLAYER
10
-7.41343223661289
20
37.2698406553228
30
0.0
 70
     32
  0
VERTEX
  8
MY3DLAYER
10
-4.95999530436199
20
37.6749047322048
30
0.0
 70
     32
  0
VERTEX
  8
MY3DLAYER
10
-2.48531891074546
20
37.9186390830669
30
0.0
 70
     32
  0
VERTEX
  8
MY3DLAYER
10
-6.98048675513991e-015
20
38.0
30
0.0
 70
     32
  0
VERTEX
  8
MY3DLAYER
10
2.48531891074541
20
37.9186390830669
30
0.0
 70
     32
  0
VERTEX
  8
MY3DLAYER
10
4.95999530436195
20
37.6749047322048
30
0.0
 70
     32
  0
VERTEX
  8
MY3DLAYER
10
7.41343223661284
20
37.2698406553228
30
0.0
 70
     32
  0
VERTEX
  8
MY3DLAYER
10
9.83512371389577
20
36.7051813989846
30
0.0
 70
     32
  0
VERTEX
  8
MY3DLAYER
10
12.2146996815201
20
35.983344920814
30
0.0
 70
     32
  0
VERTEX
  8
MY3DLAYER
10
14.5419704298734
20
35.1074222354289
30
0.0
 70
     32
  0
VERTEX
  8
MY3DLAYER
10
16.806970228322
20
34.0811641782422
30
0.0
 70
     32
  0
VERTEX
  8
MY3DLAYER
10
19.0
20
32.9089653438087
30
0.0
 70
     32
  0
VERTEX
  8
MY3DLAYER
10
21.1116688547449
20
31.5958452674967
30
0.0
 70
     32
  0
VERTEX
  8
MY3DLAYER
10
23.1329343023314
20
30.147426931067
30
0.0
 70
     32
  0
VERTEX
  8
MY3DLAYER
10
25.0551409738026
20
28.5699126842012
30
0.0
 70
     32
  0
VERTEX
  8
MY3DLAYER
10
26.8700576850888
20
26.8700576850888
30
0.0
 70
     32
  0
VERTEX
  8
MY3DLAYER
10
28.5699126842011
20
25.0551409738026
30
0.0
 70
     32
  0
VERTEX
  8
MY3DLAYER
10
30.1474269310669
20
23.1329343023314
30
0.0
 70
     32
  0
VERTEX
  8
MY3DLAYER
10
31.5958452674967
20
21.1116688547449
30
0.0
 70
     32
  0
VERTEX
  8
MY3DLAYER
10
32.9089653438087
20
19.0
30
0.0
 70
     32
  0
VERTEX
  8
MY3DLAYER
10
34.0811641782421
20
16.8069702283221
30
0.0
 70
     32
  0
VERTEX
  8
MY3DLAYER
10
35.1074222354289
20
14.5419704298734
30
0.0
 70
     32
  0
VERTEX
  8
MY3DLAYER
10
35.983344920814
20
12.2146996815202
30
0.0
 70
     32
  0
VERTEX
  8
MY3DLAYER
10
36.7051813989846
20
9.83512371389582
30
0.0
 70
     32
  0
VERTEX
  8
MY3DLAYER
10
37.2698406553228
20
7.41343223661289
30
0.0
 70
     32
  0
VERTEX
  8
MY3DLAYER
10
37.6749047322048
20
4.959995304362
30
0.0
 70
     32
  0
VERTEX
  8
MY3DLAYER
10
37.9186390830669
20
2.48531891074546
30
0.0
 70
     32
  0
VERTEX
  8
MY3DLAYER
10
38.0
20
0.0
30
0.0
 70
     32
  0
SEQEND
  0
LINE
 8
Layer0
10
33.5558924906432
20
-33.5558924906433
30
0.0
11
31.1126983722081
21
-31.1126983722081
31
0.0
  0
LINE
 8
Layer0
10
28.8230363572746
20
28.8230363572747
30
0.0
11
31.1126983722081
21
31.1126983722081
31
0.0
  0
LINE
 8
Layer0
10
31.1126983722081
20
-31.1126983722081
30
0.0
11
28.5354343442188
21
-28.5354343442188
31
0.0
  0
LINE
 8
Layer0
10
-28.8230363572747
20
28.8230363572747
30
0.0
11
-31.1126983722081
21
31.1126983722081
31
0.0
  0
LINE
 8
Layer0
10
-31.1126983722081
20
31.1126983722081
30
0.0
11
-33.2778090787499
21
33.2778090787499
31
0.0
  0
LINE
 8
Layer0
10
31.1126983722081
20
31.1126983722081
30
0.0
11
33.5558924906432
21
33.5558924906433
31
0.0
  0
LINE
 8
Layer0
10
44.0
20
0.0
30
0.0
11
46.7383536014987
21
0.0
31
0.0
  0
LINE
 8
Layer0
10
-33.0303186275639
20
-33.0303186275639
30
0.0
11
-31.1126983722081
21
-31.1126983722081
31
0.0
  0
LINE
 8
Layer0
10
-41.2341984703209
20
0.0
30
0.0
11
-44.0
21
5.38844591624835e-015
31
0.0
  0
LINE
 8
Layer0
10
40.2383536014987
20
0.0
30
0.0
11
44.0
21
0.0
31
0.0
  0
LINE
 8
Layer0
10
0.0
20
-47.7464290721532
30
0.0
11
-8.08266887437253e-015
21
-44.0
31
0.0
  0
LINE
 8
Layer0
10
-44.0
20
5.38844591624835e-015
30
0.0
11
-46.8341984703209
21
0.0
31
0.0
  0
LINE
 8
Layer0
10
0.0
20
41.236466427289
30
0.0
11
2.69422295812418e-015
21
44.0
31
0.0
  0
LINE
 8
Layer0
10
-31.1126983722081
20
-31.1126983722081
30
0.0
11
-28.8230363572747
21
-28.8230363572747
31
0.0
  0
LINE
 8
Layer0
10
-8.08266887437253e-015
20
-44.0
30
0.0
11
0.0
21
-41.2464290721532
31
0.0
  0
LINE
 8
Layer0
10
2.69422295812418e-015
20
44.0
30
0.0
11
0.0
21
46.436466427289
31
0.0
  0
POLYLINE
 8
Layer0
 66
     1
70
    8
 10
0.0
 20
 0.0
 30
0.0
  0
VERTEX
  8
MY3DLAYER
10
43.9767238167653
20
0.176800164533281
30
0.0
 70
     32
  0
VERTEX
  8
MY3DLAYER
10
44.0
20
0.0
30
0.0
 70
     32
  0
VERTEX
  8
MY3DLAYER
10
42.500736356719
20
-11.3880379845109
30
0.0
 70
     32
  0
VERTEX
  8
MY3DLAYER
10
38.1051177665153
20
-22.0
30
0.0
 70
     32
  0
VERTEX
  8
MY3DLAYER
10
31.1126983722081
20
-31.1126983722081
30
0.0
 70
     32
  0
VERTEX
  8
MY3DLAYER
10
22.0
20
-38.1051177665153
30
0.0
 70
     32
  0
VERTEX
  8
MY3DLAYER
10
11.3880379845109
20
-42.500736356719
30
0.0
 70
     32
  0
VERTEX
  8
MY3DLAYER
10
-8.08266887437253e-015
20
-44.0
30
0.0
 70
     32
  0
VERTEX
  8
MY3DLAYER
10
-11.3880379845109
20
-42.500736356719
30
0.0
 70
     32
  0
VERTEX
  8
MY3DLAYER
10
-22.0
20
-38.1051177665153
30
0.0
 70
     32
  0
VERTEX
  8
MY3DLAYER
10
-31.1126983722081
20
-31.1126983722081
30
0.0
 70
     32
  0
VERTEX
  8
MY3DLAYER
10
-38.1051177665153
20
-22.0
30
0.0
 70
     32
  0
VERTEX
  8
MY3DLAYER
10
-42.500736356719
20
-11.3880379845109
30
0.0
 70
     32
  0
VERTEX
  8
MY3DLAYER
10
-44.0
20
5.38844591624835e-015
30
0.0
 70
     32
  0
VERTEX
  8
MY3DLAYER
10
-42.500736356719
20
11.3880379845109
30
0.0
 70
     32
  0
VERTEX
  8
MY3DLAYER
10
-38.1051177665153
20
22.0
30
0.0
 70
     32
  0
VERTEX
  8
MY3DLAYER
10
-31.1126983722081
20
31.1126983722081
30
0.0
 70
     32
  0
VERTEX
  8
MY3DLAYER
10
-22.0
20
38.1051177665153
30
0.0
 70
     32
  0
VERTEX
  8
MY3DLAYER
10
-11.3880379845109
20
42.500736356719
30
0.0
 70
     32
  0
VERTEX
  8
MY3DLAYER
10
2.69422295812418e-015
20
44.0
30
0.0
 70
     32
  0
VERTEX
  8
MY3DLAYER
10
11.3880379845109
20
42.500736356719
30
0.0
 70
     32
  0
VERTEX
  8
MY3DLAYER
10
22.0
20
38.1051177665153
30
0.0
 70
     32
  0
VERTEX
  8
MY3DLAYER
10
31.1126983722081
20
31.1126983722081
30
0.0
 70
     32
  0
VERTEX
  8
MY3DLAYER
10
38.1051177665153
20
22.0
30
0.0
 70
     32
  0
VERTEX
  8
MY3DLAYER
10
42.500736356719
20
11.3880379845109
30
0.0
 70
     32
  0
VERTEX
  8
MY3DLAYER
10
43.9767238167653
20
0.176800164533281
30
0.0
 70
     32
  0
SEQEND
  0
POLYLINE
 8
Layer0
 66
     1
70
    8
 10
0.0
 20
 0.0
 30
0.0
  0
VERTEX
  8
MY3DLAYER
10
37.9186390830669
20
-2.48531891074544
30
0.0
 70
     32
  0
VERTEX
  8
MY3DLAYER
10
38.0
20
0.0
30
0.0
 70
     32
  0
VERTEX
  8
MY3DLAYER
10
37.9186390830669
20
2.48531891074546
30
0.0
 70
     32
  0
VERTEX
  8
MY3DLAYER
10
37.6749047322048
20
4.959995304362
30
0.0
 70
     32
  0
VERTEX
  8
MY3DLAYER
10
37.2698406553228
20
7.41343223661289
30
0.0
 70
     32
  0
VERTEX
  8
MY3DLAYER
10
36.7051813989846
20
9.83512371389582
30
0.0
 70
     32
  0
VERTEX
  8
MY3DLAYER
10
35.983344920814
20
12.2146996815202
30
0.0
 70
     32
  0
VERTEX
  8
MY3DLAYER
10
35.1074222354289
20
14.5419704298734
30
0.0
 70
     32
  0
VERTEX
  8
MY3DLAYER
10
34.0811641782421
20
16.8069702283221
30
0.0
 70
     32
  0
VERTEX
  8
MY3DLAYER
10
32.9089653438087
20
19.0
30
0.0
 70
     32
  0
VERTEX
  8
MY3DLAYER
10
31.5958452674967
20
21.1116688547449
30
0.0
 70
     32
  0
VERTEX
  8
MY3DLAYER
10
30.1474269310669
20
23.1329343023314
30
0.0
 70
     32
  0
VERTEX
  8
MY3DLAYER
10
28.5699126842011
20
25.0551409738026
30
0.0
 70
     32
  0
VERTEX
  8
MY3DLAYER
10
26.8700576850888
20
26.8700576850888
30
0.0
 70
     32
  0
VERTEX
  8
MY3DLAYER
10
25.0551409738026
20
28.5699126842012
30
0.0
 70
     32
  0
VERTEX
  8
MY3DLAYER
10
23.1329343023314
20
30.147426931067
30
0.0
 70
     32
  0
VERTEX
  8
MY3DLAYER
10
21.1116688547449
20
31.5958452674967
30
0.0
 70
     32
  0
VERTEX
  8
MY3DLAYER
10
19.0
20
32.9089653438087
30
0.0
 70
     32
  0
VERTEX
  8
MY3DLAYER
10
16.806970228322
20
34.0811641782422
30
0.0
 70
     32
  0
VERTEX
  8
MY3DLAYER
10
14.5419704298734
20
35.1074222354289
30
0.0
 70
     32
  0
VERTEX
  8
MY3DLAYER
10
12.2146996815201
20
35.983344920814
30
0.0
 70
     32
  0
VERTEX
  8
MY3DLAYER
10
9.83512371389577
20
36.7051813989846
30
0.0
 70
     32
  0
VERTEX
  8
MY3DLAYER
10
7.41343223661284
20
37.2698406553228
30
0.0
 70
     32
  0
VERTEX
  8
MY3DLAYER
10
4.95999530436195
20
37.6749047322048
30
0.0
 70
     32
  0
VERTEX
  8
MY3DLAYER
10
2.48531891074541
20
37.9186390830669
30
0.0
 70
     32
  0
VERTEX
  8
MY3DLAYER
10
-6.98048675513991e-015
20
38.0
30
0.0
 70
     32
  0
VERTEX
  8
MY3DLAYER
10
-2.48531891074546
20
37.9186390830669
30
0.0
 70
     32
  0
VERTEX
  8
MY3DLAYER
10
-4.95999530436199
20
37.6749047322048
30
0.0
 70
     32
  0
VERTEX
  8
MY3DLAYER
10
-7.41343223661289
20
37.2698406553228
30
0.0
 70
     32
  0
VERTEX
  8
MY3DLAYER
10
-9.83512371389582
20
36.7051813989846
30
0.0
 70
     32
  0
VERTEX
  8
MY3DLAYER
10
-12.2146996815201
20
35.983344920814
30
0.0
 70
     32
  0
VERTEX
  8
MY3DLAYER
10
-14.5419704298734
20
35.1074222354289
30
0.0
 70
     32
  0
VERTEX
  8
MY3DLAYER
10
-16.8069702283221
20
34.0811641782421
30
0.0
 70
     32
  0
VERTEX
  8
MY3DLAYER
10
-19.0
20
32.9089653438087
30
0.0
 70
     32
  0
VERTEX
  8
MY3DLAYER
10
-21.1116688547449
20
31.5958452674967
30
0.0
 70
     32
  0
VERTEX
  8
MY3DLAYER
10
-23.1329343023314
20
30.1474269310669
30
0.0
 70
     32
  0
VERTEX
  8
MY3DLAYER
10
-25.0551409738026
20
28.5699126842011
30
0.0
 70
     32
  0
VERTEX
  8
MY3DLAYER
10
-26.8700576850888
20
26.8700576850888
30
0.0
 70
     32
  0
VERTEX
  8
MY3DLAYER
10
-28.5699126842011
20
25.0551409738026
30
0.0
 70
     32
  0
VERTEX
  8
MY3DLAYER
10
-30.1474269310669
20
23.1329343023314
30
0.0
 70
     32
  0
VERTEX
  8
MY3DLAYER
10
-31.5958452674967
20
21.1116688547449
30
0.0
 70
     32
  0
VERTEX
  8
MY3DLAYER
10
-32.9089653438087
20
19.0
30
0.0
 70
     32
  0
VERTEX
  8
MY3DLAYER
10
-34.0811641782422
20
16.806970228322
30
0.0
 70
     32
  0
VERTEX
  8
MY3DLAYER
10
-35.1074222354289
20
14.5419704298734
30
0.0
 70
     32
  0
VERTEX
  8
MY3DLAYER
10
-35.983344920814
20
12.2146996815201
30
0.0
 70
     32
  0
VERTEX
  8
MY3DLAYER
10
-36.7051813989846
20
9.83512371389577
30
0.0
 70
     32
  0
VERTEX
  8
MY3DLAYER
10
-37.2698406553228
20
7.41343223661286
30
0.0
 70
     32
  0
VERTEX
  8
MY3DLAYER
10
-37.6749047322048
20
4.95999530436195
30
0.0
 70
     32
  0
VERTEX
  8
MY3DLAYER
10
-37.9186390830669
20
2.48531891074543
30
0.0
 70
     32
  0
VERTEX
  8
MY3DLAYER
10
-38.0
20
-4.65365783675994e-015
30
0.0
 70
     32
  0
VERTEX
  8
MY3DLAYER
10
-37.9186390830669
20
-2.48531891074546
30
0.0
 70
     32
  0
VERTEX
  8
MY3DLAYER
10
-37.6749047322048
20
-4.95999530436198
30
0.0
 70
     32
  0
VERTEX
  8
MY3DLAYER
10
-37.2698406553228
20
-7.41343223661289
30
0.0
 70
     32
  0
VERTEX
  8
MY3DLAYER
10
-36.7051813989846
20
-9.8351237138958
30
0.0
 70
     32
  0
VERTEX
  8
MY3DLAYER
10
-35.983344920814
20
-12.2146996815201
30
0.0
 70
     32
  0
VERTEX
  8
MY3DLAYER
10
-35.1074222354289
20
-14.5419704298734
30
0.0
 70
     32
  0
VERTEX
  8
MY3DLAYER
10
-34.0811641782421
20
-16.8069702283221
30
0.0
 70
     32
  0
VERTEX
  8
MY3DLAYER
10
-32.9089653438087
20
-19.0
30
0.0
 70
     32
  0
VERTEX
  8
MY3DLAYER
10
-31.5958452674967
20
-21.1116688547449
30
0.0
 70
     32
  0
VERTEX
  8
MY3DLAYER
10
-30.1474269310669
20
-23.1329343023314
30
0.0
 70
     32
  0
VERTEX
  8
MY3DLAYER
10
-28.5699126842011
20
-25.0551409738026
30
0.0
 70
     32
  0
VERTEX
  8
MY3DLAYER
10
-26.8700576850888
20
-26.8700576850888
30
0.0
 70
     32
  0
VERTEX
  8
MY3DLAYER
10
-25.0551409738026
20
-28.5699126842011
30
0.0
 70
     32
  0
VERTEX
  8
MY3DLAYER
10
-23.1329343023314
20
-30.1474269310669
30
0.0
 70
     32
  0
VERTEX
  8
MY3DLAYER
10
-21.1116688547449
20
-31.5958452674967
30
0.0
 70
     32
  0
VERTEX
  8
MY3DLAYER
10
-19.0
20
-32.9089653438087
30
0.0
 70
     32
  0
VERTEX
  8
MY3DLAYER
10
-16.806970228322
20
-34.0811641782422
30
0.0
 70
     32
  0
VERTEX
  8
MY3DLAYER
10
-14.5419704298734
20
-35.1074222354289
30
0.0
 70
     32
  0
VERTEX
  8
MY3DLAYER
10
-12.2146996815201
20
-35.983344920814
30
0.0
 70
     32
  0
VERTEX
  8
MY3DLAYER
10
-9.83512371389578
20
-36.7051813989846
30
0.0
 70
     32
  0
VERTEX
  8
MY3DLAYER
10
-7.41343223661286
20
-37.2698406553228
30
0.0
 70
     32
  0
VERTEX
  8
MY3DLAYER
10
-4.95999530436195
20
-37.6749047322048
30
0.0
 70
     32
  0
VERTEX
  8
MY3DLAYER
10
-2.48531891074543
20
-37.9186390830669
30
0.0
 70
     32
  0
VERTEX
  8
MY3DLAYER
10
2.32682891837997e-015
20
-38.0
30
0.0
 70
     32
  0
VERTEX
  8
MY3DLAYER
10
2.48531891074544
20
-37.9186390830669
30
0.0
 70
     32
  0
VERTEX
  8
MY3DLAYER
10
4.95999530436197
20
-37.6749047322048
30
0.0
 70
     32
  0
VERTEX
  8
MY3DLAYER
10
7.41343223661288
20
-37.2698406553228
30
0.0
 70
     32
  0
VERTEX
  8
MY3DLAYER
10
9.8351237138958
20
-36.7051813989846
30
0.0
 70
     32
  0
VERTEX
  8
MY3DLAYER
10
12.2146996815201
20
-35.983344920814
30
0.0
 70
     32
  0
VERTEX
  8
MY3DLAYER
10
14.5419704298734
20
-35.1074222354289
30
0.0
 70
     32
  0
VERTEX
  8
MY3DLAYER
10
16.8069702283221
20
-34.0811641782421
30
0.0
 70
     32
  0
VERTEX
  8
MY3DLAYER
10
19.0
20
-32.9089653438087
30
0.0
 70
     32
  0
VERTEX
  8
MY3DLAYER
10
21.1116688547449
20
-31.5958452674967
30
0.0
 70
     32
  0
VERTEX
  8
MY3DLAYER
10
23.1329343023314
20
-30.1474269310669
30
0.0
 70
     32
  0
VERTEX
  8
MY3DLAYER
10
25.0551409738026
20
-28.5699126842011
30
0.0
 70
     32
  0
VERTEX
  8
MY3DLAYER
10
26.8700576850888
20
-26.8700576850888
30
0.0
 70
     32
  0
VERTEX
  8
MY3DLAYER
10
28.5699126842011
20
-25.0551409738026
30
0.0
 70
     32
  0
VERTEX
  8
MY3DLAYER
10
30.1474269310669
20
-23.1329343023314
30
0.0
 70
     32
  0
VERTEX
  8
MY3DLAYER
10
31.5958452674967
20
-21.1116688547449
30
0.0
 70
     32
  0
VERTEX
  8
MY3DLAYER
10
32.9089653438087
20
-19.0
30
0.0
 70
     32
  0
VERTEX
  8
MY3DLAYER
10
34.0811641782422
20
-16.806970228322
30
0.0
 70
     32
  0
VERTEX
  8
MY3DLAYER
10
35.1074222354289
20
-14.5419704298734
30
0.0
 70
     32
  0
VERTEX
  8
MY3DLAYER
10
35.983344920814
20
-12.2146996815201
30
0.0
 70
     32
  0
VERTEX
  8
MY3DLAYER
10
36.7051813989846
20
-9.83512371389579
30
0.0
 70
     32
  0
VERTEX
  8
MY3DLAYER
10
37.2698406553228
20
-7.41343223661287
30
0.0
 70
     32
  0
VERTEX
  8
MY3DLAYER
10
37.6749047322048
20
-4.95999530436196
30
0.0
 70
     32
  0
VERTEX
  8
MY3DLAYER
10
37.9186390830669
20
-2.48531891074544
30
0.0
 70
     32
  0
SEQEND
  0
POLYLINE
 8
Layer0
 66
     1
70
    8
 10
0.0
 20
 0.0
 30
0.0
  0
VERTEX
  8
MY3DLAYER
10
48.2962913144534
20
12.940952255126
30
0.0
 70
     32
  0
VERTEX
  8
MY3DLAYER
10
50.0
20
0.0
30
0.0
 70
     32
  0
VERTEX
  8
MY3DLAYER
10
48.2962913144534
20
-12.9409522551261
30
0.0
 70
     32
  0
VERTEX
  8
MY3DLAYER
10
43.3012701892219
20
-25.0
30
0.0
 70
     32
  0
VERTEX
  8
MY3DLAYER
10
35.3553390593274
20
-35.3553390593274
30
0.0
 70
     32
  0
VERTEX
  8
MY3DLAYER
10
25.0
20
-43.301270189222
30
0.0
 70
     32
  0
VERTEX
  8
MY3DLAYER
10
12.940952255126
20
-48.2962913144534
30
0.0
 70
     32
  0
VERTEX
  8
MY3DLAYER
10
-9.18485099360515e-015
20
-50.0
30
0.0
 70
     32
  0
VERTEX
  8
MY3DLAYER
10
-12.9409522551261
20
-48.2962913144534
30
0.0
 70
     32
  0
VERTEX
  8
MY3DLAYER
10
-25.0
20
-43.3012701892219
30
0.0
 70
     32
  0
VERTEX
  8
MY3DLAYER
10
-35.3553390593274
20
-35.3553390593274
30
0.0
 70
     32
  0
VERTEX
  8
MY3DLAYER
10
-43.3012701892219
20
-25.0
30
0.0
 70
     32
  0
VERTEX
  8
MY3DLAYER
10
-48.2962913144534
20
-12.940952255126
30
0.0
 70
     32
  0
VERTEX
  8
MY3DLAYER
10
-50.0
20
6.12323399573677e-015
30
0.0
 70
     32
  0
VERTEX
  8
MY3DLAYER
10
-48.2962913144534
20
12.9409522551261
30
0.0
 70
     32
  0
VERTEX
  8
MY3DLAYER
10
-43.3012701892219
20
25.0
30
0.0
 70
     32
  0
VERTEX
  8
MY3DLAYER
10
-35.3553390593274
20
35.3553390593274
30
0.0
 70
     32
  0
VERTEX
  8
MY3DLAYER
10
-25.0
20
43.3012701892219
30
0.0
 70
     32
  0
VERTEX
  8
MY3DLAYER
10
-12.940952255126
20
48.2962913144534
30
0.0
 70
     32
  0
VERTEX
  8
MY3DLAYER
10
3.06161699786838e-015
20
50.0
30
0.0
 70
     32
  0
VERTEX
  8
MY3DLAYER
10
12.940952255126
20
48.2962913144534
30
0.0
 70
     32
  0
VERTEX
  8
MY3DLAYER
10
25.0
20
43.3012701892219
30
0.0
 70
     32
  0
VERTEX
  8
MY3DLAYER
10
35.3553390593274
20
35.3553390593274
30
0.0
 70
     32
  0
VERTEX
  8
MY3DLAYER
10
43.3012701892219
20
25.0
30
0.0
 70
     32
  0
VERTEX
  8
MY3DLAYER
10
48.2962913144534
20
12.940952255126
30
0.0
 70
     32
  0
SEQEND
  0
POLYLINE
 8
Layer0
 66
     1
70
    8
 10
0.0
 20
 0.0
 30
0.0
  0
VERTEX
  8
MY3DLAYER
10
44.0
20
0.0
30
0.0
 70
     32
  0
VERTEX
  8
MY3DLAYER
10
43.9767238167653
20
0.176800164533281
30
0.0
 70
     32
  0
VERTEX
  8
MY3DLAYER
10
42.500736356719
20
11.3880379845109
30
0.0
 70
     32
  0
VERTEX
  8
MY3DLAYER
10
38.1051177665153
20
22.0
30
0.0
 70
     32
  0
VERTEX
  8
MY3DLAYER
10
31.1126983722081
20
31.1126983722081
30
0.0
 70
     32
  0
VERTEX
  8
MY3DLAYER
10
22.0
20
38.1051177665153
30
0.0
 70
     32
  0
VERTEX
  8
MY3DLAYER
10
11.3880379845109
20
42.500736356719
30
0.0
 70
     32
  0
VERTEX
  8
MY3DLAYER
10
2.69422295812418e-015
20
44.0
30
0.0
 70
     32
  0
VERTEX
  8
MY3DLAYER
10
-11.3880379845109
20
42.500736356719
30
0.0
 70
     32
  0
VERTEX
  8
MY3DLAYER
10
-22.0
20
38.1051177665153
30
0.0
 70
     32
  0
VERTEX
  8
MY3DLAYER
10
-31.1126983722081
20
31.1126983722081
30
0.0
 70
     32
  0
VERTEX
  8
MY3DLAYER
10
-38.1051177665153
20
22.0
30
0.0
 70
     32
  0
VERTEX
  8
MY3DLAYER
10
-42.500736356719
20
11.3880379845109
30
0.0
 70
     32
  0
VERTEX
  8
MY3DLAYER
10
-44.0
20
5.38844591624835e-015
30
0.0
 70
     32
  0
VERTEX
  8
MY3DLAYER
10
-42.500736356719
20
-11.3880379845109
30
0.0
 70
     32
  0
VERTEX
  8
MY3DLAYER
10
-38.1051177665153
20
-22.0
30
0.0
 70
     32
  0
VERTEX
  8
MY3DLAYER
10
-31.1126983722081
20
-31.1126983722081
30
0.0
 70
     32
  0
VERTEX
  8
MY3DLAYER
10
-22.0
20
-38.1051177665153
30
0.0
 70
     32
  0
VERTEX
  8
MY3DLAYER
10
-11.3880379845109
20
-42.500736356719
30
0.0
 70
     32
  0
VERTEX
  8
MY3DLAYER
10
-8.08266887437253e-015
20
-44.0
30
0.0
 70
     32
  0
VERTEX
  8
MY3DLAYER
10
11.3880379845109
20
-42.500736356719
30
0.0
 70
     32
  0
VERTEX
  8
MY3DLAYER
10
22.0
20
-38.1051177665153
30
0.0
 70
     32
  0
VERTEX
  8
MY3DLAYER
10
31.1126983722081
20
-31.1126983722081
30
0.0
 70
     32
  0
VERTEX
  8
MY3DLAYER
10
38.1051177665153
20
-22.0
30
0.0
 70
     32
  0
VERTEX
  8
MY3DLAYER
10
42.500736356719
20
-11.3880379845109
30
0.0
 70
     32
  0
VERTEX
  8
MY3DLAYER
10
44.0
20
0.0
30
0.0
 70
     32
  0
SEQEND
 0
ENDSEC
 0
EOF
