 0
SECTION
 2
ENTITIES
  0
LINE
 8
Group#1
10
12.5
20
12.5
30
0.0
11
12.5
21
14.5
31
-1.14913634163827e-013
  0
LINE
 8
Group#1
10
12.5
20
12.5
30
0.0
11
13.5
21
12.5
31
-7.04991620636974e-016
  0
LINE
 8
Group#1
10
43.8
20
10.5
30
9.58788604066285e-014
11
43.8
21
12.5
31
-1.90347737571983e-014
  0
LINE
 8
Group#1
10
42.8
20
12.5
30
-1.83297821365613e-014
11
43.8
21
12.5
31
-1.90347737571983e-014
  0
LINE
 8
Group#1
10
43.8
20
12.5
30
-1.90347737571983e-014
11
44.8
21
12.5
31
-1.97397653778353e-014
  0
LINE
 8
Group#1
10
43.8
20
12.5
30
-1.90347737571983e-014
11
43.8
21
14.5
31
-1.33243416300388e-013
  0
LINE
 8
Group#1
10
12.5
20
10.5
30
1.14913634163827e-013
11
12.5
21
12.5
31
0.0
  0
LINE
 8
Group#1
10
11.5
20
12.5
30
7.04991620636974e-016
11
12.5
21
12.5
31
0.0
  0
POLYLINE
 8
Group#1
 66
     1
70
    8
 10
0.0
 20
 0.0
 30
0.0
  0
VERTEX
  8
MY3DLAYER
10
44.5848375507618
20
0.525692921129205
30
-7.59980967046658e-012
 70
     32
  0
VERTEX
  8
MY3DLAYER
10
43.4999999999999
20
0.499999999992439
30
-7.64986407553181e-012
 70
     32
  0
VERTEX
  8
MY3DLAYER
10
40.9602291517218
20
1.10877756788831
30
-6.95826729568694e-012
 70
     32
  0
VERTEX
  8
MY3DLAYER
10
38.396749234349
20
1.60839422309731
30
-6.40978381483137e-012
 70
     32
  0
VERTEX
  8
MY3DLAYER
10
35.8142498040438
20
1.99793598133272
30
-5.98114890948409e-012
 70
     32
  0
VERTEX
  8
MY3DLAYER
10
33.2174552107165
20
2.27669022614666
30
-5.67447755450701e-012
 70
     32
  0
VERTEX
  8
MY3DLAYER
10
30.6111159554359
20
2.44414701257035
30
-5.48906475827948e-012
 70
     32
  0
VERTEX
  8
MY3DLAYER
10
28.0
20
2.49999999999254
30
-5.42632050404279e-012
 70
     32
  0
VERTEX
  8
MY3DLAYER
10
25.388884044564
20
2.44414701257034
30
-5.48624479179694e-012
 70
     32
  0
VERTEX
  8
MY3DLAYER
10
22.7825447892835
20
2.27669022614667
30
-5.66813262992127e-012
 70
     32
  0
VERTEX
  8
MY3DLAYER
10
20.1857501959561
20
1.99793598133269
30
-5.97198401841581e-012
 70
     32
  0
VERTEX
  8
MY3DLAYER
10
17.6032507656509
20
1.60839422309731
30
-6.39709396565991e-012
 70
     32
  0
VERTEX
  8
MY3DLAYER
10
15.0397708482781
20
1.1087775678883
30
-6.94275748003292e-012
 70
     32
  0
VERTEX
  8
MY3DLAYER
10
12.5
20
0.499999999992436
30
-7.6421091677048e-012
 70
     32
  0
VERTEX
  8
MY3DLAYER
10
11.7151624492383
20
0.525692921129188
30
-7.61390950287932e-012
 70
     32
  0
VERTEX
  8
MY3DLAYER
10
10.9336856933594
20
0.602661663506705
30
-7.52860551678225e-012
 70
     32
  0
VERTEX
  8
MY3DLAYER
10
10.1589161358065
20
0.730576635153659
30
-7.38831218427549e-012
 70
     32
  0
VERTEX
  8
MY3DLAYER
10
9.39417145876979
20
0.9088900845236
30
-7.19232451373841e-012
 70
     32
  0
VERTEX
  8
MY3DLAYER
10
8.6427264163621
20
1.13683844605115
30
-6.94205248841229e-012
 70
     32
  0
VERTEX
  8
MY3DLAYER
10
7.90779881161896
20
1.41344560985697
30
-6.63890609153839e-012
 70
     32
  0
VERTEX
  8
MY3DLAYER
10
7.19253571737202
20
1.73752710160015
30
-6.28288532311672e-012
 70
     32
  0
VERTEX
  8
MY3DLAYER
10
6.50000000000003
20
2.10769515457914
30
-5.87681014962982e-012
 70
     32
  0
VERTEX
  8
MY3DLAYER
10
5.8331572037648
20
2.52236465236186
30
-5.42209055431897e-012
 70
     32
  0
VERTEX
  8
MY3DLAYER
10
5.19486285189538
20
2.97975991649758
30
-4.92084151204608e-012
 70
     32
  0
VERTEX
  8
MY3DLAYER
10
4.5878502187992
20
3.47792231024466
30
-4.37447300605243e-012
 70
     32
  0
VERTEX
  8
MY3DLAYER
10
4.01471862576145
20
4.01471862575382
30
-3.78580500282055e-012
 70
     32
  0
VERTEX
  8
MY3DLAYER
10
3.47792231025229
20
4.58785021879156
30
-3.15765746883301e-012
 70
     32
  0
VERTEX
  8
MY3DLAYER
10
2.97975991650519
20
5.19486285188774
30
-2.4921453789517e-012
 70
     32
  0
VERTEX
  8
MY3DLAYER
10
2.52236465236947
20
5.83315720375715
30
-1.79279369127983e-012
 70
     32
  0
VERTEX
  8
MY3DLAYER
10
2.10769515458674
20
6.49999999999238
30
-1.06171738067928e-012
 70
     32
  0
VERTEX
  8
MY3DLAYER
10
1.73752710160774
20
7.19253571736436
30
-3.02441405253262e-013
 70
     32
  0
VERTEX
  8
MY3DLAYER
10
1.41344560986456
20
7.9077988116113
30
4.81509276895054e-013
 70
     32
  0
VERTEX
  8
MY3DLAYER
10
1.13683844605872
20
8.64272641635444
30
1.28660970766248e-012
 70
     32
  0
VERTEX
  8
MY3DLAYER
10
0.908890084531169
20
9.39417145876212
30
2.11003992056646e-012
 70
     32
  0
VERTEX
  8
MY3DLAYER
10
0.730576635161217
20
10.1589161357988
30
2.94827495750383e-012
 70
     32
  0
VERTEX
  8
MY3DLAYER
10
0.60266166351426
20
10.9336856933518
30
3.79708486875074e-012
 70
     32
  0
VERTEX
  8
MY3DLAYER
10
0.525692921136732
20
11.7151624492307
30
4.65364968782467e-012
 70
     32
  0
VERTEX
  8
MY3DLAYER
10
0.499999999999971
20
12.4999999999924
30
5.51373946500178e-012
 70
     32
  0
VERTEX
  8
MY3DLAYER
10
0.525692921136726
20
13.2848375507541
30
6.37312425055825e-012
 70
     32
  0
VERTEX
  8
MY3DLAYER
10
0.602661663514237
20
14.066314306633
30
7.22968906963217e-012
 70
     32
  0
VERTEX
  8
MY3DLAYER
10
0.730576635161194
20
14.8410838641859
30
8.07849898087909e-012
 70
     32
  0
VERTEX
  8
MY3DLAYER
10
0.908890084531135
20
15.6058285412226
30
8.91602902619582e-012
 70
     32
  0
VERTEX
  8
MY3DLAYER
10
1.13683844605868
20
16.3572735836303
30
9.7394592390998e-012
 70
     32
  0
VERTEX
  8
MY3DLAYER
10
1.4134456098645
20
17.0922011883735
30
1.05445596698672e-011
 70
     32
  0
VERTEX
  8
MY3DLAYER
10
1.73752710160768
20
17.8074642826204
30
1.13285103520155e-011
 70
     32
  0
VERTEX
  8
MY3DLAYER
10
2.10769515458667
20
18.4999999999924
30
1.20870813358209e-011
 70
     32
  0
VERTEX
  8
MY3DLAYER
10
2.52236465236939
20
19.1668427962276
30
1.28174526548008e-011
 70
     32
  0
VERTEX
  8
MY3DLAYER
10
2.97975991650511
20
19.805137148097
30
1.35160993508521e-011
 70
     32
  0
VERTEX
  8
MY3DLAYER
10
3.4779223102522
20
20.4121497811932
30
1.41809064491127e-011
 70
     32
  0
VERTEX
  8
MY3DLAYER
10
4.01471862576135
20
20.985281374231
30
1.48090539831003e-011
 70
     32
  0
VERTEX
  8
MY3DLAYER
10
4.5878502187991
20
21.5220776897401
30
1.53963120030909e-011
 70
     32
  0
VERTEX
  8
MY3DLAYER
10
5.19486285189527
20
22.0202400834872
30
1.59419755174639e-011
 70
     32
  0
VERTEX
  8
MY3DLAYER
10
5.83315720376469
20
22.4776353476229
30
1.64432245597368e-011
 70
     32
  0
VERTEX
  8
MY3DLAYER
10
6.49999999999992
20
22.8923048454057
30
1.68965341718064e-011
 70
     32
  0
VERTEX
  8
MY3DLAYER
10
7.1925357173719
20
23.2624728983847
30
1.73019043536726e-011
 70
     32
  0
VERTEX
  8
MY3DLAYER
10
7.90779881161883
20
23.5865543901279
30
1.7656515138853e-011
 70
     32
  0
VERTEX
  8
MY3DLAYER
10
8.64272641636197
20
23.8631615539337
30
1.79596615357269e-011
 70
     32
  0
VERTEX
  8
MY3DLAYER
10
9.39417145876966
20
24.0911099154612
30
1.82085235778118e-011
 70
     32
  0
VERTEX
  8
MY3DLAYER
10
10.1589161358064
20
24.2694233648312
30
1.84038062567282e-011
 70
     32
  0
VERTEX
  8
MY3DLAYER
10
10.9336856933593
20
24.3973383364782
30
1.85433945976143e-011
 70
     32
  0
VERTEX
  8
MY3DLAYER
10
11.7151624492382
20
24.4743070788557
30
1.86272886004701e-011
 70
     32
  0
VERTEX
  8
MY3DLAYER
10
12.4999999999999
20
24.4999999999924
30
1.8654783273675e-011
 70
     32
  0
VERTEX
  8
MY3DLAYER
10
15.039770848278
20
23.8912224320967
30
1.80202908151017e-011
 70
     32
  0
VERTEX
  8
MY3DLAYER
10
17.6032507656508
20
23.3916057768877
30
1.74711023426255e-011
 70
     32
  0
VERTEX
  8
MY3DLAYER
10
20.185750195956
20
23.0020640186523
30
1.70424674372782e-011
 70
     32
  0
VERTEX
  8
MY3DLAYER
10
22.7825447892834
20
22.7233097738383
30
1.67357960823011e-011
 70
     32
  0
VERTEX
  8
MY3DLAYER
10
25.388884044564
20
22.5558529874146
30
1.65503832860736e-011
 70
     32
  0
VERTEX
  8
MY3DLAYER
10
27.9999999999999
20
22.4999999999924
30
1.64876390318369e-011
 70
     32
  0
VERTEX
  8
MY3DLAYER
10
30.6111159554358
20
22.5558529874146
30
1.65475633195911e-011
 70
     32
  0
VERTEX
  8
MY3DLAYER
10
33.2174552107164
20
22.7233097738383
30
1.67294511577154e-011
 70
     32
  0
VERTEX
  8
MY3DLAYER
10
35.8142498040438
20
23.0020640186523
30
1.70333025462099e-011
 70
     32
  0
VERTEX
  8
MY3DLAYER
10
38.396749234349
20
23.3916057768877
30
1.7458412493454e-011
 70
     32
  0
VERTEX
  8
MY3DLAYER
10
40.9602291517219
20
23.8912224320967
30
1.80047809994477e-011
 70
     32
  0
VERTEX
  8
MY3DLAYER
10
43.4999999999999
20
24.4999999999924
30
1.86477333574686e-011
 70
     32
  0
VERTEX
  8
MY3DLAYER
10
43.8
20
24.4999999999924
30
1.86695880977084e-011
 70
     32
  0
VERTEX
  8
MY3DLAYER
10
44.5848375507617
20
24.4743070788557
30
1.86413884328829e-011
 70
     32
  0
VERTEX
  8
MY3DLAYER
10
45.3663143066406
20
24.3973383364782
30
1.85567894384064e-011
 70
     32
  0
VERTEX
  8
MY3DLAYER
10
46.1410838641936
20
24.2694233648312
30
1.8415791114279e-011
 70
     32
  0
VERTEX
  8
MY3DLAYER
10
46.9058285412303
20
24.0911099154613
30
1.8219803443742e-011
 70
     32
  0
VERTEX
  8
MY3DLAYER
10
47.657273583638
20
23.8631615539337
30
1.79695314184158e-011
 70
     32
  0
VERTEX
  8
MY3DLAYER
10
48.3922011883811
20
23.5865543901279
30
1.76663850215419e-011
 70
     32
  0
VERTEX
  8
MY3DLAYER
10
49.107464282628
20
23.2624728983847
30
1.73103642531203e-011
 70
     32
  0
VERTEX
  8
MY3DLAYER
10
49.8
20
22.8923048454057
30
1.6904994071254e-011
 70
     32
  0
VERTEX
  8
MY3DLAYER
10
50.4668427962352
20
22.477635347623
30
1.64502744759432e-011
 70
     32
  0
VERTEX
  8
MY3DLAYER
10
51.1051371481047
20
22.0202400834873
30
1.59483204420496e-011
 70
     32
  0
VERTEX
  8
MY3DLAYER
10
51.7121497812009
20
21.5220776897402
30
1.5401951936056e-011
 70
     32
  0
VERTEX
  8
MY3DLAYER
10
52.2852813742386
20
20.985281374231
30
1.48139889244447e-011
 70
     32
  0
VERTEX
  8
MY3DLAYER
10
52.8220776897478
20
20.4121497811933
30
1.41851363988366e-011
 70
     32
  0
VERTEX
  8
MY3DLAYER
10
53.3202400834949
20
19.8051371480971
30
1.35196243089553e-011
 70
     32
  0
VERTEX
  8
MY3DLAYER
10
53.7776353476306
20
19.1668427962277
30
1.28202726212834e-011
 70
     32
  0
VERTEX
  8
MY3DLAYER
10
54.1923048454133
20
18.4999999999925
30
1.20891963106828e-011
 70
     32
  0
VERTEX
  8
MY3DLAYER
10
54.5624728983923
20
17.8074642826205
30
1.13306253268775e-011
 70
     32
  0
VERTEX
  8
MY3DLAYER
10
54.8865543901355
20
17.0922011883735
30
1.05466746447291e-011
 70
     32
  0
VERTEX
  8
MY3DLAYER
10
55.1631615539413
20
16.3572735836304
30
9.74086922234108e-012
 70
     32
  0
VERTEX
  8
MY3DLAYER
10
55.3911099154689
20
15.6058285412227
30
8.91743900943709e-012
 70
     32
  0
VERTEX
  8
MY3DLAYER
10
55.5694233648388
20
14.841083864186
30
8.07920397249973e-012
 70
     32
  0
VERTEX
  8
MY3DLAYER
10
55.6973383364858
20
14.0663143066331
30
7.23039406125281e-012
 70
     32
  0
VERTEX
  8
MY3DLAYER
10
55.7743070788633
20
13.2848375507542
30
6.37382924217889e-012
 70
     32
  0
VERTEX
  8
MY3DLAYER
10
55.8
20
12.4999999999925
30
5.51444445662241e-012
 70
     32
  0
VERTEX
  8
MY3DLAYER
10
55.7743070788633
20
11.7151624492307
30
4.6543546794453e-012
 70
     32
  0
VERTEX
  8
MY3DLAYER
10
55.6973383364858
20
10.9336856933518
30
3.79778986037138e-012
 70
     32
  0
VERTEX
  8
MY3DLAYER
10
55.5694233648388
20
10.1589161357989
30
2.94897994912446e-012
 70
     32
  0
VERTEX
  8
MY3DLAYER
10
55.3911099154689
20
9.39417145876221
30
2.11144990380774e-012
 70
     32
  0
VERTEX
  8
MY3DLAYER
10
55.1631615539413
20
8.64272641635453
30
1.28801969090375e-012
 70
     32
  0
VERTEX
  8
MY3DLAYER
10
54.8865543901355
20
7.90779881161139
30
4.82919260136327e-013
 70
     32
  0
VERTEX
  8
MY3DLAYER
10
54.5624728983923
20
7.19253571736444
30
-3.00326430391351e-013
 70
     32
  0
VERTEX
  8
MY3DLAYER
10
54.1923048454133
20
6.49999999999246
30
-1.05889741419674e-012
 70
     32
  0
VERTEX
  8
MY3DLAYER
10
53.7776353476306
20
5.83315720375723
30
-1.78997372479728e-012
 70
     32
  0
VERTEX
  8
MY3DLAYER
10
53.3202400834949
20
5.19486285188782
30
-2.48862042084852e-012
 70
     32
  0
VERTEX
  8
MY3DLAYER
10
52.8220776897478
20
4.58785021879163
30
-3.15342751910919e-012
 70
     32
  0
VERTEX
  8
MY3DLAYER
10
52.2852813742386
20
4.01471862575389
30
-3.78157505309673e-012
 70
     32
  0
VERTEX
  8
MY3DLAYER
10
51.7121497812009
20
3.47792231024473
30
-4.36883307308733e-012
 70
     32
  0
VERTEX
  8
MY3DLAYER
10
51.1051371481047
20
2.97975991649763
30
-4.91449658746035e-012
 70
     32
  0
VERTEX
  8
MY3DLAYER
10
50.4668427962353
20
2.52236465236192
30
-5.4150406381126e-012
 70
     32
  0
VERTEX
  8
MY3DLAYER
10
49.8
20
2.10769515457919
30
-5.86905524180281e-012
 70
     32
  0
VERTEX
  8
MY3DLAYER
10
49.1074642826281
20
1.73752710160019
30
-6.27442542366907e-012
 70
     32
  0
VERTEX
  8
MY3DLAYER
10
48.3922011883811
20
1.41344560985701
30
-6.62903620884947e-012
 70
     32
  0
VERTEX
  8
MY3DLAYER
10
47.657273583638
20
1.13683844605119
30
-6.93147761410273e-012
 70
     32
  0
VERTEX
  8
MY3DLAYER
10
46.9058285412303
20
0.908890084523631
30
-7.18104464780822e-012
 70
     32
  0
VERTEX
  8
MY3DLAYER
10
46.1410838641936
20
0.730576635153685
30
-7.37632732672466e-012
 70
     32
  0
VERTEX
  8
MY3DLAYER
10
45.3663143066407
20
0.602661663506725
30
-7.51591566761078e-012
 70
     32
  0
VERTEX
  8
MY3DLAYER
10
44.5848375507618
20
0.525692921129205
30
-7.59980967046658e-012
 70
     32
  0
SEQEND
  0
LINE
 8
Group#2
10
70.8000000000001
20
12.5
30
-1.90347737571983e-014
11
70.8000000000001
21
14.5
31
-1.33243416300388e-013
  0
LINE
 8
Group#2
10
70.8000000000001
20
12.5
30
-1.90347737571983e-014
11
71.8000000000001
21
12.5
31
-1.90347737571983e-014
  0
LINE
 8
Group#2
10
69.8000000000001
20
12.5
30
-1.83297821365613e-014
11
70.8000000000001
21
12.5
31
-1.90347737571983e-014
  0
LINE
 8
Group#2
10
70.8000000000001
20
10.5
30
9.58788604066285e-014
11
70.8000000000001
21
12.5
31
-1.90347737571983e-014
  0
LINE
 8
Group#2
10
102.1
20
10.5
30
7.68440866494302e-014
11
102.1
21
12.5
31
-3.73645558937596e-014
  0
LINE
 8
Group#2
10
101.1
20
12.5
30
-3.73645558937596e-014
11
102.1
21
12.5
31
-3.73645558937596e-014
  0
LINE
 8
Group#2
10
102.1
20
12.5
30
-3.73645558937596e-014
11
103.1
21
12.5
31
-3.80695475143966e-014
  0
LINE
 8
Group#2
10
102.1
20
12.5
30
-3.73645558937596e-014
11
102.1
21
14.5
31
-1.52278190057586e-013
  0
POLYLINE
 8
Group#2
 66
     1
70
    8
 10
0.0
 20
 0.0
 30
0.0
  0
VERTEX
  8
MY3DLAYER
10
102.884837550762
20
0.525692921129205
30
-7.61813945260314e-012
 70
     32
  0
VERTEX
  8
MY3DLAYER
10
101.8
20
0.499999999992439
30
-7.66819385766837e-012
 70
     32
  0
VERTEX
  8
MY3DLAYER
10
99.2602291517219
20
1.10877756788831
30
-6.97730206944414e-012
 70
     32
  0
VERTEX
  8
MY3DLAYER
10
96.6967492343491
20
1.60839422309731
30
-6.42811359696793e-012
 70
     32
  0
VERTEX
  8
MY3DLAYER
10
94.1142498040439
20
1.99793598133272
30
-6.00018368324129e-012
 70
     32
  0
VERTEX
  8
MY3DLAYER
10
91.5174552107165
20
2.27669022614666
30
-5.69280733664357e-012
 70
     32
  0
VERTEX
  8
MY3DLAYER
10
88.911115955436
20
2.44414701257035
30
-5.50809953203668e-012
 70
     32
  0
VERTEX
  8
MY3DLAYER
10
86.3
20
2.49999999999254
30
-5.44535527779999e-012
 70
     32
  0
VERTEX
  8
MY3DLAYER
10
83.6888840445641
20
2.44414701257034
30
-5.5045745739335e-012
 70
     32
  0
VERTEX
  8
MY3DLAYER
10
81.0825447892835
20
2.27669022614667
30
-5.68646241205784e-012
 70
     32
  0
VERTEX
  8
MY3DLAYER
10
78.4857501959562
20
1.99793598133269
30
-5.99031380055237e-012
 70
     32
  0
VERTEX
  8
MY3DLAYER
10
75.9032507656509
20
1.60839422309731
30
-6.4161287394171e-012
 70
     32
  0
VERTEX
  8
MY3DLAYER
10
73.3397708482781
20
1.1087775678883
30
-6.96179225379012e-012
 70
     32
  0
VERTEX
  8
MY3DLAYER
10
70.8000000000001
20
0.499999999992436
30
-7.661143941462e-012
 70
     32
  0
VERTEX
  8
MY3DLAYER
10
70.0151624492384
20
0.525692921129188
30
-7.63223928501588e-012
 70
     32
  0
VERTEX
  8
MY3DLAYER
10
69.2336856933595
20
0.602661663506705
30
-7.54764029053945e-012
 70
     32
  0
VERTEX
  8
MY3DLAYER
10
68.4589161358065
20
0.730576635153659
30
-7.40734695803269e-012
 70
     32
  0
VERTEX
  8
MY3DLAYER
10
67.6941714587698
20
0.9088900845236
30
-7.21135928749561e-012
 70
     32
  0
VERTEX
  8
MY3DLAYER
10
66.9427264163622
20
1.13683844605115
30
-6.96108726216948e-012
 70
     32
  0
VERTEX
  8
MY3DLAYER
10
66.207798811619
20
1.41344560985697
30
-6.65723587367495e-012
 70
     32
  0
VERTEX
  8
MY3DLAYER
10
65.4925357173721
20
1.73752710160015
30
-6.30192009687391e-012
 70
     32
  0
VERTEX
  8
MY3DLAYER
10
64.8000000000001
20
2.10769515457914
30
-5.89584492338702e-012
 70
     32
  0
VERTEX
  8
MY3DLAYER
10
64.1331572037649
20
2.52236465236186
30
-5.44112532807617e-012
 70
     32
  0
VERTEX
  8
MY3DLAYER
10
63.4948628518954
20
2.97975991649758
30
-4.93987628580328e-012
 70
     32
  0
VERTEX
  8
MY3DLAYER
10
62.8878502187993
20
3.47792231024466
30
-4.39350777980963e-012
 70
     32
  0
VERTEX
  8
MY3DLAYER
10
62.3147186257615
20
4.01471862575382
30
-3.80483977657775e-012
 70
     32
  0
VERTEX
  8
MY3DLAYER
10
61.7779223102523
20
4.58785021879156
30
-3.17669224259021e-012
 70
     32
  0
VERTEX
  8
MY3DLAYER
10
61.2797599165052
20
5.19486285188774
30
-2.5111801527089e-012
 70
     32
  0
VERTEX
  8
MY3DLAYER
10
60.8223646523695
20
5.83315720375715
30
-1.81112347341639e-012
 70
     32
  0
VERTEX
  8
MY3DLAYER
10
60.4076951545868
20
6.49999999999238
30
-1.08075215443648e-012
 70
     32
  0
VERTEX
  8
MY3DLAYER
10
60.0375271016078
20
7.19253571736436
30
-3.2147617901046e-013
 70
     32
  0
VERTEX
  8
MY3DLAYER
10
59.7134456098646
20
7.9077988116113
30
4.62474503137855e-013
 70
     32
  0
VERTEX
  8
MY3DLAYER
10
59.4368384460588
20
8.64272641635444
30
1.26757493390528e-012
 70
     32
  0
VERTEX
  8
MY3DLAYER
10
59.2088900845312
20
9.39417145876212
30
2.09100514680927e-012
 70
     32
  0
VERTEX
  8
MY3DLAYER
10
59.0305766351613
20
10.1589161357988
30
2.92924018374663e-012
 70
     32
  0
VERTEX
  8
MY3DLAYER
10
58.9026616635143
20
10.9336856933518
30
3.77875508661418e-012
 70
     32
  0
VERTEX
  8
MY3DLAYER
10
58.8256929211368
20
11.7151624492307
30
4.63461491406747e-012
 70
     32
  0
VERTEX
  8
MY3DLAYER
10
58.8
20
12.4999999999924
30
5.49470469124458e-012
 70
     32
  0
VERTEX
  8
MY3DLAYER
10
58.8256929211368
20
13.2848375507541
30
6.35479446842169e-012
 70
     32
  0
VERTEX
  8
MY3DLAYER
10
58.9026616635143
20
14.066314306633
30
7.21065429587497e-012
 70
     32
  0
VERTEX
  8
MY3DLAYER
10
59.0305766351613
20
14.8410838641859
30
8.05946420712189e-012
 70
     32
  0
VERTEX
  8
MY3DLAYER
10
59.2088900845312
20
15.6058285412226
30
8.89769924405925e-012
 70
     32
  0
VERTEX
  8
MY3DLAYER
10
59.4368384460587
20
16.3572735836303
30
9.72112945696324e-012
 70
     32
  0
VERTEX
  8
MY3DLAYER
10
59.7134456098646
20
17.0922011883735
30
1.05262298877307e-011
 70
     32
  0
VERTEX
  8
MY3DLAYER
10
60.0375271016078
20
17.8074642826204
30
1.13094755782583e-011
 70
     32
  0
VERTEX
  8
MY3DLAYER
10
60.4076951545867
20
18.4999999999924
30
1.20680465620637e-011
 70
     32
  0
VERTEX
  8
MY3DLAYER
10
60.8223646523695
20
19.1668427962276
30
1.27984178810436e-011
 70
     32
  0
VERTEX
  8
MY3DLAYER
10
61.2797599165052
20
19.805137148097
30
1.34977695687155e-011
 70
     32
  0
VERTEX
  8
MY3DLAYER
10
61.7779223102523
20
20.4121497811932
30
1.41625766669762e-011
 70
     32
  0
VERTEX
  8
MY3DLAYER
10
62.3147186257614
20
20.985281374231
30
1.47900192093431e-011
 70
     32
  0
VERTEX
  8
MY3DLAYER
10
62.8878502187992
20
21.5220776897401
30
1.53779822209543e-011
 70
     32
  0
VERTEX
  8
MY3DLAYER
10
63.4948628518953
20
22.0202400834872
30
1.59236457353273e-011
 70
     32
  0
VERTEX
  8
MY3DLAYER
10
64.1331572037647
20
22.4776353476229
30
1.64241897859796e-011
 70
     32
  0
VERTEX
  8
MY3DLAYER
10
64.8
20
22.8923048454057
30
1.68782043896698e-011
 70
     32
  0
VERTEX
  8
MY3DLAYER
10
65.4925357173719
20
23.2624728983847
30
1.72835745715361e-011
 70
     32
  0
VERTEX
  8
MY3DLAYER
10
66.2077988116189
20
23.5865543901279
30
1.76381853567165e-011
 70
     32
  0
VERTEX
  8
MY3DLAYER
10
66.942726416362
20
23.8631615539337
30
1.79406267619697e-011
 70
     32
  0
VERTEX
  8
MY3DLAYER
10
67.6941714587697
20
24.0911099154612
30
1.81901937956752e-011
 70
     32
  0
VERTEX
  8
MY3DLAYER
10
68.4589161358064
20
24.2694233648312
30
1.8384771482971e-011
 70
     32
  0
VERTEX
  8
MY3DLAYER
10
69.2336856933593
20
24.3973383364782
30
1.85243598238571e-011
 70
     32
  0
VERTEX
  8
MY3DLAYER
10
70.0151624492382
20
24.4743070788557
30
1.86082538267129e-011
 70
     32
  0
VERTEX
  8
MY3DLAYER
10
70.8
20
24.4999999999924
30
1.86357484999178e-011
 70
     32
  0
VERTEX
  8
MY3DLAYER
10
73.339770848278
20
23.8912224320967
30
1.80012560413445e-011
 70
     32
  0
VERTEX
  8
MY3DLAYER
10
75.9032507656509
20
23.3916057768877
30
1.74520675688683e-011
 70
     32
  0
VERTEX
  8
MY3DLAYER
10
78.4857501959561
20
23.0020640186523
30
1.70241376551417e-011
 70
     32
  0
VERTEX
  8
MY3DLAYER
10
81.0825447892835
20
22.7233097738383
30
1.67167613085439e-011
 70
     32
  0
VERTEX
  8
MY3DLAYER
10
83.6888840445641
20
22.5558529874146
30
1.65320535039371e-011
 70
     32
  0
VERTEX
  8
MY3DLAYER
10
86.3
20
22.4999999999924
30
1.64693092497004e-011
 70
     32
  0
VERTEX
  8
MY3DLAYER
10
88.9111159554359
20
22.5558529874146
30
1.65285285458339e-011
 70
     32
  0
VERTEX
  8
MY3DLAYER
10
91.5174552107165
20
22.7233097738383
30
1.67104163839582e-011
 70
     32
  0
VERTEX
  8
MY3DLAYER
10
94.1142498040439
20
23.0020640186523
30
1.70142677724527e-011
 70
     32
  0
VERTEX
  8
MY3DLAYER
10
96.6967492343491
20
23.3916057768877
30
1.74400827113175e-011
 70
     32
  0
VERTEX
  8
MY3DLAYER
10
99.2602291517219
20
23.8912224320967
30
1.79857462256905e-011
 70
     32
  0
VERTEX
  8
MY3DLAYER
10
101.8
20
24.4999999999924
30
1.86286985837114e-011
 70
     32
  0
VERTEX
  8
MY3DLAYER
10
102.1
20
24.4999999999924
30
1.86512583155718e-011
 70
     32
  0
VERTEX
  8
MY3DLAYER
10
102.884837550762
20
24.4743070788557
30
1.86223536591257e-011
 70
     32
  0
VERTEX
  8
MY3DLAYER
10
103.666314306641
20
24.3973383364782
30
1.85377546646492e-011
 70
     32
  0
VERTEX
  8
MY3DLAYER
10
104.441083864194
20
24.2694233648312
30
1.83967563405218e-011
 70
     32
  0
VERTEX
  8
MY3DLAYER
10
105.20582854123
20
24.0911099154613
30
1.82014736616054e-011
 70
     32
  0
VERTEX
  8
MY3DLAYER
10
105.957273583638
20
23.8631615539337
30
1.79512016362793e-011
 70
     32
  0
VERTEX
  8
MY3DLAYER
10
106.692201188381
20
23.5865543901279
30
1.76473502477847e-011
 70
     32
  0
VERTEX
  8
MY3DLAYER
10
107.407464282628
20
23.2624728983847
30
1.72920344709837e-011
 70
     32
  0
VERTEX
  8
MY3DLAYER
10
108.1
20
22.8923048454057
30
1.68859592974968e-011
 70
     32
  0
VERTEX
  8
MY3DLAYER
10
108.766842796235
20
22.477635347623
30
1.6431239702186e-011
 70
     32
  0
VERTEX
  8
MY3DLAYER
10
109.405137148105
20
22.0202400834873
30
1.59292856682924e-011
 70
     32
  0
VERTEX
  8
MY3DLAYER
10
110.012149781201
20
21.5220776897402
30
1.53836221539194e-011
 70
     32
  0
VERTEX
  8
MY3DLAYER
10
110.585281374239
20
20.985281374231
30
1.47949541506875e-011
 70
     32
  0
VERTEX
  8
MY3DLAYER
10
111.122077689748
20
20.4121497811933
30
1.41668066167e-011
 70
     32
  0
VERTEX
  8
MY3DLAYER
10
111.620240083495
20
19.8051371480971
30
1.35012945268187e-011
 70
     32
  0
VERTEX
  8
MY3DLAYER
10
112.077635347631
20
19.1668427962277
30
1.28012378475262e-011
 70
     32
  0
VERTEX
  8
MY3DLAYER
10
112.492304845413
20
18.4999999999925
30
1.20708665285463e-011
 70
     32
  0
VERTEX
  8
MY3DLAYER
10
112.862472898392
20
17.8074642826205
30
1.13115905531203e-011
 70
     32
  0
VERTEX
  8
MY3DLAYER
10
113.186554390136
20
17.0922011883735
30
1.05276398709719e-011
 70
     32
  0
VERTEX
  8
MY3DLAYER
10
113.463161553941
20
16.3572735836304
30
9.72253944020451e-012
 70
     32
  0
VERTEX
  8
MY3DLAYER
10
113.691109915469
20
15.6058285412227
30
8.89840423567989e-012
 70
     32
  0
VERTEX
  8
MY3DLAYER
10
113.869423364839
20
14.841083864186
30
8.06087419036316e-012
 70
     32
  0
VERTEX
  8
MY3DLAYER
10
113.997338336486
20
14.0663143066331
30
7.21135928749561e-012
 70
     32
  0
VERTEX
  8
MY3DLAYER
10
114.074307078863
20
13.2848375507542
30
6.35549946004232e-012
 70
     32
  0
VERTEX
  8
MY3DLAYER
10
114.1
20
12.4999999999925
30
5.49540968286522e-012
 70
     32
  0
VERTEX
  8
MY3DLAYER
10
114.074307078863
20
11.7151624492307
30
4.63531990568811e-012
 70
     32
  0
VERTEX
  8
MY3DLAYER
10
113.997338336486
20
10.9336856933518
30
3.77946007823482e-012
 70
     32
  0
VERTEX
  8
MY3DLAYER
10
113.869423364839
20
10.1589161357989
30
2.9306501669879e-012
 70
     32
  0
VERTEX
  8
MY3DLAYER
10
113.691109915469
20
9.39417145876221
30
2.09241513005054e-012
 70
     32
  0
VERTEX
  8
MY3DLAYER
10
113.463161553941
20
8.64272641635453
30
1.26898491714655e-012
 70
     32
  0
VERTEX
  8
MY3DLAYER
10
113.186554390136
20
7.90779881161139
30
4.63884486379129e-013
 70
     32
  0
VERTEX
  8
MY3DLAYER
10
112.862472898392
20
7.19253571736444
30
-3.19361204148549e-013
 70
     32
  0
VERTEX
  8
MY3DLAYER
10
112.492304845413
20
6.49999999999246
30
-1.07793218795393e-012
 70
     32
  0
VERTEX
  8
MY3DLAYER
10
112.077635347631
20
5.83315720375723
30
-1.80830350693384e-012
 70
     32
  0
VERTEX
  8
MY3DLAYER
10
111.620240083495
20
5.19486285188782
30
-2.50765519460572e-012
 70
     32
  0
VERTEX
  8
MY3DLAYER
10
111.122077689748
20
4.58785021879163
30
-3.17246229286639e-012
 70
     32
  0
VERTEX
  8
MY3DLAYER
10
110.585281374239
20
4.01471862575389
30
-3.79990483523329e-012
 70
     32
  0
VERTEX
  8
MY3DLAYER
10
110.012149781201
20
3.47792231024473
30
-4.38786784684453e-012
 70
     32
  0
VERTEX
  8
MY3DLAYER
10
109.405137148105
20
2.97975991649763
30
-4.93353136121755e-012
 70
     32
  0
VERTEX
  8
MY3DLAYER
10
108.766842796235
20
2.52236465236192
30
-5.4340754118698e-012
 70
     32
  0
VERTEX
  8
MY3DLAYER
10
108.1
20
2.10769515457919
30
-5.88809001556001e-012
 70
     32
  0
VERTEX
  8
MY3DLAYER
10
107.407464282628
20
1.73752710160019
30
-6.29346019742627e-012
 70
     32
  0
VERTEX
  8
MY3DLAYER
10
106.692201188381
20
1.41344560985701
30
-6.64807098260667e-012
 70
     32
  0
VERTEX
  8
MY3DLAYER
10
105.957273583638
20
1.13683844605119
30
-6.95051238785993e-012
 70
     32
  0
VERTEX
  8
MY3DLAYER
10
105.20582854123
20
0.908890084523631
30
-7.20007942156542e-012
 70
     32
  0
VERTEX
  8
MY3DLAYER
10
104.441083864194
20
0.730576635153685
30
-7.39465710886122e-012
 70
     32
  0
VERTEX
  8
MY3DLAYER
10
103.666314306641
20
0.602661663506725
30
-7.53424544974735e-012
 70
     32
  0
VERTEX
  8
MY3DLAYER
10
102.884837550762
20
0.525692921129205
30
-7.61813945260314e-012
 70
     32
  0
SEQEND
  0
LINE
 8
Group#2
10
129.1
20
12.5
30
-3.80695475143966e-014
11
129.1
21
14.5
31
-1.52278190057586e-013
  0
LINE
 8
Group#2
10
129.1
20
12.5
30
-3.80695475143966e-014
11
130.1
21
12.5
31
-3.80695475143966e-014
  0
LINE
 8
Group#2
10
128.1
20
12.5
30
-3.73645558937596e-014
11
129.1
21
12.5
31
-3.80695475143966e-014
  0
LINE
 8
Group#2
10
129.1
20
10.5
30
7.68440866494302e-014
11
129.1
21
12.5
31
-3.80695475143966e-014
  0
LINE
 8
Group#2
10
160.4
20
10.5
30
5.78093128922319e-014
11
160.4
21
12.5
31
-5.6399329650958e-014
  0
LINE
 8
Group#2
10
159.4
20
12.5
30
-5.6399329650958e-014
11
160.4
21
12.5
31
-5.6399329650958e-014
  0
LINE
 8
Group#2
10
160.4
20
12.5
30
-5.6399329650958e-014
11
161.4
21
12.5
31
-5.71043212715949e-014
  0
LINE
 8
Group#2
10
160.4
20
12.5
30
-5.6399329650958e-014
11
160.4
21
14.5
31
-1.71312963814785e-013
  0
POLYLINE
 8
Group#2
 66
     1
70
    8
 10
0.0
 20
 0.0
 30
0.0
  0
VERTEX
  8
MY3DLAYER
10
161.184837550762
20
0.525692921129205
30
-7.63717422636034e-012
 70
     32
  0
VERTEX
  8
MY3DLAYER
10
160.1
20
0.499999999992439
30
-7.68722863142557e-012
 70
     32
  0
VERTEX
  8
MY3DLAYER
10
157.560229151722
20
1.10877756788831
30
-6.99633684320133e-012
 70
     32
  0
VERTEX
  8
MY3DLAYER
10
154.996749234349
20
1.60839422309731
30
-6.44714837072513e-012
 70
     32
  0
VERTEX
  8
MY3DLAYER
10
152.414249804044
20
1.99793598133272
30
-6.01921845699849e-012
 70
     32
  0
VERTEX
  8
MY3DLAYER
10
149.817455210717
20
2.27669022614666
30
-5.71184211040077e-012
 70
     32
  0
VERTEX
  8
MY3DLAYER
10
147.211115955436
20
2.44414701257035
30
-5.52713430579388e-012
 70
     32
  0
VERTEX
  8
MY3DLAYER
10
144.6
20
2.49999999999254
30
-5.46439005155719e-012
 70
     32
  0
VERTEX
  8
MY3DLAYER
10
141.988884044564
20
2.44414701257034
30
-5.52360934769069e-012
 70
     32
  0
VERTEX
  8
MY3DLAYER
10
139.382544789284
20
2.27669022614667
30
-5.70549718581503e-012
 70
     32
  0
VERTEX
  8
MY3DLAYER
10
136.785750195956
20
1.99793598133269
30
-6.00934857430957e-012
 70
     32
  0
VERTEX
  8
MY3DLAYER
10
134.203250765651
20
1.60839422309731
30
-6.4351635131743e-012
 70
     32
  0
VERTEX
  8
MY3DLAYER
10
131.639770848278
20
1.1087775678883
30
-6.98082702754732e-012
 70
     32
  0
VERTEX
  8
MY3DLAYER
10
129.1
20
0.499999999992436
30
-7.6801787152192e-012
 70
     32
  0
VERTEX
  8
MY3DLAYER
10
128.315162449238
20
0.525692921129188
30
-7.65127405877308e-012
 70
     32
  0
VERTEX
  8
MY3DLAYER
10
127.53368569336
20
0.602661663506705
30
-7.56667506429665e-012
 70
     32
  0
VERTEX
  8
MY3DLAYER
10
126.758916135807
20
0.730576635153659
30
-7.42638173178989e-012
 70
     32
  0
VERTEX
  8
MY3DLAYER
10
125.99417145877
20
0.9088900845236
30
-7.23039406125281e-012
 70
     32
  0
VERTEX
  8
MY3DLAYER
10
125.242726416362
20
1.13683844605115
30
-6.98012203592668e-012
 70
     32
  0
VERTEX
  8
MY3DLAYER
10
124.507798811619
20
1.41344560985697
30
-6.67627064743215e-012
 70
     32
  0
VERTEX
  8
MY3DLAYER
10
123.792535717372
20
1.73752710160015
30
-6.32095487063111e-012
 70
     32
  0
VERTEX
  8
MY3DLAYER
10
123.1
20
2.10769515457914
30
-5.91487969714422e-012
 70
     32
  0
VERTEX
  8
MY3DLAYER
10
122.433157203765
20
2.52236465236186
30
-5.46016010183337e-012
 70
     32
  0
VERTEX
  8
MY3DLAYER
10
121.794862851895
20
2.97975991649758
30
-4.95891105956048e-012
 70
     32
  0
VERTEX
  8
MY3DLAYER
10
121.187850218799
20
3.47792231024466
30
-4.41254255356682e-012
 70
     32
  0
VERTEX
  8
MY3DLAYER
10
120.614718625762
20
4.01471862575382
30
-3.82387455033495e-012
 70
     32
  0
VERTEX
  8
MY3DLAYER
10
120.077922310252
20
4.58785021879156
30
-3.19572701634741e-012
 70
     32
  0
VERTEX
  8
MY3DLAYER
10
119.579759916505
20
5.19486285188774
30
-2.5302149264661e-012
 70
     32
  0
VERTEX
  8
MY3DLAYER
10
119.12236465237
20
5.83315720375715
30
-1.83015824717359e-012
 70
     32
  0
VERTEX
  8
MY3DLAYER
10
118.707695154587
20
6.49999999999238
30
-1.09978692819368e-012
 70
     32
  0
VERTEX
  8
MY3DLAYER
10
118.337527101608
20
7.19253571736436
30
-3.40510952767659e-013
 70
     32
  0
VERTEX
  8
MY3DLAYER
10
118.013445609865
20
7.9077988116113
30
4.43439729380657e-013
 70
     32
  0
VERTEX
  8
MY3DLAYER
10
117.736838446059
20
8.64272641635444
30
1.24854016014808e-012
 70
     32
  0
VERTEX
  8
MY3DLAYER
10
117.508890084531
20
9.39417145876212
30
2.07197037305207e-012
 70
     32
  0
VERTEX
  8
MY3DLAYER
10
117.330576635161
20
10.1589161357988
30
2.91020540998943e-012
 70
     32
  0
VERTEX
  8
MY3DLAYER
10
117.202661663514
20
10.9336856933518
30
3.75972031285698e-012
 70
     32
  0
VERTEX
  8
MY3DLAYER
10
117.125692921137
20
11.7151624492307
30
4.61558014031027e-012
 70
     32
  0
VERTEX
  8
MY3DLAYER
10
117.1
20
12.4999999999924
30
5.47566991748738e-012
 70
     32
  0
VERTEX
  8
MY3DLAYER
10
117.125692921137
20
13.2848375507541
30
6.33575969466449e-012
 70
     32
  0
VERTEX
  8
MY3DLAYER
10
117.202661663514
20
14.066314306633
30
7.19161952211778e-012
 70
     32
  0
VERTEX
  8
MY3DLAYER
10
117.330576635161
20
14.8410838641859
30
8.04042943336469e-012
 70
     32
  0
VERTEX
  8
MY3DLAYER
10
117.508890084531
20
15.6058285412226
30
8.87866447030206e-012
 70
     32
  0
VERTEX
  8
MY3DLAYER
10
117.736838446059
20
16.3572735836303
30
9.70209468320604e-012
 70
     32
  0
VERTEX
  8
MY3DLAYER
10
118.013445609865
20
17.0922011883735
30
1.05071951139735e-011
 70
     32
  0
VERTEX
  8
MY3DLAYER
10
118.337527101608
20
17.8074642826204
30
1.12904408045011e-011
 70
     32
  0
VERTEX
  8
MY3DLAYER
10
118.707695154587
20
18.4999999999924
30
1.20490117883065e-011
 70
     32
  0
VERTEX
  8
MY3DLAYER
10
119.12236465237
20
19.1668427962276
30
1.27793831072864e-011
 70
     32
  0
VERTEX
  8
MY3DLAYER
10
119.579759916505
20
19.805137148097
30
1.34787347949583e-011
 70
     32
  0
VERTEX
  8
MY3DLAYER
10
120.077922310252
20
20.4121497811932
30
1.4143541893219e-011
 70
     32
  0
VERTEX
  8
MY3DLAYER
10
120.614718625761
20
20.985281374231
30
1.47709844355859e-011
 70
     32
  0
VERTEX
  8
MY3DLAYER
10
121.187850218799
20
21.5220776897401
30
1.53589474471971e-011
 70
     32
  0
VERTEX
  8
MY3DLAYER
10
121.794862851895
20
22.0202400834872
30
1.59046109615701e-011
 70
     32
  0
VERTEX
  8
MY3DLAYER
10
122.433157203765
20
22.4776353476229
30
1.64051550122224e-011
 70
     32
  0
VERTEX
  8
MY3DLAYER
10
123.1
20
22.8923048454057
30
1.68591696159126e-011
 70
     32
  0
VERTEX
  8
MY3DLAYER
10
123.792535717372
20
23.2624728983847
30
1.72645397977789e-011
 70
     32
  0
VERTEX
  8
MY3DLAYER
10
124.507798811619
20
23.5865543901279
30
1.76191505829593e-011
 70
     32
  0
VERTEX
  8
MY3DLAYER
10
125.242726416362
20
23.8631615539337
30
1.79215919882125e-011
 70
     32
  0
VERTEX
  8
MY3DLAYER
10
125.99417145877
20
24.0911099154612
30
1.8171159021918e-011
 70
     32
  0
VERTEX
  8
MY3DLAYER
10
126.758916135806
20
24.2694233648312
30
1.83657367092138e-011
 70
     32
  0
VERTEX
  8
MY3DLAYER
10
127.533685693359
20
24.3973383364782
30
1.85053250500999e-011
 70
     32
  0
VERTEX
  8
MY3DLAYER
10
128.315162449238
20
24.4743070788557
30
1.85892190529557e-011
 70
     32
  0
VERTEX
  8
MY3DLAYER
10
129.1
20
24.4999999999924
30
1.86167137261606e-011
 70
     32
  0
VERTEX
  8
MY3DLAYER
10
131.639770848278
20
23.8912224320967
30
1.79822212675873e-011
 70
     32
  0
VERTEX
  8
MY3DLAYER
10
134.203250765651
20
23.3916057768877
30
1.74330327951111e-011
 70
     32
  0
VERTEX
  8
MY3DLAYER
10
136.785750195956
20
23.0020640186523
30
1.70051028813845e-011
 70
     32
  0
VERTEX
  8
MY3DLAYER
10
139.382544789284
20
22.7233097738383
30
1.66977265347867e-011
 70
     32
  0
VERTEX
  8
MY3DLAYER
10
141.988884044564
20
22.5558529874146
30
1.65130187301799e-011
 70
     32
  0
VERTEX
  8
MY3DLAYER
10
144.6
20
22.4999999999924
30
1.64502744759432e-011
 70
     32
  0
VERTEX
  8
MY3DLAYER
10
147.211115955436
20
22.5558529874146
30
1.65094937720767e-011
 70
     32
  0
VERTEX
  8
MY3DLAYER
10
149.817455210717
20
22.7233097738383
30
1.6691381610201e-011
 70
     32
  0
VERTEX
  8
MY3DLAYER
10
152.414249804044
20
23.0020640186523
30
1.69952329986955e-011
 70
     32
  0
VERTEX
  8
MY3DLAYER
10
154.996749234349
20
23.3916057768877
30
1.74210479375603e-011
 70
     32
  0
VERTEX
  8
MY3DLAYER
10
157.560229151722
20
23.8912224320967
30
1.79667114519333e-011
 70
     32
  0
VERTEX
  8
MY3DLAYER
10
160.1
20
24.4999999999924
30
1.86096638099542e-011
 70
     32
  0
VERTEX
  8
MY3DLAYER
10
160.4
20
24.4999999999924
30
1.86322235418146e-011
 70
     32
  0
VERTEX
  8
MY3DLAYER
10
161.184837550762
20
24.4743070788557
30
1.86033188853685e-011
 70
     32
  0
VERTEX
  8
MY3DLAYER
10
161.966314306641
20
24.3973383364782
30
1.8518719890892e-011
 70
     32
  0
VERTEX
  8
MY3DLAYER
10
162.741083864194
20
24.2694233648312
30
1.83777215667646e-011
 70
     32
  0
VERTEX
  8
MY3DLAYER
10
163.50582854123
20
24.0911099154613
30
1.81824388878482e-011
 70
     32
  0
VERTEX
  8
MY3DLAYER
10
164.257273583638
20
23.8631615539337
30
1.79321668625221e-011
 70
     32
  0
VERTEX
  8
MY3DLAYER
10
164.992201188381
20
23.5865543901279
30
1.76283154740275e-011
 70
     32
  0
VERTEX
  8
MY3DLAYER
10
165.707464282628
20
23.2624728983847
30
1.72729996972265e-011
 70
     32
  0
VERTEX
  8
MY3DLAYER
10
166.4
20
22.8923048454057
30
1.68669245237396e-011
 70
     32
  0
VERTEX
  8
MY3DLAYER
10
167.066842796235
20
22.477635347623
30
1.64122049284288e-011
 70
     32
  0
VERTEX
  8
MY3DLAYER
10
167.705137148105
20
22.0202400834873
30
1.59102508945352e-011
 70
     32
  0
VERTEX
  8
MY3DLAYER
10
168.312149781201
20
21.5220776897402
30
1.53645873801622e-011
 70
     32
  0
VERTEX
  8
MY3DLAYER
10
168.885281374239
20
20.985281374231
30
1.47759193769303e-011
 70
     32
  0
VERTEX
  8
MY3DLAYER
10
169.422077689748
20
20.4121497811933
30
1.41477718429428e-011
 70
     32
  0
VERTEX
  8
MY3DLAYER
10
169.920240083495
20
19.8051371480971
30
1.34822597530615e-011
 70
     32
  0
VERTEX
  8
MY3DLAYER
10
170.377635347631
20
19.1668427962277
30
1.2782203073769e-011
 70
     32
  0
VERTEX
  8
MY3DLAYER
10
170.792304845413
20
18.4999999999925
30
1.20518317547891e-011
 70
     32
  0
VERTEX
  8
MY3DLAYER
10
171.162472898392
20
17.8074642826205
30
1.12925557793631e-011
 70
     32
  0
VERTEX
  8
MY3DLAYER
10
171.486554390136
20
17.0922011883735
30
1.05086050972147e-011
 70
     32
  0
VERTEX
  8
MY3DLAYER
10
171.763161553941
20
16.3572735836304
30
9.70350466644732e-012
 70
     32
  0
VERTEX
  8
MY3DLAYER
10
171.991109915469
20
15.6058285412227
30
8.87936946192269e-012
 70
     32
  0
VERTEX
  8
MY3DLAYER
10
172.169423364839
20
14.841083864186
30
8.04183941660597e-012
 70
     32
  0
VERTEX
  8
MY3DLAYER
10
172.297338336486
20
14.0663143066331
30
7.19232451373841e-012
 70
     32
  0
VERTEX
  8
MY3DLAYER
10
172.374307078863
20
13.2848375507542
30
6.33646468628513e-012
 70
     32
  0
VERTEX
  8
MY3DLAYER
10
172.4
20
12.4999999999925
30
5.47637490910802e-012
 70
     32
  0
VERTEX
  8
MY3DLAYER
10
172.374307078863
20
11.7151624492307
30
4.61628513193091e-012
 70
     32
  0
VERTEX
  8
MY3DLAYER
10
172.297338336486
20
10.9336856933518
30
3.76042530447762e-012
 70
     32
  0
VERTEX
  8
MY3DLAYER
10
172.169423364839
20
10.1589161357989
30
2.9116153932307e-012
 70
     32
  0
VERTEX
  8
MY3DLAYER
10
171.991109915469
20
9.39417145876221
30
2.07338035629334e-012
 70
     32
  0
VERTEX
  8
MY3DLAYER
10
171.763161553941
20
8.64272641635453
30
1.24995014338936e-012
 70
     32
  0
VERTEX
  8
MY3DLAYER
10
171.486554390136
20
7.90779881161139
30
4.44849712621931e-013
 70
     32
  0
VERTEX
  8
MY3DLAYER
10
171.162472898392
20
7.19253571736444
30
-3.38395977905748e-013
 70
     32
  0
VERTEX
  8
MY3DLAYER
10
170.792304845413
20
6.49999999999246
30
-1.09696696171113e-012
 70
     32
  0
VERTEX
  8
MY3DLAYER
10
170.377635347631
20
5.83315720375723
30
-1.82733828069104e-012
 70
     32
  0
VERTEX
  8
MY3DLAYER
10
169.920240083495
20
5.19486285188782
30
-2.52668996836292e-012
 70
     32
  0
VERTEX
  8
MY3DLAYER
10
169.422077689748
20
4.58785021879163
30
-3.19149706662358e-012
 70
     32
  0
VERTEX
  8
MY3DLAYER
10
168.885281374239
20
4.01471862575389
30
-3.81893960899049e-012
 70
     32
  0
VERTEX
  8
MY3DLAYER
10
168.312149781201
20
3.47792231024473
30
-4.40690262060173e-012
 70
     32
  0
VERTEX
  8
MY3DLAYER
10
167.705137148105
20
2.97975991649763
30
-4.95256613497475e-012
 70
     32
  0
VERTEX
  8
MY3DLAYER
10
167.066842796235
20
2.52236465236192
30
-5.453110185627e-012
 70
     32
  0
VERTEX
  8
MY3DLAYER
10
166.4
20
2.10769515457919
30
-5.90712478931721e-012
 70
     32
  0
VERTEX
  8
MY3DLAYER
10
165.707464282628
20
1.73752710160019
30
-6.31249497118347e-012
 70
     32
  0
VERTEX
  8
MY3DLAYER
10
164.992201188381
20
1.41344560985701
30
-6.66710575636387e-012
 70
     32
  0
VERTEX
  8
MY3DLAYER
10
164.257273583638
20
1.13683844605119
30
-6.96954716161713e-012
 70
     32
  0
VERTEX
  8
MY3DLAYER
10
163.50582854123
20
0.908890084523631
30
-7.21911419532262e-012
 70
     32
  0
VERTEX
  8
MY3DLAYER
10
162.741083864194
20
0.730576635153685
30
-7.41369188261842e-012
 70
     32
  0
VERTEX
  8
MY3DLAYER
10
161.966314306641
20
0.602661663506725
30
-7.55328022350454e-012
 70
     32
  0
VERTEX
  8
MY3DLAYER
10
161.184837550762
20
0.525692921129205
30
-7.63717422636034e-012
 70
     32
  0
SEQEND
  0
LINE
 8
Group#2
10
187.4
20
12.5
30
-5.71043212715949e-014
11
187.4
21
14.5
31
-1.71312963814785e-013
  0
LINE
 8
Group#2
10
187.4
20
12.5
30
-5.71043212715949e-014
11
188.4
21
12.5
31
-5.71043212715949e-014
  0
LINE
 8
Group#2
10
186.4
20
12.5
30
-5.6399329650958e-014
11
187.4
21
12.5
31
-5.71043212715949e-014
  0
LINE
 8
Group#2
10
187.4
20
10.5
30
5.78093128922319e-014
11
187.4
21
12.5
31
-5.71043212715949e-014
  0
LINE
 8
Group#2
10
218.7
20
10.5
30
3.87745391350336e-014
11
218.7
21
12.5
31
-7.54341034081563e-014
  0
LINE
 8
Group#2
10
217.7
20
12.5
30
-7.54341034081563e-014
11
218.7
21
12.5
31
-7.54341034081563e-014
  0
LINE
 8
Group#2
10
218.7
20
12.5
30
-7.54341034081563e-014
11
219.7
21
12.5
31
-7.61390950287932e-014
  0
LINE
 8
Group#2
10
218.7
20
12.5
30
-7.54341034081563e-014
11
218.7
21
14.5
31
-1.90347737571983e-013
  0
POLYLINE
 8
Group#2
 66
     1
70
    8
 10
0.0
 20
 0.0
 30
0.0
  0
VERTEX
  8
MY3DLAYER
10
219.484837550762
20
0.525692921129205
30
-7.65620900011754e-012
 70
     32
  0
VERTEX
  8
MY3DLAYER
10
218.4
20
0.499999999992439
30
-7.70626340518277e-012
 70
     32
  0
VERTEX
  8
MY3DLAYER
10
215.860229151722
20
1.10877756788831
30
-7.01537161695853e-012
 70
     32
  0
VERTEX
  8
MY3DLAYER
10
213.296749234349
20
1.60839422309731
30
-6.46618314448233e-012
 70
     32
  0
VERTEX
  8
MY3DLAYER
10
210.714249804044
20
1.99793598133272
30
-6.03825323075569e-012
 70
     32
  0
VERTEX
  8
MY3DLAYER
10
208.117455210717
20
2.27669022614666
30
-5.73087688415797e-012
 70
     32
  0
VERTEX
  8
MY3DLAYER
10
205.511115955436
20
2.44414701257035
30
-5.54616907955108e-012
 70
     32
  0
VERTEX
  8
MY3DLAYER
10
202.9
20
2.49999999999254
30
-5.48342482531439e-012
 70
     32
  0
VERTEX
  8
MY3DLAYER
10
200.288884044564
20
2.44414701257034
30
-5.54264412144789e-012
 70
     32
  0
VERTEX
  8
MY3DLAYER
10
197.682544789284
20
2.27669022614667
30
-5.72453195957223e-012
 70
     32
  0
VERTEX
  8
MY3DLAYER
10
195.085750195956
20
1.99793598133269
30
-6.02838334806677e-012
 70
     32
  0
VERTEX
  8
MY3DLAYER
10
192.503250765651
20
1.60839422309731
30
-6.4541982869315e-012
 70
     32
  0
VERTEX
  8
MY3DLAYER
10
189.939770848278
20
1.1087775678883
30
-6.99986180130452e-012
 70
     32
  0
VERTEX
  8
MY3DLAYER
10
187.4
20
0.499999999992436
30
-7.6992134889764e-012
 70
     32
  0
VERTEX
  8
MY3DLAYER
10
186.615162449238
20
0.525692921129188
30
-7.67030883253028e-012
 70
     32
  0
VERTEX
  8
MY3DLAYER
10
185.83368569336
20
0.602661663506705
30
-7.58570983805384e-012
 70
     32
  0
VERTEX
  8
MY3DLAYER
10
185.058916135807
20
0.730576635153659
30
-7.44541650554709e-012
 70
     32
  0
VERTEX
  8
MY3DLAYER
10
184.29417145877
20
0.9088900845236
30
-7.24942883501001e-012
 70
     32
  0
VERTEX
  8
MY3DLAYER
10
183.542726416362
20
1.13683844605115
30
-6.99915680968388e-012
 70
     32
  0
VERTEX
  8
MY3DLAYER
10
182.807798811619
20
1.41344560985697
30
-6.69530542118935e-012
 70
     32
  0
VERTEX
  8
MY3DLAYER
10
182.092535717372
20
1.73752710160015
30
-6.33998964438831e-012
 70
     32
  0
VERTEX
  8
MY3DLAYER
10
181.4
20
2.10769515457914
30
-5.93391447090141e-012
 70
     32
  0
VERTEX
  8
MY3DLAYER
10
180.733157203765
20
2.52236465236186
30
-5.47919487559057e-012
 70
     32
  0
VERTEX
  8
MY3DLAYER
10
180.094862851896
20
2.97975991649758
30
-4.97794583331768e-012
 70
     32
  0
VERTEX
  8
MY3DLAYER
10
179.487850218799
20
3.47792231024466
30
-4.43157732732402e-012
 70
     32
  0
VERTEX
  8
MY3DLAYER
10
178.914718625762
20
4.01471862575382
30
-3.84290932409215e-012
 70
     32
  0
VERTEX
  8
MY3DLAYER
10
178.377922310252
20
4.58785021879156
30
-3.2147617901046e-012
 70
     32
  0
VERTEX
  8
MY3DLAYER
10
177.879759916505
20
5.19486285188774
30
-2.5492497002233e-012
 70
     32
  0
VERTEX
  8
MY3DLAYER
10
177.42236465237
20
5.83315720375715
30
-1.84919302093078e-012
 70
     32
  0
VERTEX
  8
MY3DLAYER
10
177.007695154587
20
6.49999999999238
30
-1.11882170195088e-012
 70
     32
  0
VERTEX
  8
MY3DLAYER
10
176.637527101608
20
7.19253571736436
30
-3.59545726524857e-013
 70
     32
  0
VERTEX
  8
MY3DLAYER
10
176.313445609865
20
7.9077988116113
30
4.24404955623459e-013
 70
     32
  0
VERTEX
  8
MY3DLAYER
10
176.036838446059
20
8.64272641635444
30
1.22950538639088e-012
 70
     32
  0
VERTEX
  8
MY3DLAYER
10
175.808890084531
20
9.39417145876212
30
2.05293559929487e-012
 70
     32
  0
VERTEX
  8
MY3DLAYER
10
175.630576635161
20
10.1589161357988
30
2.89117063623223e-012
 70
     32
  0
VERTEX
  8
MY3DLAYER
10
175.502661663514
20
10.9336856933518
30
3.74068553909979e-012
 70
     32
  0
VERTEX
  8
MY3DLAYER
10
175.425692921137
20
11.7151624492307
30
4.59654536655307e-012
 70
     32
  0
VERTEX
  8
MY3DLAYER
10
175.4
20
12.4999999999924
30
5.45663514373018e-012
 70
     32
  0
VERTEX
  8
MY3DLAYER
10
175.425692921137
20
13.2848375507541
30
6.31672492090729e-012
 70
     32
  0
VERTEX
  8
MY3DLAYER
10
175.502661663514
20
14.066314306633
30
7.17258474836058e-012
 70
     32
  0
VERTEX
  8
MY3DLAYER
10
175.630576635161
20
14.8410838641859
30
8.0213946596075e-012
 70
     32
  0
VERTEX
  8
MY3DLAYER
10
175.808890084531
20
15.6058285412226
30
8.85962969654486e-012
 70
     32
  0
VERTEX
  8
MY3DLAYER
10
176.036838446059
20
16.3572735836303
30
9.68305990944884e-012
 70
     32
  0
VERTEX
  8
MY3DLAYER
10
176.313445609865
20
17.0922011883735
30
1.04881603402163e-011
 70
     32
  0
VERTEX
  8
MY3DLAYER
10
176.637527101608
20
17.8074642826204
30
1.12714060307439e-011
 70
     32
  0
VERTEX
  8
MY3DLAYER
10
177.007695154587
20
18.4999999999924
30
1.20299770145493e-011
 70
     32
  0
VERTEX
  8
MY3DLAYER
10
177.42236465237
20
19.1668427962276
30
1.27603483335292e-011
 70
     32
  0
VERTEX
  8
MY3DLAYER
10
177.879759916505
20
19.805137148097
30
1.34597000212011e-011
 70
     32
  0
VERTEX
  8
MY3DLAYER
10
178.377922310252
20
20.4121497811932
30
1.41245071194618e-011
 70
     32
  0
VERTEX
  8
MY3DLAYER
10
178.914718625762
20
20.985281374231
30
1.47519496618287e-011
 70
     32
  0
VERTEX
  8
MY3DLAYER
10
179.487850218799
20
21.5220776897401
30
1.53399126734399e-011
 70
     32
  0
VERTEX
  8
MY3DLAYER
10
180.094862851895
20
22.0202400834872
30
1.58855761878129e-011
 70
     32
  0
VERTEX
  8
MY3DLAYER
10
180.733157203765
20
22.4776353476229
30
1.63861202384652e-011
 70
     32
  0
VERTEX
  8
MY3DLAYER
10
181.4
20
22.8923048454057
30
1.68401348421554e-011
 70
     32
  0
VERTEX
  8
MY3DLAYER
10
182.092535717372
20
23.2624728983847
30
1.72455050240217e-011
 70
     32
  0
VERTEX
  8
MY3DLAYER
10
182.807798811619
20
23.5865543901279
30
1.76001158092021e-011
 70
     32
  0
VERTEX
  8
MY3DLAYER
10
183.542726416362
20
23.8631615539337
30
1.79025572144553e-011
 70
     32
  0
VERTEX
  8
MY3DLAYER
10
184.29417145877
20
24.0911099154612
30
1.81521242481608e-011
 70
     32
  0
VERTEX
  8
MY3DLAYER
10
185.058916135807
20
24.2694233648312
30
1.83467019354566e-011
 70
     32
  0
VERTEX
  8
MY3DLAYER
10
185.833685693359
20
24.3973383364782
30
1.84862902763427e-011
 70
     32
  0
VERTEX
  8
MY3DLAYER
10
186.615162449238
20
24.4743070788557
30
1.85701842791985e-011
 70
     32
  0
VERTEX
  8
MY3DLAYER
10
187.4
20
24.4999999999924
30
1.85976789524034e-011
 70
     32
  0
VERTEX
  8
MY3DLAYER
10
189.939770848278
20
23.8912224320967
30
1.79631864938301e-011
 70
     32
  0
VERTEX
  8
MY3DLAYER
10
192.503250765651
20
23.3916057768877
30
1.74139980213539e-011
 70
     32
  0
VERTEX
  8
MY3DLAYER
10
195.085750195956
20
23.0020640186523
30
1.69860681076273e-011
 70
     32
  0
VERTEX
  8
MY3DLAYER
10
197.682544789284
20
22.7233097738383
30
1.66786917610295e-011
 70
     32
  0
VERTEX
  8
MY3DLAYER
10
200.288884044564
20
22.5558529874146
30
1.64939839564227e-011
 70
     32
  0
VERTEX
  8
MY3DLAYER
10
202.9
20
22.4999999999924
30
1.6431239702186e-011
 70
     32
  0
VERTEX
  8
MY3DLAYER
10
205.511115955436
20
22.5558529874146
30
1.64904589983195e-011
 70
     32
  0
VERTEX
  8
MY3DLAYER
10
208.117455210717
20
22.7233097738383
30
1.66723468364438e-011
 70
     32
  0
VERTEX
  8
MY3DLAYER
10
210.714249804044
20
23.0020640186523
30
1.69761982249383e-011
 70
     32
  0
VERTEX
  8
MY3DLAYER
10
213.296749234349
20
23.3916057768877
30
1.74020131638031e-011
 70
     32
  0
VERTEX
  8
MY3DLAYER
10
215.860229151722
20
23.8912224320967
30
1.79476766781761e-011
 70
     32
  0
VERTEX
  8
MY3DLAYER
10
218.4
20
24.4999999999924
30
1.8590629036197e-011
 70
     32
  0
VERTEX
  8
MY3DLAYER
10
218.7
20
24.4999999999924
30
1.86131887680574e-011
 70
     32
  0
VERTEX
  8
MY3DLAYER
10
219.484837550762
20
24.4743070788557
30
1.85842841116113e-011
 70
     32
  0
VERTEX
  8
MY3DLAYER
10
220.266314306641
20
24.3973383364782
30
1.84996851171348e-011
 70
     32
  0
VERTEX
  8
MY3DLAYER
10
221.041083864194
20
24.2694233648312
30
1.83586867930074e-011
 70
     32
  0
VERTEX
  8
MY3DLAYER
10
221.80582854123
20
24.0911099154613
30
1.8163404114091e-011
 70
     32
  0
VERTEX
  8
MY3DLAYER
10
222.557273583638
20
23.8631615539337
30
1.79131320887649e-011
 70
     32
  0
VERTEX
  8
MY3DLAYER
10
223.292201188381
20
23.5865543901279
30
1.76092807002703e-011
 70
     32
  0
VERTEX
  8
MY3DLAYER
10
224.007464282628
20
23.2624728983847
30
1.72539649234693e-011
 70
     32
  0
VERTEX
  8
MY3DLAYER
10
224.7
20
22.8923048454057
30
1.68478897499824e-011
 70
     32
  0
VERTEX
  8
MY3DLAYER
10
225.366842796235
20
22.477635347623
30
1.63931701546716e-011
 70
     32
  0
VERTEX
  8
MY3DLAYER
10
226.005137148105
20
22.0202400834873
30
1.5891216120778e-011
 70
     32
  0
VERTEX
  8
MY3DLAYER
10
226.612149781201
20
21.5220776897402
30
1.5345552606405e-011
 70
     32
  0
VERTEX
  8
MY3DLAYER
10
227.185281374239
20
20.985281374231
30
1.47568846031731e-011
 70
     32
  0
VERTEX
  8
MY3DLAYER
10
227.722077689748
20
20.4121497811933
30
1.41287370691856e-011
 70
     32
  0
VERTEX
  8
MY3DLAYER
10
228.220240083495
20
19.8051371480971
30
1.34632249793043e-011
 70
     32
  0
VERTEX
  8
MY3DLAYER
10
228.677635347631
20
19.1668427962277
30
1.27631683000118e-011
 70
     32
  0
VERTEX
  8
MY3DLAYER
10
229.092304845413
20
18.4999999999925
30
1.20327969810319e-011
 70
     32
  0
VERTEX
  8
MY3DLAYER
10
229.462472898392
20
17.8074642826205
30
1.12735210056059e-011
 70
     32
  0
VERTEX
  8
MY3DLAYER
10
229.786554390136
20
17.0922011883735
30
1.04895703234575e-011
 70
     32
  0
VERTEX
  8
MY3DLAYER
10
230.063161553941
20
16.3572735836304
30
9.68446989269012e-012
 70
     32
  0
VERTEX
  8
MY3DLAYER
10
230.291109915469
20
15.6058285412227
30
8.86033468816549e-012
 70
     32
  0
VERTEX
  8
MY3DLAYER
10
230.469423364839
20
14.841083864186
30
8.02280464284877e-012
 70
     32
  0
VERTEX
  8
MY3DLAYER
10
230.597338336486
20
14.0663143066331
30
7.17328973998121e-012
 70
     32
  0
VERTEX
  8
MY3DLAYER
10
230.674307078863
20
13.2848375507542
30
6.31742991252793e-012
 70
     32
  0
VERTEX
  8
MY3DLAYER
10
230.7
20
12.4999999999925
30
5.45734013535082e-012
 70
     32
  0
VERTEX
  8
MY3DLAYER
10
230.674307078863
20
11.7151624492307
30
4.59725035817371e-012
 70
     32
  0
VERTEX
  8
MY3DLAYER
10
230.597338336486
20
10.9336856933518
30
3.74139053072042e-012
 70
     32
  0
VERTEX
  8
MY3DLAYER
10
230.469423364839
20
10.1589161357989
30
2.89258061947351e-012
 70
     32
  0
VERTEX
  8
MY3DLAYER
10
230.291109915469
20
9.39417145876221
30
2.05434558253614e-012
 70
     32
  0
VERTEX
  8
MY3DLAYER
10
230.063161553941
20
8.64272641635453
30
1.23091536963216e-012
 70
     32
  0
VERTEX
  8
MY3DLAYER
10
229.786554390136
20
7.90779881161139
30
4.25814938864733e-013
 70
     32
  0
VERTEX
  8
MY3DLAYER
10
229.462472898392
20
7.19253571736444
30
-3.57430751662946e-013
 70
     32
  0
VERTEX
  8
MY3DLAYER
10
229.092304845413
20
6.49999999999246
30
-1.11600173546833e-012
 70
     32
  0
VERTEX
  8
MY3DLAYER
10
228.677635347631
20
5.83315720375723
30
-1.84637305444824e-012
 70
     32
  0
VERTEX
  8
MY3DLAYER
10
228.220240083495
20
5.19486285188782
30
-2.54572474212011e-012
 70
     32
  0
VERTEX
  8
MY3DLAYER
10
227.722077689748
20
4.58785021879163
30
-3.21053184038078e-012
 70
     32
  0
VERTEX
  8
MY3DLAYER
10
227.185281374239
20
4.01471862575389
30
-3.83797438274769e-012
 70
     32
  0
VERTEX
  8
MY3DLAYER
10
226.612149781201
20
3.47792231024473
30
-4.42593739435893e-012
 70
     32
  0
VERTEX
  8
MY3DLAYER
10
226.005137148105
20
2.97975991649763
30
-4.97160090873194e-012
 70
     32
  0
VERTEX
  8
MY3DLAYER
10
225.366842796235
20
2.52236465236192
30
-5.4721449593842e-012
 70
     32
  0
VERTEX
  8
MY3DLAYER
10
224.7
20
2.10769515457919
30
-5.92615956307441e-012
 70
     32
  0
VERTEX
  8
MY3DLAYER
10
224.007464282628
20
1.73752710160019
30
-6.33152974494067e-012
 70
     32
  0
VERTEX
  8
MY3DLAYER
10
223.292201188381
20
1.41344560985701
30
-6.68614053012106e-012
 70
     32
  0
VERTEX
  8
MY3DLAYER
10
222.557273583638
20
1.13683844605119
30
-6.98858193537433e-012
 70
     32
  0
VERTEX
  8
MY3DLAYER
10
221.80582854123
20
0.908890084523631
30
-7.23814896907982e-012
 70
     32
  0
VERTEX
  8
MY3DLAYER
10
221.041083864194
20
0.730576635153685
30
-7.43272665637562e-012
 70
     32
  0
VERTEX
  8
MY3DLAYER
10
220.266314306641
20
0.602661663506725
30
-7.57231499726174e-012
 70
     32
  0
VERTEX
  8
MY3DLAYER
10
219.484837550762
20
0.525692921129205
30
-7.65620900011754e-012
 70
     32
  0
SEQEND
  0
LINE
 8
Group#2
10
245.7
20
12.5
30
-7.54341034081563e-014
11
245.7
21
14.5
31
-1.89642745951346e-013
  0
LINE
 8
Group#2
10
245.7
20
12.5
30
-7.54341034081563e-014
11
246.7
21
12.5
31
-7.54341034081563e-014
  0
LINE
 8
Group#2
10
244.7
20
12.5
30
-7.47291117875193e-014
11
245.7
21
12.5
31
-7.54341034081563e-014
  0
LINE
 8
Group#2
10
245.7
20
10.5
30
3.94795307556706e-014
11
245.7
21
12.5
31
-7.54341034081563e-014
  0
LINE
 8
Group#2
10
277.0
20
10.5
30
2.04447569984723e-014
11
277.0
21
12.5
31
-9.37638855447176e-014
  0
LINE
 8
Group#2
10
276.0
20
12.5
30
-9.37638855447176e-014
11
277.0
21
12.5
31
-9.37638855447176e-014
  0
LINE
 8
Group#2
10
277.0
20
12.5
30
-9.37638855447176e-014
11
278.0
21
12.5
31
-9.44688771653546e-014
  0
LINE
 8
Group#2
10
277.0
20
12.5
30
-9.37638855447176e-014
11
277.0
21
14.5
31
-2.08677519708544e-013
  0
POLYLINE
 8
Group#2
 66
     1
70
    8
 10
0.0
 20
 0.0
 30
0.0
  0
VERTEX
  8
MY3DLAYER
10
277.784837550762
20
0.525692921129205
30
-7.6745387822541e-012
 70
     32
  0
VERTEX
  8
MY3DLAYER
10
276.7
20
0.499999999992439
30
-7.72459318731933e-012
 70
     32
  0
VERTEX
  8
MY3DLAYER
10
274.160229151722
20
1.10877756788831
30
-7.03370139909509e-012
 70
     32
  0
VERTEX
  8
MY3DLAYER
10
271.596749234349
20
1.60839422309731
30
-6.48451292661889e-012
 70
     32
  0
VERTEX
  8
MY3DLAYER
10
269.014249804044
20
1.99793598133272
30
-6.05658301289225e-012
 70
     32
  0
VERTEX
  8
MY3DLAYER
10
266.417455210717
20
2.27669022614666
30
-5.74920666629453e-012
 70
     32
  0
VERTEX
  8
MY3DLAYER
10
263.811115955436
20
2.44414701257035
30
-5.56449886168764e-012
 70
     32
  0
VERTEX
  8
MY3DLAYER
10
261.2
20
2.49999999999254
30
-5.50175460745095e-012
 70
     32
  0
VERTEX
  8
MY3DLAYER
10
258.588884044564
20
2.44414701257034
30
-5.56097390358445e-012
 70
     32
  0
VERTEX
  8
MY3DLAYER
10
255.982544789284
20
2.27669022614667
30
-5.74286174170879e-012
 70
     32
  0
VERTEX
  8
MY3DLAYER
10
253.385750195956
20
1.99793598133269
30
-6.04671313020333e-012
 70
     32
  0
VERTEX
  8
MY3DLAYER
10
250.803250765651
20
1.60839422309731
30
-6.47252806906806e-012
 70
     32
  0
VERTEX
  8
MY3DLAYER
10
248.239770848278
20
1.1087775678883
30
-7.01819158344108e-012
 70
     32
  0
VERTEX
  8
MY3DLAYER
10
245.7
20
0.499999999992436
30
-7.71754327111296e-012
 70
     32
  0
VERTEX
  8
MY3DLAYER
10
244.915162449239
20
0.525692921129188
30
-7.68863861466684e-012
 70
     32
  0
VERTEX
  8
MY3DLAYER
10
244.13368569336
20
0.602661663506705
30
-7.6040396201904e-012
 70
     32
  0
VERTEX
  8
MY3DLAYER
10
243.358916135807
20
0.730576635153659
30
-7.46374628768365e-012
 70
     32
  0
VERTEX
  8
MY3DLAYER
10
242.59417145877
20
0.9088900845236
30
-7.26775861714657e-012
 70
     32
  0
VERTEX
  8
MY3DLAYER
10
241.842726416362
20
1.13683844605115
30
-7.01748659182044e-012
 70
     32
  0
VERTEX
  8
MY3DLAYER
10
241.107798811619
20
1.41344560985697
30
-6.71363520332591e-012
 70
     32
  0
VERTEX
  8
MY3DLAYER
10
240.392535717372
20
1.73752710160015
30
-6.35831942652487e-012
 70
     32
  0
VERTEX
  8
MY3DLAYER
10
239.7
20
2.10769515457914
30
-5.95224425303797e-012
 70
     32
  0
VERTEX
  8
MY3DLAYER
10
239.033157203765
20
2.52236465236186
30
-5.49752465772713e-012
 70
     32
  0
VERTEX
  8
MY3DLAYER
10
238.394862851896
20
2.97975991649758
30
-4.99627561545424e-012
 70
     32
  0
VERTEX
  8
MY3DLAYER
10
237.787850218799
20
3.47792231024466
30
-4.44990710946058e-012
 70
     32
  0
VERTEX
  8
MY3DLAYER
10
237.214718625762
20
4.01471862575382
30
-3.86123910622871e-012
 70
     32
  0
VERTEX
  8
MY3DLAYER
10
236.677922310253
20
4.58785021879156
30
-3.23309157224117e-012
 70
     32
  0
VERTEX
  8
MY3DLAYER
10
236.179759916505
20
5.19486285188774
30
-2.56757948235986e-012
 70
     32
  0
VERTEX
  8
MY3DLAYER
10
235.72236465237
20
5.83315720375715
30
-1.86752280306735e-012
 70
     32
  0
VERTEX
  8
MY3DLAYER
10
235.307695154587
20
6.49999999999238
30
-1.13715148408744e-012
 70
     32
  0
VERTEX
  8
MY3DLAYER
10
234.937527101608
20
7.19253571736436
30
-3.77875508661418e-013
 70
     32
  0
VERTEX
  8
MY3DLAYER
10
234.613445609865
20
7.9077988116113
30
4.06075173486897e-013
 70
     32
  0
VERTEX
  8
MY3DLAYER
10
234.336838446059
20
8.64272641635444
30
1.21117560425432e-012
 70
     32
  0
VERTEX
  8
MY3DLAYER
10
234.108890084531
20
9.39417145876212
30
2.03460581715831e-012
 70
     32
  0
VERTEX
  8
MY3DLAYER
10
233.930576635161
20
10.1589161357988
30
2.87284085409567e-012
 70
     32
  0
VERTEX
  8
MY3DLAYER
10
233.802661663515
20
10.9336856933518
30
3.72235575696322e-012
 70
     32
  0
VERTEX
  8
MY3DLAYER
10
233.725692921137
20
11.7151624492307
30
4.57821558441651e-012
 70
     32
  0
VERTEX
  8
MY3DLAYER
10
233.7
20
12.4999999999924
30
5.43830536159362e-012
 70
     32
  0
VERTEX
  8
MY3DLAYER
10
233.725692921137
20
13.2848375507541
30
6.29839513877073e-012
 70
     32
  0
VERTEX
  8
MY3DLAYER
10
233.802661663514
20
14.066314306633
30
7.15425496622402e-012
 70
     32
  0
VERTEX
  8
MY3DLAYER
10
233.930576635161
20
14.8410838641859
30
8.00306487747093e-012
 70
     32
  0
VERTEX
  8
MY3DLAYER
10
234.108890084531
20
15.6058285412226
30
8.8412999144083e-012
 70
     32
  0
VERTEX
  8
MY3DLAYER
10
234.336838446059
20
16.3572735836303
30
9.66473012731228e-012
 70
     32
  0
VERTEX
  8
MY3DLAYER
10
234.613445609865
20
17.0922011883735
30
1.04698305580797e-011
 70
     32
  0
VERTEX
  8
MY3DLAYER
10
234.937527101608
20
17.8074642826204
30
1.12530762486074e-011
 70
     32
  0
VERTEX
  8
MY3DLAYER
10
235.307695154587
20
18.4999999999924
30
1.20116472324128e-011
 70
     32
  0
VERTEX
  8
MY3DLAYER
10
235.72236465237
20
19.1668427962276
30
1.27420185513927e-011
 70
     32
  0
VERTEX
  8
MY3DLAYER
10
236.179759916505
20
19.805137148097
30
1.34413702390646e-011
 70
     32
  0
VERTEX
  8
MY3DLAYER
10
236.677922310252
20
20.4121497811932
30
1.41061773373252e-011
 70
     32
  0
VERTEX
  8
MY3DLAYER
10
237.214718625762
20
20.985281374231
30
1.47336198796921e-011
 70
     32
  0
VERTEX
  8
MY3DLAYER
10
237.787850218799
20
21.5220776897401
30
1.53215828913034e-011
 70
     32
  0
VERTEX
  8
MY3DLAYER
10
238.394862851896
20
22.0202400834872
30
1.58672464056764e-011
 70
     32
  0
VERTEX
  8
MY3DLAYER
10
239.033157203765
20
22.4776353476229
30
1.63677904563286e-011
 70
     32
  0
VERTEX
  8
MY3DLAYER
10
239.7
20
22.8923048454057
30
1.68218050600188e-011
 70
     32
  0
VERTEX
  8
MY3DLAYER
10
240.392535717372
20
23.2624728983847
30
1.72271752418851e-011
 70
     32
  0
VERTEX
  8
MY3DLAYER
10
241.107798811619
20
23.5865543901279
30
1.75817860270655e-011
 70
     32
  0
VERTEX
  8
MY3DLAYER
10
241.842726416362
20
23.8631615539337
30
1.78842274323188e-011
 70
     32
  0
VERTEX
  8
MY3DLAYER
10
242.59417145877
20
24.0911099154612
30
1.81337944660243e-011
 70
     32
  0
VERTEX
  8
MY3DLAYER
10
243.358916135807
20
24.2694233648312
30
1.83283721533201e-011
 70
     32
  0
VERTEX
  8
MY3DLAYER
10
244.13368569336
20
24.3973383364782
30
1.84679604942062e-011
 70
     32
  0
VERTEX
  8
MY3DLAYER
10
244.915162449238
20
24.4743070788557
30
1.8551854497062e-011
 70
     32
  0
VERTEX
  8
MY3DLAYER
10
245.7
20
24.4999999999924
30
1.85793491702668e-011
 70
     32
  0
VERTEX
  8
MY3DLAYER
10
248.239770848278
20
23.8912224320967
30
1.79448567116935e-011
 70
     32
  0
VERTEX
  8
MY3DLAYER
10
250.803250765651
20
23.3916057768877
30
1.73956682392173e-011
 70
     32
  0
VERTEX
  8
MY3DLAYER
10
253.385750195956
20
23.0020640186523
30
1.69677383254907e-011
 70
     32
  0
VERTEX
  8
MY3DLAYER
10
255.982544789284
20
22.7233097738383
30
1.6660361978893e-011
 70
     32
  0
VERTEX
  8
MY3DLAYER
10
258.588884044564
20
22.5558529874146
30
1.64756541742861e-011
 70
     32
  0
VERTEX
  8
MY3DLAYER
10
261.2
20
22.4999999999924
30
1.64129099200494e-011
 70
     32
  0
VERTEX
  8
MY3DLAYER
10
263.811115955436
20
22.5558529874146
30
1.64721292161829e-011
 70
     32
  0
VERTEX
  8
MY3DLAYER
10
266.417455210717
20
22.7233097738383
30
1.66540170543072e-011
 70
     32
  0
VERTEX
  8
MY3DLAYER
10
269.014249804044
20
23.0020640186523
30
1.69578684428018e-011
 70
     32
  0
VERTEX
  8
MY3DLAYER
10
271.596749234349
20
23.3916057768877
30
1.73836833816665e-011
 70
     32
  0
VERTEX
  8
MY3DLAYER
10
274.160229151722
20
23.8912224320967
30
1.79293468960395e-011
 70
     32
  0
VERTEX
  8
MY3DLAYER
10
276.7
20
24.4999999999924
30
1.85722992540605e-011
 70
     32
  0
VERTEX
  8
MY3DLAYER
10
277.0
20
24.4999999999924
30
1.85948589859208e-011
 70
     32
  0
VERTEX
  8
MY3DLAYER
10
277.784837550762
20
24.4743070788557
30
1.85659543294747e-011
 70
     32
  0
VERTEX
  8
MY3DLAYER
10
278.566314306641
20
24.3973383364782
30
1.84813553349983e-011
 70
     32
  0
VERTEX
  8
MY3DLAYER
10
279.341083864194
20
24.2694233648312
30
1.83403570108709e-011
 70
     32
  0
VERTEX
  8
MY3DLAYER
10
280.10582854123
20
24.0911099154613
30
1.81450743319544e-011
 70
     32
  0
VERTEX
  8
MY3DLAYER
10
280.857273583638
20
23.8631615539337
30
1.78948023066283e-011
 70
     32
  0
VERTEX
  8
MY3DLAYER
10
281.592201188381
20
23.5865543901279
30
1.75909509181338e-011
 70
     32
  0
VERTEX
  8
MY3DLAYER
10
282.307464282628
20
23.2624728983847
30
1.72356351413327e-011
 70
     32
  0
VERTEX
  8
MY3DLAYER
10
283.0
20
22.8923048454057
30
1.68295599678459e-011
 70
     32
  0
VERTEX
  8
MY3DLAYER
10
283.666842796235
20
22.477635347623
30
1.6374840372535e-011
 70
     32
  0
VERTEX
  8
MY3DLAYER
10
284.305137148105
20
22.0202400834873
30
1.58728863386415e-011
 70
     32
  0
VERTEX
  8
MY3DLAYER
10
284.912149781201
20
21.5220776897402
30
1.53272228242685e-011
 70
     32
  0
VERTEX
  8
MY3DLAYER
10
285.485281374239
20
20.985281374231
30
1.47385548210366e-011
 70
     32
  0
VERTEX
  8
MY3DLAYER
10
286.022077689748
20
20.4121497811933
30
1.4110407287049e-011
 70
     32
  0
VERTEX
  8
MY3DLAYER
10
286.520240083495
20
19.8051371480971
30
1.34448951971677e-011
 70
     32
  0
VERTEX
  8
MY3DLAYER
10
286.977635347631
20
19.1668427962277
30
1.27448385178752e-011
 70
     32
  0
VERTEX
  8
MY3DLAYER
10
287.392304845414
20
18.4999999999925
30
1.20144671988953e-011
 70
     32
  0
VERTEX
  8
MY3DLAYER
10
287.762472898393
20
17.8074642826205
30
1.12551912234693e-011
 70
     32
  0
VERTEX
  8
MY3DLAYER
10
288.086554390136
20
17.0922011883735
30
1.0471240541321e-011
 70
     32
  0
VERTEX
  8
MY3DLAYER
10
288.363161553942
20
16.3572735836304
30
9.66614011055356e-012
 70
     32
  0
VERTEX
  8
MY3DLAYER
10
288.591109915469
20
15.6058285412227
30
8.84200490602893e-012
 70
     32
  0
VERTEX
  8
MY3DLAYER
10
288.769423364839
20
14.841083864186
30
8.00447486071221e-012
 70
     32
  0
VERTEX
  8
MY3DLAYER
10
288.897338336486
20
14.0663143066331
30
7.15495995784465e-012
 70
     32
  0
VERTEX
  8
MY3DLAYER
10
288.974307078864
20
13.2848375507542
30
6.29910013039137e-012
 70
     32
  0
VERTEX
  8
MY3DLAYER
10
289.0
20
12.4999999999925
30
5.43901035321426e-012
 70
     32
  0
VERTEX
  8
MY3DLAYER
10
288.974307078864
20
11.7151624492307
30
4.57892057603715e-012
 70
     32
  0
VERTEX
  8
MY3DLAYER
10
288.897338336486
20
10.9336856933518
30
3.72306074858386e-012
 70
     32
  0
VERTEX
  8
MY3DLAYER
10
288.769423364839
20
10.1589161357989
30
2.87425083733694e-012
 70
     32
  0
VERTEX
  8
MY3DLAYER
10
288.591109915469
20
9.39417145876221
30
2.03601580039958e-012
 70
     32
  0
VERTEX
  8
MY3DLAYER
10
288.363161553942
20
8.64272641635453
30
1.2125855874956e-012
 70
     32
  0
VERTEX
  8
MY3DLAYER
10
288.086554390136
20
7.90779881161139
30
4.07485156728171e-013
 70
     32
  0
VERTEX
  8
MY3DLAYER
10
287.762472898393
20
7.19253571736444
30
-3.75760533799507e-013
 70
     32
  0
VERTEX
  8
MY3DLAYER
10
287.392304845414
20
6.49999999999246
30
-1.13433151760489e-012
 70
     32
  0
VERTEX
  8
MY3DLAYER
10
286.977635347631
20
5.83315720375723
30
-1.8647028365848e-012
 70
     32
  0
VERTEX
  8
MY3DLAYER
10
286.520240083495
20
5.19486285188782
30
-2.56405452425668e-012
 70
     32
  0
VERTEX
  8
MY3DLAYER
10
286.022077689748
20
4.58785021879163
30
-3.22886162251734e-012
 70
     32
  0
VERTEX
  8
MY3DLAYER
10
285.485281374239
20
4.01471862575389
30
-3.85630416488425e-012
 70
     32
  0
VERTEX
  8
MY3DLAYER
10
284.912149781201
20
3.47792231024473
30
-4.44426717649549e-012
 70
     32
  0
VERTEX
  8
MY3DLAYER
10
284.305137148105
20
2.97975991649763
30
-4.98993069086851e-012
 70
     32
  0
VERTEX
  8
MY3DLAYER
10
283.666842796236
20
2.52236465236192
30
-5.49047474152076e-012
 70
     32
  0
VERTEX
  8
MY3DLAYER
10
283.0
20
2.10769515457919
30
-5.94448934521097e-012
 70
     32
  0
VERTEX
  8
MY3DLAYER
10
282.307464282628
20
1.73752710160019
30
-6.34985952707723e-012
 70
     32
  0
VERTEX
  8
MY3DLAYER
10
281.592201188381
20
1.41344560985701
30
-6.70447031225763e-012
 70
     32
  0
VERTEX
  8
MY3DLAYER
10
280.857273583638
20
1.13683844605119
30
-7.00691171751089e-012
 70
     32
  0
VERTEX
  8
MY3DLAYER
10
280.10582854123
20
0.908890084523631
30
-7.25647875121638e-012
 70
     32
  0
VERTEX
  8
MY3DLAYER
10
279.341083864194
20
0.730576635153685
30
-7.45105643851218e-012
 70
     32
  0
VERTEX
  8
MY3DLAYER
10
278.566314306641
20
0.602661663506725
30
-7.5906447793983e-012
 70
     32
  0
VERTEX
  8
MY3DLAYER
10
277.784837550762
20
0.525692921129205
30
-7.6745387822541e-012
 70
     32
  0
SEQEND
  0
LINE
 8
Group#2
10
304.0
20
12.5
30
-9.44688771653546e-014
11
304.0
21
14.5
31
-2.08677519708544e-013
  0
LINE
 8
Group#2
10
304.0
20
12.5
30
-9.44688771653546e-014
11
305.0
21
12.5
31
-9.44688771653546e-014
  0
LINE
 8
Group#2
10
303.0
20
12.5
30
-9.37638855447176e-014
11
304.0
21
12.5
31
-9.44688771653546e-014
  0
LINE
 8
Group#2
10
304.0
20
10.5
30
2.04447569984723e-014
11
304.0
21
12.5
31
-9.44688771653546e-014
  0
LINE
 8
Group#2
10
335.3
20
10.5
30
1.40998324127395e-015
11
335.3
21
12.5
31
-1.12798659301916e-013
  0
LINE
 8
Group#2
10
334.3
20
12.5
30
-1.12798659301916e-013
11
335.3
21
12.5
31
-1.12798659301916e-013
  0
LINE
 8
Group#2
10
335.3
20
12.5
30
-1.12798659301916e-013
11
336.3
21
12.5
31
-1.13503650922553e-013
  0
LINE
 8
Group#2
10
335.3
20
12.5
30
-1.12798659301916e-013
11
335.3
21
14.5
31
-2.27712293465743e-013
  0
POLYLINE
 8
Group#2
 66
     1
70
    8
 10
0.0
 20
 0.0
 30
0.0
  0
VERTEX
  8
MY3DLAYER
10
336.084837550762
20
0.525692921129205
30
-7.6935735560113e-012
 70
     32
  0
VERTEX
  8
MY3DLAYER
10
335.0
20
0.499999999992439
30
-7.74362796107653e-012
 70
     32
  0
VERTEX
  8
MY3DLAYER
10
332.460229151722
20
1.10877756788831
30
-7.05273617285229e-012
 70
     32
  0
VERTEX
  8
MY3DLAYER
10
329.896749234349
20
1.60839422309731
30
-6.50354770037609e-012
 70
     32
  0
VERTEX
  8
MY3DLAYER
10
327.314249804044
20
1.99793598133272
30
-6.07561778664944e-012
 70
     32
  0
VERTEX
  8
MY3DLAYER
10
324.717455210717
20
2.27669022614666
30
-5.76824144005173e-012
 70
     32
  0
VERTEX
  8
MY3DLAYER
10
322.111115955436
20
2.44414701257035
30
-5.58353363544484e-012
 70
     32
  0
VERTEX
  8
MY3DLAYER
10
319.5
20
2.49999999999254
30
-5.52078938120815e-012
 70
     32
  0
VERTEX
  8
MY3DLAYER
10
316.888884044564
20
2.44414701257034
30
-5.58000867734165e-012
 70
     32
  0
VERTEX
  8
MY3DLAYER
10
314.282544789284
20
2.27669022614667
30
-5.76189651546599e-012
 70
     32
  0
VERTEX
  8
MY3DLAYER
10
311.685750195956
20
1.99793598133269
30
-6.06574790396053e-012
 70
     32
  0
VERTEX
  8
MY3DLAYER
10
309.103250765651
20
1.60839422309731
30
-6.49156284282526e-012
 70
     32
  0
VERTEX
  8
MY3DLAYER
10
306.539770848278
20
1.1087775678883
30
-7.03722635719828e-012
 70
     32
  0
VERTEX
  8
MY3DLAYER
10
304.0
20
0.499999999992436
30
-7.73657804487016e-012
 70
     32
  0
VERTEX
  8
MY3DLAYER
10
303.215162449239
20
0.525692921129188
30
-7.70767338842404e-012
 70
     32
  0
VERTEX
  8
MY3DLAYER
10
302.43368569336
20
0.602661663506705
30
-7.6230743939476e-012
 70
     32
  0
VERTEX
  8
MY3DLAYER
10
301.658916135807
20
0.730576635153659
30
-7.48278106144085e-012
 70
     32
  0
VERTEX
  8
MY3DLAYER
10
300.89417145877
20
0.9088900845236
30
-7.28679339090377e-012
 70
     32
  0
VERTEX
  8
MY3DLAYER
10
300.142726416362
20
1.13683844605115
30
-7.03652136557764e-012
 70
     32
  0
VERTEX
  8
MY3DLAYER
10
299.407798811619
20
1.41344560985697
30
-6.73266997708311e-012
 70
     32
  0
VERTEX
  8
MY3DLAYER
10
298.692535717372
20
1.73752710160015
30
-6.37735420028207e-012
 70
     32
  0
VERTEX
  8
MY3DLAYER
10
298.0
20
2.10769515457914
30
-5.97127902679517e-012
 70
     32
  0
VERTEX
  8
MY3DLAYER
10
297.333157203765
20
2.52236465236186
30
-5.51655943148432e-012
 70
     32
  0
VERTEX
  8
MY3DLAYER
10
296.694862851896
20
2.97975991649758
30
-5.01531038921144e-012
 70
     32
  0
VERTEX
  8
MY3DLAYER
10
296.0878502188
20
3.47792231024466
30
-4.46894188321778e-012
 70
     32
  0
VERTEX
  8
MY3DLAYER
10
295.514718625762
20
4.01471862575382
30
-3.88027387998591e-012
 70
     32
  0
VERTEX
  8
MY3DLAYER
10
294.977922310253
20
4.58785021879156
30
-3.25212634599836e-012
 70
     32
  0
VERTEX
  8
MY3DLAYER
10
294.479759916505
20
5.19486285188774
30
-2.58661425611706e-012
 70
     32
  0
VERTEX
  8
MY3DLAYER
10
294.02236465237
20
5.83315720375715
30
-1.88655757682454e-012
 70
     32
  0
VERTEX
  8
MY3DLAYER
10
293.607695154587
20
6.49999999999238
30
-1.15618625784464e-012
 70
     32
  0
VERTEX
  8
MY3DLAYER
10
293.237527101608
20
7.19253571736436
30
-3.96910282418617e-013
 70
     32
  0
VERTEX
  8
MY3DLAYER
10
292.913445609865
20
7.9077988116113
30
3.87040399729699e-013
 70
     32
  0
VERTEX
  8
MY3DLAYER
10
292.636838446059
20
8.64272641635444
30
1.19214083049712e-012
 70
     32
  0
VERTEX
  8
MY3DLAYER
10
292.408890084531
20
9.39417145876212
30
2.01557104340111e-012
 70
     32
  0
VERTEX
  8
MY3DLAYER
10
292.230576635162
20
10.1589161357988
30
2.85380608033847e-012
 70
     32
  0
VERTEX
  8
MY3DLAYER
10
292.102661663515
20
10.9336856933518
30
3.70332098320603e-012
 70
     32
  0
VERTEX
  8
MY3DLAYER
10
292.025692921137
20
11.7151624492307
30
4.55918081065931e-012
 70
     32
  0
VERTEX
  8
MY3DLAYER
10
292.0
20
12.4999999999924
30
5.41927058783642e-012
 70
     32
  0
VERTEX
  8
MY3DLAYER
10
292.025692921137
20
13.2848375507541
30
6.27936036501353e-012
 70
     32
  0
VERTEX
  8
MY3DLAYER
10
292.102661663515
20
14.066314306633
30
7.13522019246682e-012
 70
     32
  0
VERTEX
  8
MY3DLAYER
10
292.230576635162
20
14.8410838641859
30
7.98403010371374e-012
 70
     32
  0
VERTEX
  8
MY3DLAYER
10
292.408890084531
20
15.6058285412226
30
8.8222651406511e-012
 70
     32
  0
VERTEX
  8
MY3DLAYER
10
292.636838446059
20
16.3572735836303
30
9.64569535355508e-012
 70
     32
  0
VERTEX
  8
MY3DLAYER
10
292.913445609865
20
17.0922011883735
30
1.04507957843225e-011
 70
     32
  0
VERTEX
  8
MY3DLAYER
10
293.237527101608
20
17.8074642826204
30
1.12340414748502e-011
 70
     32
  0
VERTEX
  8
MY3DLAYER
10
293.607695154587
20
18.4999999999924
30
1.19926124586556e-011
 70
     32
  0
VERTEX
  8
MY3DLAYER
10
294.02236465237
20
19.1668427962276
30
1.27229837776355e-011
 70
     32
  0
VERTEX
  8
MY3DLAYER
10
294.479759916505
20
19.805137148097
30
1.34223354653074e-011
 70
     32
  0
VERTEX
  8
MY3DLAYER
10
294.977922310253
20
20.4121497811932
30
1.4087142563568e-011
 70
     32
  0
VERTEX
  8
MY3DLAYER
10
295.514718625762
20
20.985281374231
30
1.47145851059349e-011
 70
     32
  0
VERTEX
  8
MY3DLAYER
10
296.087850218799
20
21.5220776897401
30
1.53025481175462e-011
 70
     32
  0
VERTEX
  8
MY3DLAYER
10
296.694862851896
20
22.0202400834872
30
1.58482116319192e-011
 70
     32
  0
VERTEX
  8
MY3DLAYER
10
297.333157203765
20
22.4776353476229
30
1.63487556825714e-011
 70
     32
  0
VERTEX
  8
MY3DLAYER
10
298.0
20
22.8923048454057
30
1.68027702862616e-011
 70
     32
  0
VERTEX
  8
MY3DLAYER
10
298.692535717372
20
23.2624728983847
30
1.72081404681279e-011
 70
     32
  0
VERTEX
  8
MY3DLAYER
10
299.407798811619
20
23.5865543901279
30
1.75627512533083e-011
 70
     32
  0
VERTEX
  8
MY3DLAYER
10
300.142726416362
20
23.8631615539337
30
1.78651926585616e-011
 70
     32
  0
VERTEX
  8
MY3DLAYER
10
300.89417145877
20
24.0911099154612
30
1.81147596922671e-011
 70
     32
  0
VERTEX
  8
MY3DLAYER
10
301.658916135807
20
24.2694233648312
30
1.83093373795629e-011
 70
     32
  0
VERTEX
  8
MY3DLAYER
10
302.43368569336
20
24.3973383364782
30
1.8448925720449e-011
 70
     32
  0
VERTEX
  8
MY3DLAYER
10
303.215162449239
20
24.4743070788557
30
1.85328197233048e-011
 70
     32
  0
VERTEX
  8
MY3DLAYER
10
304.0
20
24.4999999999924
30
1.85603143965096e-011
 70
     32
  0
VERTEX
  8
MY3DLAYER
10
306.539770848278
20
23.8912224320967
30
1.79258219379363e-011
 70
     32
  0
VERTEX
  8
MY3DLAYER
10
309.103250765651
20
23.3916057768877
30
1.73766334654601e-011
 70
     32
  0
VERTEX
  8
MY3DLAYER
10
311.685750195956
20
23.0020640186523
30
1.69487035517335e-011
 70
     32
  0
VERTEX
  8
MY3DLAYER
10
314.282544789284
20
22.7233097738383
30
1.66413272051358e-011
 70
     32
  0
VERTEX
  8
MY3DLAYER
10
316.888884044564
20
22.5558529874146
30
1.64566194005289e-011
 70
     32
  0
VERTEX
  8
MY3DLAYER
10
319.5
20
22.4999999999924
30
1.63938751462922e-011
 70
     32
  0
VERTEX
  8
MY3DLAYER
10
322.111115955436
20
22.5558529874146
30
1.64530944424257e-011
 70
     32
  0
VERTEX
  8
MY3DLAYER
10
324.717455210717
20
22.7233097738383
30
1.663498228055e-011
 70
     32
  0
VERTEX
  8
MY3DLAYER
10
327.314249804044
20
23.0020640186523
30
1.69388336690446e-011
 70
     32
  0
VERTEX
  8
MY3DLAYER
10
329.896749234349
20
23.3916057768877
30
1.73646486079093e-011
 70
     32
  0
VERTEX
  8
MY3DLAYER
10
332.460229151722
20
23.8912224320967
30
1.79103121222823e-011
 70
     32
  0
VERTEX
  8
MY3DLAYER
10
335.0
20
24.4999999999924
30
1.85532644803033e-011
 70
     32
  0
VERTEX
  8
MY3DLAYER
10
335.3
20
24.4999999999924
30
1.85758242121636e-011
 70
     32
  0
VERTEX
  8
MY3DLAYER
10
336.084837550762
20
24.4743070788557
30
1.85469195557175e-011
 70
     32
  0
VERTEX
  8
MY3DLAYER
10
336.866314306641
20
24.3973383364782
30
1.84623205612411e-011
 70
     32
  0
VERTEX
  8
MY3DLAYER
10
337.641083864194
20
24.2694233648312
30
1.83213222371137e-011
 70
     32
  0
VERTEX
  8
MY3DLAYER
10
338.405828541231
20
24.0911099154613
30
1.81260395581972e-011
 70
     32
  0
VERTEX
  8
MY3DLAYER
10
339.157273583638
20
23.8631615539337
30
1.78757675328711e-011
 70
     32
  0
VERTEX
  8
MY3DLAYER
10
339.892201188381
20
23.5865543901279
30
1.75719161443766e-011
 70
     32
  0
VERTEX
  8
MY3DLAYER
10
340.607464282628
20
23.2624728983847
30
1.72166003675756e-011
 70
     32
  0
VERTEX
  8
MY3DLAYER
10
341.3
20
22.8923048454057
30
1.68105251940887e-011
 70
     32
  0
VERTEX
  8
MY3DLAYER
10
341.966842796236
20
22.477635347623
30
1.63558055987778e-011
 70
     32
  0
VERTEX
  8
MY3DLAYER
10
342.605137148105
20
22.0202400834873
30
1.58538515648843e-011
 70
     32
  0
VERTEX
  8
MY3DLAYER
10
343.212149781201
20
21.5220776897402
30
1.53081880505113e-011
 70
     32
  0
VERTEX
  8
MY3DLAYER
10
343.785281374239
20
20.985281374231
30
1.47195200472794e-011
 70
     32
  0
VERTEX
  8
MY3DLAYER
10
344.322077689748
20
20.4121497811933
30
1.40913725132918e-011
 70
     32
  0
VERTEX
  8
MY3DLAYER
10
344.820240083495
20
19.8051371480971
30
1.34258604234105e-011
 70
     32
  0
VERTEX
  8
MY3DLAYER
10
345.277635347631
20
19.1668427962277
30
1.2725803744118e-011
 70
     32
  0
VERTEX
  8
MY3DLAYER
10
345.692304845414
20
18.4999999999925
30
1.19954324251381e-011
 70
     32
  0
VERTEX
  8
MY3DLAYER
10
346.062472898393
20
17.8074642826205
30
1.12361564497121e-011
 70
     32
  0
VERTEX
  8
MY3DLAYER
10
346.386554390136
20
17.0922011883735
30
1.04522057675638e-011
 70
     32
  0
VERTEX
  8
MY3DLAYER
10
346.663161553942
20
16.3572735836304
30
9.64710533679636e-012
 70
     32
  0
VERTEX
  8
MY3DLAYER
10
346.891109915469
20
15.6058285412227
30
8.82297013227173e-012
 70
     32
  0
VERTEX
  8
MY3DLAYER
10
347.069423364839
20
14.841083864186
30
7.98544008695501e-012
 70
     32
  0
VERTEX
  8
MY3DLAYER
10
347.197338336486
20
14.0663143066331
30
7.13592518408745e-012
 70
     32
  0
VERTEX
  8
MY3DLAYER
10
347.274307078864
20
13.2848375507542
30
6.28006535663417e-012
 70
     32
  0
VERTEX
  8
MY3DLAYER
10
347.3
20
12.4999999999925
30
5.41997557945706e-012
 70
     32
  0
VERTEX
  8
MY3DLAYER
10
347.274307078864
20
11.7151624492307
30
4.55988580227995e-012
 70
     32
  0
VERTEX
  8
MY3DLAYER
10
347.197338336486
20
10.9336856933518
30
3.70402597482666e-012
 70
     32
  0
VERTEX
  8
MY3DLAYER
10
347.069423364839
20
10.1589161357989
30
2.85521606357975e-012
 70
     32
  0
VERTEX
  8
MY3DLAYER
10
346.891109915469
20
9.39417145876221
30
2.01698102664238e-012
 70
     32
  0
VERTEX
  8
MY3DLAYER
10
346.663161553942
20
8.64272641635453
30
1.1935508137384e-012
 70
     32
  0
VERTEX
  8
MY3DLAYER
10
346.386554390136
20
7.90779881161139
30
3.88450382970973e-013
 70
     32
  0
VERTEX
  8
MY3DLAYER
10
346.062472898393
20
7.19253571736444
30
-3.94795307556706e-013
 70
     32
  0
VERTEX
  8
MY3DLAYER
10
345.692304845414
20
6.49999999999246
30
-1.15336629136209e-012
 70
     32
  0
VERTEX
  8
MY3DLAYER
10
345.277635347631
20
5.83315720375723
30
-1.883737610342e-012
 70
     32
  0
VERTEX
  8
MY3DLAYER
10
344.820240083495
20
5.19486285188782
30
-2.58308929801387e-012
 70
     32
  0
VERTEX
  8
MY3DLAYER
10
344.322077689748
20
4.58785021879163
30
-3.24789639627454e-012
 70
     32
  0
VERTEX
  8
MY3DLAYER
10
343.785281374239
20
4.01471862575389
30
-3.87533893864145e-012
 70
     32
  0
VERTEX
  8
MY3DLAYER
10
343.212149781201
20
3.47792231024473
30
-4.46330195025269e-012
 70
     32
  0
VERTEX
  8
MY3DLAYER
10
342.605137148105
20
2.97975991649763
30
-5.0089654646257e-012
 70
     32
  0
VERTEX
  8
MY3DLAYER
10
341.966842796236
20
2.52236465236192
30
-5.50950951527796e-012
 70
     32
  0
VERTEX
  8
MY3DLAYER
10
341.3
20
2.10769515457919
30
-5.96352411896817e-012
 70
     32
  0
VERTEX
  8
MY3DLAYER
10
340.607464282628
20
1.73752710160019
30
-6.36889430083443e-012
 70
     32
  0
VERTEX
  8
MY3DLAYER
10
339.892201188381
20
1.41344560985701
30
-6.72350508601482e-012
 70
     32
  0
VERTEX
  8
MY3DLAYER
10
339.157273583638
20
1.13683844605119
30
-7.02594649126809e-012
 70
     32
  0
VERTEX
  8
MY3DLAYER
10
338.405828541231
20
0.908890084523631
30
-7.27551352497358e-012
 70
     32
  0
VERTEX
  8
MY3DLAYER
10
337.641083864194
20
0.730576635153685
30
-7.47009121226938e-012
 70
     32
  0
VERTEX
  8
MY3DLAYER
10
336.866314306641
20
0.602661663506725
30
-7.6096795531555e-012
 70
     32
  0
VERTEX
  8
MY3DLAYER
10
336.084837550762
20
0.525692921129205
30
-7.6935735560113e-012
 70
     32
  0
SEQEND
  0
LINE
 8
Group#2
10
362.3
20
12.5
30
-1.13503650922553e-013
11
362.3
21
14.5
31
-2.27712293465743e-013
  0
LINE
 8
Group#2
10
362.3
20
12.5
30
-1.13503650922553e-013
11
363.3
21
12.5
31
-1.13503650922553e-013
  0
LINE
 8
Group#2
10
361.3
20
12.5
30
-1.12798659301916e-013
11
362.3
21
12.5
31
-1.13503650922553e-013
  0
LINE
 8
Group#2
10
362.3
20
10.5
30
1.40998324127395e-015
11
362.3
21
12.5
31
-1.13503650922553e-013
  0
LINE
 8
Group#2
10
393.6
20
10.5
30
-1.76247905159244e-014
11
393.6
21
12.5
31
-1.31833433059114e-013
  0
LINE
 8
Group#2
10
392.6
20
12.5
30
-1.31833433059114e-013
11
393.6
21
12.5
31
-1.31833433059114e-013
  0
LINE
 8
Group#2
10
393.6
20
12.5
30
-1.31833433059114e-013
11
394.6
21
12.5
31
-1.32538424679751e-013
  0
LINE
 8
Group#2
10
393.6
20
12.5
30
-1.31833433059114e-013
11
393.6
21
14.5
31
-2.46747067222941e-013
  0
POLYLINE
 8
Group#2
 66
     1
70
    8
 10
0.0
 20
 0.0
 30
0.0
  0
VERTEX
  8
MY3DLAYER
10
394.384837550762
20
0.525692921129205
30
-7.7126083297685e-012
 70
     32
  0
VERTEX
  8
MY3DLAYER
10
393.3
20
0.499999999992439
30
-7.76266273483372e-012
 70
     32
  0
VERTEX
  8
MY3DLAYER
10
390.760229151722
20
1.10877756788831
30
-7.07177094660949e-012
 70
     32
  0
VERTEX
  8
MY3DLAYER
10
388.196749234349
20
1.60839422309731
30
-6.52258247413329e-012
 70
     32
  0
VERTEX
  8
MY3DLAYER
10
385.614249804044
20
1.99793598133272
30
-6.09465256040664e-012
 70
     32
  0
VERTEX
  8
MY3DLAYER
10
383.017455210717
20
2.27669022614666
30
-5.78727621380892e-012
 70
     32
  0
VERTEX
  8
MY3DLAYER
10
380.411115955436
20
2.44414701257035
30
-5.60256840920204e-012
 70
     32
  0
VERTEX
  8
MY3DLAYER
10
377.8
20
2.49999999999254
30
-5.53982415496535e-012
 70
     32
  0
VERTEX
  8
MY3DLAYER
10
375.188884044564
20
2.44414701257034
30
-5.59904345109885e-012
 70
     32
  0
VERTEX
  8
MY3DLAYER
10
372.582544789284
20
2.27669022614667
30
-5.78093128922319e-012
 70
     32
  0
VERTEX
  8
MY3DLAYER
10
369.985750195956
20
1.99793598133269
30
-6.08478267771773e-012
 70
     32
  0
VERTEX
  8
MY3DLAYER
10
367.403250765651
20
1.60839422309731
30
-6.51059761658246e-012
 70
     32
  0
VERTEX
  8
MY3DLAYER
10
364.839770848278
20
1.1087775678883
30
-7.05626113095548e-012
 70
     32
  0
VERTEX
  8
MY3DLAYER
10
362.3
20
0.499999999992436
30
-7.75561281862735e-012
 70
     32
  0
VERTEX
  8
MY3DLAYER
10
361.515162449239
20
0.525692921129188
30
-7.72670816218124e-012
 70
     32
  0
VERTEX
  8
MY3DLAYER
10
360.73368569336
20
0.602661663506705
30
-7.6421091677048e-012
 70
     32
  0
VERTEX
  8
MY3DLAYER
10
359.958916135807
20
0.730576635153659
30
-7.50181583519804e-012
 70
     32
  0
VERTEX
  8
MY3DLAYER
10
359.19417145877
20
0.9088900845236
30
-7.30582816466097e-012
 70
     32
  0
VERTEX
  8
MY3DLAYER
10
358.442726416362
20
1.13683844605115
30
-7.05555613933484e-012
 70
     32
  0
VERTEX
  8
MY3DLAYER
10
357.707798811619
20
1.41344560985697
30
-6.7517047508403e-012
 70
     32
  0
VERTEX
  8
MY3DLAYER
10
356.992535717372
20
1.73752710160015
30
-6.39638897403927e-012
 70
     32
  0
VERTEX
  8
MY3DLAYER
10
356.3
20
2.10769515457914
30
-5.99031380055237e-012
 70
     32
  0
VERTEX
  8
MY3DLAYER
10
355.633157203765
20
2.52236465236186
30
-5.53559420524152e-012
 70
     32
  0
VERTEX
  8
MY3DLAYER
10
354.994862851896
20
2.97975991649758
30
-5.03434516296863e-012
 70
     32
  0
VERTEX
  8
MY3DLAYER
10
354.3878502188
20
3.47792231024466
30
-4.48797665697498e-012
 70
     32
  0
VERTEX
  8
MY3DLAYER
10
353.814718625762
20
4.01471862575382
30
-3.89930865374311e-012
 70
     32
  0
VERTEX
  8
MY3DLAYER
10
353.277922310253
20
4.58785021879156
30
-3.27116111975556e-012
 70
     32
  0
VERTEX
  8
MY3DLAYER
10
352.779759916506
20
5.19486285188774
30
-2.60564902987426e-012
 70
     32
  0
VERTEX
  8
MY3DLAYER
10
352.32236465237
20
5.83315720375715
30
-1.90559235058174e-012
 70
     32
  0
VERTEX
  8
MY3DLAYER
10
351.907695154587
20
6.49999999999238
30
-1.17522103160184e-012
 70
     32
  0
VERTEX
  8
MY3DLAYER
10
351.537527101608
20
7.19253571736436
30
-4.15945056175815e-013
 70
     32
  0
VERTEX
  8
MY3DLAYER
10
351.213445609865
20
7.9077988116113
30
3.68005625972501e-013
 70
     32
  0
VERTEX
  8
MY3DLAYER
10
350.936838446059
20
8.64272641635444
30
1.17310605673993e-012
 70
     32
  0
VERTEX
  8
MY3DLAYER
10
350.708890084532
20
9.39417145876212
30
1.99653626964391e-012
 70
     32
  0
VERTEX
  8
MY3DLAYER
10
350.530576635162
20
10.1589161357988
30
2.83477130658127e-012
 70
     32
  0
VERTEX
  8
MY3DLAYER
10
350.402661663515
20
10.9336856933518
30
3.68428620944883e-012
 70
     32
  0
VERTEX
  8
MY3DLAYER
10
350.325692921137
20
11.7151624492307
30
4.54014603690212e-012
 70
     32
  0
VERTEX
  8
MY3DLAYER
10
350.3
20
12.4999999999924
30
5.40023581407922e-012
 70
     32
  0
VERTEX
  8
MY3DLAYER
10
350.325692921137
20
13.2848375507541
30
6.26032559125633e-012
 70
     32
  0
VERTEX
  8
MY3DLAYER
10
350.402661663515
20
14.066314306633
30
7.11618541870962e-012
 70
     32
  0
VERTEX
  8
MY3DLAYER
10
350.530576635162
20
14.8410838641859
30
7.96499532995654e-012
 70
     32
  0
VERTEX
  8
MY3DLAYER
10
350.708890084532
20
15.6058285412226
30
8.8032303668939e-012
 70
     32
  0
VERTEX
  8
MY3DLAYER
10
350.936838446059
20
16.3572735836303
30
9.62666057979789e-012
 70
     32
  0
VERTEX
  8
MY3DLAYER
10
351.213445609865
20
17.0922011883735
30
1.04317610105653e-011
 70
     32
  0
VERTEX
  8
MY3DLAYER
10
351.537527101608
20
17.8074642826204
30
1.1215006701093e-011
 70
     32
  0
VERTEX
  8
MY3DLAYER
10
351.907695154587
20
18.4999999999924
30
1.19735776848984e-011
 70
     32
  0
VERTEX
  8
MY3DLAYER
10
352.32236465237
20
19.1668427962276
30
1.27039490038783e-011
 70
     32
  0
VERTEX
  8
MY3DLAYER
10
352.779759916506
20
19.805137148097
30
1.34033006915502e-011
 70
     32
  0
VERTEX
  8
MY3DLAYER
10
353.277922310253
20
20.4121497811932
30
1.40681077898108e-011
 70
     32
  0
VERTEX
  8
MY3DLAYER
10
353.814718625762
20
20.985281374231
30
1.46955503321777e-011
 70
     32
  0
VERTEX
  8
MY3DLAYER
10
354.387850218799
20
21.5220776897401
30
1.5283513343789e-011
 70
     32
  0
VERTEX
  8
MY3DLAYER
10
354.994862851896
20
22.0202400834872
30
1.5829176858162e-011
 70
     32
  0
VERTEX
  8
MY3DLAYER
10
355.633157203765
20
22.4776353476229
30
1.63297209088142e-011
 70
     32
  0
VERTEX
  8
MY3DLAYER
10
356.3
20
22.8923048454057
30
1.67837355125044e-011
 70
     32
  0
VERTEX
  8
MY3DLAYER
10
356.992535717372
20
23.2624728983847
30
1.71891056943707e-011
 70
     32
  0
VERTEX
  8
MY3DLAYER
10
357.707798811619
20
23.5865543901279
30
1.75437164795511e-011
 70
     32
  0
VERTEX
  8
MY3DLAYER
10
358.442726416362
20
23.8631615539337
30
1.78461578848044e-011
 70
     32
  0
VERTEX
  8
MY3DLAYER
10
359.19417145877
20
24.0911099154612
30
1.80957249185099e-011
 70
     32
  0
VERTEX
  8
MY3DLAYER
10
359.958916135807
20
24.2694233648312
30
1.82903026058057e-011
 70
     32
  0
VERTEX
  8
MY3DLAYER
10
360.73368569336
20
24.3973383364782
30
1.84298909466918e-011
 70
     32
  0
VERTEX
  8
MY3DLAYER
10
361.515162449239
20
24.4743070788557
30
1.85137849495476e-011
 70
     32
  0
VERTEX
  8
MY3DLAYER
10
362.3
20
24.4999999999924
30
1.85412796227524e-011
 70
     32
  0
VERTEX
  8
MY3DLAYER
10
364.839770848278
20
23.8912224320967
30
1.79067871641792e-011
 70
     32
  0
VERTEX
  8
MY3DLAYER
10
367.403250765651
20
23.3916057768877
30
1.73575986917029e-011
 70
     32
  0
VERTEX
  8
MY3DLAYER
10
369.985750195956
20
23.0020640186523
30
1.69296687779763e-011
 70
     32
  0
VERTEX
  8
MY3DLAYER
10
372.582544789284
20
22.7233097738383
30
1.66222924313786e-011
 70
     32
  0
VERTEX
  8
MY3DLAYER
10
375.188884044564
20
22.5558529874146
30
1.64375846267717e-011
 70
     32
  0
VERTEX
  8
MY3DLAYER
10
377.8
20
22.4999999999924
30
1.6374840372535e-011
 70
     32
  0
VERTEX
  8
MY3DLAYER
10
380.411115955436
20
22.5558529874146
30
1.64340596686685e-011
 70
     32
  0
VERTEX
  8
MY3DLAYER
10
383.017455210717
20
22.7233097738383
30
1.66159475067928e-011
 70
     32
  0
VERTEX
  8
MY3DLAYER
10
385.614249804044
20
23.0020640186523
30
1.69197988952874e-011
 70
     32
  0
VERTEX
  8
MY3DLAYER
10
388.196749234349
20
23.3916057768877
30
1.73456138341521e-011
 70
     32
  0
VERTEX
  8
MY3DLAYER
10
390.760229151722
20
23.8912224320967
30
1.78912773485251e-011
 70
     32
  0
VERTEX
  8
MY3DLAYER
10
393.3
20
24.4999999999924
30
1.85342297065461e-011
 70
     32
  0
VERTEX
  8
MY3DLAYER
10
393.6
20
24.4999999999924
30
1.85567894384064e-011
 70
     32
  0
VERTEX
  8
MY3DLAYER
10
394.384837550762
20
24.4743070788557
30
1.85278847819603e-011
 70
     32
  0
VERTEX
  8
MY3DLAYER
10
395.166314306641
20
24.3973383364782
30
1.84432857874839e-011
 70
     32
  0
VERTEX
  8
MY3DLAYER
10
395.941083864194
20
24.2694233648312
30
1.83022874633565e-011
 70
     32
  0
VERTEX
  8
MY3DLAYER
10
396.705828541231
20
24.0911099154613
30
1.81070047844401e-011
 70
     32
  0
VERTEX
  8
MY3DLAYER
10
397.457273583638
20
23.8631615539337
30
1.78567327591139e-011
 70
     32
  0
VERTEX
  8
MY3DLAYER
10
398.192201188381
20
23.5865543901279
30
1.75528813706194e-011
 70
     32
  0
VERTEX
  8
MY3DLAYER
10
398.907464282628
20
23.2624728983847
30
1.71975655938184e-011
 70
     32
  0
VERTEX
  8
MY3DLAYER
10
399.6
20
22.8923048454057
30
1.67914904203315e-011
 70
     32
  0
VERTEX
  8
MY3DLAYER
10
400.266842796236
20
22.477635347623
30
1.63367708250206e-011
 70
     32
  0
VERTEX
  8
MY3DLAYER
10
400.905137148105
20
22.0202400834873
30
1.58348167911271e-011
 70
     32
  0
VERTEX
  8
MY3DLAYER
10
401.512149781201
20
21.5220776897402
30
1.52891532767541e-011
 70
     32
  0
VERTEX
  8
MY3DLAYER
10
402.085281374239
20
20.985281374231
30
1.47004852735222e-011
 70
     32
  0
VERTEX
  8
MY3DLAYER
10
402.622077689748
20
20.4121497811933
30
1.40723377395346e-011
 70
     32
  0
VERTEX
  8
MY3DLAYER
10
403.120240083495
20
19.8051371480971
30
1.34068256496533e-011
 70
     32
  0
VERTEX
  8
MY3DLAYER
10
403.577635347631
20
19.1668427962277
30
1.27067689703608e-011
 70
     32
  0
VERTEX
  8
MY3DLAYER
10
403.992304845414
20
18.4999999999925
30
1.19763976513809e-011
 70
     32
  0
VERTEX
  8
MY3DLAYER
10
404.362472898393
20
17.8074642826205
30
1.12171216759549e-011
 70
     32
  0
VERTEX
  8
MY3DLAYER
10
404.686554390136
20
17.0922011883735
30
1.04331709938066e-011
 70
     32
  0
VERTEX
  8
MY3DLAYER
10
404.963161553942
20
16.3572735836304
30
9.62807056303916e-012
 70
     32
  0
VERTEX
  8
MY3DLAYER
10
405.191109915469
20
15.6058285412227
30
8.80393535851454e-012
 70
     32
  0
VERTEX
  8
MY3DLAYER
10
405.369423364839
20
14.841083864186
30
7.96640531319781e-012
 70
     32
  0
VERTEX
  8
MY3DLAYER
10
405.497338336486
20
14.0663143066331
30
7.11689041033026e-012
 70
     32
  0
VERTEX
  8
MY3DLAYER
10
405.574307078864
20
13.2848375507542
30
6.26103058287697e-012
 70
     32
  0
VERTEX
  8
MY3DLAYER
10
405.6
20
12.4999999999925
30
5.40094080569986e-012
 70
     32
  0
VERTEX
  8
MY3DLAYER
10
405.574307078864
20
11.7151624492307
30
4.54085102852275e-012
 70
     32
  0
VERTEX
  8
MY3DLAYER
10
405.497338336486
20
10.9336856933518
30
3.68499120106946e-012
 70
     32
  0
VERTEX
  8
MY3DLAYER
10
405.369423364839
20
10.1589161357989
30
2.83618128982255e-012
 70
     32
  0
VERTEX
  8
MY3DLAYER
10
405.191109915469
20
9.39417145876221
30
1.99794625288519e-012
 70
     32
  0
VERTEX
  8
MY3DLAYER
10
404.963161553942
20
8.64272641635453
30
1.1745160399812e-012
 70
     32
  0
VERTEX
  8
MY3DLAYER
10
404.686554390136
20
7.90779881161139
30
3.69415609213775e-013
 70
     32
  0
VERTEX
  8
MY3DLAYER
10
404.362472898393
20
7.19253571736444
30
-4.13830081313904e-013
 70
     32
  0
VERTEX
  8
MY3DLAYER
10
403.992304845414
20
6.49999999999246
30
-1.17240106511929e-012
 70
     32
  0
VERTEX
  8
MY3DLAYER
10
403.577635347631
20
5.83315720375723
30
-1.90277238409919e-012
 70
     32
  0
VERTEX
  8
MY3DLAYER
10
403.120240083495
20
5.19486285188782
30
-2.60212407177107e-012
 70
     32
  0
VERTEX
  8
MY3DLAYER
10
402.622077689748
20
4.58785021879163
30
-3.26693117003174e-012
 70
     32
  0
VERTEX
  8
MY3DLAYER
10
402.085281374239
20
4.01471862575389
30
-3.89437371239865e-012
 70
     32
  0
VERTEX
  8
MY3DLAYER
10
401.512149781201
20
3.47792231024473
30
-4.48233672400988e-012
 70
     32
  0
VERTEX
  8
MY3DLAYER
10
400.905137148105
20
2.97975991649763
30
-5.0280002383829e-012
 70
     32
  0
VERTEX
  8
MY3DLAYER
10
400.266842796236
20
2.52236465236192
30
-5.52854428903515e-012
 70
     32
  0
VERTEX
  8
MY3DLAYER
10
399.6
20
2.10769515457919
30
-5.98255889272536e-012
 70
     32
  0
VERTEX
  8
MY3DLAYER
10
398.907464282628
20
1.73752710160019
30
-6.38792907459162e-012
 70
     32
  0
VERTEX
  8
MY3DLAYER
10
398.192201188382
20
1.41344560985701
30
-6.74253985977202e-012
 70
     32
  0
VERTEX
  8
MY3DLAYER
10
397.457273583638
20
1.13683844605119
30
-7.04498126502528e-012
 70
     32
  0
VERTEX
  8
MY3DLAYER
10
396.705828541231
20
0.908890084523631
30
-7.29454829873077e-012
 70
     32
  0
VERTEX
  8
MY3DLAYER
10
395.941083864194
20
0.730576635153685
30
-7.48912598602658e-012
 70
     32
  0
VERTEX
  8
MY3DLAYER
10
395.166314306641
20
0.602661663506725
30
-7.6287143269127e-012
 70
     32
  0
VERTEX
  8
MY3DLAYER
10
394.384837550762
20
0.525692921129205
30
-7.7126083297685e-012
 70
     32
  0
SEQEND
  0
LINE
 8
Group#2
10
420.6
20
12.5
30
-1.32538424679751e-013
11
420.6
21
14.5
31
-2.46747067222941e-013
  0
LINE
 8
Group#2
10
420.6
20
12.5
30
-1.32538424679751e-013
11
421.6
21
12.5
31
-1.32538424679751e-013
  0
LINE
 8
Group#2
10
419.6
20
12.5
30
-1.31833433059114e-013
11
420.6
21
12.5
31
-1.32538424679751e-013
  0
LINE
 8
Group#2
10
420.6
20
10.5
30
-1.76247905159244e-014
11
420.6
21
12.5
31
-1.32538424679751e-013
  0
LINE
 8
Group#2
10
451.9
20
10.5
30
-3.66595642731227e-014
11
451.9
21
12.5
31
-1.50868206816313e-013
  0
LINE
 8
Group#2
10
450.9
20
12.5
30
-1.50868206816313e-013
11
451.9
21
12.5
31
-1.50868206816313e-013
  0
LINE
 8
Group#2
10
451.9
20
12.5
30
-1.50868206816313e-013
11
452.9
21
12.5
31
-1.5157319843695e-013
  0
LINE
 8
Group#2
10
451.9
20
12.5
30
-1.50868206816313e-013
11
451.9
21
14.5
31
-2.65781840980139e-013
  0
POLYLINE
 8
Group#2
 66
     1
70
    8
 10
0.0
 20
 0.0
 30
0.0
  0
VERTEX
  8
MY3DLAYER
10
452.684837550762
20
0.525692921129205
30
-7.7316431035257e-012
 70
     32
  0
VERTEX
  8
MY3DLAYER
10
451.6
20
0.499999999992439
30
-7.78169750859092e-012
 70
     32
  0
VERTEX
  8
MY3DLAYER
10
449.060229151722
20
1.10877756788831
30
-7.09080572036669e-012
 70
     32
  0
VERTEX
  8
MY3DLAYER
10
446.496749234349
20
1.60839422309731
30
-6.54161724789048e-012
 70
     32
  0
VERTEX
  8
MY3DLAYER
10
443.914249804044
20
1.99793598133272
30
-6.11368733416384e-012
 70
     32
  0
VERTEX
  8
MY3DLAYER
10
441.317455210717
20
2.27669022614666
30
-5.80631098756612e-012
 70
     32
  0
VERTEX
  8
MY3DLAYER
10
438.711115955436
20
2.44414701257035
30
-5.62160318295923e-012
 70
     32
  0
VERTEX
  8
MY3DLAYER
10
436.1
20
2.49999999999254
30
-5.55885892872254e-012
 70
     32
  0
VERTEX
  8
MY3DLAYER
10
433.488884044565
20
2.44414701257034
30
-5.61807822485605e-012
 70
     32
  0
VERTEX
  8
MY3DLAYER
10
430.882544789284
20
2.27669022614667
30
-5.79996606298039e-012
 70
     32
  0
VERTEX
  8
MY3DLAYER
10
428.285750195957
20
1.99793598133269
30
-6.10381745147492e-012
 70
     32
  0
VERTEX
  8
MY3DLAYER
10
425.703250765651
20
1.60839422309731
30
-6.52963239033966e-012
 70
     32
  0
VERTEX
  8
MY3DLAYER
10
423.139770848278
20
1.1087775678883
30
-7.07529590471267e-012
 70
     32
  0
VERTEX
  8
MY3DLAYER
10
420.6
20
0.499999999992436
30
-7.77464759238455e-012
 70
     32
  0
VERTEX
  8
MY3DLAYER
10
419.815162449239
20
0.525692921129188
30
-7.74574293593844e-012
 70
     32
  0
VERTEX
  8
MY3DLAYER
10
419.03368569336
20
0.602661663506705
30
-7.661143941462e-012
 70
     32
  0
VERTEX
  8
MY3DLAYER
10
418.258916135807
20
0.730576635153659
30
-7.52085060895524e-012
 70
     32
  0
VERTEX
  8
MY3DLAYER
10
417.49417145877
20
0.9088900845236
30
-7.32486293841816e-012
 70
     32
  0
VERTEX
  8
MY3DLAYER
10
416.742726416363
20
1.13683844605115
30
-7.07459091309204e-012
 70
     32
  0
VERTEX
  8
MY3DLAYER
10
416.007798811619
20
1.41344560985697
30
-6.7707395245975e-012
 70
     32
  0
VERTEX
  8
MY3DLAYER
10
415.292535717372
20
1.73752710160015
30
-6.41542374779647e-012
 70
     32
  0
VERTEX
  8
MY3DLAYER
10
414.6
20
2.10769515457914
30
-6.00934857430957e-012
 70
     32
  0
VERTEX
  8
MY3DLAYER
10
413.933157203765
20
2.52236465236186
30
-5.55462897899872e-012
 70
     32
  0
VERTEX
  8
MY3DLAYER
10
413.294862851896
20
2.97975991649758
30
-5.05337993672583e-012
 70
     32
  0
VERTEX
  8
MY3DLAYER
10
412.6878502188
20
3.47792231024466
30
-4.50701143073218e-012
 70
     32
  0
VERTEX
  8
MY3DLAYER
10
412.114718625762
20
4.01471862575382
30
-3.9183434275003e-012
 70
     32
  0
VERTEX
  8
MY3DLAYER
10
411.577922310253
20
4.58785021879156
30
-3.29019589351276e-012
 70
     32
  0
VERTEX
  8
MY3DLAYER
10
411.079759916506
20
5.19486285188774
30
-2.62468380363146e-012
 70
     32
  0
VERTEX
  8
MY3DLAYER
10
410.62236465237
20
5.83315720375715
30
-1.92462712433894e-012
 70
     32
  0
VERTEX
  8
MY3DLAYER
10
410.207695154587
20
6.49999999999238
30
-1.19425580535903e-012
 70
     32
  0
VERTEX
  8
MY3DLAYER
10
409.837527101608
20
7.19253571736436
30
-4.34979829933013e-013
 70
     32
  0
VERTEX
  8
MY3DLAYER
10
409.513445609865
20
7.9077988116113
30
3.48970852215302e-013
 70
     32
  0
VERTEX
  8
MY3DLAYER
10
409.236838446059
20
8.64272641635444
30
1.15407128298273e-012
 70
     32
  0
VERTEX
  8
MY3DLAYER
10
409.008890084532
20
9.39417145876212
30
1.97750149588671e-012
 70
     32
  0
VERTEX
  8
MY3DLAYER
10
408.830576635162
20
10.1589161357988
30
2.81573653282408e-012
 70
     32
  0
VERTEX
  8
MY3DLAYER
10
408.702661663515
20
10.9336856933518
30
3.66525143569163e-012
 70
     32
  0
VERTEX
  8
MY3DLAYER
10
408.625692921137
20
11.7151624492307
30
4.52111126314492e-012
 70
     32
  0
VERTEX
  8
MY3DLAYER
10
408.6
20
12.4999999999924
30
5.38120104032203e-012
 70
     32
  0
VERTEX
  8
MY3DLAYER
10
408.625692921137
20
13.2848375507541
30
6.24129081749913e-012
 70
     32
  0
VERTEX
  8
MY3DLAYER
10
408.702661663515
20
14.066314306633
30
7.09715064495242e-012
 70
     32
  0
VERTEX
  8
MY3DLAYER
10
408.830576635162
20
14.8410838641859
30
7.94596055619934e-012
 70
     32
  0
VERTEX
  8
MY3DLAYER
10
409.008890084532
20
15.6058285412226
30
8.7841955931367e-012
 70
     32
  0
VERTEX
  8
MY3DLAYER
10
409.236838446059
20
16.3572735836303
30
9.60762580604069e-012
 70
     32
  0
VERTEX
  8
MY3DLAYER
10
409.513445609865
20
17.0922011883735
30
1.04127262368081e-011
 70
     32
  0
VERTEX
  8
MY3DLAYER
10
409.837527101608
20
17.8074642826204
30
1.11959719273358e-011
 70
     32
  0
VERTEX
  8
MY3DLAYER
10
410.207695154587
20
18.4999999999924
30
1.19545429111412e-011
 70
     32
  0
VERTEX
  8
MY3DLAYER
10
410.62236465237
20
19.1668427962276
30
1.26849142301211e-011
 70
     32
  0
VERTEX
  8
MY3DLAYER
10
411.079759916506
20
19.805137148097
30
1.3384265917793e-011
 70
     32
  0
VERTEX
  8
MY3DLAYER
10
411.577922310253
20
20.4121497811932
30
1.40490730160536e-011
 70
     32
  0
VERTEX
  8
MY3DLAYER
10
412.114718625762
20
20.985281374231
30
1.46765155584205e-011
 70
     32
  0
VERTEX
  8
MY3DLAYER
10
412.6878502188
20
21.5220776897401
30
1.52644785700318e-011
 70
     32
  0
VERTEX
  8
MY3DLAYER
10
413.294862851896
20
22.0202400834872
30
1.58101420844048e-011
 70
     32
  0
VERTEX
  8
MY3DLAYER
10
413.933157203765
20
22.4776353476229
30
1.6310686135057e-011
 70
     32
  0
VERTEX
  8
MY3DLAYER
10
414.6
20
22.8923048454057
30
1.67647007387473e-011
 70
     32
  0
VERTEX
  8
MY3DLAYER
10
415.292535717372
20
23.2624728983847
30
1.71700709206135e-011
 70
     32
  0
VERTEX
  8
MY3DLAYER
10
416.007798811619
20
23.5865543901279
30
1.75246817057939e-011
 70
     32
  0
VERTEX
  8
MY3DLAYER
10
416.742726416362
20
23.8631615539337
30
1.78271231110472e-011
 70
     32
  0
VERTEX
  8
MY3DLAYER
10
417.49417145877
20
24.0911099154612
30
1.80766901447527e-011
 70
     32
  0
VERTEX
  8
MY3DLAYER
10
418.258916135807
20
24.2694233648312
30
1.82712678320485e-011
 70
     32
  0
VERTEX
  8
MY3DLAYER
10
419.03368569336
20
24.3973383364782
30
1.84108561729346e-011
 70
     32
  0
VERTEX
  8
MY3DLAYER
10
419.815162449239
20
24.4743070788557
30
1.84947501757904e-011
 70
     32
  0
VERTEX
  8
MY3DLAYER
10
420.6
20
24.4999999999924
30
1.85222448489952e-011
 70
     32
  0
VERTEX
  8
MY3DLAYER
10
423.139770848278
20
23.8912224320967
30
1.7887752390422e-011
 70
     32
  0
VERTEX
  8
MY3DLAYER
10
425.703250765651
20
23.3916057768877
30
1.73385639179457e-011
 70
     32
  0
VERTEX
  8
MY3DLAYER
10
428.285750195956
20
23.0020640186523
30
1.69106340042191e-011
 70
     32
  0
VERTEX
  8
MY3DLAYER
10
430.882544789284
20
22.7233097738383
30
1.66032576576214e-011
 70
     32
  0
VERTEX
  8
MY3DLAYER
10
433.488884044564
20
22.5558529874146
30
1.64185498530145e-011
 70
     32
  0
VERTEX
  8
MY3DLAYER
10
436.1
20
22.4999999999924
30
1.63558055987778e-011
 70
     32
  0
VERTEX
  8
MY3DLAYER
10
438.711115955436
20
22.5558529874146
30
1.64150248949113e-011
 70
     32
  0
VERTEX
  8
MY3DLAYER
10
441.317455210717
20
22.7233097738383
30
1.65969127330356e-011
 70
     32
  0
VERTEX
  8
MY3DLAYER
10
443.914249804044
20
23.0020640186523
30
1.69007641215302e-011
 70
     32
  0
VERTEX
  8
MY3DLAYER
10
446.496749234349
20
23.3916057768877
30
1.73265790603949e-011
 70
     32
  0
VERTEX
  8
MY3DLAYER
10
449.060229151722
20
23.8912224320967
30
1.78722425747679e-011
 70
     32
  0
VERTEX
  8
MY3DLAYER
10
451.6
20
24.4999999999924
30
1.85151949327889e-011
 70
     32
  0
VERTEX
  8
MY3DLAYER
10
451.9
20
24.4999999999924
30
1.85377546646492e-011
 70
     32
  0
VERTEX
  8
MY3DLAYER
10
452.684837550762
20
24.4743070788557
30
1.85088500082031e-011
 70
     32
  0
VERTEX
  8
MY3DLAYER
10
453.466314306641
20
24.3973383364782
30
1.84242510137267e-011
 70
     32
  0
VERTEX
  8
MY3DLAYER
10
454.241083864194
20
24.2694233648312
30
1.82832526895993e-011
 70
     32
  0
VERTEX
  8
MY3DLAYER
10
455.005828541231
20
24.0911099154613
30
1.80879700106829e-011
 70
     32
  0
VERTEX
  8
MY3DLAYER
10
455.757273583638
20
23.8631615539337
30
1.78376979853567e-011
 70
     32
  0
VERTEX
  8
MY3DLAYER
10
456.492201188382
20
23.5865543901279
30
1.75338465968622e-011
 70
     32
  0
VERTEX
  8
MY3DLAYER
10
457.207464282628
20
23.2624728983847
30
1.71785308200612e-011
 70
     32
  0
VERTEX
  8
MY3DLAYER
10
457.9
20
22.8923048454057
30
1.67724556465743e-011
 70
     32
  0
VERTEX
  8
MY3DLAYER
10
458.566842796236
20
22.477635347623
30
1.63177360512634e-011
 70
     32
  0
VERTEX
  8
MY3DLAYER
10
459.205137148105
20
22.0202400834873
30
1.58157820173699e-011
 70
     32
  0
VERTEX
  8
MY3DLAYER
10
459.812149781201
20
21.5220776897402
30
1.52701185029969e-011
 70
     32
  0
VERTEX
  8
MY3DLAYER
10
460.385281374239
20
20.985281374231
30
1.4681450499765e-011
 70
     32
  0
VERTEX
  8
MY3DLAYER
10
460.922077689748
20
20.4121497811933
30
1.40533029657774e-011
 70
     32
  0
VERTEX
  8
MY3DLAYER
10
461.420240083495
20
19.8051371480971
30
1.33877908758961e-011
 70
     32
  0
VERTEX
  8
MY3DLAYER
10
461.877635347631
20
19.1668427962277
30
1.26877341966036e-011
 70
     32
  0
VERTEX
  8
MY3DLAYER
10
462.292304845414
20
18.4999999999925
30
1.19573628776237e-011
 70
     32
  0
VERTEX
  8
MY3DLAYER
10
462.662472898393
20
17.8074642826205
30
1.11980869021977e-011
 70
     32
  0
VERTEX
  8
MY3DLAYER
10
462.986554390136
20
17.0922011883735
30
1.04141362200494e-011
 70
     32
  0
VERTEX
  8
MY3DLAYER
10
463.263161553942
20
16.3572735836304
30
9.60903578928196e-012
 70
     32
  0
VERTEX
  8
MY3DLAYER
10
463.491109915469
20
15.6058285412227
30
8.78490058475734e-012
 70
     32
  0
VERTEX
  8
MY3DLAYER
10
463.669423364839
20
14.841083864186
30
7.94737053944061e-012
 70
     32
  0
VERTEX
  8
MY3DLAYER
10
463.797338336486
20
14.0663143066331
30
7.09785563657306e-012
 70
     32
  0
VERTEX
  8
MY3DLAYER
10
463.874307078864
20
13.2848375507542
30
6.24199580911977e-012
 70
     32
  0
VERTEX
  8
MY3DLAYER
10
463.9
20
12.4999999999925
30
5.38190603194266e-012
 70
     32
  0
VERTEX
  8
MY3DLAYER
10
463.874307078864
20
11.7151624492307
30
4.52181625476555e-012
 70
     32
  0
VERTEX
  8
MY3DLAYER
10
463.797338336486
20
10.9336856933518
30
3.66595642731227e-012
 70
     32
  0
VERTEX
  8
MY3DLAYER
10
463.669423364839
20
10.1589161357989
30
2.81714651606535e-012
 70
     32
  0
VERTEX
  8
MY3DLAYER
10
463.491109915469
20
9.39417145876221
30
1.97891147912799e-012
 70
     32
  0
VERTEX
  8
MY3DLAYER
10
463.263161553942
20
8.64272641635453
30
1.155481266224e-012
 70
     32
  0
VERTEX
  8
MY3DLAYER
10
462.986554390136
20
7.90779881161139
30
3.50380835456576e-013
 70
     32
  0
VERTEX
  8
MY3DLAYER
10
462.662472898393
20
7.19253571736444
30
-4.32864855071102e-013
 70
     32
  0
VERTEX
  8
MY3DLAYER
10
462.292304845414
20
6.49999999999246
30
-1.19143583887649e-012
 70
     32
  0
VERTEX
  8
MY3DLAYER
10
461.877635347631
20
5.83315720375723
30
-1.92180715785639e-012
 70
     32
  0
VERTEX
  8
MY3DLAYER
10
461.420240083495
20
5.19486285188782
30
-2.62115884552827e-012
 70
     32
  0
VERTEX
  8
MY3DLAYER
10
460.922077689748
20
4.58785021879163
30
-3.28596594378894e-012
 70
     32
  0
VERTEX
  8
MY3DLAYER
10
460.385281374239
20
4.01471862575389
30
-3.91340848615585e-012
 70
     32
  0
VERTEX
  8
MY3DLAYER
10
459.812149781201
20
3.47792231024473
30
-4.50137149776708e-012
 70
     32
  0
VERTEX
  8
MY3DLAYER
10
459.205137148105
20
2.97975991649763
30
-5.0470350121401e-012
 70
     32
  0
VERTEX
  8
MY3DLAYER
10
458.566842796236
20
2.52236465236192
30
-5.54757906279235e-012
 70
     32
  0
VERTEX
  8
MY3DLAYER
10
457.9
20
2.10769515457919
30
-6.00159366648256e-012
 70
     32
  0
VERTEX
  8
MY3DLAYER
10
457.207464282629
20
1.73752710160019
30
-6.40696384834882e-012
 70
     32
  0
VERTEX
  8
MY3DLAYER
10
456.492201188382
20
1.41344560985701
30
-6.76157463352922e-012
 70
     32
  0
VERTEX
  8
MY3DLAYER
10
455.757273583638
20
1.13683844605119
30
-7.06401603878248e-012
 70
     32
  0
VERTEX
  8
MY3DLAYER
10
455.005828541231
20
0.908890084523631
30
-7.31358307248797e-012
 70
     32
  0
VERTEX
  8
MY3DLAYER
10
454.241083864194
20
0.730576635153685
30
-7.50816075978378e-012
 70
     32
  0
VERTEX
  8
MY3DLAYER
10
453.466314306641
20
0.602661663506725
30
-7.6477491006699e-012
 70
     32
  0
VERTEX
  8
MY3DLAYER
10
452.684837550762
20
0.525692921129205
30
-7.7316431035257e-012
 70
     32
  0
SEQEND
 0
ENDSEC
 0
EOF
