 0
SECTION
 2
ENTITIES
  0
POLYLINE
 8
GROUP0
 66
     1
70
    8
 10
0.0
 20
 0.0
 30
0.0
  0
VERTEX
  8
MY3DLAYER
10
28.25
20
7.5257286707866
30
-4.23080977701092e-015
 70
     32
  0
VERTEX
  8
MY3DLAYER
10
29.25
20
7.5257286707866
30
-3.66182047689052e-015
 70
     32
  0
VERTEX
  8
MY3DLAYER
10
29.2531944537854
20
7.54999295626496
30
3.4454244907341e-015
 70
     32
  0
VERTEX
  8
MY3DLAYER
10
29.2625601183952
20
7.5726036707866
30
-3.65467390391541e-015
 70
     32
  0
VERTEX
  8
MY3DLAYER
10
29.2774587392638
20
7.59201993152284
30
3.45923060954636e-015
 70
     32
  0
VERTEX
  8
MY3DLAYER
10
29.296875
20
7.60691855239139
30
3.47027825415363e-015
 70
     32
  0
VERTEX
  8
MY3DLAYER
10
29.3194857145216
20
7.6162842170012
30
3.48314350878451e-015
 70
     32
  0
VERTEX
  8
MY3DLAYER
10
29.34375
20
7.6194786707866
30
-3.60847773000424e-015
 70
     32
  0
VERTEX
  8
MY3DLAYER
10
29.3680142854784
20
7.6162842170012
30
-3.59467161119198e-015
 70
     32
  0
VERTEX
  8
MY3DLAYER
10
29.390625
20
7.60691855239139
30
-3.58180635656109e-015
 70
     32
  0
VERTEX
  8
MY3DLAYER
10
29.4100412607362
20
7.59201993152284
30
-3.57075871195383e-015
 70
     32
  0
VERTEX
  8
MY3DLAYER
10
29.4249398816048
20
7.5726036707866
30
-3.56228155609307e-015
 70
     32
  0
VERTEX
  8
MY3DLAYER
10
29.4343055462146
20
7.54999295626496
30
-3.55695259314157e-015
 70
     32
  0
VERTEX
  8
MY3DLAYER
10
29.4375
20
7.5257286707866
30
3.55029237448305e-015
 70
     32
  0
VERTEX
  8
MY3DLAYER
10
30.4375
20
7.5257286707866
30
-2.98614568299756e-015
 70
     32
  0
VERTEX
  8
MY3DLAYER
10
30.4375
20
8.0882286707866
30
-2.98614568299756e-015
 70
     32
  0
VERTEX
  8
MY3DLAYER
10
30.5625
20
8.0882286707866
30
-2.91502202048251e-015
 70
     32
  0
VERTEX
  8
MY3DLAYER
10
30.5625
20
7.5257286707866
30
-2.91502202048251e-015
 70
     32
  0
VERTEX
  8
MY3DLAYER
10
31.4625
20
7.5257286707866
30
4.70249570722685e-015
 70
     32
  0
VERTEX
  8
MY3DLAYER
10
31.4656944537854
20
7.54999295626496
30
-2.40111404035053e-015
 70
     32
  0
VERTEX
  8
MY3DLAYER
10
31.4750601183952
20
7.5726036707866
30
-2.39578507739904e-015
 70
     32
  0
VERTEX
  8
MY3DLAYER
10
31.4899587392638
20
7.59201993152284
30
-2.38730792153828e-015
 70
     32
  0
VERTEX
  8
MY3DLAYER
10
31.509375
20
7.60691855239139
30
-2.37626027693101e-015
 70
     32
  0
VERTEX
  8
MY3DLAYER
10
31.5319857145216
20
7.6162842170012
30
-2.36339502230012e-015
 70
     32
  0
VERTEX
  8
MY3DLAYER
10
31.55625
20
7.6194786707866
30
-2.34958890348787e-015
 70
     32
  0
VERTEX
  8
MY3DLAYER
10
31.5805142854784
20
7.6162842170012
30
4.76964457292539e-015
 70
     32
  0
VERTEX
  8
MY3DLAYER
10
31.603125
20
7.60691855239139
30
4.78250982755628e-015
 70
     32
  0
VERTEX
  8
MY3DLAYER
10
31.6225412607362
20
7.59201993152284
30
4.79355747216355e-015
 70
     32
  0
VERTEX
  8
MY3DLAYER
10
31.6374398816048
20
7.5726036707866
30
-2.3033927295767e-015
 70
     32
  0
VERTEX
  8
MY3DLAYER
10
31.6468055462146
20
7.54999295626496
30
4.8073635909758e-015
 70
     32
  0
VERTEX
  8
MY3DLAYER
10
31.65
20
7.5257286707866
30
-2.29624615660158e-015
 70
     32
  0
VERTEX
  8
MY3DLAYER
10
32.75
20
7.5257286707866
30
-1.67035792646915e-015
 70
     32
  0
VERTEX
  8
MY3DLAYER
10
32.75
20
8.0882286707866
30
-1.67035792646915e-015
 70
     32
  0
VERTEX
  8
MY3DLAYER
10
32.875
20
8.0882286707866
30
-1.5992342639541e-015
 70
     32
  0
VERTEX
  8
MY3DLAYER
10
32.875
20
7.5257286707866
30
-1.5992342639541e-015
 70
     32
  0
VERTEX
  8
MY3DLAYER
10
33.0
20
7.5257286707866
30
-1.52811060143905e-015
 70
     32
  0
VERTEX
  8
MY3DLAYER
10
33.0
20
8.5257286707866
30
-1.52811060143905e-015
 70
     32
  0
VERTEX
  8
MY3DLAYER
10
28.0
20
8.5257286707866
30
2.73237025555999e-015
 70
     32
  0
VERTEX
  8
MY3DLAYER
10
28.0
20
7.5257286707866
30
2.73237025555999e-015
 70
     32
  0
VERTEX
  8
MY3DLAYER
10
28.125
20
7.5257286707866
30
2.80349391807504e-015
 70
     32
  0
VERTEX
  8
MY3DLAYER
10
28.125
20
8.0882286707866
30
2.80349391807503e-015
 70
     32
  0
VERTEX
  8
MY3DLAYER
10
28.25
20
8.0882286707866
30
-4.23080977701092e-015
 70
     32
  0
VERTEX
  8
MY3DLAYER
10
28.25
20
7.5257286707866
30
-4.23080977701092e-015
 70
     32
  0
SEQEND
 0
ENDSEC
 0
EOF
