 0
SECTION
 2
ENTITIES
  0
POLYLINE
 8
GROUP0
 66
     1
70
    8
 10
0.0
 20
 0.0
 30
0.0
  0
VERTEX
  8
MY3DLAYER
10
1.8414304761601e-016
20
1.52324292110259
30
-0.397554561340724
 70
     32
  0
VERTEX
  8
MY3DLAYER
10
1.8414304761601e-016
20
1.55080883687491
30
-0.418706632461179
 70
     32
  0
VERTEX
  8
MY3DLAYER
10
0.196850393700787
20
1.55080883687491
30
-0.418706632461179
 70
     32
  0
VERTEX
  8
MY3DLAYER
10
0.196850393700787
20
1.52324292110259
30
-0.397554561340724
 70
     32
  0
VERTEX
  8
MY3DLAYER
10
1.8414304761601e-016
20
1.52324292110259
30
-0.397554561340724
 70
     32
  0
SEQEND
  0
POLYLINE
 8
GROUP0
 66
     1
70
    8
 10
0.0
 20
 0.0
 30
0.0
  0
VERTEX
  8
MY3DLAYER
10
1.8414304761601e-016
20
1.55080883687491
30
-0.418706632461179
 70
     32
  0
VERTEX
  8
MY3DLAYER
10
1.8414304761601e-016
20
1.57196090799537
30
-0.446272548233498
 70
     32
  0
VERTEX
  8
MY3DLAYER
10
0.196850393700787
20
1.57196090799537
30
-0.446272548233498
 70
     32
  0
VERTEX
  8
MY3DLAYER
10
0.196850393700787
20
1.55080883687491
30
-0.418706632461179
 70
     32
  0
VERTEX
  8
MY3DLAYER
10
1.8414304761601e-016
20
1.55080883687491
30
-0.418706632461179
 70
     32
  0
SEQEND
  0
POLYLINE
 8
GROUP0
 66
     1
70
    8
 10
0.0
 20
 0.0
 30
0.0
  0
VERTEX
  8
MY3DLAYER
10
1.8414304761601e-016
20
1.58525765577255
30
-0.478373737052626
 70
     32
  0
VERTEX
  8
MY3DLAYER
10
1.8414304761601e-016
20
1.58979292881936
30
-0.512822555950264
 70
     32
  0
VERTEX
  8
MY3DLAYER
10
0.196850393700787
20
1.58979292881936
30
-0.512822555950264
 70
     32
  0
VERTEX
  8
MY3DLAYER
10
0.196850393700787
20
1.58525765577255
30
-0.478373737052626
 70
     32
  0
VERTEX
  8
MY3DLAYER
10
1.8414304761601e-016
20
1.58525765577255
30
-0.478373737052626
 70
     32
  0
SEQEND
  0
POLYLINE
 8
GROUP0
 66
     1
70
    8
 10
0.0
 20
 0.0
 30
0.0
  0
VERTEX
  8
MY3DLAYER
10
1.8414304761601e-016
20
1.57196090799537
30
-0.579372563667031
 70
     32
  0
VERTEX
  8
MY3DLAYER
10
1.8414304761601e-016
20
1.55080883687491
30
-0.60693847943935
 70
     32
  0
VERTEX
  8
MY3DLAYER
10
0.196850393700787
20
1.55080883687491
30
-0.60693847943935
 70
     32
  0
VERTEX
  8
MY3DLAYER
10
0.196850393700787
20
1.57196090799537
30
-0.579372563667031
 70
     32
  0
VERTEX
  8
MY3DLAYER
10
1.8414304761601e-016
20
1.57196090799537
30
-0.579372563667031
 70
     32
  0
SEQEND
  0
POLYLINE
 8
GROUP0
 66
     1
70
    8
 10
0.0
 20
 0.0
 30
0.0
  0
VERTEX
  8
MY3DLAYER
10
1.8414304761601e-016
20
1.57196090799537
30
-0.446272548233498
 70
     32
  0
VERTEX
  8
MY3DLAYER
10
1.8414304761601e-016
20
1.58525765577255
30
-0.478373737052626
 70
     32
  0
VERTEX
  8
MY3DLAYER
10
0.196850393700787
20
1.58525765577255
30
-0.478373737052626
 70
     32
  0
VERTEX
  8
MY3DLAYER
10
0.196850393700787
20
1.57196090799537
30
-0.446272548233498
 70
     32
  0
VERTEX
  8
MY3DLAYER
10
1.8414304761601e-016
20
1.57196090799537
30
-0.446272548233498
 70
     32
  0
SEQEND
  0
POLYLINE
 8
GROUP0
 66
     1
70
    8
 10
0.0
 20
 0.0
 30
0.0
  0
VERTEX
  8
MY3DLAYER
10
1.8414304761601e-016
20
1.58979292881936
30
-0.512822555950264
 70
     32
  0
VERTEX
  8
MY3DLAYER
10
1.8414304761601e-016
20
1.58525765577255
30
-0.547271374847902
 70
     32
  0
VERTEX
  8
MY3DLAYER
10
0.196850393700787
20
1.58525765577255
30
-0.547271374847902
 70
     32
  0
VERTEX
  8
MY3DLAYER
10
0.196850393700787
20
1.58979292881936
30
-0.512822555950264
 70
     32
  0
VERTEX
  8
MY3DLAYER
10
1.8414304761601e-016
20
1.58979292881936
30
-0.512822555950264
 70
     32
  0
SEQEND
  0
POLYLINE
 8
GROUP0
 66
     1
70
    8
 10
0.0
 20
 0.0
 30
0.0
  0
VERTEX
  8
MY3DLAYER
10
1.8414304761601e-016
20
1.34142491877629
30
-0.579372563667031
 70
     32
  0
VERTEX
  8
MY3DLAYER
10
1.8414304761601e-016
20
1.3281281709991
30
-0.547271374847902
 70
     32
  0
VERTEX
  8
MY3DLAYER
10
0.196850393700787
20
1.3281281709991
30
-0.547271374847902
 70
     32
  0
VERTEX
  8
MY3DLAYER
10
0.196850393700787
20
1.34142491877629
30
-0.579372563667031
 70
     32
  0
VERTEX
  8
MY3DLAYER
10
1.8414304761601e-016
20
1.34142491877629
30
-0.579372563667031
 70
     32
  0
SEQEND
  0
POLYLINE
 8
GROUP0
 66
     1
70
    8
 10
0.0
 20
 0.0
 30
0.0
  0
VERTEX
  8
MY3DLAYER
10
1.8414304761601e-016
20
1.45669291338583
30
-0.645922571383797
 70
     32
  0
VERTEX
  8
MY3DLAYER
10
1.8414304761601e-016
20
1.42224409448819
30
-0.641387298336987
 70
     32
  0
VERTEX
  8
MY3DLAYER
10
0.196850393700787
20
1.42224409448819
30
-0.641387298336987
 70
     32
  0
VERTEX
  8
MY3DLAYER
10
0.196850393700787
20
1.45669291338583
30
-0.645922571383797
 70
     32
  0
VERTEX
  8
MY3DLAYER
10
1.8414304761601e-016
20
1.45669291338583
30
-0.645922571383797
 70
     32
  0
SEQEND
  0
POLYLINE
 8
GROUP0
 66
     1
70
    8
 10
0.0
 20
 0.0
 30
0.0
  0
VERTEX
  8
MY3DLAYER
10
1.8414304761601e-016
20
1.3281281709991
30
-0.547271374847902
 70
     32
  0
VERTEX
  8
MY3DLAYER
10
1.8414304761601e-016
20
1.32359289795229
30
-0.512822555950264
 70
     32
  0
VERTEX
  8
MY3DLAYER
10
0.196850393700787
20
1.32359289795229
30
-0.512822555950264
 70
     32
  0
VERTEX
  8
MY3DLAYER
10
0.196850393700787
20
1.3281281709991
30
-0.547271374847902
 70
     32
  0
VERTEX
  8
MY3DLAYER
10
1.8414304761601e-016
20
1.3281281709991
30
-0.547271374847902
 70
     32
  0
SEQEND
  0
POLYLINE
 8
GROUP0
 66
     1
70
    8
 10
0.0
 20
 0.0
 30
0.0
  0
VERTEX
  8
MY3DLAYER
10
1.8414304761601e-016
20
1.42224409448819
30
-0.384257813563541
 70
     32
  0
VERTEX
  8
MY3DLAYER
10
1.8414304761601e-016
20
1.45669291338583
30
-0.379722540516731
 70
     32
  0
VERTEX
  8
MY3DLAYER
10
0.196850393700787
20
1.45669291338583
30
-0.379722540516731
 70
     32
  0
VERTEX
  8
MY3DLAYER
10
0.196850393700787
20
1.42224409448819
30
-0.384257813563541
 70
     32
  0
VERTEX
  8
MY3DLAYER
10
1.8414304761601e-016
20
1.42224409448819
30
-0.384257813563541
 70
     32
  0
SEQEND
  0
POLYLINE
 8
GROUP0
 66
     1
70
    8
 10
0.0
 20
 0.0
 30
0.0
  0
VERTEX
  8
MY3DLAYER
10
1.8414304761601e-016
20
1.58525765577255
30
-0.547271374847902
 70
     32
  0
VERTEX
  8
MY3DLAYER
10
1.8414304761601e-016
20
1.57196090799537
30
-0.579372563667031
 70
     32
  0
VERTEX
  8
MY3DLAYER
10
0.196850393700787
20
1.57196090799537
30
-0.579372563667031
 70
     32
  0
VERTEX
  8
MY3DLAYER
10
0.196850393700787
20
1.58525765577255
30
-0.547271374847902
 70
     32
  0
VERTEX
  8
MY3DLAYER
10
1.8414304761601e-016
20
1.58525765577255
30
-0.547271374847902
 70
     32
  0
SEQEND
  0
POLYLINE
 8
GROUP0
 66
     1
70
    8
 10
0.0
 20
 0.0
 30
0.0
  0
VERTEX
  8
MY3DLAYER
10
1.8414304761601e-016
20
1.55080883687491
30
-0.60693847943935
 70
     32
  0
VERTEX
  8
MY3DLAYER
10
1.8414304761601e-016
20
1.52324292110259
30
-0.628090550559805
 70
     32
  0
VERTEX
  8
MY3DLAYER
10
0.196850393700787
20
1.52324292110259
30
-0.628090550559805
 70
     32
  0
VERTEX
  8
MY3DLAYER
10
0.196850393700787
20
1.55080883687491
30
-0.60693847943935
 70
     32
  0
VERTEX
  8
MY3DLAYER
10
1.8414304761601e-016
20
1.55080883687491
30
-0.60693847943935
 70
     32
  0
SEQEND
  0
POLYLINE
 8
GROUP0
 66
     1
70
    8
 10
0.0
 20
 0.0
 30
0.0
  0
VERTEX
  8
MY3DLAYER
10
1.8414304761601e-016
20
1.49114173228346
30
-0.384257813563541
 70
     32
  0
VERTEX
  8
MY3DLAYER
10
1.8414304761601e-016
20
1.52324292110259
30
-0.397554561340724
 70
     32
  0
VERTEX
  8
MY3DLAYER
10
0.196850393700787
20
1.52324292110259
30
-0.397554561340724
 70
     32
  0
VERTEX
  8
MY3DLAYER
10
0.196850393700787
20
1.49114173228346
30
-0.384257813563541
 70
     32
  0
VERTEX
  8
MY3DLAYER
10
1.8414304761601e-016
20
1.49114173228346
30
-0.384257813563541
 70
     32
  0
SEQEND
  0
POLYLINE
 8
GROUP0
 66
     1
70
    8
 10
0.0
 20
 0.0
 30
0.0
  0
VERTEX
  8
MY3DLAYER
10
1.8414304761601e-016
20
1.39014290566906
30
-0.628090550559805
 70
     32
  0
VERTEX
  8
MY3DLAYER
10
1.8414304761601e-016
20
1.36257698989674
30
-0.60693847943935
 70
     32
  0
VERTEX
  8
MY3DLAYER
10
0.196850393700787
20
1.36257698989674
30
-0.60693847943935
 70
     32
  0
VERTEX
  8
MY3DLAYER
10
0.196850393700787
20
1.39014290566906
30
-0.628090550559805
 70
     32
  0
VERTEX
  8
MY3DLAYER
10
1.8414304761601e-016
20
1.39014290566906
30
-0.628090550559805
 70
     32
  0
SEQEND
  0
POLYLINE
 8
GROUP0
 66
     1
70
    8
 10
0.0
 20
 0.0
 30
0.0
  0
VERTEX
  8
MY3DLAYER
10
1.8414304761601e-016
20
1.42224409448819
30
-0.641387298336987
 70
     32
  0
VERTEX
  8
MY3DLAYER
10
1.8414304761601e-016
20
1.39014290566906
30
-0.628090550559805
 70
     32
  0
VERTEX
  8
MY3DLAYER
10
0.196850393700787
20
1.39014290566906
30
-0.628090550559805
 70
     32
  0
VERTEX
  8
MY3DLAYER
10
0.196850393700787
20
1.42224409448819
30
-0.641387298336987
 70
     32
  0
VERTEX
  8
MY3DLAYER
10
1.8414304761601e-016
20
1.42224409448819
30
-0.641387298336987
 70
     32
  0
SEQEND
  0
POLYLINE
 8
GROUP0
 66
     1
70
    8
 10
0.0
 20
 0.0
 30
0.0
  0
VERTEX
  8
MY3DLAYER
10
1.8414304761601e-016
20
1.36257698989674
30
-0.418706632461179
 70
     32
  0
VERTEX
  8
MY3DLAYER
10
1.8414304761601e-016
20
1.39014290566906
30
-0.397554561340724
 70
     32
  0
VERTEX
  8
MY3DLAYER
10
0.196850393700787
20
1.39014290566906
30
-0.397554561340724
 70
     32
  0
VERTEX
  8
MY3DLAYER
10
0.196850393700787
20
1.36257698989674
30
-0.418706632461179
 70
     32
  0
VERTEX
  8
MY3DLAYER
10
1.8414304761601e-016
20
1.36257698989674
30
-0.418706632461179
 70
     32
  0
SEQEND
  0
POLYLINE
 8
GROUP0
 66
     1
70
    8
 10
0.0
 20
 0.0
 30
0.0
  0
VERTEX
  8
MY3DLAYER
10
1.8414304761601e-016
20
1.39014290566906
30
-0.397554561340724
 70
     32
  0
VERTEX
  8
MY3DLAYER
10
1.8414304761601e-016
20
1.42224409448819
30
-0.384257813563541
 70
     32
  0
VERTEX
  8
MY3DLAYER
10
0.196850393700787
20
1.42224409448819
30
-0.384257813563541
 70
     32
  0
VERTEX
  8
MY3DLAYER
10
0.196850393700787
20
1.39014290566906
30
-0.397554561340724
 70
     32
  0
VERTEX
  8
MY3DLAYER
10
1.8414304761601e-016
20
1.39014290566906
30
-0.397554561340724
 70
     32
  0
SEQEND
  0
POLYLINE
 8
GROUP0
 66
     1
70
    8
 10
0.0
 20
 0.0
 30
0.0
  0
VERTEX
  8
MY3DLAYER
10
1.8414304761601e-016
20
1.36257698989674
30
-0.60693847943935
 70
     32
  0
VERTEX
  8
MY3DLAYER
10
1.8414304761601e-016
20
1.34142491877629
30
-0.579372563667031
 70
     32
  0
VERTEX
  8
MY3DLAYER
10
0.196850393700787
20
1.34142491877629
30
-0.579372563667031
 70
     32
  0
VERTEX
  8
MY3DLAYER
10
0.196850393700787
20
1.36257698989674
30
-0.60693847943935
 70
     32
  0
VERTEX
  8
MY3DLAYER
10
1.8414304761601e-016
20
1.36257698989674
30
-0.60693847943935
 70
     32
  0
SEQEND
  0
POLYLINE
 8
GROUP0
 66
     1
70
    8
 10
0.0
 20
 0.0
 30
0.0
  0
VERTEX
  8
MY3DLAYER
10
1.8414304761601e-016
20
1.3281281709991
30
-0.478373737052626
 70
     32
  0
VERTEX
  8
MY3DLAYER
10
1.8414304761601e-016
20
1.34142491877629
30
-0.446272548233498
 70
     32
  0
VERTEX
  8
MY3DLAYER
10
0.196850393700787
20
1.34142491877629
30
-0.446272548233498
 70
     32
  0
VERTEX
  8
MY3DLAYER
10
0.196850393700787
20
1.3281281709991
30
-0.478373737052626
 70
     32
  0
VERTEX
  8
MY3DLAYER
10
1.8414304761601e-016
20
1.3281281709991
30
-0.478373737052626
 70
     32
  0
SEQEND
  0
POLYLINE
 8
GROUP0
 66
     1
70
    8
 10
0.0
 20
 0.0
 30
0.0
  0
VERTEX
  8
MY3DLAYER
10
1.8414304761601e-016
20
1.32359289795229
30
-0.512822555950264
 70
     32
  0
VERTEX
  8
MY3DLAYER
10
1.8414304761601e-016
20
1.3281281709991
30
-0.478373737052626
 70
     32
  0
VERTEX
  8
MY3DLAYER
10
0.196850393700787
20
1.3281281709991
30
-0.478373737052626
 70
     32
  0
VERTEX
  8
MY3DLAYER
10
0.196850393700787
20
1.32359289795229
30
-0.512822555950264
 70
     32
  0
VERTEX
  8
MY3DLAYER
10
1.8414304761601e-016
20
1.32359289795229
30
-0.512822555950264
 70
     32
  0
SEQEND
  0
POLYLINE
 8
GROUP0
 66
     1
70
    8
 10
0.0
 20
 0.0
 30
0.0
  0
VERTEX
  8
MY3DLAYER
10
1.8414304761601e-016
20
1.49114173228346
30
-0.641387298336987
 70
     32
  0
VERTEX
  8
MY3DLAYER
10
1.8414304761601e-016
20
1.45669291338583
30
-0.645922571383797
 70
     32
  0
VERTEX
  8
MY3DLAYER
10
0.196850393700787
20
1.45669291338583
30
-0.645922571383797
 70
     32
  0
VERTEX
  8
MY3DLAYER
10
0.196850393700787
20
1.49114173228346
30
-0.641387298336987
 70
     32
  0
VERTEX
  8
MY3DLAYER
10
1.8414304761601e-016
20
1.49114173228346
30
-0.641387298336987
 70
     32
  0
SEQEND
  0
POLYLINE
 8
GROUP0
 66
     1
70
    8
 10
0.0
 20
 0.0
 30
0.0
  0
VERTEX
  8
MY3DLAYER
10
1.8414304761601e-016
20
1.45669291338583
30
-0.379722540516731
 70
     32
  0
VERTEX
  8
MY3DLAYER
10
1.8414304761601e-016
20
1.49114173228346
30
-0.384257813563541
 70
     32
  0
VERTEX
  8
MY3DLAYER
10
0.196850393700787
20
1.49114173228346
30
-0.384257813563541
 70
     32
  0
VERTEX
  8
MY3DLAYER
10
0.196850393700787
20
1.45669291338583
30
-0.379722540516731
 70
     32
  0
VERTEX
  8
MY3DLAYER
10
1.8414304761601e-016
20
1.45669291338583
30
-0.379722540516731
 70
     32
  0
SEQEND
  0
POLYLINE
 8
GROUP0
 66
     1
70
    8
 10
0.0
 20
 0.0
 30
0.0
  0
VERTEX
  8
MY3DLAYER
10
1.8414304761601e-016
20
1.34142491877629
30
-0.446272548233498
 70
     32
  0
VERTEX
  8
MY3DLAYER
10
1.8414304761601e-016
20
1.36257698989674
30
-0.418706632461179
 70
     32
  0
VERTEX
  8
MY3DLAYER
10
0.196850393700787
20
1.36257698989674
30
-0.418706632461179
 70
     32
  0
VERTEX
  8
MY3DLAYER
10
0.196850393700787
20
1.34142491877629
30
-0.446272548233498
 70
     32
  0
VERTEX
  8
MY3DLAYER
10
1.8414304761601e-016
20
1.34142491877629
30
-0.446272548233498
 70
     32
  0
SEQEND
  0
POLYLINE
 8
GROUP0
 66
     1
70
    8
 10
0.0
 20
 0.0
 30
0.0
  0
VERTEX
  8
MY3DLAYER
10
1.8414304761601e-016
20
1.52324292110259
30
-0.628090550559805
 70
     32
  0
VERTEX
  8
MY3DLAYER
10
1.8414304761601e-016
20
1.49114173228346
30
-0.641387298336987
 70
     32
  0
VERTEX
  8
MY3DLAYER
10
0.196850393700787
20
1.49114173228346
30
-0.641387298336987
 70
     32
  0
VERTEX
  8
MY3DLAYER
10
0.196850393700787
20
1.52324292110259
30
-0.628090550559805
 70
     32
  0
VERTEX
  8
MY3DLAYER
10
1.8414304761601e-016
20
1.52324292110259
30
-0.628090550559805
 70
     32
  0
SEQEND
  0
POLYLINE
 8
GROUP0
 66
     1
70
    8
 10
0.0
 20
 0.0
 30
0.0
  0
VERTEX
  8
MY3DLAYER
10
1.18110236220471
20
2.91338582677166
30
-1.37795275590551
 70
     32
  0
VERTEX
  8
MY3DLAYER
10
1.18110236220471
20
2.91338582677166
30
2.22044604925031e-015
 70
     32
  0
VERTEX
  8
MY3DLAYER
10
1.18110236220471
20
2.12598425536589
30
1.77635683940025e-015
 70
     32
  0
VERTEX
  8
MY3DLAYER
10
1.18110236220471
20
2.12598425536589
30
-1.37795275590551
 70
     32
  0
VERTEX
  8
MY3DLAYER
10
1.18110236220471
20
2.91338582677166
30
-1.37795275590551
 70
     32
  0
SEQEND
  0
POLYLINE
 8
GROUP0
 66
     1
70
    8
 10
0.0
 20
 0.0
 30
0.0
  0
VERTEX
  8
MY3DLAYER
10
0.196850393700787
20
2.12598425536589
30
-0.787401574803147
 70
     32
  0
VERTEX
  8
MY3DLAYER
10
0.984251968503937
20
2.12598425536589
30
-0.787401574803146
 70
     32
  0
VERTEX
  8
MY3DLAYER
10
0.984251968503937
20
2.12598425536589
30
-1.37795275590551
 70
     32
  0
VERTEX
  8
MY3DLAYER
10
1.18110236220471
20
2.12598425536589
30
-1.37795275590551
 70
     32
  0
VERTEX
  8
MY3DLAYER
10
1.18110236220471
20
2.12598425536589
30
1.77635683940025e-015
 70
     32
  0
VERTEX
  8
MY3DLAYER
10
0.196850393700787
20
2.12598425536589
30
1.33226762955019e-015
 70
     32
  0
VERTEX
  8
MY3DLAYER
10
0.196850393700787
20
2.12598425536589
30
-0.787401574803147
 70
     32
  0
SEQEND
  0
POLYLINE
 8
GROUP0
 66
     1
70
    8
 10
0.0
 20
 0.0
 30
0.0
  0
VERTEX
  8
MY3DLAYER
10
1.8414304761601e-016
20
2.22044604925031e-015
30
-1.37795275590551
 70
     32
  0
VERTEX
  8
MY3DLAYER
10
1.8414304761601e-016
20
4.44089209850063e-016
30
4.44089209850063e-016
 70
     32
  0
VERTEX
  8
MY3DLAYER
10
-2.90224971996562e-016
20
2.91338582677166
30
2.22044604925031e-015
 70
     32
  0
VERTEX
  8
MY3DLAYER
10
-2.90224971996562e-016
20
2.91338582677166
30
-1.37795275590551
 70
     32
  0
VERTEX
  8
MY3DLAYER
10
1.8414304761601e-016
20
2.22044604925031e-015
30
-1.37795275590551
 70
     32
  0
SEQEND
  0
POLYLINE
 8
GROUP0
 66
     1
70
    8
 10
0.0
 20
 0.0
 30
0.0
  0
VERTEX
  8
MY3DLAYER
10
1.8414304761601e-016
20
1.49114173228346
30
-0.384257813563541
 70
     32
  0
VERTEX
  8
MY3DLAYER
10
1.8414304761601e-016
20
1.45669291338583
30
-0.379722540516731
 70
     32
  0
VERTEX
  8
MY3DLAYER
10
1.8414304761601e-016
20
1.42224409448819
30
-0.384257813563541
 70
     32
  0
VERTEX
  8
MY3DLAYER
10
1.8414304761601e-016
20
1.39014290566906
30
-0.397554561340724
 70
     32
  0
VERTEX
  8
MY3DLAYER
10
1.8414304761601e-016
20
1.36257698989674
30
-0.418706632461179
 70
     32
  0
VERTEX
  8
MY3DLAYER
10
1.8414304761601e-016
20
1.34142491877629
30
-0.446272548233498
 70
     32
  0
VERTEX
  8
MY3DLAYER
10
1.8414304761601e-016
20
1.3281281709991
30
-0.478373737052626
 70
     32
  0
VERTEX
  8
MY3DLAYER
10
1.8414304761601e-016
20
1.32359289795229
30
-0.512822555950264
 70
     32
  0
VERTEX
  8
MY3DLAYER
10
1.8414304761601e-016
20
1.3281281709991
30
-0.547271374847902
 70
     32
  0
VERTEX
  8
MY3DLAYER
10
1.8414304761601e-016
20
1.34142491877629
30
-0.579372563667031
 70
     32
  0
VERTEX
  8
MY3DLAYER
10
1.8414304761601e-016
20
1.36257698989674
30
-0.60693847943935
 70
     32
  0
VERTEX
  8
MY3DLAYER
10
1.8414304761601e-016
20
1.39014290566906
30
-0.628090550559805
 70
     32
  0
VERTEX
  8
MY3DLAYER
10
1.8414304761601e-016
20
1.42224409448819
30
-0.641387298336987
 70
     32
  0
VERTEX
  8
MY3DLAYER
10
1.8414304761601e-016
20
1.45669291338583
30
-0.645922571383797
 70
     32
  0
VERTEX
  8
MY3DLAYER
10
1.8414304761601e-016
20
1.49114173228346
30
-0.641387298336987
 70
     32
  0
VERTEX
  8
MY3DLAYER
10
1.8414304761601e-016
20
1.52324292110259
30
-0.628090550559805
 70
     32
  0
VERTEX
  8
MY3DLAYER
10
1.8414304761601e-016
20
1.55080883687491
30
-0.60693847943935
 70
     32
  0
VERTEX
  8
MY3DLAYER
10
1.8414304761601e-016
20
1.57196090799537
30
-0.579372563667031
 70
     32
  0
VERTEX
  8
MY3DLAYER
10
1.8414304761601e-016
20
1.58525765577255
30
-0.547271374847902
 70
     32
  0
VERTEX
  8
MY3DLAYER
10
1.8414304761601e-016
20
1.58979292881936
30
-0.512822555950264
 70
     32
  0
VERTEX
  8
MY3DLAYER
10
1.8414304761601e-016
20
1.58525765577255
30
-0.478373737052626
 70
     32
  0
VERTEX
  8
MY3DLAYER
10
1.8414304761601e-016
20
1.57196090799537
30
-0.446272548233498
 70
     32
  0
VERTEX
  8
MY3DLAYER
10
1.8414304761601e-016
20
1.55080883687491
30
-0.418706632461179
 70
     32
  0
VERTEX
  8
MY3DLAYER
10
1.8414304761601e-016
20
1.52324292110259
30
-0.397554561340724
 70
     32
  0
VERTEX
  8
MY3DLAYER
10
1.8414304761601e-016
20
1.49114173228346
30
-0.384257813563541
 70
     32
  0
SEQEND
  0
POLYLINE
 8
GROUP0
 66
     1
70
    8
 10
0.0
 20
 0.0
 30
0.0
  0
VERTEX
  8
MY3DLAYER
10
0.196850393700787
20
2.12598425536589
30
-0.787401574803147
 70
     32
  0
VERTEX
  8
MY3DLAYER
10
0.196850393700787
20
2.12598425536589
30
1.33226762955019e-015
 70
     32
  0
VERTEX
  8
MY3DLAYER
10
0.196850393700787
20
0.787401574803151
30
1.77635683940025e-015
 70
     32
  0
VERTEX
  8
MY3DLAYER
10
0.196850393700787
20
0.787401574803152
30
-0.787401574803148
 70
     32
  0
VERTEX
  8
MY3DLAYER
10
0.196850393700787
20
2.12598425536589
30
-0.787401574803147
 70
     32
  0
SEQEND
  0
POLYLINE
 8
GROUP0
 66
     1
70
    8
 10
0.0
 20
 0.0
 30
0.0
  0
VERTEX
  8
MY3DLAYER
10
0.196850393700787
20
1.45669291338583
30
-0.379722540516731
 70
     32
  0
VERTEX
  8
MY3DLAYER
10
0.196850393700787
20
1.49114173228346
30
-0.384257813563541
 70
     32
  0
VERTEX
  8
MY3DLAYER
10
0.196850393700787
20
1.52324292110259
30
-0.397554561340724
 70
     32
  0
VERTEX
  8
MY3DLAYER
10
0.196850393700787
20
1.55080883687491
30
-0.418706632461179
 70
     32
  0
VERTEX
  8
MY3DLAYER
10
0.196850393700787
20
1.57196090799537
30
-0.446272548233498
 70
     32
  0
VERTEX
  8
MY3DLAYER
10
0.196850393700787
20
1.58525765577255
30
-0.478373737052626
 70
     32
  0
VERTEX
  8
MY3DLAYER
10
0.196850393700787
20
1.58979292881936
30
-0.512822555950264
 70
     32
  0
VERTEX
  8
MY3DLAYER
10
0.196850393700787
20
1.58525765577255
30
-0.547271374847902
 70
     32
  0
VERTEX
  8
MY3DLAYER
10
0.196850393700787
20
1.57196090799537
30
-0.579372563667031
 70
     32
  0
VERTEX
  8
MY3DLAYER
10
0.196850393700787
20
1.55080883687491
30
-0.60693847943935
 70
     32
  0
VERTEX
  8
MY3DLAYER
10
0.196850393700787
20
1.52324292110259
30
-0.628090550559805
 70
     32
  0
VERTEX
  8
MY3DLAYER
10
0.196850393700787
20
1.49114173228346
30
-0.641387298336987
 70
     32
  0
VERTEX
  8
MY3DLAYER
10
0.196850393700787
20
1.45669291338583
30
-0.645922571383797
 70
     32
  0
VERTEX
  8
MY3DLAYER
10
0.196850393700787
20
1.42224409448819
30
-0.641387298336987
 70
     32
  0
VERTEX
  8
MY3DLAYER
10
0.196850393700787
20
1.39014290566906
30
-0.628090550559805
 70
     32
  0
VERTEX
  8
MY3DLAYER
10
0.196850393700787
20
1.36257698989674
30
-0.60693847943935
 70
     32
  0
VERTEX
  8
MY3DLAYER
10
0.196850393700787
20
1.34142491877629
30
-0.579372563667031
 70
     32
  0
VERTEX
  8
MY3DLAYER
10
0.196850393700787
20
1.3281281709991
30
-0.547271374847902
 70
     32
  0
VERTEX
  8
MY3DLAYER
10
0.196850393700787
20
1.32359289795229
30
-0.512822555950264
 70
     32
  0
VERTEX
  8
MY3DLAYER
10
0.196850393700787
20
1.3281281709991
30
-0.478373737052626
 70
     32
  0
VERTEX
  8
MY3DLAYER
10
0.196850393700787
20
1.34142491877629
30
-0.446272548233498
 70
     32
  0
VERTEX
  8
MY3DLAYER
10
0.196850393700787
20
1.36257698989674
30
-0.418706632461179
 70
     32
  0
VERTEX
  8
MY3DLAYER
10
0.196850393700787
20
1.39014290566906
30
-0.397554561340724
 70
     32
  0
VERTEX
  8
MY3DLAYER
10
0.196850393700787
20
1.42224409448819
30
-0.384257813563541
 70
     32
  0
VERTEX
  8
MY3DLAYER
10
0.196850393700787
20
1.45669291338583
30
-0.379722540516731
 70
     32
  0
SEQEND
  0
POLYLINE
 8
GROUP0
 66
     1
70
    8
 10
0.0
 20
 0.0
 30
0.0
  0
VERTEX
  8
MY3DLAYER
10
0.984251968503937
20
0.787401574803152
30
-0.787401574803147
 70
     32
  0
VERTEX
  8
MY3DLAYER
10
0.984251968503937
20
2.12598425536589
30
-0.787401574803146
 70
     32
  0
VERTEX
  8
MY3DLAYER
10
0.196850393700787
20
2.12598425536589
30
-0.787401574803147
 70
     32
  0
VERTEX
  8
MY3DLAYER
10
0.196850393700787
20
0.787401574803152
30
-0.787401574803148
 70
     32
  0
VERTEX
  8
MY3DLAYER
10
0.984251968503937
20
0.787401574803152
30
-0.787401574803147
 70
     32
  0
SEQEND
  0
POLYLINE
 8
GROUP0
 66
     1
70
    8
 10
0.0
 20
 0.0
 30
0.0
  0
VERTEX
  8
MY3DLAYER
10
0.984251968503937
20
0.787401574803152
30
-1.37795275590551
 70
     32
  0
VERTEX
  8
MY3DLAYER
10
0.984251968503937
20
2.12598425536589
30
-1.37795275590551
 70
     32
  0
VERTEX
  8
MY3DLAYER
10
0.984251968503937
20
2.12598425536589
30
-0.787401574803146
 70
     32
  0
VERTEX
  8
MY3DLAYER
10
0.984251968503937
20
0.787401574803152
30
-0.787401574803147
 70
     32
  0
VERTEX
  8
MY3DLAYER
10
0.984251968503937
20
0.787401574803152
30
-1.37795275590551
 70
     32
  0
SEQEND
  0
POLYLINE
 8
GROUP0
 66
     1
70
    8
 10
0.0
 20
 0.0
 30
0.0
  0
VERTEX
  8
MY3DLAYER
10
1.8414304761601e-016
20
2.22044604925031e-015
30
-1.37795275590551
 70
     32
  0
VERTEX
  8
MY3DLAYER
10
2.34251968503937
20
2.22044604925031e-015
30
-1.37795275590551
 70
     32
  0
VERTEX
  8
MY3DLAYER
10
2.34251968503937
20
4.44089209850063e-016
30
4.44089209850063e-016
 70
     32
  0
VERTEX
  8
MY3DLAYER
10
1.8414304761601e-016
20
4.44089209850063e-016
30
4.44089209850063e-016
 70
     32
  0
VERTEX
  8
MY3DLAYER
10
1.8414304761601e-016
20
2.22044604925031e-015
30
-1.37795275590551
 70
     32
  0
SEQEND
  0
POLYLINE
 8
GROUP0
 66
     1
70
    8
 10
0.0
 20
 0.0
 30
0.0
  0
VERTEX
  8
MY3DLAYER
10
1.18110236220471
20
2.91338582677166
30
2.22044604925031e-015
 70
     32
  0
VERTEX
  8
MY3DLAYER
10
1.18110236220471
20
2.91338582677166
30
-1.37795275590551
 70
     32
  0
VERTEX
  8
MY3DLAYER
10
-2.90224971996562e-016
20
2.91338582677166
30
-1.37795275590551
 70
     32
  0
VERTEX
  8
MY3DLAYER
10
-2.90224971996562e-016
20
2.91338582677166
30
2.22044604925031e-015
 70
     32
  0
VERTEX
  8
MY3DLAYER
10
1.18110236220471
20
2.91338582677166
30
2.22044604925031e-015
 70
     32
  0
SEQEND
  0
POLYLINE
 8
GROUP0
 66
     1
70
    8
 10
0.0
 20
 0.0
 30
0.0
  0
VERTEX
  8
MY3DLAYER
10
0.196850393700787
20
0.787401574803151
30
1.77635683940025e-015
 70
     32
  0
VERTEX
  8
MY3DLAYER
10
2.34251968503937
20
0.787401574803151
30
2.22044604925031e-015
 70
     32
  0
VERTEX
  8
MY3DLAYER
10
2.34251968503937
20
0.787401574803152
30
-1.37795275590551
 70
     32
  0
VERTEX
  8
MY3DLAYER
10
0.984251968503937
20
0.787401574803152
30
-1.37795275590551
 70
     32
  0
VERTEX
  8
MY3DLAYER
10
0.984251968503937
20
0.787401574803152
30
-0.787401574803147
 70
     32
  0
VERTEX
  8
MY3DLAYER
10
0.196850393700787
20
0.787401574803152
30
-0.787401574803148
 70
     32
  0
VERTEX
  8
MY3DLAYER
10
0.196850393700787
20
0.787401574803151
30
1.77635683940025e-015
 70
     32
  0
SEQEND
  0
POLYLINE
 8
GROUP0
 66
     1
70
    8
 10
0.0
 20
 0.0
 30
0.0
  0
VERTEX
  8
MY3DLAYER
10
2.34251968503937
20
0.787401574803152
30
-1.37795275590551
 70
     32
  0
VERTEX
  8
MY3DLAYER
10
2.34251968503937
20
0.787401574803151
30
2.22044604925031e-015
 70
     32
  0
VERTEX
  8
MY3DLAYER
10
2.34251968503937
20
4.44089209850063e-016
30
4.44089209850063e-016
 70
     32
  0
VERTEX
  8
MY3DLAYER
10
2.34251968503937
20
2.22044604925031e-015
30
-1.37795275590551
 70
     32
  0
VERTEX
  8
MY3DLAYER
10
2.34251968503937
20
0.787401574803152
30
-1.37795275590551
 70
     32
  0
SEQEND
  0
POLYLINE
 8
GROUP0
 66
     1
70
    8
 10
0.0
 20
 0.0
 30
0.0
  0
VERTEX
  8
MY3DLAYER
10
0.39370078740157
20
2.42125984251969
30
1.77635683940025e-015
 70
     32
  0
VERTEX
  8
MY3DLAYER
10
0.419175102864417
20
2.4246135997747
30
1.77635683940025e-015
 70
     32
  0
VERTEX
  8
MY3DLAYER
10
0.419175102864417
20
2.4246135997747
30
-1.37795275590551
 70
     32
  0
VERTEX
  8
MY3DLAYER
10
0.39370078740157
20
2.42125984251969
30
-1.37795275590551
 70
     32
  0
VERTEX
  8
MY3DLAYER
10
0.39370078740157
20
2.42125984251969
30
1.77635683940025e-015
 70
     32
  0
SEQEND
  0
POLYLINE
 8
GROUP0
 66
     1
70
    8
 10
0.0
 20
 0.0
 30
0.0
  0
VERTEX
  8
MY3DLAYER
10
0.419175102864417
20
2.4246135997747
30
1.77635683940025e-015
 70
     32
  0
VERTEX
  8
MY3DLAYER
10
0.442913385826767
20
2.43444631852515
30
1.77635683940025e-015
 70
     32
  0
VERTEX
  8
MY3DLAYER
10
0.442913385826767
20
2.43444631852515
30
-1.37795275590551
 70
     32
  0
VERTEX
  8
MY3DLAYER
10
0.419175102864417
20
2.4246135997747
30
-1.37795275590551
 70
     32
  0
VERTEX
  8
MY3DLAYER
10
0.419175102864417
20
2.4246135997747
30
1.77635683940025e-015
 70
     32
  0
SEQEND
  0
POLYLINE
 8
GROUP0
 66
     1
70
    8
 10
0.0
 20
 0.0
 30
0.0
  0
VERTEX
  8
MY3DLAYER
10
0.442913385826767
20
2.43444631852515
30
1.77635683940025e-015
 70
     32
  0
VERTEX
  8
MY3DLAYER
10
0.463297911534104
20
2.45008791523754
30
1.77635683940025e-015
 70
     32
  0
VERTEX
  8
MY3DLAYER
10
0.463297911534104
20
2.45008791523754
30
-1.37795275590551
 70
     32
  0
VERTEX
  8
MY3DLAYER
10
0.442913385826767
20
2.43444631852515
30
-1.37795275590551
 70
     32
  0
VERTEX
  8
MY3DLAYER
10
0.442913385826767
20
2.43444631852515
30
1.77635683940025e-015
 70
     32
  0
SEQEND
  0
POLYLINE
 8
GROUP0
 66
     1
70
    8
 10
0.0
 20
 0.0
 30
0.0
  0
VERTEX
  8
MY3DLAYER
10
0.463297911534104
20
2.45008791523754
30
1.77635683940025e-015
 70
     32
  0
VERTEX
  8
MY3DLAYER
10
0.478939508246495
20
2.47047244094488
30
1.77635683940025e-015
 70
     32
  0
VERTEX
  8
MY3DLAYER
10
0.478939508246495
20
2.47047244094488
30
-1.37795275590551
 70
     32
  0
VERTEX
  8
MY3DLAYER
10
0.463297911534104
20
2.45008791523754
30
-1.37795275590551
 70
     32
  0
VERTEX
  8
MY3DLAYER
10
0.463297911534104
20
2.45008791523754
30
1.77635683940025e-015
 70
     32
  0
SEQEND
  0
POLYLINE
 8
GROUP0
 66
     1
70
    8
 10
0.0
 20
 0.0
 30
0.0
  0
VERTEX
  8
MY3DLAYER
10
0.478939508246495
20
2.47047244094488
30
1.77635683940025e-015
 70
     32
  0
VERTEX
  8
MY3DLAYER
10
0.488772226996951
20
2.49421072390723
30
1.77635683940025e-015
 70
     32
  0
VERTEX
  8
MY3DLAYER
10
0.488772226996951
20
2.49421072390723
30
-1.37795275590551
 70
     32
  0
VERTEX
  8
MY3DLAYER
10
0.478939508246495
20
2.47047244094488
30
-1.37795275590551
 70
     32
  0
VERTEX
  8
MY3DLAYER
10
0.478939508246495
20
2.47047244094488
30
1.77635683940025e-015
 70
     32
  0
SEQEND
  0
POLYLINE
 8
GROUP0
 66
     1
70
    8
 10
0.0
 20
 0.0
 30
0.0
  0
VERTEX
  8
MY3DLAYER
10
0.488772226996951
20
2.49421072390723
30
1.77635683940025e-015
 70
     32
  0
VERTEX
  8
MY3DLAYER
10
0.492125984251964
20
2.51968503937008
30
1.77635683940025e-015
 70
     32
  0
VERTEX
  8
MY3DLAYER
10
0.492125984251964
20
2.51968503937008
30
-1.37795275590551
 70
     32
  0
VERTEX
  8
MY3DLAYER
10
0.488772226996951
20
2.49421072390723
30
-1.37795275590551
 70
     32
  0
VERTEX
  8
MY3DLAYER
10
0.488772226996951
20
2.49421072390723
30
1.77635683940025e-015
 70
     32
  0
SEQEND
  0
POLYLINE
 8
GROUP0
 66
     1
70
    8
 10
0.0
 20
 0.0
 30
0.0
  0
VERTEX
  8
MY3DLAYER
10
0.492125984251964
20
2.51968503937008
30
1.77635683940025e-015
 70
     32
  0
VERTEX
  8
MY3DLAYER
10
0.488772226996951
20
2.54515935483293
30
1.77635683940025e-015
 70
     32
  0
VERTEX
  8
MY3DLAYER
10
0.488772226996951
20
2.54515935483293
30
-1.37795275590551
 70
     32
  0
VERTEX
  8
MY3DLAYER
10
0.492125984251964
20
2.51968503937008
30
-1.37795275590551
 70
     32
  0
VERTEX
  8
MY3DLAYER
10
0.492125984251964
20
2.51968503937008
30
1.77635683940025e-015
 70
     32
  0
SEQEND
  0
POLYLINE
 8
GROUP0
 66
     1
70
    8
 10
0.0
 20
 0.0
 30
0.0
  0
VERTEX
  8
MY3DLAYER
10
0.488772226996951
20
2.54515935483293
30
1.77635683940025e-015
 70
     32
  0
VERTEX
  8
MY3DLAYER
10
0.478939508246495
20
2.56889763779528
30
1.77635683940025e-015
 70
     32
  0
VERTEX
  8
MY3DLAYER
10
0.478939508246495
20
2.56889763779528
30
-1.37795275590551
 70
     32
  0
VERTEX
  8
MY3DLAYER
10
0.488772226996951
20
2.54515935483293
30
-1.37795275590551
 70
     32
  0
VERTEX
  8
MY3DLAYER
10
0.488772226996951
20
2.54515935483293
30
1.77635683940025e-015
 70
     32
  0
SEQEND
  0
POLYLINE
 8
GROUP0
 66
     1
70
    8
 10
0.0
 20
 0.0
 30
0.0
  0
VERTEX
  8
MY3DLAYER
10
0.478939508246495
20
2.56889763779528
30
1.77635683940025e-015
 70
     32
  0
VERTEX
  8
MY3DLAYER
10
0.463297911534104
20
2.58928216350261
30
1.77635683940025e-015
 70
     32
  0
VERTEX
  8
MY3DLAYER
10
0.463297911534104
20
2.58928216350261
30
-1.37795275590551
 70
     32
  0
VERTEX
  8
MY3DLAYER
10
0.478939508246495
20
2.56889763779528
30
-1.37795275590551
 70
     32
  0
VERTEX
  8
MY3DLAYER
10
0.478939508246495
20
2.56889763779528
30
1.77635683940025e-015
 70
     32
  0
SEQEND
  0
POLYLINE
 8
GROUP0
 66
     1
70
    8
 10
0.0
 20
 0.0
 30
0.0
  0
VERTEX
  8
MY3DLAYER
10
0.463297911534104
20
2.58928216350261
30
1.77635683940025e-015
 70
     32
  0
VERTEX
  8
MY3DLAYER
10
0.442913385826767
20
2.60492376021501
30
1.77635683940025e-015
 70
     32
  0
VERTEX
  8
MY3DLAYER
10
0.442913385826767
20
2.60492376021501
30
-1.37795275590551
 70
     32
  0
VERTEX
  8
MY3DLAYER
10
0.463297911534104
20
2.58928216350261
30
-1.37795275590551
 70
     32
  0
VERTEX
  8
MY3DLAYER
10
0.463297911534104
20
2.58928216350261
30
1.77635683940025e-015
 70
     32
  0
SEQEND
  0
POLYLINE
 8
GROUP0
 66
     1
70
    8
 10
0.0
 20
 0.0
 30
0.0
  0
VERTEX
  8
MY3DLAYER
10
0.442913385826767
20
2.60492376021501
30
1.77635683940025e-015
 70
     32
  0
VERTEX
  8
MY3DLAYER
10
0.419175102864417
20
2.61475647896546
30
1.77635683940025e-015
 70
     32
  0
VERTEX
  8
MY3DLAYER
10
0.419175102864417
20
2.61475647896546
30
-1.37795275590551
 70
     32
  0
VERTEX
  8
MY3DLAYER
10
0.442913385826767
20
2.60492376021501
30
-1.37795275590551
 70
     32
  0
VERTEX
  8
MY3DLAYER
10
0.442913385826767
20
2.60492376021501
30
1.77635683940025e-015
 70
     32
  0
SEQEND
  0
POLYLINE
 8
GROUP0
 66
     1
70
    8
 10
0.0
 20
 0.0
 30
0.0
  0
VERTEX
  8
MY3DLAYER
10
0.419175102864417
20
2.61475647896546
30
1.77635683940025e-015
 70
     32
  0
VERTEX
  8
MY3DLAYER
10
0.39370078740157
20
2.61811023622047
30
1.77635683940025e-015
 70
     32
  0
VERTEX
  8
MY3DLAYER
10
0.39370078740157
20
2.61811023622047
30
-1.37795275590551
 70
     32
  0
VERTEX
  8
MY3DLAYER
10
0.419175102864417
20
2.61475647896546
30
-1.37795275590551
 70
     32
  0
VERTEX
  8
MY3DLAYER
10
0.419175102864417
20
2.61475647896546
30
1.77635683940025e-015
 70
     32
  0
SEQEND
  0
POLYLINE
 8
GROUP0
 66
     1
70
    8
 10
0.0
 20
 0.0
 30
0.0
  0
VERTEX
  8
MY3DLAYER
10
0.39370078740157
20
2.61811023622047
30
1.77635683940025e-015
 70
     32
  0
VERTEX
  8
MY3DLAYER
10
0.368226471938724
20
2.61475647896546
30
1.77635683940025e-015
 70
     32
  0
VERTEX
  8
MY3DLAYER
10
0.368226471938724
20
2.61475647896546
30
-1.37795275590551
 70
     32
  0
VERTEX
  8
MY3DLAYER
10
0.39370078740157
20
2.61811023622047
30
-1.37795275590551
 70
     32
  0
VERTEX
  8
MY3DLAYER
10
0.39370078740157
20
2.61811023622047
30
1.77635683940025e-015
 70
     32
  0
SEQEND
  0
POLYLINE
 8
GROUP0
 66
     1
70
    8
 10
0.0
 20
 0.0
 30
0.0
  0
VERTEX
  8
MY3DLAYER
10
0.368226471938724
20
2.61475647896546
30
1.77635683940025e-015
 70
     32
  0
VERTEX
  8
MY3DLAYER
10
0.344488188976374
20
2.60492376021501
30
1.77635683940025e-015
 70
     32
  0
VERTEX
  8
MY3DLAYER
10
0.344488188976374
20
2.60492376021501
30
-1.37795275590551
 70
     32
  0
VERTEX
  8
MY3DLAYER
10
0.368226471938724
20
2.61475647896546
30
-1.37795275590551
 70
     32
  0
VERTEX
  8
MY3DLAYER
10
0.368226471938724
20
2.61475647896546
30
1.77635683940025e-015
 70
     32
  0
SEQEND
  0
POLYLINE
 8
GROUP0
 66
     1
70
    8
 10
0.0
 20
 0.0
 30
0.0
  0
VERTEX
  8
MY3DLAYER
10
0.344488188976374
20
2.60492376021501
30
1.77635683940025e-015
 70
     32
  0
VERTEX
  8
MY3DLAYER
10
0.324103663269036
20
2.58928216350261
30
1.77635683940025e-015
 70
     32
  0
VERTEX
  8
MY3DLAYER
10
0.324103663269036
20
2.58928216350261
30
-1.37795275590551
 70
     32
  0
VERTEX
  8
MY3DLAYER
10
0.344488188976374
20
2.60492376021501
30
-1.37795275590551
 70
     32
  0
VERTEX
  8
MY3DLAYER
10
0.344488188976374
20
2.60492376021501
30
1.77635683940025e-015
 70
     32
  0
SEQEND
  0
POLYLINE
 8
GROUP0
 66
     1
70
    8
 10
0.0
 20
 0.0
 30
0.0
  0
VERTEX
  8
MY3DLAYER
10
0.324103663269036
20
2.58928216350261
30
1.77635683940025e-015
 70
     32
  0
VERTEX
  8
MY3DLAYER
10
0.308462066556645
20
2.56889763779528
30
1.77635683940025e-015
 70
     32
  0
VERTEX
  8
MY3DLAYER
10
0.308462066556645
20
2.56889763779528
30
-1.37795275590551
 70
     32
  0
VERTEX
  8
MY3DLAYER
10
0.324103663269036
20
2.58928216350261
30
-1.37795275590551
 70
     32
  0
VERTEX
  8
MY3DLAYER
10
0.324103663269036
20
2.58928216350261
30
1.77635683940025e-015
 70
     32
  0
SEQEND
  0
POLYLINE
 8
GROUP0
 66
     1
70
    8
 10
0.0
 20
 0.0
 30
0.0
  0
VERTEX
  8
MY3DLAYER
10
0.308462066556645
20
2.56889763779528
30
1.77635683940025e-015
 70
     32
  0
VERTEX
  8
MY3DLAYER
10
0.298629347806189
20
2.54515935483293
30
1.77635683940025e-015
 70
     32
  0
VERTEX
  8
MY3DLAYER
10
0.298629347806189
20
2.54515935483293
30
-1.37795275590551
 70
     32
  0
VERTEX
  8
MY3DLAYER
10
0.308462066556645
20
2.56889763779528
30
-1.37795275590551
 70
     32
  0
VERTEX
  8
MY3DLAYER
10
0.308462066556645
20
2.56889763779528
30
1.77635683940025e-015
 70
     32
  0
SEQEND
  0
POLYLINE
 8
GROUP0
 66
     1
70
    8
 10
0.0
 20
 0.0
 30
0.0
  0
VERTEX
  8
MY3DLAYER
10
0.298629347806189
20
2.54515935483293
30
1.77635683940025e-015
 70
     32
  0
VERTEX
  8
MY3DLAYER
10
0.295275590551176
20
2.51968503937008
30
1.77635683940025e-015
 70
     32
  0
VERTEX
  8
MY3DLAYER
10
0.295275590551176
20
2.51968503937008
30
-1.37795275590551
 70
     32
  0
VERTEX
  8
MY3DLAYER
10
0.298629347806189
20
2.54515935483293
30
-1.37795275590551
 70
     32
  0
VERTEX
  8
MY3DLAYER
10
0.298629347806189
20
2.54515935483293
30
1.77635683940025e-015
 70
     32
  0
SEQEND
  0
POLYLINE
 8
GROUP0
 66
     1
70
    8
 10
0.0
 20
 0.0
 30
0.0
  0
VERTEX
  8
MY3DLAYER
10
0.295275590551176
20
2.51968503937008
30
1.77635683940025e-015
 70
     32
  0
VERTEX
  8
MY3DLAYER
10
0.298629347806189
20
2.49421072390723
30
1.77635683940025e-015
 70
     32
  0
VERTEX
  8
MY3DLAYER
10
0.298629347806189
20
2.49421072390723
30
-1.37795275590551
 70
     32
  0
VERTEX
  8
MY3DLAYER
10
0.295275590551176
20
2.51968503937008
30
-1.37795275590551
 70
     32
  0
VERTEX
  8
MY3DLAYER
10
0.295275590551176
20
2.51968503937008
30
1.77635683940025e-015
 70
     32
  0
SEQEND
  0
POLYLINE
 8
GROUP0
 66
     1
70
    8
 10
0.0
 20
 0.0
 30
0.0
  0
VERTEX
  8
MY3DLAYER
10
0.298629347806189
20
2.49421072390723
30
1.77635683940025e-015
 70
     32
  0
VERTEX
  8
MY3DLAYER
10
0.308462066556645
20
2.47047244094488
30
1.77635683940025e-015
 70
     32
  0
VERTEX
  8
MY3DLAYER
10
0.308462066556645
20
2.47047244094488
30
-1.37795275590551
 70
     32
  0
VERTEX
  8
MY3DLAYER
10
0.298629347806189
20
2.49421072390723
30
-1.37795275590551
 70
     32
  0
VERTEX
  8
MY3DLAYER
10
0.298629347806189
20
2.49421072390723
30
1.77635683940025e-015
 70
     32
  0
SEQEND
  0
POLYLINE
 8
GROUP0
 66
     1
70
    8
 10
0.0
 20
 0.0
 30
0.0
  0
VERTEX
  8
MY3DLAYER
10
0.308462066556645
20
2.47047244094488
30
1.77635683940025e-015
 70
     32
  0
VERTEX
  8
MY3DLAYER
10
0.324103663269036
20
2.45008791523754
30
1.77635683940025e-015
 70
     32
  0
VERTEX
  8
MY3DLAYER
10
0.324103663269036
20
2.45008791523754
30
-1.37795275590551
 70
     32
  0
VERTEX
  8
MY3DLAYER
10
0.308462066556645
20
2.47047244094488
30
-1.37795275590551
 70
     32
  0
VERTEX
  8
MY3DLAYER
10
0.308462066556645
20
2.47047244094488
30
1.77635683940025e-015
 70
     32
  0
SEQEND
  0
POLYLINE
 8
GROUP0
 66
     1
70
    8
 10
0.0
 20
 0.0
 30
0.0
  0
VERTEX
  8
MY3DLAYER
10
0.324103663269036
20
2.45008791523754
30
1.77635683940025e-015
 70
     32
  0
VERTEX
  8
MY3DLAYER
10
0.344488188976374
20
2.43444631852515
30
1.77635683940025e-015
 70
     32
  0
VERTEX
  8
MY3DLAYER
10
0.344488188976374
20
2.43444631852515
30
-1.37795275590551
 70
     32
  0
VERTEX
  8
MY3DLAYER
10
0.324103663269036
20
2.45008791523754
30
-1.37795275590551
 70
     32
  0
VERTEX
  8
MY3DLAYER
10
0.324103663269036
20
2.45008791523754
30
1.77635683940025e-015
 70
     32
  0
SEQEND
  0
POLYLINE
 8
GROUP0
 66
     1
70
    8
 10
0.0
 20
 0.0
 30
0.0
  0
VERTEX
  8
MY3DLAYER
10
0.344488188976374
20
2.43444631852515
30
1.77635683940025e-015
 70
     32
  0
VERTEX
  8
MY3DLAYER
10
0.368226471938724
20
2.4246135997747
30
1.77635683940025e-015
 70
     32
  0
VERTEX
  8
MY3DLAYER
10
0.368226471938724
20
2.4246135997747
30
-1.37795275590551
 70
     32
  0
VERTEX
  8
MY3DLAYER
10
0.344488188976374
20
2.43444631852515
30
-1.37795275590551
 70
     32
  0
VERTEX
  8
MY3DLAYER
10
0.344488188976374
20
2.43444631852515
30
1.77635683940025e-015
 70
     32
  0
SEQEND
  0
POLYLINE
 8
GROUP0
 66
     1
70
    8
 10
0.0
 20
 0.0
 30
0.0
  0
VERTEX
  8
MY3DLAYER
10
0.368226471938724
20
2.4246135997747
30
1.77635683940025e-015
 70
     32
  0
VERTEX
  8
MY3DLAYER
10
0.39370078740157
20
2.42125984251969
30
1.77635683940025e-015
 70
     32
  0
VERTEX
  8
MY3DLAYER
10
0.39370078740157
20
2.42125984251969
30
-1.37795275590551
 70
     32
  0
VERTEX
  8
MY3DLAYER
10
0.368226471938724
20
2.4246135997747
30
-1.37795275590551
 70
     32
  0
VERTEX
  8
MY3DLAYER
10
0.368226471938724
20
2.4246135997747
30
1.77635683940025e-015
 70
     32
  0
SEQEND
  0
POLYLINE
 8
GROUP0
 66
     1
70
    8
 10
0.0
 20
 0.0
 30
0.0
  0
VERTEX
  8
MY3DLAYER
10
0.34448818897638
20
0.4789395082465
30
1.33226762955019e-015
 70
     32
  0
VERTEX
  8
MY3DLAYER
10
0.324103663269043
20
0.46329791153411
30
1.33226762955019e-015
 70
     32
  0
VERTEX
  8
MY3DLAYER
10
0.324103663269043
20
0.46329791153411
30
-1.37795275590551
 70
     32
  0
VERTEX
  8
MY3DLAYER
10
0.34448818897638
20
0.4789395082465
30
-1.37795275590551
 70
     32
  0
VERTEX
  8
MY3DLAYER
10
0.34448818897638
20
0.4789395082465
30
1.33226762955019e-015
 70
     32
  0
SEQEND
  0
POLYLINE
 8
GROUP0
 66
     1
70
    8
 10
0.0
 20
 0.0
 30
0.0
  0
VERTEX
  8
MY3DLAYER
10
0.324103663269043
20
0.46329791153411
30
1.33226762955019e-015
 70
     32
  0
VERTEX
  8
MY3DLAYER
10
0.308462066556651
20
0.442913385826772
30
1.33226762955019e-015
 70
     32
  0
VERTEX
  8
MY3DLAYER
10
0.308462066556651
20
0.442913385826772
30
-1.37795275590551
 70
     32
  0
VERTEX
  8
MY3DLAYER
10
0.324103663269043
20
0.46329791153411
30
-1.37795275590551
 70
     32
  0
VERTEX
  8
MY3DLAYER
10
0.324103663269043
20
0.46329791153411
30
1.33226762955019e-015
 70
     32
  0
SEQEND
  0
POLYLINE
 8
GROUP0
 66
     1
70
    8
 10
0.0
 20
 0.0
 30
0.0
  0
VERTEX
  8
MY3DLAYER
10
0.308462066556651
20
0.442913385826772
30
1.33226762955019e-015
 70
     32
  0
VERTEX
  8
MY3DLAYER
10
0.298629347806196
20
0.419175102864422
30
1.33226762955019e-015
 70
     32
  0
VERTEX
  8
MY3DLAYER
10
0.298629347806196
20
0.419175102864422
30
-1.37795275590551
 70
     32
  0
VERTEX
  8
MY3DLAYER
10
0.308462066556651
20
0.442913385826772
30
-1.37795275590551
 70
     32
  0
VERTEX
  8
MY3DLAYER
10
0.308462066556651
20
0.442913385826772
30
1.33226762955019e-015
 70
     32
  0
SEQEND
  0
POLYLINE
 8
GROUP0
 66
     1
70
    8
 10
0.0
 20
 0.0
 30
0.0
  0
VERTEX
  8
MY3DLAYER
10
0.298629347806196
20
0.419175102864422
30
1.33226762955019e-015
 70
     32
  0
VERTEX
  8
MY3DLAYER
10
0.295275590551183
20
0.393700787401575
30
1.33226762955019e-015
 70
     32
  0
VERTEX
  8
MY3DLAYER
10
0.295275590551183
20
0.393700787401575
30
-1.37795275590551
 70
     32
  0
VERTEX
  8
MY3DLAYER
10
0.298629347806196
20
0.419175102864422
30
-1.37795275590551
 70
     32
  0
VERTEX
  8
MY3DLAYER
10
0.298629347806196
20
0.419175102864422
30
1.33226762955019e-015
 70
     32
  0
SEQEND
  0
POLYLINE
 8
GROUP0
 66
     1
70
    8
 10
0.0
 20
 0.0
 30
0.0
  0
VERTEX
  8
MY3DLAYER
10
0.295275590551183
20
0.393700787401575
30
1.33226762955019e-015
 70
     32
  0
VERTEX
  8
MY3DLAYER
10
0.298629347806196
20
0.368226471938729
30
1.33226762955019e-015
 70
     32
  0
VERTEX
  8
MY3DLAYER
10
0.298629347806196
20
0.368226471938729
30
-1.37795275590551
 70
     32
  0
VERTEX
  8
MY3DLAYER
10
0.295275590551183
20
0.393700787401575
30
-1.37795275590551
 70
     32
  0
VERTEX
  8
MY3DLAYER
10
0.295275590551183
20
0.393700787401575
30
1.33226762955019e-015
 70
     32
  0
SEQEND
  0
POLYLINE
 8
GROUP0
 66
     1
70
    8
 10
0.0
 20
 0.0
 30
0.0
  0
VERTEX
  8
MY3DLAYER
10
0.298629347806196
20
0.368226471938729
30
1.33226762955019e-015
 70
     32
  0
VERTEX
  8
MY3DLAYER
10
0.308462066556651
20
0.344488188976378
30
1.33226762955019e-015
 70
     32
  0
VERTEX
  8
MY3DLAYER
10
0.308462066556651
20
0.344488188976378
30
-1.37795275590551
 70
     32
  0
VERTEX
  8
MY3DLAYER
10
0.298629347806196
20
0.368226471938729
30
-1.37795275590551
 70
     32
  0
VERTEX
  8
MY3DLAYER
10
0.298629347806196
20
0.368226471938729
30
1.33226762955019e-015
 70
     32
  0
SEQEND
  0
POLYLINE
 8
GROUP0
 66
     1
70
    8
 10
0.0
 20
 0.0
 30
0.0
  0
VERTEX
  8
MY3DLAYER
10
0.308462066556651
20
0.344488188976378
30
1.33226762955019e-015
 70
     32
  0
VERTEX
  8
MY3DLAYER
10
0.324103663269043
20
0.324103663269041
30
1.33226762955019e-015
 70
     32
  0
VERTEX
  8
MY3DLAYER
10
0.324103663269043
20
0.324103663269041
30
-1.37795275590551
 70
     32
  0
VERTEX
  8
MY3DLAYER
10
0.308462066556651
20
0.344488188976378
30
-1.37795275590551
 70
     32
  0
VERTEX
  8
MY3DLAYER
10
0.308462066556651
20
0.344488188976378
30
1.33226762955019e-015
 70
     32
  0
SEQEND
  0
POLYLINE
 8
GROUP0
 66
     1
70
    8
 10
0.0
 20
 0.0
 30
0.0
  0
VERTEX
  8
MY3DLAYER
10
0.324103663269043
20
0.324103663269041
30
1.33226762955019e-015
 70
     32
  0
VERTEX
  8
MY3DLAYER
10
0.34448818897638
20
0.30846206655665
30
1.33226762955019e-015
 70
     32
  0
VERTEX
  8
MY3DLAYER
10
0.34448818897638
20
0.30846206655665
30
-1.37795275590551
 70
     32
  0
VERTEX
  8
MY3DLAYER
10
0.324103663269043
20
0.324103663269041
30
-1.37795275590551
 70
     32
  0
VERTEX
  8
MY3DLAYER
10
0.324103663269043
20
0.324103663269041
30
1.33226762955019e-015
 70
     32
  0
SEQEND
  0
POLYLINE
 8
GROUP0
 66
     1
70
    8
 10
0.0
 20
 0.0
 30
0.0
  0
VERTEX
  8
MY3DLAYER
10
0.34448818897638
20
0.30846206655665
30
1.33226762955019e-015
 70
     32
  0
VERTEX
  8
MY3DLAYER
10
0.36822647193873
20
0.298629347806195
30
1.33226762955019e-015
 70
     32
  0
VERTEX
  8
MY3DLAYER
10
0.36822647193873
20
0.298629347806195
30
-1.37795275590551
 70
     32
  0
VERTEX
  8
MY3DLAYER
10
0.34448818897638
20
0.30846206655665
30
-1.37795275590551
 70
     32
  0
VERTEX
  8
MY3DLAYER
10
0.34448818897638
20
0.30846206655665
30
1.33226762955019e-015
 70
     32
  0
SEQEND
  0
POLYLINE
 8
GROUP0
 66
     1
70
    8
 10
0.0
 20
 0.0
 30
0.0
  0
VERTEX
  8
MY3DLAYER
10
0.36822647193873
20
0.298629347806195
30
1.33226762955019e-015
 70
     32
  0
VERTEX
  8
MY3DLAYER
10
0.393700787401577
20
0.295275590551182
30
1.33226762955019e-015
 70
     32
  0
VERTEX
  8
MY3DLAYER
10
0.393700787401577
20
0.295275590551182
30
-1.37795275590551
 70
     32
  0
VERTEX
  8
MY3DLAYER
10
0.36822647193873
20
0.298629347806195
30
-1.37795275590551
 70
     32
  0
VERTEX
  8
MY3DLAYER
10
0.36822647193873
20
0.298629347806195
30
1.33226762955019e-015
 70
     32
  0
SEQEND
  0
POLYLINE
 8
GROUP0
 66
     1
70
    8
 10
0.0
 20
 0.0
 30
0.0
  0
VERTEX
  8
MY3DLAYER
10
0.393700787401577
20
0.295275590551182
30
1.33226762955019e-015
 70
     32
  0
VERTEX
  8
MY3DLAYER
10
0.419175102864423
20
0.298629347806195
30
1.33226762955019e-015
 70
     32
  0
VERTEX
  8
MY3DLAYER
10
0.419175102864423
20
0.298629347806195
30
-1.37795275590551
 70
     32
  0
VERTEX
  8
MY3DLAYER
10
0.393700787401577
20
0.295275590551182
30
-1.37795275590551
 70
     32
  0
VERTEX
  8
MY3DLAYER
10
0.393700787401577
20
0.295275590551182
30
1.33226762955019e-015
 70
     32
  0
SEQEND
  0
POLYLINE
 8
GROUP0
 66
     1
70
    8
 10
0.0
 20
 0.0
 30
0.0
  0
VERTEX
  8
MY3DLAYER
10
0.419175102864423
20
0.298629347806195
30
1.33226762955019e-015
 70
     32
  0
VERTEX
  8
MY3DLAYER
10
0.442913385826773
20
0.30846206655665
30
1.33226762955019e-015
 70
     32
  0
VERTEX
  8
MY3DLAYER
10
0.442913385826773
20
0.30846206655665
30
-1.37795275590551
 70
     32
  0
VERTEX
  8
MY3DLAYER
10
0.419175102864423
20
0.298629347806195
30
-1.37795275590551
 70
     32
  0
VERTEX
  8
MY3DLAYER
10
0.419175102864423
20
0.298629347806195
30
1.33226762955019e-015
 70
     32
  0
SEQEND
  0
POLYLINE
 8
GROUP0
 66
     1
70
    8
 10
0.0
 20
 0.0
 30
0.0
  0
VERTEX
  8
MY3DLAYER
10
0.442913385826773
20
0.30846206655665
30
1.33226762955019e-015
 70
     32
  0
VERTEX
  8
MY3DLAYER
10
0.46329791153411
20
0.324103663269041
30
1.33226762955019e-015
 70
     32
  0
VERTEX
  8
MY3DLAYER
10
0.46329791153411
20
0.324103663269041
30
-1.37795275590551
 70
     32
  0
VERTEX
  8
MY3DLAYER
10
0.442913385826773
20
0.30846206655665
30
-1.37795275590551
 70
     32
  0
VERTEX
  8
MY3DLAYER
10
0.442913385826773
20
0.30846206655665
30
1.33226762955019e-015
 70
     32
  0
SEQEND
  0
POLYLINE
 8
GROUP0
 66
     1
70
    8
 10
0.0
 20
 0.0
 30
0.0
  0
VERTEX
  8
MY3DLAYER
10
0.46329791153411
20
0.324103663269041
30
1.33226762955019e-015
 70
     32
  0
VERTEX
  8
MY3DLAYER
10
0.478939508246502
20
0.344488188976378
30
1.33226762955019e-015
 70
     32
  0
VERTEX
  8
MY3DLAYER
10
0.478939508246502
20
0.344488188976378
30
-1.37795275590551
 70
     32
  0
VERTEX
  8
MY3DLAYER
10
0.46329791153411
20
0.324103663269041
30
-1.37795275590551
 70
     32
  0
VERTEX
  8
MY3DLAYER
10
0.46329791153411
20
0.324103663269041
30
1.33226762955019e-015
 70
     32
  0
SEQEND
  0
POLYLINE
 8
GROUP0
 66
     1
70
    8
 10
0.0
 20
 0.0
 30
0.0
  0
VERTEX
  8
MY3DLAYER
10
0.478939508246502
20
0.344488188976378
30
1.33226762955019e-015
 70
     32
  0
VERTEX
  8
MY3DLAYER
10
0.488772226996957
20
0.368226471938729
30
1.33226762955019e-015
 70
     32
  0
VERTEX
  8
MY3DLAYER
10
0.488772226996957
20
0.368226471938729
30
-1.37795275590551
 70
     32
  0
VERTEX
  8
MY3DLAYER
10
0.478939508246502
20
0.344488188976378
30
-1.37795275590551
 70
     32
  0
VERTEX
  8
MY3DLAYER
10
0.478939508246502
20
0.344488188976378
30
1.33226762955019e-015
 70
     32
  0
SEQEND
  0
POLYLINE
 8
GROUP0
 66
     1
70
    8
 10
0.0
 20
 0.0
 30
0.0
  0
VERTEX
  8
MY3DLAYER
10
0.488772226996957
20
0.368226471938729
30
1.33226762955019e-015
 70
     32
  0
VERTEX
  8
MY3DLAYER
10
0.49212598425197
20
0.393700787401575
30
1.33226762955019e-015
 70
     32
  0
VERTEX
  8
MY3DLAYER
10
0.49212598425197
20
0.393700787401575
30
-1.37795275590551
 70
     32
  0
VERTEX
  8
MY3DLAYER
10
0.488772226996957
20
0.368226471938729
30
-1.37795275590551
 70
     32
  0
VERTEX
  8
MY3DLAYER
10
0.488772226996957
20
0.368226471938729
30
1.33226762955019e-015
 70
     32
  0
SEQEND
  0
POLYLINE
 8
GROUP0
 66
     1
70
    8
 10
0.0
 20
 0.0
 30
0.0
  0
VERTEX
  8
MY3DLAYER
10
0.49212598425197
20
0.393700787401575
30
1.33226762955019e-015
 70
     32
  0
VERTEX
  8
MY3DLAYER
10
0.488772226996957
20
0.419175102864422
30
1.33226762955019e-015
 70
     32
  0
VERTEX
  8
MY3DLAYER
10
0.488772226996957
20
0.419175102864422
30
-1.37795275590551
 70
     32
  0
VERTEX
  8
MY3DLAYER
10
0.49212598425197
20
0.393700787401575
30
-1.37795275590551
 70
     32
  0
VERTEX
  8
MY3DLAYER
10
0.49212598425197
20
0.393700787401575
30
1.33226762955019e-015
 70
     32
  0
SEQEND
  0
POLYLINE
 8
GROUP0
 66
     1
70
    8
 10
0.0
 20
 0.0
 30
0.0
  0
VERTEX
  8
MY3DLAYER
10
0.488772226996957
20
0.419175102864422
30
1.33226762955019e-015
 70
     32
  0
VERTEX
  8
MY3DLAYER
10
0.478939508246502
20
0.442913385826772
30
1.33226762955019e-015
 70
     32
  0
VERTEX
  8
MY3DLAYER
10
0.478939508246502
20
0.442913385826772
30
-1.37795275590551
 70
     32
  0
VERTEX
  8
MY3DLAYER
10
0.488772226996957
20
0.419175102864422
30
-1.37795275590551
 70
     32
  0
VERTEX
  8
MY3DLAYER
10
0.488772226996957
20
0.419175102864422
30
1.33226762955019e-015
 70
     32
  0
SEQEND
  0
POLYLINE
 8
GROUP0
 66
     1
70
    8
 10
0.0
 20
 0.0
 30
0.0
  0
VERTEX
  8
MY3DLAYER
10
0.478939508246502
20
0.442913385826772
30
1.33226762955019e-015
 70
     32
  0
VERTEX
  8
MY3DLAYER
10
0.46329791153411
20
0.46329791153411
30
1.33226762955019e-015
 70
     32
  0
VERTEX
  8
MY3DLAYER
10
0.46329791153411
20
0.46329791153411
30
-1.37795275590551
 70
     32
  0
VERTEX
  8
MY3DLAYER
10
0.478939508246502
20
0.442913385826772
30
-1.37795275590551
 70
     32
  0
VERTEX
  8
MY3DLAYER
10
0.478939508246502
20
0.442913385826772
30
1.33226762955019e-015
 70
     32
  0
SEQEND
  0
POLYLINE
 8
GROUP0
 66
     1
70
    8
 10
0.0
 20
 0.0
 30
0.0
  0
VERTEX
  8
MY3DLAYER
10
0.46329791153411
20
0.46329791153411
30
1.33226762955019e-015
 70
     32
  0
VERTEX
  8
MY3DLAYER
10
0.442913385826773
20
0.4789395082465
30
1.33226762955019e-015
 70
     32
  0
VERTEX
  8
MY3DLAYER
10
0.442913385826773
20
0.4789395082465
30
-1.37795275590551
 70
     32
  0
VERTEX
  8
MY3DLAYER
10
0.46329791153411
20
0.46329791153411
30
-1.37795275590551
 70
     32
  0
VERTEX
  8
MY3DLAYER
10
0.46329791153411
20
0.46329791153411
30
1.33226762955019e-015
 70
     32
  0
SEQEND
  0
POLYLINE
 8
GROUP0
 66
     1
70
    8
 10
0.0
 20
 0.0
 30
0.0
  0
VERTEX
  8
MY3DLAYER
10
0.442913385826773
20
0.4789395082465
30
1.33226762955019e-015
 70
     32
  0
VERTEX
  8
MY3DLAYER
10
0.419175102864423
20
0.488772226996956
30
1.33226762955019e-015
 70
     32
  0
VERTEX
  8
MY3DLAYER
10
0.419175102864423
20
0.488772226996956
30
-1.37795275590551
 70
     32
  0
VERTEX
  8
MY3DLAYER
10
0.442913385826773
20
0.4789395082465
30
-1.37795275590551
 70
     32
  0
VERTEX
  8
MY3DLAYER
10
0.442913385826773
20
0.4789395082465
30
1.33226762955019e-015
 70
     32
  0
SEQEND
  0
POLYLINE
 8
GROUP0
 66
     1
70
    8
 10
0.0
 20
 0.0
 30
0.0
  0
VERTEX
  8
MY3DLAYER
10
0.419175102864423
20
0.488772226996956
30
1.33226762955019e-015
 70
     32
  0
VERTEX
  8
MY3DLAYER
10
0.393700787401577
20
0.492125984251969
30
1.33226762955019e-015
 70
     32
  0
VERTEX
  8
MY3DLAYER
10
0.393700787401577
20
0.492125984251969
30
-1.37795275590551
 70
     32
  0
VERTEX
  8
MY3DLAYER
10
0.419175102864423
20
0.488772226996956
30
-1.37795275590551
 70
     32
  0
VERTEX
  8
MY3DLAYER
10
0.419175102864423
20
0.488772226996956
30
1.33226762955019e-015
 70
     32
  0
SEQEND
  0
POLYLINE
 8
GROUP0
 66
     1
70
    8
 10
0.0
 20
 0.0
 30
0.0
  0
VERTEX
  8
MY3DLAYER
10
0.393700787401577
20
0.492125984251969
30
1.33226762955019e-015
 70
     32
  0
VERTEX
  8
MY3DLAYER
10
0.36822647193873
20
0.488772226996956
30
1.33226762955019e-015
 70
     32
  0
VERTEX
  8
MY3DLAYER
10
0.36822647193873
20
0.488772226996956
30
-1.37795275590551
 70
     32
  0
VERTEX
  8
MY3DLAYER
10
0.393700787401577
20
0.492125984251969
30
-1.37795275590551
 70
     32
  0
VERTEX
  8
MY3DLAYER
10
0.393700787401577
20
0.492125984251969
30
1.33226762955019e-015
 70
     32
  0
SEQEND
  0
POLYLINE
 8
GROUP0
 66
     1
70
    8
 10
0.0
 20
 0.0
 30
0.0
  0
VERTEX
  8
MY3DLAYER
10
0.36822647193873
20
0.488772226996956
30
1.33226762955019e-015
 70
     32
  0
VERTEX
  8
MY3DLAYER
10
0.34448818897638
20
0.4789395082465
30
1.33226762955019e-015
 70
     32
  0
VERTEX
  8
MY3DLAYER
10
0.34448818897638
20
0.4789395082465
30
-1.37795275590551
 70
     32
  0
VERTEX
  8
MY3DLAYER
10
0.36822647193873
20
0.488772226996956
30
-1.37795275590551
 70
     32
  0
VERTEX
  8
MY3DLAYER
10
0.36822647193873
20
0.488772226996956
30
1.33226762955019e-015
 70
     32
  0
SEQEND
  0
POLYLINE
 8
GROUP0
 66
     1
70
    8
 10
0.0
 20
 0.0
 30
0.0
  0
VERTEX
  8
MY3DLAYER
10
1.8414304761601e-016
20
2.22044604925031e-015
30
-1.37795275590551
 70
     32
  0
VERTEX
  8
MY3DLAYER
10
-2.90224971996562e-016
20
2.91338582677166
30
-1.37795275590551
 70
     32
  0
VERTEX
  8
MY3DLAYER
10
1.18110236220471
20
2.91338582677166
30
-1.37795275590551
 70
     32
  0
VERTEX
  8
MY3DLAYER
10
1.18110236220471
20
2.12598425536589
30
-1.37795275590551
 70
     32
  0
VERTEX
  8
MY3DLAYER
10
0.984251968503937
20
2.12598425536589
30
-1.37795275590551
 70
     32
  0
VERTEX
  8
MY3DLAYER
10
0.984251968503937
20
0.787401574803152
30
-1.37795275590551
 70
     32
  0
VERTEX
  8
MY3DLAYER
10
2.34251968503937
20
0.787401574803152
30
-1.37795275590551
 70
     32
  0
VERTEX
  8
MY3DLAYER
10
2.34251968503937
20
2.22044604925031e-015
30
-1.37795275590551
 70
     32
  0
VERTEX
  8
MY3DLAYER
10
1.8414304761601e-016
20
2.22044604925031e-015
30
-1.37795275590551
 70
     32
  0
SEQEND
  0
POLYLINE
 8
GROUP0
 66
     1
70
    8
 10
0.0
 20
 0.0
 30
0.0
  0
VERTEX
  8
MY3DLAYER
10
0.488772226996957
20
0.368226471938729
30
-1.37795275590551
 70
     32
  0
VERTEX
  8
MY3DLAYER
10
0.49212598425197
20
0.393700787401575
30
-1.37795275590551
 70
     32
  0
VERTEX
  8
MY3DLAYER
10
0.488772226996957
20
0.419175102864422
30
-1.37795275590551
 70
     32
  0
VERTEX
  8
MY3DLAYER
10
0.478939508246502
20
0.442913385826772
30
-1.37795275590551
 70
     32
  0
VERTEX
  8
MY3DLAYER
10
0.46329791153411
20
0.46329791153411
30
-1.37795275590551
 70
     32
  0
VERTEX
  8
MY3DLAYER
10
0.442913385826773
20
0.4789395082465
30
-1.37795275590551
 70
     32
  0
VERTEX
  8
MY3DLAYER
10
0.419175102864423
20
0.488772226996956
30
-1.37795275590551
 70
     32
  0
VERTEX
  8
MY3DLAYER
10
0.393700787401577
20
0.492125984251969
30
-1.37795275590551
 70
     32
  0
VERTEX
  8
MY3DLAYER
10
0.36822647193873
20
0.488772226996956
30
-1.37795275590551
 70
     32
  0
VERTEX
  8
MY3DLAYER
10
0.34448818897638
20
0.4789395082465
30
-1.37795275590551
 70
     32
  0
VERTEX
  8
MY3DLAYER
10
0.324103663269043
20
0.46329791153411
30
-1.37795275590551
 70
     32
  0
VERTEX
  8
MY3DLAYER
10
0.308462066556651
20
0.442913385826772
30
-1.37795275590551
 70
     32
  0
VERTEX
  8
MY3DLAYER
10
0.298629347806196
20
0.419175102864422
30
-1.37795275590551
 70
     32
  0
VERTEX
  8
MY3DLAYER
10
0.295275590551183
20
0.393700787401575
30
-1.37795275590551
 70
     32
  0
VERTEX
  8
MY3DLAYER
10
0.298629347806196
20
0.368226471938729
30
-1.37795275590551
 70
     32
  0
VERTEX
  8
MY3DLAYER
10
0.308462066556651
20
0.344488188976378
30
-1.37795275590551
 70
     32
  0
VERTEX
  8
MY3DLAYER
10
0.324103663269043
20
0.324103663269041
30
-1.37795275590551
 70
     32
  0
VERTEX
  8
MY3DLAYER
10
0.34448818897638
20
0.30846206655665
30
-1.37795275590551
 70
     32
  0
VERTEX
  8
MY3DLAYER
10
0.36822647193873
20
0.298629347806195
30
-1.37795275590551
 70
     32
  0
VERTEX
  8
MY3DLAYER
10
0.393700787401577
20
0.295275590551182
30
-1.37795275590551
 70
     32
  0
VERTEX
  8
MY3DLAYER
10
0.419175102864423
20
0.298629347806195
30
-1.37795275590551
 70
     32
  0
VERTEX
  8
MY3DLAYER
10
0.442913385826773
20
0.30846206655665
30
-1.37795275590551
 70
     32
  0
VERTEX
  8
MY3DLAYER
10
0.46329791153411
20
0.324103663269041
30
-1.37795275590551
 70
     32
  0
VERTEX
  8
MY3DLAYER
10
0.478939508246502
20
0.344488188976378
30
-1.37795275590551
 70
     32
  0
VERTEX
  8
MY3DLAYER
10
0.488772226996957
20
0.368226471938729
30
-1.37795275590551
 70
     32
  0
SEQEND
  0
POLYLINE
 8
GROUP0
 66
     1
70
    8
 10
0.0
 20
 0.0
 30
0.0
  0
VERTEX
  8
MY3DLAYER
10
0.344488188976374
20
2.60492376021501
30
-1.37795275590551
 70
     32
  0
VERTEX
  8
MY3DLAYER
10
0.324103663269036
20
2.58928216350261
30
-1.37795275590551
 70
     32
  0
VERTEX
  8
MY3DLAYER
10
0.308462066556645
20
2.56889763779528
30
-1.37795275590551
 70
     32
  0
VERTEX
  8
MY3DLAYER
10
0.298629347806189
20
2.54515935483293
30
-1.37795275590551
 70
     32
  0
VERTEX
  8
MY3DLAYER
10
0.295275590551176
20
2.51968503937008
30
-1.37795275590551
 70
     32
  0
VERTEX
  8
MY3DLAYER
10
0.298629347806189
20
2.49421072390723
30
-1.37795275590551
 70
     32
  0
VERTEX
  8
MY3DLAYER
10
0.308462066556645
20
2.47047244094488
30
-1.37795275590551
 70
     32
  0
VERTEX
  8
MY3DLAYER
10
0.324103663269036
20
2.45008791523754
30
-1.37795275590551
 70
     32
  0
VERTEX
  8
MY3DLAYER
10
0.344488188976374
20
2.43444631852515
30
-1.37795275590551
 70
     32
  0
VERTEX
  8
MY3DLAYER
10
0.368226471938724
20
2.4246135997747
30
-1.37795275590551
 70
     32
  0
VERTEX
  8
MY3DLAYER
10
0.39370078740157
20
2.42125984251969
30
-1.37795275590551
 70
     32
  0
VERTEX
  8
MY3DLAYER
10
0.419175102864417
20
2.4246135997747
30
-1.37795275590551
 70
     32
  0
VERTEX
  8
MY3DLAYER
10
0.442913385826767
20
2.43444631852515
30
-1.37795275590551
 70
     32
  0
VERTEX
  8
MY3DLAYER
10
0.463297911534104
20
2.45008791523754
30
-1.37795275590551
 70
     32
  0
VERTEX
  8
MY3DLAYER
10
0.478939508246495
20
2.47047244094488
30
-1.37795275590551
 70
     32
  0
VERTEX
  8
MY3DLAYER
10
0.488772226996951
20
2.49421072390723
30
-1.37795275590551
 70
     32
  0
VERTEX
  8
MY3DLAYER
10
0.492125984251964
20
2.51968503937008
30
-1.37795275590551
 70
     32
  0
VERTEX
  8
MY3DLAYER
10
0.488772226996951
20
2.54515935483293
30
-1.37795275590551
 70
     32
  0
VERTEX
  8
MY3DLAYER
10
0.478939508246495
20
2.56889763779528
30
-1.37795275590551
 70
     32
  0
VERTEX
  8
MY3DLAYER
10
0.463297911534104
20
2.58928216350261
30
-1.37795275590551
 70
     32
  0
VERTEX
  8
MY3DLAYER
10
0.442913385826767
20
2.60492376021501
30
-1.37795275590551
 70
     32
  0
VERTEX
  8
MY3DLAYER
10
0.419175102864417
20
2.61475647896546
30
-1.37795275590551
 70
     32
  0
VERTEX
  8
MY3DLAYER
10
0.39370078740157
20
2.61811023622047
30
-1.37795275590551
 70
     32
  0
VERTEX
  8
MY3DLAYER
10
0.368226471938724
20
2.61475647896546
30
-1.37795275590551
 70
     32
  0
VERTEX
  8
MY3DLAYER
10
0.344488188976374
20
2.60492376021501
30
-1.37795275590551
 70
     32
  0
SEQEND
  0
POLYLINE
 8
GROUP0
 66
     1
70
    8
 10
0.0
 20
 0.0
 30
0.0
  0
VERTEX
  8
MY3DLAYER
10
2.34251968503937
20
0.787401574803151
30
2.22044604925031e-015
 70
     32
  0
VERTEX
  8
MY3DLAYER
10
0.196850393700787
20
0.787401574803151
30
1.77635683940025e-015
 70
     32
  0
VERTEX
  8
MY3DLAYER
10
0.196850393700787
20
2.12598425536589
30
1.33226762955019e-015
 70
     32
  0
VERTEX
  8
MY3DLAYER
10
1.18110236220471
20
2.12598425536589
30
1.77635683940025e-015
 70
     32
  0
VERTEX
  8
MY3DLAYER
10
1.18110236220471
20
2.91338582677166
30
2.22044604925031e-015
 70
     32
  0
VERTEX
  8
MY3DLAYER
10
-2.90224971996562e-016
20
2.91338582677166
30
2.22044604925031e-015
 70
     32
  0
VERTEX
  8
MY3DLAYER
10
1.8414304761601e-016
20
4.44089209850063e-016
30
4.44089209850063e-016
 70
     32
  0
VERTEX
  8
MY3DLAYER
10
2.34251968503937
20
4.44089209850063e-016
30
4.44089209850063e-016
 70
     32
  0
VERTEX
  8
MY3DLAYER
10
2.34251968503937
20
0.787401574803151
30
2.22044604925031e-015
 70
     32
  0
SEQEND
  0
POLYLINE
 8
GROUP0
 66
     1
70
    8
 10
0.0
 20
 0.0
 30
0.0
  0
VERTEX
  8
MY3DLAYER
10
0.308462066556651
20
0.344488188976378
30
1.33226762955019e-015
 70
     32
  0
VERTEX
  8
MY3DLAYER
10
0.298629347806196
20
0.368226471938729
30
1.33226762955019e-015
 70
     32
  0
VERTEX
  8
MY3DLAYER
10
0.295275590551183
20
0.393700787401575
30
1.33226762955019e-015
 70
     32
  0
VERTEX
  8
MY3DLAYER
10
0.298629347806196
20
0.419175102864422
30
1.33226762955019e-015
 70
     32
  0
VERTEX
  8
MY3DLAYER
10
0.308462066556651
20
0.442913385826772
30
1.33226762955019e-015
 70
     32
  0
VERTEX
  8
MY3DLAYER
10
0.324103663269043
20
0.46329791153411
30
1.33226762955019e-015
 70
     32
  0
VERTEX
  8
MY3DLAYER
10
0.34448818897638
20
0.4789395082465
30
1.33226762955019e-015
 70
     32
  0
VERTEX
  8
MY3DLAYER
10
0.36822647193873
20
0.488772226996956
30
1.33226762955019e-015
 70
     32
  0
VERTEX
  8
MY3DLAYER
10
0.393700787401577
20
0.492125984251969
30
1.33226762955019e-015
 70
     32
  0
VERTEX
  8
MY3DLAYER
10
0.419175102864423
20
0.488772226996956
30
1.33226762955019e-015
 70
     32
  0
VERTEX
  8
MY3DLAYER
10
0.442913385826773
20
0.4789395082465
30
1.33226762955019e-015
 70
     32
  0
VERTEX
  8
MY3DLAYER
10
0.46329791153411
20
0.46329791153411
30
1.33226762955019e-015
 70
     32
  0
VERTEX
  8
MY3DLAYER
10
0.478939508246502
20
0.442913385826772
30
1.33226762955019e-015
 70
     32
  0
VERTEX
  8
MY3DLAYER
10
0.488772226996957
20
0.419175102864422
30
1.33226762955019e-015
 70
     32
  0
VERTEX
  8
MY3DLAYER
10
0.49212598425197
20
0.393700787401575
30
1.33226762955019e-015
 70
     32
  0
VERTEX
  8
MY3DLAYER
10
0.488772226996957
20
0.368226471938729
30
1.33226762955019e-015
 70
     32
  0
VERTEX
  8
MY3DLAYER
10
0.478939508246502
20
0.344488188976378
30
1.33226762955019e-015
 70
     32
  0
VERTEX
  8
MY3DLAYER
10
0.46329791153411
20
0.324103663269041
30
1.33226762955019e-015
 70
     32
  0
VERTEX
  8
MY3DLAYER
10
0.442913385826773
20
0.30846206655665
30
1.33226762955019e-015
 70
     32
  0
VERTEX
  8
MY3DLAYER
10
0.419175102864423
20
0.298629347806195
30
1.33226762955019e-015
 70
     32
  0
VERTEX
  8
MY3DLAYER
10
0.393700787401577
20
0.295275590551182
30
1.33226762955019e-015
 70
     32
  0
VERTEX
  8
MY3DLAYER
10
0.36822647193873
20
0.298629347806195
30
1.33226762955019e-015
 70
     32
  0
VERTEX
  8
MY3DLAYER
10
0.34448818897638
20
0.30846206655665
30
1.33226762955019e-015
 70
     32
  0
VERTEX
  8
MY3DLAYER
10
0.324103663269043
20
0.324103663269041
30
1.33226762955019e-015
 70
     32
  0
VERTEX
  8
MY3DLAYER
10
0.308462066556651
20
0.344488188976378
30
1.33226762955019e-015
 70
     32
  0
SEQEND
  0
POLYLINE
 8
GROUP0
 66
     1
70
    8
 10
0.0
 20
 0.0
 30
0.0
  0
VERTEX
  8
MY3DLAYER
10
0.298629347806189
20
2.49421072390723
30
1.77635683940025e-015
 70
     32
  0
VERTEX
  8
MY3DLAYER
10
0.295275590551176
20
2.51968503937008
30
1.77635683940025e-015
 70
     32
  0
VERTEX
  8
MY3DLAYER
10
0.298629347806189
20
2.54515935483293
30
1.77635683940025e-015
 70
     32
  0
VERTEX
  8
MY3DLAYER
10
0.308462066556645
20
2.56889763779528
30
1.77635683940025e-015
 70
     32
  0
VERTEX
  8
MY3DLAYER
10
0.324103663269036
20
2.58928216350261
30
1.77635683940025e-015
 70
     32
  0
VERTEX
  8
MY3DLAYER
10
0.344488188976374
20
2.60492376021501
30
1.77635683940025e-015
 70
     32
  0
VERTEX
  8
MY3DLAYER
10
0.368226471938724
20
2.61475647896546
30
1.77635683940025e-015
 70
     32
  0
VERTEX
  8
MY3DLAYER
10
0.39370078740157
20
2.61811023622047
30
1.77635683940025e-015
 70
     32
  0
VERTEX
  8
MY3DLAYER
10
0.419175102864417
20
2.61475647896546
30
1.77635683940025e-015
 70
     32
  0
VERTEX
  8
MY3DLAYER
10
0.442913385826767
20
2.60492376021501
30
1.77635683940025e-015
 70
     32
  0
VERTEX
  8
MY3DLAYER
10
0.463297911534104
20
2.58928216350261
30
1.77635683940025e-015
 70
     32
  0
VERTEX
  8
MY3DLAYER
10
0.478939508246495
20
2.56889763779528
30
1.77635683940025e-015
 70
     32
  0
VERTEX
  8
MY3DLAYER
10
0.488772226996951
20
2.54515935483293
30
1.77635683940025e-015
 70
     32
  0
VERTEX
  8
MY3DLAYER
10
0.492125984251964
20
2.51968503937008
30
1.77635683940025e-015
 70
     32
  0
VERTEX
  8
MY3DLAYER
10
0.488772226996951
20
2.49421072390723
30
1.77635683940025e-015
 70
     32
  0
VERTEX
  8
MY3DLAYER
10
0.478939508246495
20
2.47047244094488
30
1.77635683940025e-015
 70
     32
  0
VERTEX
  8
MY3DLAYER
10
0.463297911534104
20
2.45008791523754
30
1.77635683940025e-015
 70
     32
  0
VERTEX
  8
MY3DLAYER
10
0.442913385826767
20
2.43444631852515
30
1.77635683940025e-015
 70
     32
  0
VERTEX
  8
MY3DLAYER
10
0.419175102864417
20
2.4246135997747
30
1.77635683940025e-015
 70
     32
  0
VERTEX
  8
MY3DLAYER
10
0.39370078740157
20
2.42125984251969
30
1.77635683940025e-015
 70
     32
  0
VERTEX
  8
MY3DLAYER
10
0.368226471938724
20
2.4246135997747
30
1.77635683940025e-015
 70
     32
  0
VERTEX
  8
MY3DLAYER
10
0.344488188976374
20
2.43444631852515
30
1.77635683940025e-015
 70
     32
  0
VERTEX
  8
MY3DLAYER
10
0.324103663269036
20
2.45008791523754
30
1.77635683940025e-015
 70
     32
  0
VERTEX
  8
MY3DLAYER
10
0.308462066556645
20
2.47047244094488
30
1.77635683940025e-015
 70
     32
  0
VERTEX
  8
MY3DLAYER
10
0.298629347806189
20
2.49421072390723
30
1.77635683940025e-015
 70
     32
  0
SEQEND
 0
ENDSEC
 0
EOF
